ISO-10303-21;
HEADER;
/****************************************************************
 * Generated by software with PDE/Lib inside                    *
 * PDElib Version v51a, created Thu 12/14/2006                  *
 * International Technegroup Inc. (www.iti-oh.com)              *
 ****************************************************************/
FILE_DESCRIPTION((''),'2;1');
FILE_NAME('D:\\THANG\\2018\\YouTube\\2F\\10FlushSlideDoor\\AssMovPanel.stp','2018-03-07T21:06:13',('Administrator'),(''),'Autodesk Inventor 2008','Autodesk Inventor 2008','');
FILE_SCHEMA(('AUTOMOTIVE_DESIGN { 1 0 10303 214 1 1 1 1 }'));
ENDSEC;
DATA;
#5=APPLICATION_CONTEXT('automotive design');
#6=APPLICATION_PROTOCOL_DEFINITION('International Standard','automotive_design',2001,#5);
#7=PRODUCT_CONTEXT('',#5,'mechanical');
#8=PRODUCT('AssMovPanel','AssMovPanel',$,(#7));
#9=PRODUCT_RELATED_PRODUCT_CATEGORY('part',$,(#8));
#10=PRODUCT_DEFINITION_FORMATION('',$,#8);
#11=PRODUCT_DEFINITION_CONTEXT('part definition',#5,'design');
#12=PRODUCT_DEFINITION('',$,#10,#11);
#18=(NAMED_UNIT(*)PLANE_ANGLE_UNIT()SI_UNIT($,.RADIAN.));
#19=DIMENSIONAL_EXPONENTS(0.0,0.0,0.0,0.0,0.0,0.0,0.0);
#20=PLANE_ANGLE_MEASURE_WITH_UNIT(PLANE_ANGLE_MEASURE(0.017453292500000),#18);
#24=(CONVERSION_BASED_UNIT('DEGREE',#20)NAMED_UNIT(#19)PLANE_ANGLE_UNIT());
#28=(NAMED_UNIT(*)SI_UNIT($,.STERADIAN.)SOLID_ANGLE_UNIT());
#32=(LENGTH_UNIT()NAMED_UNIT(*)SI_UNIT(.MILLI.,.METRE.));
#34=UNCERTAINTY_MEASURE_WITH_UNIT(LENGTH_MEASURE(0.010000000000000),#32,'DISTANCE_ACCURACY_VALUE','');
#36=(GEOMETRIC_REPRESENTATION_CONTEXT(3)GLOBAL_UNCERTAINTY_ASSIGNED_CONTEXT((#34))GLOBAL_UNIT_ASSIGNED_CONTEXT((#24,#28,#32))REPRESENTATION_CONTEXT('None','None'));
#37=AXIS2_PLACEMENT_3D('',#38,#39,#40);
#38=CARTESIAN_POINT('',(0.0,0.0,0.0));
#39=DIRECTION('',(0.0,0.0,1.0));
#40=DIRECTION('',(1.0,0.0,0.0));
#41=SHAPE_REPRESENTATION('',(#37,#346,#740,#1134),#36);
#42=PRODUCT_DEFINITION_SHAPE('','',#12);
#43=SHAPE_DEFINITION_REPRESENTATION(#42,#41);
#44=APPLICATION_CONTEXT('automotive design');
#45=APPLICATION_PROTOCOL_DEFINITION('International Standard','automotive_design',2001,#44);
#46=PRODUCT_CONTEXT('',#44,'mechanical');
#47=PRODUCT('MovingPanel','MovingPanel',$,(#46));
#48=PRODUCT_RELATED_PRODUCT_CATEGORY('part',$,(#47));
#49=PRODUCT_DEFINITION_FORMATION('',$,#47);
#50=PRODUCT_DEFINITION_CONTEXT('part definition',#44,'design');
#51=PRODUCT_DEFINITION('',$,#49,#50);
#57=(NAMED_UNIT(*)PLANE_ANGLE_UNIT()SI_UNIT($,.RADIAN.));
#58=DIMENSIONAL_EXPONENTS(0.0,0.0,0.0,0.0,0.0,0.0,0.0);
#59=PLANE_ANGLE_MEASURE_WITH_UNIT(PLANE_ANGLE_MEASURE(0.017453292500000),#57);
#63=(CONVERSION_BASED_UNIT('DEGREE',#59)NAMED_UNIT(#58)PLANE_ANGLE_UNIT());
#67=(NAMED_UNIT(*)SI_UNIT($,.STERADIAN.)SOLID_ANGLE_UNIT());
#71=(LENGTH_UNIT()NAMED_UNIT(*)SI_UNIT(.MILLI.,.METRE.));
#73=UNCERTAINTY_MEASURE_WITH_UNIT(LENGTH_MEASURE(0.010000000000000),#71,'DISTANCE_ACCURACY_VALUE','');
#75=(GEOMETRIC_REPRESENTATION_CONTEXT(3)GLOBAL_UNCERTAINTY_ASSIGNED_CONTEXT((#73))GLOBAL_UNIT_ASSIGNED_CONTEXT((#63,#67,#71))REPRESENTATION_CONTEXT('None','None'));
#76=AXIS2_PLACEMENT_3D('',#77,#78,#79);
#77=CARTESIAN_POINT('',(0.0,0.0,0.0));
#78=DIRECTION('',(0.0,0.0,1.0));
#79=DIRECTION('',(1.0,0.0,0.0));
#80=SHAPE_REPRESENTATION('',(#76),#75);
#81=PRODUCT_DEFINITION_SHAPE('','',#51);
#82=SHAPE_DEFINITION_REPRESENTATION(#81,#80);
#88=(NAMED_UNIT(*)PLANE_ANGLE_UNIT()SI_UNIT($,.RADIAN.));
#89=DIMENSIONAL_EXPONENTS(0.0,0.0,0.0,0.0,0.0,0.0,0.0);
#90=PLANE_ANGLE_MEASURE_WITH_UNIT(PLANE_ANGLE_MEASURE(0.017453292500000),#88);
#94=(CONVERSION_BASED_UNIT('DEGREE',#90)NAMED_UNIT(#89)PLANE_ANGLE_UNIT());
#98=(NAMED_UNIT(*)SI_UNIT($,.STERADIAN.)SOLID_ANGLE_UNIT());
#102=(LENGTH_UNIT()NAMED_UNIT(*)SI_UNIT(.MILLI.,.METRE.));
#104=UNCERTAINTY_MEASURE_WITH_UNIT(LENGTH_MEASURE(0.000001000000000),#102,'DISTANCE_ACCURACY_VALUE','');
#106=(GEOMETRIC_REPRESENTATION_CONTEXT(3)GLOBAL_UNCERTAINTY_ASSIGNED_CONTEXT((#104))GLOBAL_UNIT_ASSIGNED_CONTEXT((#94,#98,#102))REPRESENTATION_CONTEXT('','3D'));
#107=CARTESIAN_POINT('',(-1.071067811865482,-0.273117978704221,-426.000000000000110));
#108=DIRECTION('',(0.0,0.0,1.0));
#109=DIRECTION('',(1.0,0.0,0.0));
#110=AXIS2_PLACEMENT_3D('',#107,#108,#109);
#111=PLANE('',#110);
#112=CARTESIAN_POINT('',(172.0,-10.0,-426.000000000000110));
#113=VERTEX_POINT('',#112);
#114=CARTESIAN_POINT('',(172.0,10.0,-426.000000000000110));
#115=VERTEX_POINT('',#114);
#116=CARTESIAN_POINT('',(172.0,-10.0,-426.000000000000110));
#117=DIRECTION('',(0.0,1.0,0.0));
#118=VECTOR('',#117,20.0);
#119=LINE('',#116,#118);
#120=EDGE_CURVE('',#113,#115,#119,.T.);
#121=ORIENTED_EDGE('',*,*,#120,.F.);
#122=CARTESIAN_POINT('',(-180.0,-10.0,-426.000000000000110));
#123=VERTEX_POINT('',#122);
#124=CARTESIAN_POINT('',(-180.0,-10.0,-426.000000000000110));
#125=DIRECTION('',(1.0,0.0,0.0));
#126=VECTOR('',#125,352.0);
#127=LINE('',#124,#126);
#128=EDGE_CURVE('',#123,#113,#127,.T.);
#129=ORIENTED_EDGE('',*,*,#128,.F.);
#130=CARTESIAN_POINT('',(-160.0,10.0,-426.000000000000110));
#131=VERTEX_POINT('',#130);
#132=CARTESIAN_POINT('',(-160.0,10.0,-426.000000000000110));
#133=DIRECTION('',(-0.707106781186547,-0.707106781186547,0.0));
#134=VECTOR('',#133,28.284271247461902);
#135=LINE('',#132,#134);
#136=EDGE_CURVE('',#131,#123,#135,.T.);
#137=ORIENTED_EDGE('',*,*,#136,.F.);
#138=CARTESIAN_POINT('',(172.0,10.0,-426.000000000000110));
#139=DIRECTION('',(-1.0,0.0,0.0));
#140=VECTOR('',#139,332.0);
#141=LINE('',#138,#140);
#142=EDGE_CURVE('',#115,#131,#141,.T.);
#143=ORIENTED_EDGE('',*,*,#142,.F.);
#144=EDGE_LOOP('',(#121,#129,#137,#143));
#145=FACE_OUTER_BOUND('',#144,.T.);
#146=ADVANCED_FACE('',(#145),#111,.F.);
#147=CARTESIAN_POINT('',(172.0,0.0,-100.0));
#148=DIRECTION('',(1.0,0.0,0.0));
#149=DIRECTION('',(0.0,0.0,-1.0));
#150=AXIS2_PLACEMENT_3D('',#147,#148,#149);
#151=PLANE('',#150);
#152=CARTESIAN_POINT('',(172.0,-10.0,0.0));
#153=VERTEX_POINT('',#152);
#154=CARTESIAN_POINT('',(172.0,-10.0,-426.000000000000110));
#155=DIRECTION('',(0.0,0.0,1.0));
#156=VECTOR('',#155,426.000000000000110);
#157=LINE('',#154,#156);
#158=EDGE_CURVE('',#113,#153,#157,.T.);
#159=ORIENTED_EDGE('',*,*,#158,.F.);
#160=ORIENTED_EDGE('',*,*,#120,.T.);
#161=CARTESIAN_POINT('',(172.0,10.0,0.0));
#162=VERTEX_POINT('',#161);
#163=CARTESIAN_POINT('',(172.0,10.0,0.0));
#164=DIRECTION('',(0.0,0.0,-1.0));
#165=VECTOR('',#164,426.000000000000110);
#166=LINE('',#163,#165);
#167=EDGE_CURVE('',#162,#115,#166,.T.);
#168=ORIENTED_EDGE('',*,*,#167,.F.);
#169=CARTESIAN_POINT('',(172.0,-10.0,0.0));
#170=DIRECTION('',(0.0,1.0,0.0));
#171=VECTOR('',#170,20.0);
#172=LINE('',#169,#171);
#173=EDGE_CURVE('',#153,#162,#172,.T.);
#174=ORIENTED_EDGE('',*,*,#173,.F.);
#175=EDGE_LOOP('',(#159,#160,#168,#174));
#176=FACE_OUTER_BOUND('',#175,.T.);
#177=ADVANCED_FACE('',(#176),#151,.T.);
#178=CARTESIAN_POINT('',(135.0,25.0,-180.0));
#179=DIRECTION('',(-1.0,0.0,0.0));
#180=DIRECTION('',(0.0,0.0,1.0));
#181=AXIS2_PLACEMENT_3D('',#178,#179,#180);
#182=PLANE('',#181);
#183=CARTESIAN_POINT('',(135.0,10.0,-166.771243444677030));
#184=VERTEX_POINT('',#183);
#185=CARTESIAN_POINT('',(135.0,10.0,-193.228756555322970));
#186=VERTEX_POINT('',#185);
#187=CARTESIAN_POINT('',(135.0,10.0,-166.771243444677030));
#188=DIRECTION('',(0.0,0.0,-1.0));
#189=VECTOR('',#188,26.457513110645948);
#190=LINE('',#187,#189);
#191=EDGE_CURVE('',#184,#186,#190,.T.);
#192=ORIENTED_EDGE('',*,*,#191,.F.);
#193=CARTESIAN_POINT('',(135.0,25.0,-180.0));
#194=DIRECTION('',(1.0,0.0,0.0));
#195=DIRECTION('',(0.0,0.0,1.0));
#196=AXIS2_PLACEMENT_3D('',#193,#194,#195);
#197=CIRCLE('',#196,20.0);
#198=EDGE_CURVE('',#184,#186,#197,.T.);
#199=ORIENTED_EDGE('',*,*,#198,.T.);
#200=EDGE_LOOP('',(#192,#199));
#201=FACE_OUTER_BOUND('',#200,.T.);
#202=ADVANCED_FACE('',(#201),#182,.F.);
#203=CARTESIAN_POINT('',(145.0,25.0,-180.0));
#204=DIRECTION('',(-1.0,0.0,0.0));
#205=DIRECTION('',(0.0,0.0,1.0));
#206=AXIS2_PLACEMENT_3D('',#203,#204,#205);
#207=PLANE('',#206);
#208=CARTESIAN_POINT('',(145.0,10.0,-193.228756555322970));
#209=VERTEX_POINT('',#208);
#210=CARTESIAN_POINT('',(145.0,10.0,-166.771243444677030));
#211=VERTEX_POINT('',#210);
#212=CARTESIAN_POINT('',(145.0,10.0,-193.228756555322970));
#213=DIRECTION('',(0.0,0.0,1.0));
#214=VECTOR('',#213,26.457513110645948);
#215=LINE('',#212,#214);
#216=EDGE_CURVE('',#209,#211,#215,.T.);
#217=ORIENTED_EDGE('',*,*,#216,.F.);
#218=CARTESIAN_POINT('',(145.0,25.0,-180.0));
#219=DIRECTION('',(-1.0,0.0,0.0));
#220=DIRECTION('',(0.0,0.0,1.0));
#221=AXIS2_PLACEMENT_3D('',#218,#219,#220);
#222=CIRCLE('',#221,20.0);
#223=EDGE_CURVE('',#209,#211,#222,.T.);
#224=ORIENTED_EDGE('',*,*,#223,.T.);
#225=EDGE_LOOP('',(#217,#224));
#226=FACE_OUTER_BOUND('',#225,.T.);
#227=ADVANCED_FACE('',(#226),#207,.T.);
#228=CARTESIAN_POINT('',(140.0,25.0,-180.0));
#229=DIRECTION('',(-1.0,0.0,0.0));
#230=DIRECTION('',(0.0,0.0,1.0));
#231=AXIS2_PLACEMENT_3D('',#228,#229,#230);
#232=CYLINDRICAL_SURFACE('',#231,20.0);
#233=CARTESIAN_POINT('',(145.0,10.0,-166.771243444677030));
#234=DIRECTION('',(-1.0,0.0,0.0));
#235=VECTOR('',#234,10.0);
#236=LINE('',#233,#235);
#237=EDGE_CURVE('',#211,#184,#236,.T.);
#238=ORIENTED_EDGE('',*,*,#237,.F.);
#239=ORIENTED_EDGE('',*,*,#223,.F.);
#240=CARTESIAN_POINT('',(135.0,10.0,-193.228756555322970));
#241=DIRECTION('',(1.0,0.0,0.0));
#242=VECTOR('',#241,10.0);
#243=LINE('',#240,#242);
#244=EDGE_CURVE('',#186,#209,#243,.T.);
#245=ORIENTED_EDGE('',*,*,#244,.F.);
#246=ORIENTED_EDGE('',*,*,#198,.F.);
#247=EDGE_LOOP('',(#238,#239,#245,#246));
#248=FACE_OUTER_BOUND('',#247,.T.);
#249=ADVANCED_FACE('',(#248),#232,.F.);
#250=CARTESIAN_POINT('',(-160.0,10.0,0.0));
#251=DIRECTION('',(-0.707106781186548,0.707106781186548,0.0));
#252=DIRECTION('',(0.0,0.0,1.0));
#253=AXIS2_PLACEMENT_3D('',#250,#251,#252);
#254=PLANE('',#253);
#255=CARTESIAN_POINT('',(-180.0,-10.0,0.0));
#256=VERTEX_POINT('',#255);
#257=CARTESIAN_POINT('',(-180.0,-10.0,0.0));
#258=DIRECTION('',(0.0,0.0,-1.0));
#259=VECTOR('',#258,426.000000000000110);
#260=LINE('',#257,#259);
#261=EDGE_CURVE('',#256,#123,#260,.T.);
#262=ORIENTED_EDGE('',*,*,#261,.F.);
#263=CARTESIAN_POINT('',(-160.0,10.0,0.0));
#264=VERTEX_POINT('',#263);
#265=CARTESIAN_POINT('',(-160.0,10.0,0.0));
#266=DIRECTION('',(-0.707106781186547,-0.707106781186547,0.0));
#267=VECTOR('',#266,28.284271247461902);
#268=LINE('',#265,#267);
#269=EDGE_CURVE('',#264,#256,#268,.T.);
#270=ORIENTED_EDGE('',*,*,#269,.F.);
#271=CARTESIAN_POINT('',(-160.0,10.0,0.0));
#272=DIRECTION('',(0.0,0.0,-1.0));
#273=VECTOR('',#272,426.000000000000110);
#274=LINE('',#271,#273);
#275=EDGE_CURVE('',#264,#131,#274,.T.);
#276=ORIENTED_EDGE('',*,*,#275,.T.);
#277=ORIENTED_EDGE('',*,*,#136,.T.);
#278=EDGE_LOOP('',(#262,#270,#276,#277));
#279=FACE_OUTER_BOUND('',#278,.T.);
#280=ADVANCED_FACE('',(#279),#254,.T.);
#281=CARTESIAN_POINT('',(160.0,10.0,0.0));
#282=DIRECTION('',(0.0,1.0,0.0));
#283=DIRECTION('',(0.0,0.0,1.0));
#284=AXIS2_PLACEMENT_3D('',#281,#282,#283);
#285=PLANE('',#284);
#286=ORIENTED_EDGE('',*,*,#275,.F.);
#287=CARTESIAN_POINT('',(172.0,10.0,0.0));
#288=DIRECTION('',(-1.0,0.0,0.0));
#289=VECTOR('',#288,332.0);
#290=LINE('',#287,#289);
#291=EDGE_CURVE('',#162,#264,#290,.T.);
#292=ORIENTED_EDGE('',*,*,#291,.F.);
#293=ORIENTED_EDGE('',*,*,#167,.T.);
#294=ORIENTED_EDGE('',*,*,#142,.T.);
#295=EDGE_LOOP('',(#286,#292,#293,#294));
#296=FACE_OUTER_BOUND('',#295,.T.);
#297=ORIENTED_EDGE('',*,*,#216,.T.);
#298=ORIENTED_EDGE('',*,*,#237,.T.);
#299=ORIENTED_EDGE('',*,*,#191,.T.);
#300=ORIENTED_EDGE('',*,*,#244,.T.);
#301=EDGE_LOOP('',(#297,#298,#299,#300));
#302=FACE_BOUND('',#301,.T.);
#303=ADVANCED_FACE('',(#296,#302),#285,.T.);
#304=CARTESIAN_POINT('',(-160.0,-10.0,0.0));
#305=DIRECTION('',(0.0,-1.0,0.0));
#306=DIRECTION('',(0.0,0.0,-1.0));
#307=AXIS2_PLACEMENT_3D('',#304,#305,#306);
#308=PLANE('',#307);
#309=ORIENTED_EDGE('',*,*,#158,.T.);
#310=CARTESIAN_POINT('',(-180.0,-10.0,0.0));
#311=DIRECTION('',(1.0,0.0,0.0));
#312=VECTOR('',#311,352.0);
#313=LINE('',#310,#312);
#314=EDGE_CURVE('',#256,#153,#313,.T.);
#315=ORIENTED_EDGE('',*,*,#314,.F.);
#316=ORIENTED_EDGE('',*,*,#261,.T.);
#317=ORIENTED_EDGE('',*,*,#128,.T.);
#318=EDGE_LOOP('',(#309,#315,#316,#317));
#319=FACE_OUTER_BOUND('',#318,.T.);
#320=ADVANCED_FACE('',(#319),#308,.T.);
#321=CARTESIAN_POINT('',(0.0,-1.781106E-017,0.0));
#322=DIRECTION('',(0.0,0.0,1.0));
#323=DIRECTION('',(1.0,0.0,0.0));
#324=AXIS2_PLACEMENT_3D('',#321,#322,#323);
#325=PLANE('',#324);
#326=ORIENTED_EDGE('',*,*,#314,.T.);
#327=ORIENTED_EDGE('',*,*,#173,.T.);
#328=ORIENTED_EDGE('',*,*,#291,.T.);
#329=ORIENTED_EDGE('',*,*,#269,.T.);
#330=EDGE_LOOP('',(#326,#327,#328,#329));
#331=FACE_OUTER_BOUND('',#330,.T.);
#332=ADVANCED_FACE('',(#331),#325,.T.);
#333=CLOSED_SHELL('',(#146,#177,#202,#227,#249,#280,#303,#320,#332));
#334=MANIFOLD_SOLID_BREP('',#333);
#335=COLOUR_RGB('Blue Pastel',0.682353019714355,0.807843029499054,0.749019980430603);
#336=FILL_AREA_STYLE_COLOUR('Blue Pastel',#335);
#337=FILL_AREA_STYLE('Blue Pastel',(#336));
#338=SURFACE_STYLE_FILL_AREA(#337);
#339=SURFACE_SIDE_STYLE('Blue Pastel',(#338));
#340=SURFACE_STYLE_USAGE(.BOTH.,#339);
#341=PRESENTATION_STYLE_ASSIGNMENT((#340));
#342=STYLED_ITEM('',(#341),#334);
#343=MECHANICAL_DESIGN_GEOMETRIC_PRESENTATION_REPRESENTATION('',(#342,#737,#1131),#36);
#344=ADVANCED_BREP_SHAPE_REPRESENTATION('ABSR',(#334),#75);
#345=SHAPE_REPRESENTATION_RELATIONSHIP('SRR','None',#344,#80);
#346=AXIS2_PLACEMENT_3D('',#347,#348,#349);
#347=CARTESIAN_POINT('',(200.487977868759570,30.000000000029210,-10.000000000000018));
#348=DIRECTION('',(6.123234E-017,-8.673617E-017,1.0));
#349=DIRECTION('',(0.999999999999998,1.182559E-016,-6.123234E-017));
#350=NEXT_ASSEMBLY_USAGE_OCCURRENCE('MovingPanel:1','MovingPanel:1','MovingPanel:1',#12,#51,'MovingPanel:1');
#351=PRODUCT_DEFINITION_SHAPE('MovingPanel:1','MovingPanel:1',#350);
#352=ITEM_DEFINED_TRANSFORMATION('MovingPanel:1','MovingPanel:1',#76,#346);
#356=(REPRESENTATION_RELATIONSHIP('MovingPanel:1','MovingPanel:1',#80,#41)REPRESENTATION_RELATIONSHIP_WITH_TRANSFORMATION(#352)SHAPE_REPRESENTATION_RELATIONSHIP());
#357=CONTEXT_DEPENDENT_SHAPE_REPRESENTATION(#356,#351);
#358=APPLICATION_CONTEXT('automotive design');
#359=APPLICATION_PROTOCOL_DEFINITION('International Standard','automotive_design',2001,#358);
#360=PRODUCT_CONTEXT('',#358,'mechanical');
#361=PRODUCT('Bracket2','Bracket2',$,(#360));
#362=PRODUCT_RELATED_PRODUCT_CATEGORY('part',$,(#361));
#363=PRODUCT_DEFINITION_FORMATION('',$,#361);
#364=PRODUCT_DEFINITION_CONTEXT('part definition',#358,'design');
#365=PRODUCT_DEFINITION('',$,#363,#364);
#371=(NAMED_UNIT(*)PLANE_ANGLE_UNIT()SI_UNIT($,.RADIAN.));
#372=DIMENSIONAL_EXPONENTS(0.0,0.0,0.0,0.0,0.0,0.0,0.0);
#373=PLANE_ANGLE_MEASURE_WITH_UNIT(PLANE_ANGLE_MEASURE(0.017453292500000),#371);
#377=(CONVERSION_BASED_UNIT('DEGREE',#373)NAMED_UNIT(#372)PLANE_ANGLE_UNIT());
#381=(NAMED_UNIT(*)SI_UNIT($,.STERADIAN.)SOLID_ANGLE_UNIT());
#385=(LENGTH_UNIT()NAMED_UNIT(*)SI_UNIT(.MILLI.,.METRE.));
#387=UNCERTAINTY_MEASURE_WITH_UNIT(LENGTH_MEASURE(0.010000000000000),#385,'DISTANCE_ACCURACY_VALUE','');
#389=(GEOMETRIC_REPRESENTATION_CONTEXT(3)GLOBAL_UNCERTAINTY_ASSIGNED_CONTEXT((#387))GLOBAL_UNIT_ASSIGNED_CONTEXT((#377,#381,#385))REPRESENTATION_CONTEXT('None','None'));
#390=AXIS2_PLACEMENT_3D('',#391,#392,#393);
#391=CARTESIAN_POINT('',(0.0,0.0,0.0));
#392=DIRECTION('',(0.0,0.0,1.0));
#393=DIRECTION('',(1.0,0.0,0.0));
#394=SHAPE_REPRESENTATION('',(#390),#389);
#395=PRODUCT_DEFINITION_SHAPE('','',#365);
#396=SHAPE_DEFINITION_REPRESENTATION(#395,#394);
#402=(NAMED_UNIT(*)PLANE_ANGLE_UNIT()SI_UNIT($,.RADIAN.));
#403=DIMENSIONAL_EXPONENTS(0.0,0.0,0.0,0.0,0.0,0.0,0.0);
#404=PLANE_ANGLE_MEASURE_WITH_UNIT(PLANE_ANGLE_MEASURE(0.017453292500000),#402);
#408=(CONVERSION_BASED_UNIT('DEGREE',#404)NAMED_UNIT(#403)PLANE_ANGLE_UNIT());
#412=(NAMED_UNIT(*)SI_UNIT($,.STERADIAN.)SOLID_ANGLE_UNIT());
#416=(LENGTH_UNIT()NAMED_UNIT(*)SI_UNIT(.MILLI.,.METRE.));
#418=UNCERTAINTY_MEASURE_WITH_UNIT(LENGTH_MEASURE(0.000001000000000),#416,'DISTANCE_ACCURACY_VALUE','');
#420=(GEOMETRIC_REPRESENTATION_CONTEXT(3)GLOBAL_UNCERTAINTY_ASSIGNED_CONTEXT((#418))GLOBAL_UNIT_ASSIGNED_CONTEXT((#408,#412,#416))REPRESENTATION_CONTEXT('','3D'));
#421=CARTESIAN_POINT('',(-57.500000000000000,-2.737500000000012,-7.500000000000000));
#422=DIRECTION('',(-0.707106781186548,0.0,-0.707106781186548));
#423=DIRECTION('',(-0.707106781186548,0.0,0.707106781186548));
#424=AXIS2_PLACEMENT_3D('',#421,#422,#423);
#425=PLANE('',#424);
#426=CARTESIAN_POINT('',(-55.0,-2.000000000000016,-10.0));
#427=VERTEX_POINT('',#426);
#428=CARTESIAN_POINT('',(-60.0,-2.000000000000017,-5.0));
#429=VERTEX_POINT('',#428);
#430=CARTESIAN_POINT('',(-55.0,-2.000000000000016,-10.0));
#431=DIRECTION('',(-0.707106781186547,-1.884111E-016,0.707106781186547));
#432=VECTOR('',#431,7.071067811865476);
#433=LINE('',#430,#432);
#434=EDGE_CURVE('',#427,#429,#433,.T.);
#435=ORIENTED_EDGE('',*,*,#434,.T.);
#436=CARTESIAN_POINT('',(-60.0,-2.364875E-014,-5.0));
#437=VERTEX_POINT('',#436);
#438=CARTESIAN_POINT('',(-60.0,-2.000000000000017,-5.0));
#439=DIRECTION('',(0.0,1.0,0.0));
#440=VECTOR('',#439,1.999999999999993);
#441=LINE('',#438,#440);
#442=EDGE_CURVE('',#429,#437,#441,.T.);
#443=ORIENTED_EDGE('',*,*,#442,.T.);
#444=CARTESIAN_POINT('',(-55.0,-2.167802E-014,-10.0));
#445=VERTEX_POINT('',#444);
#446=CARTESIAN_POINT('',(-60.0,-2.364875E-014,-5.0));
#447=DIRECTION('',(0.707106781186547,2.787032E-016,-0.707106781186547));
#448=VECTOR('',#447,7.071067811865476);
#449=LINE('',#446,#448);
#450=EDGE_CURVE('',#437,#445,#449,.T.);
#451=ORIENTED_EDGE('',*,*,#450,.T.);
#452=CARTESIAN_POINT('',(-55.0,-2.167802E-014,-10.0));
#453=DIRECTION('',(0.0,-1.0,0.0));
#454=VECTOR('',#453,1.999999999999994);
#455=LINE('',#452,#454);
#456=EDGE_CURVE('',#445,#427,#455,.T.);
#457=ORIENTED_EDGE('',*,*,#456,.T.);
#458=EDGE_LOOP('',(#435,#443,#451,#457));
#459=FACE_OUTER_BOUND('',#458,.T.);
#460=ADVANCED_FACE('',(#459),#425,.T.);
#461=CARTESIAN_POINT('',(-60.0,-2.000000000000017,0.0));
#462=DIRECTION('',(-1.0,0.0,0.0));
#463=DIRECTION('',(0.0,0.0,1.0));
#464=AXIS2_PLACEMENT_3D('',#461,#462,#463);
#465=PLANE('',#464);
#466=ORIENTED_EDGE('',*,*,#442,.F.);
#467=CARTESIAN_POINT('',(-60.0,-2.000000000000017,5.0));
#468=VERTEX_POINT('',#467);
#469=CARTESIAN_POINT('',(-60.0,-2.000000000000017,5.0));
#470=DIRECTION('',(0.0,0.0,-1.0));
#471=VECTOR('',#470,10.0);
#472=LINE('',#469,#471);
#473=EDGE_CURVE('',#468,#429,#472,.T.);
#474=ORIENTED_EDGE('',*,*,#473,.F.);
#475=CARTESIAN_POINT('',(-60.0,-2.364875E-014,5.0));
#476=VERTEX_POINT('',#475);
#477=CARTESIAN_POINT('',(-60.0,-2.364875E-014,5.0));
#478=DIRECTION('',(0.0,-1.0,0.0));
#479=VECTOR('',#478,1.999999999999993);
#480=LINE('',#477,#479);
#481=EDGE_CURVE('',#476,#468,#480,.T.);
#482=ORIENTED_EDGE('',*,*,#481,.F.);
#483=CARTESIAN_POINT('',(-60.0,-2.364875E-014,5.0));
#484=DIRECTION('',(0.0,0.0,-1.0));
#485=VECTOR('',#484,10.0);
#486=LINE('',#483,#485);
#487=EDGE_CURVE('',#476,#437,#486,.T.);
#488=ORIENTED_EDGE('',*,*,#487,.T.);
#489=EDGE_LOOP('',(#466,#474,#482,#488));
#490=FACE_OUTER_BOUND('',#489,.T.);
#491=ADVANCED_FACE('',(#490),#465,.T.);
#492=CARTESIAN_POINT('',(-2.000000000000000,-1.999999999999999,0.0));
#493=DIRECTION('',(0.0,-1.0,0.0));
#494=DIRECTION('',(0.0,0.0,-1.0));
#495=AXIS2_PLACEMENT_3D('',#492,#493,#494);
#496=PLANE('',#495);
#497=ORIENTED_EDGE('',*,*,#434,.F.);
#498=CARTESIAN_POINT('',(-2.000000000000000,-1.999999999999999,-10.0));
#499=VERTEX_POINT('',#498);
#500=CARTESIAN_POINT('',(-55.0,-2.000000000000016,-10.0));
#501=DIRECTION('',(1.0,0.0,0.0));
#502=VECTOR('',#501,53.0);
#503=LINE('',#500,#502);
#504=EDGE_CURVE('',#427,#499,#503,.T.);
#505=ORIENTED_EDGE('',*,*,#504,.T.);
#506=CARTESIAN_POINT('',(-2.000000000000000,-1.999999999999999,10.0));
#507=VERTEX_POINT('',#506);
#508=CARTESIAN_POINT('',(-2.000000000000000,-1.999999999999999,10.0));
#509=DIRECTION('',(0.0,0.0,-1.0));
#510=VECTOR('',#509,20.0);
#511=LINE('',#508,#510);
#512=EDGE_CURVE('',#507,#499,#511,.T.);
#513=ORIENTED_EDGE('',*,*,#512,.F.);
#514=CARTESIAN_POINT('',(-55.0,-2.000000000000016,10.0));
#515=VERTEX_POINT('',#514);
#516=CARTESIAN_POINT('',(-2.000000000000000,-1.999999999999999,10.0));
#517=DIRECTION('',(-1.0,0.0,0.0));
#518=VECTOR('',#517,53.0);
#519=LINE('',#516,#518);
#520=EDGE_CURVE('',#507,#515,#519,.T.);
#521=ORIENTED_EDGE('',*,*,#520,.T.);
#522=CARTESIAN_POINT('',(-60.0,-2.000000000000017,5.0));
#523=DIRECTION('',(0.707106781186547,1.884111E-016,0.707106781186547));
#524=VECTOR('',#523,7.071067811865476);
#525=LINE('',#522,#524);
#526=EDGE_CURVE('',#468,#515,#525,.T.);
#527=ORIENTED_EDGE('',*,*,#526,.F.);
#528=ORIENTED_EDGE('',*,*,#473,.T.);
#529=EDGE_LOOP('',(#497,#505,#513,#521,#527,#528));
#530=FACE_OUTER_BOUND('',#529,.T.);
#531=CARTESIAN_POINT('',(-54.0,-2.000000000000022,-2.449213E-016));
#532=VERTEX_POINT('',#531);
#533=CARTESIAN_POINT('',(-56.000000000000007,-2.000000000000023,0.0));
#534=DIRECTION('',(0.0,1.0,0.0));
#535=DIRECTION('',(-1.0,0.0,0.0));
#536=AXIS2_PLACEMENT_3D('',#533,#534,#535);
#537=CIRCLE('',#536,2.0);
#538=EDGE_CURVE('',#532,#532,#537,.T.);
#539=ORIENTED_EDGE('',*,*,#538,.T.);
#540=EDGE_LOOP('',(#539));
#541=FACE_BOUND('',#540,.T.);
#542=ADVANCED_FACE('',(#530,#541),#496,.T.);
#543=CARTESIAN_POINT('',(-57.500000000000000,-2.737500000000012,7.500000000000000));
#544=DIRECTION('',(-0.707106781186548,0.0,0.707106781186548));
#545=DIRECTION('',(0.707106781186548,0.0,0.707106781186548));
#546=AXIS2_PLACEMENT_3D('',#543,#544,#545);
#547=PLANE('',#546);
#548=CARTESIAN_POINT('',(-55.0,-2.167802E-014,10.0));
#549=VERTEX_POINT('',#548);
#550=CARTESIAN_POINT('',(-55.0,-2.167802E-014,10.0));
#551=DIRECTION('',(-0.707106781186547,-2.787032E-016,-0.707106781186547));
#552=VECTOR('',#551,7.071067811865476);
#553=LINE('',#550,#552);
#554=EDGE_CURVE('',#549,#476,#553,.T.);
#555=ORIENTED_EDGE('',*,*,#554,.T.);
#556=ORIENTED_EDGE('',*,*,#481,.T.);
#557=ORIENTED_EDGE('',*,*,#526,.T.);
#558=CARTESIAN_POINT('',(-55.0,-2.000000000000016,10.0));
#559=DIRECTION('',(0.0,1.0,0.0));
#560=VECTOR('',#559,1.999999999999994);
#561=LINE('',#558,#560);
#562=EDGE_CURVE('',#515,#549,#561,.T.);
#563=ORIENTED_EDGE('',*,*,#562,.T.);
#564=EDGE_LOOP('',(#555,#556,#557,#563));
#565=FACE_OUTER_BOUND('',#564,.T.);
#566=ADVANCED_FACE('',(#565),#547,.T.);
#567=CARTESIAN_POINT('',(-23.474999999999998,-3.475000000000008,10.0));
#568=DIRECTION('',(0.0,0.0,1.0));
#569=DIRECTION('',(1.0,0.0,0.0));
#570=AXIS2_PLACEMENT_3D('',#567,#568,#569);
#571=PLANE('',#570);
#572=ORIENTED_EDGE('',*,*,#562,.F.);
#573=ORIENTED_EDGE('',*,*,#520,.F.);
#574=CARTESIAN_POINT('',(-1.999999999999998,-20.0,10.0));
#575=VERTEX_POINT('',#574);
#576=CARTESIAN_POINT('',(-1.999999999999998,-20.0,10.0));
#577=DIRECTION('',(0.0,1.0,0.0));
#578=VECTOR('',#577,18.0);
#579=LINE('',#576,#578);
#580=EDGE_CURVE('',#575,#507,#579,.T.);
#581=ORIENTED_EDGE('',*,*,#580,.F.);
#582=CARTESIAN_POINT('',(2.449294E-015,-19.999999999999996,10.0));
#583=VERTEX_POINT('',#582);
#584=CARTESIAN_POINT('',(2.449294E-015,-19.999999999999996,10.0));
#585=DIRECTION('',(-1.0,0.0,0.0));
#586=VECTOR('',#585,2.0);
#587=LINE('',#584,#586);
#588=EDGE_CURVE('',#583,#575,#587,.T.);
#589=ORIENTED_EDGE('',*,*,#588,.F.);
#590=CARTESIAN_POINT('',(0.0,0.0,10.0));
#591=VERTEX_POINT('',#590);
#592=CARTESIAN_POINT('',(0.0,0.0,10.0));
#593=DIRECTION('',(0.0,-1.0,0.0));
#594=VECTOR('',#593,19.999999999999996);
#595=LINE('',#592,#594);
#596=EDGE_CURVE('',#591,#583,#595,.T.);
#597=ORIENTED_EDGE('',*,*,#596,.F.);
#598=CARTESIAN_POINT('',(-55.0,-2.167802E-014,10.0));
#599=DIRECTION('',(1.0,0.0,0.0));
#600=VECTOR('',#599,55.0);
#601=LINE('',#598,#600);
#602=EDGE_CURVE('',#549,#591,#601,.T.);
#603=ORIENTED_EDGE('',*,*,#602,.F.);
#604=EDGE_LOOP('',(#572,#573,#581,#589,#597,#603));
#605=FACE_OUTER_BOUND('',#604,.T.);
#606=ADVANCED_FACE('',(#605),#571,.T.);
#607=CARTESIAN_POINT('',(-56.000000000000007,-2.207217E-014,0.0));
#608=DIRECTION('',(4.440892E-016,-1.0,0.0));
#609=DIRECTION('',(-1.0,0.0,0.0));
#610=AXIS2_PLACEMENT_3D('',#607,#608,#609);
#611=CYLINDRICAL_SURFACE('',#610,2.0);
#612=ORIENTED_EDGE('',*,*,#538,.F.);
#613=EDGE_LOOP('',(#612));
#614=FACE_OUTER_BOUND('',#613,.T.);
#615=CARTESIAN_POINT('',(-54.0,-2.128388E-014,-2.449294E-016));
#616=VERTEX_POINT('',#615);
#617=CARTESIAN_POINT('',(-56.000000000000007,-2.187239E-014,0.0));
#618=DIRECTION('',(0.0,-1.0,0.0));
#619=DIRECTION('',(-1.0,0.0,0.0));
#620=AXIS2_PLACEMENT_3D('',#617,#618,#619);
#621=CIRCLE('',#620,2.0);
#622=EDGE_CURVE('',#616,#616,#621,.T.);
#623=ORIENTED_EDGE('',*,*,#622,.F.);
#624=EDGE_LOOP('',(#623));
#625=FACE_BOUND('',#624,.T.);
#626=ADVANCED_FACE('',(#614,#625),#611,.F.);
#627=CARTESIAN_POINT('',(-23.474999999999998,-3.475000000000008,-10.0));
#628=DIRECTION('',(0.0,0.0,1.0));
#629=DIRECTION('',(1.0,0.0,0.0));
#630=AXIS2_PLACEMENT_3D('',#627,#628,#629);
#631=PLANE('',#630);
#632=ORIENTED_EDGE('',*,*,#456,.F.);
#633=CARTESIAN_POINT('',(0.0,0.0,-10.0));
#634=VERTEX_POINT('',#633);
#635=CARTESIAN_POINT('',(0.0,0.0,-10.0));
#636=DIRECTION('',(-1.0,0.0,0.0));
#637=VECTOR('',#636,55.0);
#638=LINE('',#635,#637);
#639=EDGE_CURVE('',#634,#445,#638,.T.);
#640=ORIENTED_EDGE('',*,*,#639,.F.);
#641=CARTESIAN_POINT('',(2.449294E-015,-19.999999999999996,-10.0));
#642=VERTEX_POINT('',#641);
#643=CARTESIAN_POINT('',(2.449294E-015,-19.999999999999996,-10.0));
#644=DIRECTION('',(0.0,1.0,0.0));
#645=VECTOR('',#644,19.999999999999996);
#646=LINE('',#643,#645);
#647=EDGE_CURVE('',#642,#634,#646,.T.);
#648=ORIENTED_EDGE('',*,*,#647,.F.);
#649=CARTESIAN_POINT('',(-1.999999999999998,-20.0,-10.0));
#650=VERTEX_POINT('',#649);
#651=CARTESIAN_POINT('',(-1.999999999999998,-20.0,-10.0));
#652=DIRECTION('',(1.0,0.0,0.0));
#653=VECTOR('',#652,2.0);
#654=LINE('',#651,#653);
#655=EDGE_CURVE('',#650,#642,#654,.T.);
#656=ORIENTED_EDGE('',*,*,#655,.F.);
#657=CARTESIAN_POINT('',(-2.000000000000000,-1.999999999999999,-10.0));
#658=DIRECTION('',(0.0,-1.0,0.0));
#659=VECTOR('',#658,18.0);
#660=LINE('',#657,#659);
#661=EDGE_CURVE('',#499,#650,#660,.T.);
#662=ORIENTED_EDGE('',*,*,#661,.F.);
#663=ORIENTED_EDGE('',*,*,#504,.F.);
#664=EDGE_LOOP('',(#632,#640,#648,#656,#662,#663));
#665=FACE_OUTER_BOUND('',#664,.T.);
#666=ADVANCED_FACE('',(#665),#631,.F.);
#667=CARTESIAN_POINT('',(2.449294E-015,-19.999999999999996,0.0));
#668=DIRECTION('',(0.0,-1.0,0.0));
#669=DIRECTION('',(0.0,0.0,-1.0));
#670=AXIS2_PLACEMENT_3D('',#667,#668,#669);
#671=PLANE('',#670);
#672=ORIENTED_EDGE('',*,*,#588,.T.);
#673=CARTESIAN_POINT('',(-1.999999999999998,-20.0,10.0));
#674=DIRECTION('',(0.0,0.0,-1.0));
#675=VECTOR('',#674,20.0);
#676=LINE('',#673,#675);
#677=EDGE_CURVE('',#575,#650,#676,.T.);
#678=ORIENTED_EDGE('',*,*,#677,.T.);
#679=ORIENTED_EDGE('',*,*,#655,.T.);
#680=CARTESIAN_POINT('',(2.449294E-015,-19.999999999999996,10.0));
#681=DIRECTION('',(0.0,0.0,-1.0));
#682=VECTOR('',#681,20.0);
#683=LINE('',#680,#682);
#684=EDGE_CURVE('',#583,#642,#683,.T.);
#685=ORIENTED_EDGE('',*,*,#684,.F.);
#686=EDGE_LOOP('',(#672,#678,#679,#685));
#687=FACE_OUTER_BOUND('',#686,.T.);
#688=ADVANCED_FACE('',(#687),#671,.T.);
#689=CARTESIAN_POINT('',(-1.999999999999998,-20.0,0.0));
#690=DIRECTION('',(-1.0,0.0,0.0));
#691=DIRECTION('',(0.0,0.0,1.0));
#692=AXIS2_PLACEMENT_3D('',#689,#690,#691);
#693=PLANE('',#692);
#694=ORIENTED_EDGE('',*,*,#580,.T.);
#695=ORIENTED_EDGE('',*,*,#512,.T.);
#696=ORIENTED_EDGE('',*,*,#661,.T.);
#697=ORIENTED_EDGE('',*,*,#677,.F.);
#698=EDGE_LOOP('',(#694,#695,#696,#697));
#699=FACE_OUTER_BOUND('',#698,.T.);
#700=ADVANCED_FACE('',(#699),#693,.T.);
#701=CARTESIAN_POINT('',(-60.0,-2.364875E-014,0.0));
#702=DIRECTION('',(0.0,1.0,0.0));
#703=DIRECTION('',(0.0,0.0,1.0));
#704=AXIS2_PLACEMENT_3D('',#701,#702,#703);
#705=PLANE('',#704);
#706=ORIENTED_EDGE('',*,*,#450,.F.);
#707=ORIENTED_EDGE('',*,*,#487,.F.);
#708=ORIENTED_EDGE('',*,*,#554,.F.);
#709=ORIENTED_EDGE('',*,*,#602,.T.);
#710=CARTESIAN_POINT('',(0.0,0.0,-10.0));
#711=DIRECTION('',(0.0,0.0,1.0));
#712=VECTOR('',#711,20.0);
#713=LINE('',#710,#712);
#714=EDGE_CURVE('',#634,#591,#713,.T.);
#715=ORIENTED_EDGE('',*,*,#714,.F.);
#716=ORIENTED_EDGE('',*,*,#639,.T.);
#717=EDGE_LOOP('',(#706,#707,#708,#709,#715,#716));
#718=FACE_OUTER_BOUND('',#717,.T.);
#719=ORIENTED_EDGE('',*,*,#622,.T.);
#720=EDGE_LOOP('',(#719));
#721=FACE_BOUND('',#720,.T.);
#722=ADVANCED_FACE('',(#718,#721),#705,.T.);
#723=CARTESIAN_POINT('',(0.0,0.0,0.0));
#724=DIRECTION('',(1.0,0.0,0.0));
#725=DIRECTION('',(0.0,0.0,-1.0));
#726=AXIS2_PLACEMENT_3D('',#723,#724,#725);
#727=PLANE('',#726);
#728=ORIENTED_EDGE('',*,*,#596,.T.);
#729=ORIENTED_EDGE('',*,*,#684,.T.);
#730=ORIENTED_EDGE('',*,*,#647,.T.);
#731=ORIENTED_EDGE('',*,*,#714,.T.);
#732=EDGE_LOOP('',(#728,#729,#730,#731));
#733=FACE_OUTER_BOUND('',#732,.T.);
#734=ADVANCED_FACE('',(#733),#727,.T.);
#735=CLOSED_SHELL('',(#460,#491,#542,#566,#606,#626,#666,#688,#700,#722,#734));
#736=MANIFOLD_SOLID_BREP('',#735);
#737=STYLED_ITEM('',(#341),#736);
#738=ADVANCED_BREP_SHAPE_REPRESENTATION('ABSR',(#736),#389);
#739=SHAPE_REPRESENTATION_RELATIONSHIP('SRR','None',#738,#394);
#740=AXIS2_PLACEMENT_3D('',#741,#742,#743);
#741=CARTESIAN_POINT('',(350.487977868759340,20.000000000029242,-10.000000000000027));
#742=DIRECTION('',(1.0,9.622147E-017,-6.123234E-017));
#743=DIRECTION('',(-9.622147E-017,1.0,-3.572851E-017));
#744=NEXT_ASSEMBLY_USAGE_OCCURRENCE('Bracket2:1','Bracket2:1','Bracket2:1',#12,#365,'Bracket2:1');
#745=PRODUCT_DEFINITION_SHAPE('Bracket2:1','Bracket2:1',#744);
#746=ITEM_DEFINED_TRANSFORMATION('Bracket2:1','Bracket2:1',#390,#740);
#750=(REPRESENTATION_RELATIONSHIP('Bracket2:1','Bracket2:1',#394,#41)REPRESENTATION_RELATIONSHIP_WITH_TRANSFORMATION(#746)SHAPE_REPRESENTATION_RELATIONSHIP());
#751=CONTEXT_DEPENDENT_SHAPE_REPRESENTATION(#750,#745);
#752=APPLICATION_CONTEXT('automotive design');
#753=APPLICATION_PROTOCOL_DEFINITION('International Standard','automotive_design',2001,#752);
#754=PRODUCT_CONTEXT('',#752,'mechanical');
#755=PRODUCT('Bracket1','Bracket1',$,(#754));
#756=PRODUCT_RELATED_PRODUCT_CATEGORY('part',$,(#755));
#757=PRODUCT_DEFINITION_FORMATION('',$,#755);
#758=PRODUCT_DEFINITION_CONTEXT('part definition',#752,'design');
#759=PRODUCT_DEFINITION('',$,#757,#758);
#765=(NAMED_UNIT(*)PLANE_ANGLE_UNIT()SI_UNIT($,.RADIAN.));
#766=DIMENSIONAL_EXPONENTS(0.0,0.0,0.0,0.0,0.0,0.0,0.0);
#767=PLANE_ANGLE_MEASURE_WITH_UNIT(PLANE_ANGLE_MEASURE(0.017453292500000),#765);
#771=(CONVERSION_BASED_UNIT('DEGREE',#767)NAMED_UNIT(#766)PLANE_ANGLE_UNIT());
#775=(NAMED_UNIT(*)SI_UNIT($,.STERADIAN.)SOLID_ANGLE_UNIT());
#779=(LENGTH_UNIT()NAMED_UNIT(*)SI_UNIT(.MILLI.,.METRE.));
#781=UNCERTAINTY_MEASURE_WITH_UNIT(LENGTH_MEASURE(0.010000000000000),#779,'DISTANCE_ACCURACY_VALUE','');
#783=(GEOMETRIC_REPRESENTATION_CONTEXT(3)GLOBAL_UNCERTAINTY_ASSIGNED_CONTEXT((#781))GLOBAL_UNIT_ASSIGNED_CONTEXT((#771,#775,#779))REPRESENTATION_CONTEXT('None','None'));
#784=AXIS2_PLACEMENT_3D('',#785,#786,#787);
#785=CARTESIAN_POINT('',(0.0,0.0,0.0));
#786=DIRECTION('',(0.0,0.0,1.0));
#787=DIRECTION('',(1.0,0.0,0.0));
#788=SHAPE_REPRESENTATION('',(#784),#783);
#789=PRODUCT_DEFINITION_SHAPE('','',#759);
#790=SHAPE_DEFINITION_REPRESENTATION(#789,#788);
#796=(NAMED_UNIT(*)PLANE_ANGLE_UNIT()SI_UNIT($,.RADIAN.));
#797=DIMENSIONAL_EXPONENTS(0.0,0.0,0.0,0.0,0.0,0.0,0.0);
#798=PLANE_ANGLE_MEASURE_WITH_UNIT(PLANE_ANGLE_MEASURE(0.017453292500000),#796);
#802=(CONVERSION_BASED_UNIT('DEGREE',#798)NAMED_UNIT(#797)PLANE_ANGLE_UNIT());
#806=(NAMED_UNIT(*)SI_UNIT($,.STERADIAN.)SOLID_ANGLE_UNIT());
#810=(LENGTH_UNIT()NAMED_UNIT(*)SI_UNIT(.MILLI.,.METRE.));
#812=UNCERTAINTY_MEASURE_WITH_UNIT(LENGTH_MEASURE(0.000001000000000),#810,'DISTANCE_ACCURACY_VALUE','');
#814=(GEOMETRIC_REPRESENTATION_CONTEXT(3)GLOBAL_UNCERTAINTY_ASSIGNED_CONTEXT((#812))GLOBAL_UNIT_ASSIGNED_CONTEXT((#802,#806,#810))REPRESENTATION_CONTEXT('','3D'));
#815=CARTESIAN_POINT('',(-21.500000000000004,-3.750000000000004,-7.500000000000000));
#816=DIRECTION('',(-0.707106781186548,0.0,-0.707106781186548));
#817=DIRECTION('',(-0.707106781186548,0.0,0.707106781186548));
#818=AXIS2_PLACEMENT_3D('',#815,#816,#817);
#819=PLANE('',#818);
#820=CARTESIAN_POINT('',(-19.000000000000004,-2.000000000000004,-10.0));
#821=VERTEX_POINT('',#820);
#822=CARTESIAN_POINT('',(-24.000000000000004,-2.000000000000006,-5.0));
#823=VERTEX_POINT('',#822);
#824=CARTESIAN_POINT('',(-19.000000000000004,-2.000000000000004,-10.0));
#825=DIRECTION('',(-0.707106781186547,-1.884111E-016,0.707106781186547));
#826=VECTOR('',#825,7.071067811865476);
#827=LINE('',#824,#826);
#828=EDGE_CURVE('',#821,#823,#827,.T.);
#829=ORIENTED_EDGE('',*,*,#828,.T.);
#830=CARTESIAN_POINT('',(-24.000000000000004,-8.218202E-015,-5.0));
#831=VERTEX_POINT('',#830);
#832=CARTESIAN_POINT('',(-24.000000000000004,-2.000000000000006,-5.0));
#833=DIRECTION('',(0.0,1.0,0.0));
#834=VECTOR('',#833,1.999999999999998);
#835=LINE('',#832,#834);
#836=EDGE_CURVE('',#823,#831,#835,.T.);
#837=ORIENTED_EDGE('',*,*,#836,.T.);
#838=CARTESIAN_POINT('',(-19.000000000000004,-6.506076E-015,-10.0));
#839=VERTEX_POINT('',#838);
#840=CARTESIAN_POINT('',(-24.000000000000004,-8.218202E-015,-5.0));
#841=DIRECTION('',(0.707106781186547,2.421311E-016,-0.707106781186547));
#842=VECTOR('',#841,7.071067811865476);
#843=LINE('',#840,#842);
#844=EDGE_CURVE('',#831,#839,#843,.T.);
#845=ORIENTED_EDGE('',*,*,#844,.T.);
#846=CARTESIAN_POINT('',(-19.000000000000004,-6.506076E-015,-10.0));
#847=DIRECTION('',(0.0,-1.0,0.0));
#848=VECTOR('',#847,1.999999999999998);
#849=LINE('',#846,#848);
#850=EDGE_CURVE('',#839,#821,#849,.T.);
#851=ORIENTED_EDGE('',*,*,#850,.T.);
#852=EDGE_LOOP('',(#829,#837,#845,#851));
#853=FACE_OUTER_BOUND('',#852,.T.);
#854=ADVANCED_FACE('',(#853),#819,.T.);
#855=CARTESIAN_POINT('',(-24.000000000000004,-2.000000000000006,0.0));
#856=DIRECTION('',(-1.0,0.0,0.0));
#857=DIRECTION('',(0.0,0.0,1.0));
#858=AXIS2_PLACEMENT_3D('',#855,#856,#857);
#859=PLANE('',#858);
#860=ORIENTED_EDGE('',*,*,#836,.F.);
#861=CARTESIAN_POINT('',(-24.000000000000004,-2.000000000000006,5.0));
#862=VERTEX_POINT('',#861);
#863=CARTESIAN_POINT('',(-24.000000000000004,-2.000000000000006,5.0));
#864=DIRECTION('',(0.0,0.0,-1.0));
#865=VECTOR('',#864,10.0);
#866=LINE('',#863,#865);
#867=EDGE_CURVE('',#862,#823,#866,.T.);
#868=ORIENTED_EDGE('',*,*,#867,.F.);
#869=CARTESIAN_POINT('',(-24.000000000000004,-8.218202E-015,5.0));
#870=VERTEX_POINT('',#869);
#871=CARTESIAN_POINT('',(-24.000000000000004,-8.218202E-015,5.0));
#872=DIRECTION('',(0.0,-1.0,0.0));
#873=VECTOR('',#872,1.999999999999998);
#874=LINE('',#871,#873);
#875=EDGE_CURVE('',#870,#862,#874,.T.);
#876=ORIENTED_EDGE('',*,*,#875,.F.);
#877=CARTESIAN_POINT('',(-24.000000000000004,-8.218202E-015,5.0));
#878=DIRECTION('',(0.0,0.0,-1.0));
#879=VECTOR('',#878,10.0);
#880=LINE('',#877,#879);
#881=EDGE_CURVE('',#870,#831,#880,.T.);
#882=ORIENTED_EDGE('',*,*,#881,.T.);
#883=EDGE_LOOP('',(#860,#868,#876,#882));
#884=FACE_OUTER_BOUND('',#883,.T.);
#885=ADVANCED_FACE('',(#884),#859,.T.);
#886=CARTESIAN_POINT('',(-2.000000000000000,-1.999999999999999,0.0));
#887=DIRECTION('',(0.0,-1.0,0.0));
#888=DIRECTION('',(0.0,0.0,-1.0));
#889=AXIS2_PLACEMENT_3D('',#886,#887,#888);
#890=PLANE('',#889);
#891=ORIENTED_EDGE('',*,*,#828,.F.);
#892=CARTESIAN_POINT('',(-2.000000000000000,-1.999999999999999,-10.0));
#893=VERTEX_POINT('',#892);
#894=CARTESIAN_POINT('',(-19.000000000000004,-2.000000000000004,-10.0));
#895=DIRECTION('',(1.0,0.0,0.0));
#896=VECTOR('',#895,17.000000000000004);
#897=LINE('',#894,#896);
#898=EDGE_CURVE('',#821,#893,#897,.T.);
#899=ORIENTED_EDGE('',*,*,#898,.T.);
#900=CARTESIAN_POINT('',(-2.000000000000000,-1.999999999999999,10.0));
#901=VERTEX_POINT('',#900);
#902=CARTESIAN_POINT('',(-2.000000000000000,-1.999999999999999,10.0));
#903=DIRECTION('',(0.0,0.0,-1.0));
#904=VECTOR('',#903,20.0);
#905=LINE('',#902,#904);
#906=EDGE_CURVE('',#901,#893,#905,.T.);
#907=ORIENTED_EDGE('',*,*,#906,.F.);
#908=CARTESIAN_POINT('',(-19.000000000000004,-2.000000000000004,10.0));
#909=VERTEX_POINT('',#908);
#910=CARTESIAN_POINT('',(-2.000000000000000,-1.999999999999999,10.0));
#911=DIRECTION('',(-1.0,0.0,0.0));
#912=VECTOR('',#911,17.000000000000004);
#913=LINE('',#910,#912);
#914=EDGE_CURVE('',#901,#909,#913,.T.);
#915=ORIENTED_EDGE('',*,*,#914,.T.);
#916=CARTESIAN_POINT('',(-24.000000000000004,-2.000000000000006,5.0));
#917=DIRECTION('',(0.707106781186547,1.884111E-016,0.707106781186547));
#918=VECTOR('',#917,7.071067811865476);
#919=LINE('',#916,#918);
#920=EDGE_CURVE('',#862,#909,#919,.T.);
#921=ORIENTED_EDGE('',*,*,#920,.F.);
#922=ORIENTED_EDGE('',*,*,#867,.T.);
#923=EDGE_LOOP('',(#891,#899,#907,#915,#921,#922));
#924=FACE_OUTER_BOUND('',#923,.T.);
#925=CARTESIAN_POINT('',(-18.0,-2.000000000000004,-2.449213E-016));
#926=VERTEX_POINT('',#925);
#927=CARTESIAN_POINT('',(-20.0,-2.000000000000005,0.0));
#928=DIRECTION('',(0.0,1.0,0.0));
#929=DIRECTION('',(-1.0,0.0,0.0));
#930=AXIS2_PLACEMENT_3D('',#927,#928,#929);
#931=CIRCLE('',#930,2.0);
#932=EDGE_CURVE('',#926,#926,#931,.T.);
#933=ORIENTED_EDGE('',*,*,#932,.T.);
#934=EDGE_LOOP('',(#933));
#935=FACE_BOUND('',#934,.T.);
#936=ADVANCED_FACE('',(#924,#935),#890,.T.);
#937=CARTESIAN_POINT('',(-21.500000000000004,-3.750000000000004,7.500000000000000));
#938=DIRECTION('',(-0.707106781186548,0.0,0.707106781186548));
#939=DIRECTION('',(0.707106781186548,0.0,0.707106781186548));
#940=AXIS2_PLACEMENT_3D('',#937,#938,#939);
#941=PLANE('',#940);
#942=CARTESIAN_POINT('',(-19.000000000000004,-6.506076E-015,10.0));
#943=VERTEX_POINT('',#942);
#944=CARTESIAN_POINT('',(-19.000000000000004,-6.506076E-015,10.0));
#945=DIRECTION('',(-0.707106781186547,-2.421311E-016,-0.707106781186547));
#946=VECTOR('',#945,7.071067811865476);
#947=LINE('',#944,#946);
#948=EDGE_CURVE('',#943,#870,#947,.T.);
#949=ORIENTED_EDGE('',*,*,#948,.T.);
#950=ORIENTED_EDGE('',*,*,#875,.T.);
#951=ORIENTED_EDGE('',*,*,#920,.T.);
#952=CARTESIAN_POINT('',(-19.000000000000004,-2.000000000000004,10.0));
#953=DIRECTION('',(0.0,1.0,0.0));
#954=VECTOR('',#953,1.999999999999998);
#955=LINE('',#952,#954);
#956=EDGE_CURVE('',#909,#943,#955,.T.);
#957=ORIENTED_EDGE('',*,*,#956,.T.);
#958=EDGE_LOOP('',(#949,#950,#951,#957));
#959=FACE_OUTER_BOUND('',#958,.T.);
#960=ADVANCED_FACE('',(#959),#941,.T.);
#961=CARTESIAN_POINT('',(-7.500000000000000,-5.500000000000002,10.0));
#962=DIRECTION('',(0.0,0.0,1.0));
#963=DIRECTION('',(1.0,0.0,0.0));
#964=AXIS2_PLACEMENT_3D('',#961,#962,#963);
#965=PLANE('',#964);
#966=ORIENTED_EDGE('',*,*,#956,.F.);
#967=ORIENTED_EDGE('',*,*,#914,.F.);
#968=CARTESIAN_POINT('',(-1.999999999999998,-20.0,10.0));
#969=VERTEX_POINT('',#968);
#970=CARTESIAN_POINT('',(-1.999999999999998,-20.0,10.0));
#971=DIRECTION('',(0.0,1.0,0.0));
#972=VECTOR('',#971,18.0);
#973=LINE('',#970,#972);
#974=EDGE_CURVE('',#969,#901,#973,.T.);
#975=ORIENTED_EDGE('',*,*,#974,.F.);
#976=CARTESIAN_POINT('',(2.449294E-015,-19.999999999999996,10.0));
#977=VERTEX_POINT('',#976);
#978=CARTESIAN_POINT('',(2.449294E-015,-19.999999999999996,10.0));
#979=DIRECTION('',(-1.0,0.0,0.0));
#980=VECTOR('',#979,2.0);
#981=LINE('',#978,#980);
#982=EDGE_CURVE('',#977,#969,#981,.T.);
#983=ORIENTED_EDGE('',*,*,#982,.F.);
#984=CARTESIAN_POINT('',(0.0,0.0,10.0));
#985=VERTEX_POINT('',#984);
#986=CARTESIAN_POINT('',(0.0,0.0,10.0));
#987=DIRECTION('',(0.0,-1.0,0.0));
#988=VECTOR('',#987,19.999999999999996);
#989=LINE('',#986,#988);
#990=EDGE_CURVE('',#985,#977,#989,.T.);
#991=ORIENTED_EDGE('',*,*,#990,.F.);
#992=CARTESIAN_POINT('',(-19.000000000000004,-6.506076E-015,10.0));
#993=DIRECTION('',(1.0,0.0,0.0));
#994=VECTOR('',#993,19.000000000000004);
#995=LINE('',#992,#994);
#996=EDGE_CURVE('',#943,#985,#995,.T.);
#997=ORIENTED_EDGE('',*,*,#996,.F.);
#998=EDGE_LOOP('',(#966,#967,#975,#983,#991,#997));
#999=FACE_OUTER_BOUND('',#998,.T.);
#1000=ADVANCED_FACE('',(#999),#965,.T.);
#1001=CARTESIAN_POINT('',(-20.0,-6.848502E-015,0.0));
#1002=DIRECTION('',(3.330669E-016,-1.0,0.0));
#1003=DIRECTION('',(-1.0,0.0,0.0));
#1004=AXIS2_PLACEMENT_3D('',#1001,#1002,#1003);
#1005=CYLINDRICAL_SURFACE('',#1004,2.0);
#1006=ORIENTED_EDGE('',*,*,#932,.F.);
#1007=EDGE_LOOP('',(#1006));
#1008=FACE_OUTER_BOUND('',#1007,.T.);
#1009=CARTESIAN_POINT('',(-18.0,-6.163651E-015,-2.449294E-016));
#1010=VERTEX_POINT('',#1009);
#1011=CARTESIAN_POINT('',(-20.0,-6.885934E-015,0.0));
#1012=DIRECTION('',(0.0,-1.0,0.0));
#1013=DIRECTION('',(-1.0,0.0,0.0));
#1014=AXIS2_PLACEMENT_3D('',#1011,#1012,#1013);
#1015=CIRCLE('',#1014,2.0);
#1016=EDGE_CURVE('',#1010,#1010,#1015,.T.);
#1017=ORIENTED_EDGE('',*,*,#1016,.F.);
#1018=EDGE_LOOP('',(#1017));
#1019=FACE_BOUND('',#1018,.T.);
#1020=ADVANCED_FACE('',(#1008,#1019),#1005,.F.);
#1021=CARTESIAN_POINT('',(-7.500000000000000,-5.500000000000002,-10.0));
#1022=DIRECTION('',(0.0,0.0,1.0));
#1023=DIRECTION('',(1.0,0.0,0.0));
#1024=AXIS2_PLACEMENT_3D('',#1021,#1022,#1023);
#1025=PLANE('',#1024);
#1026=ORIENTED_EDGE('',*,*,#850,.F.);
#1027=CARTESIAN_POINT('',(0.0,0.0,-10.0));
#1028=VERTEX_POINT('',#1027);
#1029=CARTESIAN_POINT('',(0.0,0.0,-10.0));
#1030=DIRECTION('',(-1.0,0.0,0.0));
#1031=VECTOR('',#1030,19.000000000000004);
#1032=LINE('',#1029,#1031);
#1033=EDGE_CURVE('',#1028,#839,#1032,.T.);
#1034=ORIENTED_EDGE('',*,*,#1033,.F.);
#1035=CARTESIAN_POINT('',(2.449294E-015,-19.999999999999996,-10.0));
#1036=VERTEX_POINT('',#1035);
#1037=CARTESIAN_POINT('',(2.449294E-015,-19.999999999999996,-10.0));
#1038=DIRECTION('',(0.0,1.0,0.0));
#1039=VECTOR('',#1038,19.999999999999996);
#1040=LINE('',#1037,#1039);
#1041=EDGE_CURVE('',#1036,#1028,#1040,.T.);
#1042=ORIENTED_EDGE('',*,*,#1041,.F.);
#1043=CARTESIAN_POINT('',(-1.999999999999998,-20.0,-10.0));
#1044=VERTEX_POINT('',#1043);
#1045=CARTESIAN_POINT('',(-1.999999999999998,-20.0,-10.0));
#1046=DIRECTION('',(1.0,0.0,0.0));
#1047=VECTOR('',#1046,2.0);
#1048=LINE('',#1045,#1047);
#1049=EDGE_CURVE('',#1044,#1036,#1048,.T.);
#1050=ORIENTED_EDGE('',*,*,#1049,.F.);
#1051=CARTESIAN_POINT('',(-2.000000000000000,-1.999999999999999,-10.0));
#1052=DIRECTION('',(0.0,-1.0,0.0));
#1053=VECTOR('',#1052,18.0);
#1054=LINE('',#1051,#1053);
#1055=EDGE_CURVE('',#893,#1044,#1054,.T.);
#1056=ORIENTED_EDGE('',*,*,#1055,.F.);
#1057=ORIENTED_EDGE('',*,*,#898,.F.);
#1058=EDGE_LOOP('',(#1026,#1034,#1042,#1050,#1056,#1057));
#1059=FACE_OUTER_BOUND('',#1058,.T.);
#1060=ADVANCED_FACE('',(#1059),#1025,.F.);
#1061=CARTESIAN_POINT('',(2.449294E-015,-19.999999999999996,0.0));
#1062=DIRECTION('',(0.0,-1.0,0.0));
#1063=DIRECTION('',(0.0,0.0,-1.0));
#1064=AXIS2_PLACEMENT_3D('',#1061,#1062,#1063);
#1065=PLANE('',#1064);
#1066=ORIENTED_EDGE('',*,*,#982,.T.);
#1067=CARTESIAN_POINT('',(-1.999999999999998,-20.0,10.0));
#1068=DIRECTION('',(0.0,0.0,-1.0));
#1069=VECTOR('',#1068,20.0);
#1070=LINE('',#1067,#1069);
#1071=EDGE_CURVE('',#969,#1044,#1070,.T.);
#1072=ORIENTED_EDGE('',*,*,#1071,.T.);
#1073=ORIENTED_EDGE('',*,*,#1049,.T.);
#1074=CARTESIAN_POINT('',(2.449294E-015,-19.999999999999996,10.0));
#1075=DIRECTION('',(0.0,0.0,-1.0));
#1076=VECTOR('',#1075,20.0);
#1077=LINE('',#1074,#1076);
#1078=EDGE_CURVE('',#977,#1036,#1077,.T.);
#1079=ORIENTED_EDGE('',*,*,#1078,.F.);
#1080=EDGE_LOOP('',(#1066,#1072,#1073,#1079));
#1081=FACE_OUTER_BOUND('',#1080,.T.);
#1082=ADVANCED_FACE('',(#1081),#1065,.T.);
#1083=CARTESIAN_POINT('',(-1.999999999999998,-20.0,0.0));
#1084=DIRECTION('',(-1.0,0.0,0.0));
#1085=DIRECTION('',(0.0,0.0,1.0));
#1086=AXIS2_PLACEMENT_3D('',#1083,#1084,#1085);
#1087=PLANE('',#1086);
#1088=ORIENTED_EDGE('',*,*,#974,.T.);
#1089=ORIENTED_EDGE('',*,*,#906,.T.);
#1090=ORIENTED_EDGE('',*,*,#1055,.T.);
#1091=ORIENTED_EDGE('',*,*,#1071,.F.);
#1092=EDGE_LOOP('',(#1088,#1089,#1090,#1091));
#1093=FACE_OUTER_BOUND('',#1092,.T.);
#1094=ADVANCED_FACE('',(#1093),#1087,.T.);
#1095=CARTESIAN_POINT('',(-24.000000000000004,-8.218202E-015,0.0));
#1096=DIRECTION('',(0.0,1.0,0.0));
#1097=DIRECTION('',(0.0,0.0,1.0));
#1098=AXIS2_PLACEMENT_3D('',#1095,#1096,#1097);
#1099=PLANE('',#1098);
#1100=ORIENTED_EDGE('',*,*,#844,.F.);
#1101=ORIENTED_EDGE('',*,*,#881,.F.);
#1102=ORIENTED_EDGE('',*,*,#948,.F.);
#1103=ORIENTED_EDGE('',*,*,#996,.T.);
#1104=CARTESIAN_POINT('',(0.0,0.0,-10.0));
#1105=DIRECTION('',(0.0,0.0,1.0));
#1106=VECTOR('',#1105,20.0);
#1107=LINE('',#1104,#1106);
#1108=EDGE_CURVE('',#1028,#985,#1107,.T.);
#1109=ORIENTED_EDGE('',*,*,#1108,.F.);
#1110=ORIENTED_EDGE('',*,*,#1033,.T.);
#1111=EDGE_LOOP('',(#1100,#1101,#1102,#1103,#1109,#1110));
#1112=FACE_OUTER_BOUND('',#1111,.T.);
#1113=ORIENTED_EDGE('',*,*,#1016,.T.);
#1114=EDGE_LOOP('',(#1113));
#1115=FACE_BOUND('',#1114,.T.);
#1116=ADVANCED_FACE('',(#1112,#1115),#1099,.T.);
#1117=CARTESIAN_POINT('',(0.0,0.0,0.0));
#1118=DIRECTION('',(1.0,0.0,0.0));
#1119=DIRECTION('',(0.0,0.0,-1.0));
#1120=AXIS2_PLACEMENT_3D('',#1117,#1118,#1119);
#1121=PLANE('',#1120);
#1122=ORIENTED_EDGE('',*,*,#990,.T.);
#1123=ORIENTED_EDGE('',*,*,#1078,.T.);
#1124=ORIENTED_EDGE('',*,*,#1041,.T.);
#1125=ORIENTED_EDGE('',*,*,#1108,.T.);
#1126=EDGE_LOOP('',(#1122,#1123,#1124,#1125));
#1127=FACE_OUTER_BOUND('',#1126,.T.);
#1128=ADVANCED_FACE('',(#1127),#1121,.T.);
#1129=CLOSED_SHELL('',(#854,#885,#936,#960,#1000,#1020,#1060,#1082,#1094,#1116,#1128));
#1130=MANIFOLD_SOLID_BREP('',#1129);
#1131=STYLED_ITEM('',(#341),#1130);
#1132=ADVANCED_BREP_SHAPE_REPRESENTATION('ABSR',(#1130),#783);
#1133=SHAPE_REPRESENTATION_RELATIONSHIP('SRR','None',#1132,#788);
#1134=AXIS2_PLACEMENT_3D('',#1135,#1136,#1137);
#1135=CARTESIAN_POINT('',(50.487977868759955,20.000000000029210,-10.000000000000009));
#1136=DIRECTION('',(1.0,-2.624321E-017,-6.123234E-017));
#1137=DIRECTION('',(2.624321E-017,1.0,-3.572851E-017));
#1138=NEXT_ASSEMBLY_USAGE_OCCURRENCE('Bracket1:1','Bracket1:1','Bracket1:1',#12,#759,'Bracket1:1');
#1139=PRODUCT_DEFINITION_SHAPE('Bracket1:1','Bracket1:1',#1138);
#1140=ITEM_DEFINED_TRANSFORMATION('Bracket1:1','Bracket1:1',#784,#1134);
#1144=(REPRESENTATION_RELATIONSHIP('Bracket1:1','Bracket1:1',#788,#41)REPRESENTATION_RELATIONSHIP_WITH_TRANSFORMATION(#1140)SHAPE_REPRESENTATION_RELATIONSHIP());
#1145=CONTEXT_DEPENDENT_SHAPE_REPRESENTATION(#1144,#1139);
ENDSEC;
END-ISO-10303-21;
