ISO-10303-21;
HEADER;
/****************************************************************
 * Generated by software with PDE/Lib inside                    *
 * PDElib Version v51a, created Thu 12/14/2006                  *
 * International Technegroup Inc. (www.iti-oh.com)              *
 ****************************************************************/
FILE_DESCRIPTION((''),'2;1');
FILE_NAME('D:\\THANG\\2018\\YouTube\\2F\\10FlushSlideDoor\\Bracket1.stp','2018-03-07T21:08:27',('Administrator'),(''),'Autodesk Inventor 2008','Autodesk Inventor 2008','');
FILE_SCHEMA(('AUTOMOTIVE_DESIGN { 1 0 10303 214 1 1 1 1 }'));
ENDSEC;
DATA;
#5=APPLICATION_CONTEXT('automotive design');
#6=APPLICATION_PROTOCOL_DEFINITION('International Standard','automotive_design',2001,#5);
#7=PRODUCT_CONTEXT('',#5,'mechanical');
#8=PRODUCT('Bracket1','Bracket1',$,(#7));
#9=PRODUCT_RELATED_PRODUCT_CATEGORY('part',$,(#8));
#10=PRODUCT_DEFINITION_FORMATION('',$,#8);
#11=PRODUCT_DEFINITION_CONTEXT('part definition',#5,'design');
#12=PRODUCT_DEFINITION('',$,#10,#11);
#18=(NAMED_UNIT(*)PLANE_ANGLE_UNIT()SI_UNIT($,.RADIAN.));
#19=DIMENSIONAL_EXPONENTS(0.0,0.0,0.0,0.0,0.0,0.0,0.0);
#20=PLANE_ANGLE_MEASURE_WITH_UNIT(PLANE_ANGLE_MEASURE(0.017453292500000),#18);
#24=(CONVERSION_BASED_UNIT('DEGREE',#20)NAMED_UNIT(#19)PLANE_ANGLE_UNIT());
#28=(NAMED_UNIT(*)SI_UNIT($,.STERADIAN.)SOLID_ANGLE_UNIT());
#32=(LENGTH_UNIT()NAMED_UNIT(*)SI_UNIT(.MILLI.,.METRE.));
#34=UNCERTAINTY_MEASURE_WITH_UNIT(LENGTH_MEASURE(0.010000000000000),#32,'DISTANCE_ACCURACY_VALUE','');
#36=(GEOMETRIC_REPRESENTATION_CONTEXT(3)GLOBAL_UNCERTAINTY_ASSIGNED_CONTEXT((#34))GLOBAL_UNIT_ASSIGNED_CONTEXT((#24,#28,#32))REPRESENTATION_CONTEXT('None','None'));
#37=AXIS2_PLACEMENT_3D('',#38,#39,#40);
#38=CARTESIAN_POINT('',(0.0,0.0,0.0));
#39=DIRECTION('',(0.0,0.0,1.0));
#40=DIRECTION('',(1.0,0.0,0.0));
#41=SHAPE_REPRESENTATION('',(#37),#36);
#42=PRODUCT_DEFINITION_SHAPE('','',#12);
#43=SHAPE_DEFINITION_REPRESENTATION(#42,#41);
#49=(NAMED_UNIT(*)PLANE_ANGLE_UNIT()SI_UNIT($,.RADIAN.));
#50=DIMENSIONAL_EXPONENTS(0.0,0.0,0.0,0.0,0.0,0.0,0.0);
#51=PLANE_ANGLE_MEASURE_WITH_UNIT(PLANE_ANGLE_MEASURE(0.017453292500000),#49);
#55=(CONVERSION_BASED_UNIT('DEGREE',#51)NAMED_UNIT(#50)PLANE_ANGLE_UNIT());
#59=(NAMED_UNIT(*)SI_UNIT($,.STERADIAN.)SOLID_ANGLE_UNIT());
#63=(LENGTH_UNIT()NAMED_UNIT(*)SI_UNIT(.MILLI.,.METRE.));
#65=UNCERTAINTY_MEASURE_WITH_UNIT(LENGTH_MEASURE(0.000001000000000),#63,'DISTANCE_ACCURACY_VALUE','');
#67=(GEOMETRIC_REPRESENTATION_CONTEXT(3)GLOBAL_UNCERTAINTY_ASSIGNED_CONTEXT((#65))GLOBAL_UNIT_ASSIGNED_CONTEXT((#55,#59,#63))REPRESENTATION_CONTEXT('','3D'));
#68=CARTESIAN_POINT('',(-21.500000000000004,-3.750000000000004,-7.500000000000000));
#69=DIRECTION('',(-0.707106781186548,0.0,-0.707106781186548));
#70=DIRECTION('',(-0.707106781186548,0.0,0.707106781186548));
#71=AXIS2_PLACEMENT_3D('',#68,#69,#70);
#72=PLANE('',#71);
#73=CARTESIAN_POINT('',(-19.000000000000004,-2.000000000000004,-10.0));
#74=VERTEX_POINT('',#73);
#75=CARTESIAN_POINT('',(-24.000000000000004,-2.000000000000006,-5.0));
#76=VERTEX_POINT('',#75);
#77=CARTESIAN_POINT('',(-19.000000000000004,-2.000000000000004,-10.0));
#78=DIRECTION('',(-0.707106781186547,-1.884111E-016,0.707106781186547));
#79=VECTOR('',#78,7.071067811865476);
#80=LINE('',#77,#79);
#81=EDGE_CURVE('',#74,#76,#80,.T.);
#82=ORIENTED_EDGE('',*,*,#81,.T.);
#83=CARTESIAN_POINT('',(-24.000000000000004,-8.218202E-015,-5.0));
#84=VERTEX_POINT('',#83);
#85=CARTESIAN_POINT('',(-24.000000000000004,-2.000000000000006,-5.0));
#86=DIRECTION('',(0.0,1.0,0.0));
#87=VECTOR('',#86,1.999999999999998);
#88=LINE('',#85,#87);
#89=EDGE_CURVE('',#76,#84,#88,.T.);
#90=ORIENTED_EDGE('',*,*,#89,.T.);
#91=CARTESIAN_POINT('',(-19.000000000000004,-6.506076E-015,-10.0));
#92=VERTEX_POINT('',#91);
#93=CARTESIAN_POINT('',(-24.000000000000004,-8.218202E-015,-5.0));
#94=DIRECTION('',(0.707106781186547,2.421311E-016,-0.707106781186547));
#95=VECTOR('',#94,7.071067811865476);
#96=LINE('',#93,#95);
#97=EDGE_CURVE('',#84,#92,#96,.T.);
#98=ORIENTED_EDGE('',*,*,#97,.T.);
#99=CARTESIAN_POINT('',(-19.000000000000004,-6.506076E-015,-10.0));
#100=DIRECTION('',(0.0,-1.0,0.0));
#101=VECTOR('',#100,1.999999999999998);
#102=LINE('',#99,#101);
#103=EDGE_CURVE('',#92,#74,#102,.T.);
#104=ORIENTED_EDGE('',*,*,#103,.T.);
#105=EDGE_LOOP('',(#82,#90,#98,#104));
#106=FACE_OUTER_BOUND('',#105,.T.);
#107=ADVANCED_FACE('',(#106),#72,.T.);
#108=CARTESIAN_POINT('',(-24.000000000000004,-2.000000000000006,0.0));
#109=DIRECTION('',(-1.0,0.0,0.0));
#110=DIRECTION('',(0.0,0.0,1.0));
#111=AXIS2_PLACEMENT_3D('',#108,#109,#110);
#112=PLANE('',#111);
#113=ORIENTED_EDGE('',*,*,#89,.F.);
#114=CARTESIAN_POINT('',(-24.000000000000004,-2.000000000000006,5.0));
#115=VERTEX_POINT('',#114);
#116=CARTESIAN_POINT('',(-24.000000000000004,-2.000000000000006,5.0));
#117=DIRECTION('',(0.0,0.0,-1.0));
#118=VECTOR('',#117,10.0);
#119=LINE('',#116,#118);
#120=EDGE_CURVE('',#115,#76,#119,.T.);
#121=ORIENTED_EDGE('',*,*,#120,.F.);
#122=CARTESIAN_POINT('',(-24.000000000000004,-8.218202E-015,5.0));
#123=VERTEX_POINT('',#122);
#124=CARTESIAN_POINT('',(-24.000000000000004,-8.218202E-015,5.0));
#125=DIRECTION('',(0.0,-1.0,0.0));
#126=VECTOR('',#125,1.999999999999998);
#127=LINE('',#124,#126);
#128=EDGE_CURVE('',#123,#115,#127,.T.);
#129=ORIENTED_EDGE('',*,*,#128,.F.);
#130=CARTESIAN_POINT('',(-24.000000000000004,-8.218202E-015,5.0));
#131=DIRECTION('',(0.0,0.0,-1.0));
#132=VECTOR('',#131,10.0);
#133=LINE('',#130,#132);
#134=EDGE_CURVE('',#123,#84,#133,.T.);
#135=ORIENTED_EDGE('',*,*,#134,.T.);
#136=EDGE_LOOP('',(#113,#121,#129,#135));
#137=FACE_OUTER_BOUND('',#136,.T.);
#138=ADVANCED_FACE('',(#137),#112,.T.);
#139=CARTESIAN_POINT('',(-2.000000000000000,-1.999999999999999,0.0));
#140=DIRECTION('',(0.0,-1.0,0.0));
#141=DIRECTION('',(0.0,0.0,-1.0));
#142=AXIS2_PLACEMENT_3D('',#139,#140,#141);
#143=PLANE('',#142);
#144=ORIENTED_EDGE('',*,*,#81,.F.);
#145=CARTESIAN_POINT('',(-2.000000000000000,-1.999999999999999,-10.0));
#146=VERTEX_POINT('',#145);
#147=CARTESIAN_POINT('',(-19.000000000000004,-2.000000000000004,-10.0));
#148=DIRECTION('',(1.0,0.0,0.0));
#149=VECTOR('',#148,17.000000000000004);
#150=LINE('',#147,#149);
#151=EDGE_CURVE('',#74,#146,#150,.T.);
#152=ORIENTED_EDGE('',*,*,#151,.T.);
#153=CARTESIAN_POINT('',(-2.000000000000000,-1.999999999999999,10.0));
#154=VERTEX_POINT('',#153);
#155=CARTESIAN_POINT('',(-2.000000000000000,-1.999999999999999,10.0));
#156=DIRECTION('',(0.0,0.0,-1.0));
#157=VECTOR('',#156,20.0);
#158=LINE('',#155,#157);
#159=EDGE_CURVE('',#154,#146,#158,.T.);
#160=ORIENTED_EDGE('',*,*,#159,.F.);
#161=CARTESIAN_POINT('',(-19.000000000000004,-2.000000000000004,10.0));
#162=VERTEX_POINT('',#161);
#163=CARTESIAN_POINT('',(-2.000000000000000,-1.999999999999999,10.0));
#164=DIRECTION('',(-1.0,0.0,0.0));
#165=VECTOR('',#164,17.000000000000004);
#166=LINE('',#163,#165);
#167=EDGE_CURVE('',#154,#162,#166,.T.);
#168=ORIENTED_EDGE('',*,*,#167,.T.);
#169=CARTESIAN_POINT('',(-24.000000000000004,-2.000000000000006,5.0));
#170=DIRECTION('',(0.707106781186547,1.884111E-016,0.707106781186547));
#171=VECTOR('',#170,7.071067811865476);
#172=LINE('',#169,#171);
#173=EDGE_CURVE('',#115,#162,#172,.T.);
#174=ORIENTED_EDGE('',*,*,#173,.F.);
#175=ORIENTED_EDGE('',*,*,#120,.T.);
#176=EDGE_LOOP('',(#144,#152,#160,#168,#174,#175));
#177=FACE_OUTER_BOUND('',#176,.T.);
#178=CARTESIAN_POINT('',(-18.0,-2.000000000000004,-2.449213E-016));
#179=VERTEX_POINT('',#178);
#180=CARTESIAN_POINT('',(-20.0,-2.000000000000005,0.0));
#181=DIRECTION('',(0.0,1.0,0.0));
#182=DIRECTION('',(-1.0,0.0,0.0));
#183=AXIS2_PLACEMENT_3D('',#180,#181,#182);
#184=CIRCLE('',#183,2.0);
#185=EDGE_CURVE('',#179,#179,#184,.T.);
#186=ORIENTED_EDGE('',*,*,#185,.T.);
#187=EDGE_LOOP('',(#186));
#188=FACE_BOUND('',#187,.T.);
#189=ADVANCED_FACE('',(#177,#188),#143,.T.);
#190=CARTESIAN_POINT('',(-21.500000000000004,-3.750000000000004,7.500000000000000));
#191=DIRECTION('',(-0.707106781186548,0.0,0.707106781186548));
#192=DIRECTION('',(0.707106781186548,0.0,0.707106781186548));
#193=AXIS2_PLACEMENT_3D('',#190,#191,#192);
#194=PLANE('',#193);
#195=CARTESIAN_POINT('',(-19.000000000000004,-6.506076E-015,10.0));
#196=VERTEX_POINT('',#195);
#197=CARTESIAN_POINT('',(-19.000000000000004,-6.506076E-015,10.0));
#198=DIRECTION('',(-0.707106781186547,-2.421311E-016,-0.707106781186547));
#199=VECTOR('',#198,7.071067811865476);
#200=LINE('',#197,#199);
#201=EDGE_CURVE('',#196,#123,#200,.T.);
#202=ORIENTED_EDGE('',*,*,#201,.T.);
#203=ORIENTED_EDGE('',*,*,#128,.T.);
#204=ORIENTED_EDGE('',*,*,#173,.T.);
#205=CARTESIAN_POINT('',(-19.000000000000004,-2.000000000000004,10.0));
#206=DIRECTION('',(0.0,1.0,0.0));
#207=VECTOR('',#206,1.999999999999998);
#208=LINE('',#205,#207);
#209=EDGE_CURVE('',#162,#196,#208,.T.);
#210=ORIENTED_EDGE('',*,*,#209,.T.);
#211=EDGE_LOOP('',(#202,#203,#204,#210));
#212=FACE_OUTER_BOUND('',#211,.T.);
#213=ADVANCED_FACE('',(#212),#194,.T.);
#214=CARTESIAN_POINT('',(-7.500000000000000,-5.500000000000002,10.0));
#215=DIRECTION('',(0.0,0.0,1.0));
#216=DIRECTION('',(1.0,0.0,0.0));
#217=AXIS2_PLACEMENT_3D('',#214,#215,#216);
#218=PLANE('',#217);
#219=ORIENTED_EDGE('',*,*,#209,.F.);
#220=ORIENTED_EDGE('',*,*,#167,.F.);
#221=CARTESIAN_POINT('',(-1.999999999999998,-20.0,10.0));
#222=VERTEX_POINT('',#221);
#223=CARTESIAN_POINT('',(-1.999999999999998,-20.0,10.0));
#224=DIRECTION('',(0.0,1.0,0.0));
#225=VECTOR('',#224,18.0);
#226=LINE('',#223,#225);
#227=EDGE_CURVE('',#222,#154,#226,.T.);
#228=ORIENTED_EDGE('',*,*,#227,.F.);
#229=CARTESIAN_POINT('',(2.449294E-015,-19.999999999999996,10.0));
#230=VERTEX_POINT('',#229);
#231=CARTESIAN_POINT('',(2.449294E-015,-19.999999999999996,10.0));
#232=DIRECTION('',(-1.0,0.0,0.0));
#233=VECTOR('',#232,2.0);
#234=LINE('',#231,#233);
#235=EDGE_CURVE('',#230,#222,#234,.T.);
#236=ORIENTED_EDGE('',*,*,#235,.F.);
#237=CARTESIAN_POINT('',(0.0,0.0,10.0));
#238=VERTEX_POINT('',#237);
#239=CARTESIAN_POINT('',(0.0,0.0,10.0));
#240=DIRECTION('',(0.0,-1.0,0.0));
#241=VECTOR('',#240,19.999999999999996);
#242=LINE('',#239,#241);
#243=EDGE_CURVE('',#238,#230,#242,.T.);
#244=ORIENTED_EDGE('',*,*,#243,.F.);
#245=CARTESIAN_POINT('',(-19.000000000000004,-6.506076E-015,10.0));
#246=DIRECTION('',(1.0,0.0,0.0));
#247=VECTOR('',#246,19.000000000000004);
#248=LINE('',#245,#247);
#249=EDGE_CURVE('',#196,#238,#248,.T.);
#250=ORIENTED_EDGE('',*,*,#249,.F.);
#251=EDGE_LOOP('',(#219,#220,#228,#236,#244,#250));
#252=FACE_OUTER_BOUND('',#251,.T.);
#253=ADVANCED_FACE('',(#252),#218,.T.);
#254=CARTESIAN_POINT('',(-20.0,-6.848502E-015,0.0));
#255=DIRECTION('',(3.330669E-016,-1.0,0.0));
#256=DIRECTION('',(-1.0,0.0,0.0));
#257=AXIS2_PLACEMENT_3D('',#254,#255,#256);
#258=CYLINDRICAL_SURFACE('',#257,2.0);
#259=ORIENTED_EDGE('',*,*,#185,.F.);
#260=EDGE_LOOP('',(#259));
#261=FACE_OUTER_BOUND('',#260,.T.);
#262=CARTESIAN_POINT('',(-18.0,-6.163651E-015,-2.449294E-016));
#263=VERTEX_POINT('',#262);
#264=CARTESIAN_POINT('',(-20.0,-6.885934E-015,0.0));
#265=DIRECTION('',(0.0,-1.0,0.0));
#266=DIRECTION('',(-1.0,0.0,0.0));
#267=AXIS2_PLACEMENT_3D('',#264,#265,#266);
#268=CIRCLE('',#267,2.0);
#269=EDGE_CURVE('',#263,#263,#268,.T.);
#270=ORIENTED_EDGE('',*,*,#269,.F.);
#271=EDGE_LOOP('',(#270));
#272=FACE_BOUND('',#271,.T.);
#273=ADVANCED_FACE('',(#261,#272),#258,.F.);
#274=CARTESIAN_POINT('',(-7.500000000000000,-5.500000000000002,-10.0));
#275=DIRECTION('',(0.0,0.0,1.0));
#276=DIRECTION('',(1.0,0.0,0.0));
#277=AXIS2_PLACEMENT_3D('',#274,#275,#276);
#278=PLANE('',#277);
#279=ORIENTED_EDGE('',*,*,#103,.F.);
#280=CARTESIAN_POINT('',(0.0,0.0,-10.0));
#281=VERTEX_POINT('',#280);
#282=CARTESIAN_POINT('',(0.0,0.0,-10.0));
#283=DIRECTION('',(-1.0,0.0,0.0));
#284=VECTOR('',#283,19.000000000000004);
#285=LINE('',#282,#284);
#286=EDGE_CURVE('',#281,#92,#285,.T.);
#287=ORIENTED_EDGE('',*,*,#286,.F.);
#288=CARTESIAN_POINT('',(2.449294E-015,-19.999999999999996,-10.0));
#289=VERTEX_POINT('',#288);
#290=CARTESIAN_POINT('',(2.449294E-015,-19.999999999999996,-10.0));
#291=DIRECTION('',(0.0,1.0,0.0));
#292=VECTOR('',#291,19.999999999999996);
#293=LINE('',#290,#292);
#294=EDGE_CURVE('',#289,#281,#293,.T.);
#295=ORIENTED_EDGE('',*,*,#294,.F.);
#296=CARTESIAN_POINT('',(-1.999999999999998,-20.0,-10.0));
#297=VERTEX_POINT('',#296);
#298=CARTESIAN_POINT('',(-1.999999999999998,-20.0,-10.0));
#299=DIRECTION('',(1.0,0.0,0.0));
#300=VECTOR('',#299,2.0);
#301=LINE('',#298,#300);
#302=EDGE_CURVE('',#297,#289,#301,.T.);
#303=ORIENTED_EDGE('',*,*,#302,.F.);
#304=CARTESIAN_POINT('',(-2.000000000000000,-1.999999999999999,-10.0));
#305=DIRECTION('',(0.0,-1.0,0.0));
#306=VECTOR('',#305,18.0);
#307=LINE('',#304,#306);
#308=EDGE_CURVE('',#146,#297,#307,.T.);
#309=ORIENTED_EDGE('',*,*,#308,.F.);
#310=ORIENTED_EDGE('',*,*,#151,.F.);
#311=EDGE_LOOP('',(#279,#287,#295,#303,#309,#310));
#312=FACE_OUTER_BOUND('',#311,.T.);
#313=ADVANCED_FACE('',(#312),#278,.F.);
#314=CARTESIAN_POINT('',(2.449294E-015,-19.999999999999996,0.0));
#315=DIRECTION('',(0.0,-1.0,0.0));
#316=DIRECTION('',(0.0,0.0,-1.0));
#317=AXIS2_PLACEMENT_3D('',#314,#315,#316);
#318=PLANE('',#317);
#319=ORIENTED_EDGE('',*,*,#235,.T.);
#320=CARTESIAN_POINT('',(-1.999999999999998,-20.0,10.0));
#321=DIRECTION('',(0.0,0.0,-1.0));
#322=VECTOR('',#321,20.0);
#323=LINE('',#320,#322);
#324=EDGE_CURVE('',#222,#297,#323,.T.);
#325=ORIENTED_EDGE('',*,*,#324,.T.);
#326=ORIENTED_EDGE('',*,*,#302,.T.);
#327=CARTESIAN_POINT('',(2.449294E-015,-19.999999999999996,10.0));
#328=DIRECTION('',(0.0,0.0,-1.0));
#329=VECTOR('',#328,20.0);
#330=LINE('',#327,#329);
#331=EDGE_CURVE('',#230,#289,#330,.T.);
#332=ORIENTED_EDGE('',*,*,#331,.F.);
#333=EDGE_LOOP('',(#319,#325,#326,#332));
#334=FACE_OUTER_BOUND('',#333,.T.);
#335=ADVANCED_FACE('',(#334),#318,.T.);
#336=CARTESIAN_POINT('',(-1.999999999999998,-20.0,0.0));
#337=DIRECTION('',(-1.0,0.0,0.0));
#338=DIRECTION('',(0.0,0.0,1.0));
#339=AXIS2_PLACEMENT_3D('',#336,#337,#338);
#340=PLANE('',#339);
#341=ORIENTED_EDGE('',*,*,#227,.T.);
#342=ORIENTED_EDGE('',*,*,#159,.T.);
#343=ORIENTED_EDGE('',*,*,#308,.T.);
#344=ORIENTED_EDGE('',*,*,#324,.F.);
#345=EDGE_LOOP('',(#341,#342,#343,#344));
#346=FACE_OUTER_BOUND('',#345,.T.);
#347=ADVANCED_FACE('',(#346),#340,.T.);
#348=CARTESIAN_POINT('',(-24.000000000000004,-8.218202E-015,0.0));
#349=DIRECTION('',(0.0,1.0,0.0));
#350=DIRECTION('',(0.0,0.0,1.0));
#351=AXIS2_PLACEMENT_3D('',#348,#349,#350);
#352=PLANE('',#351);
#353=ORIENTED_EDGE('',*,*,#97,.F.);
#354=ORIENTED_EDGE('',*,*,#134,.F.);
#355=ORIENTED_EDGE('',*,*,#201,.F.);
#356=ORIENTED_EDGE('',*,*,#249,.T.);
#357=CARTESIAN_POINT('',(0.0,0.0,-10.0));
#358=DIRECTION('',(0.0,0.0,1.0));
#359=VECTOR('',#358,20.0);
#360=LINE('',#357,#359);
#361=EDGE_CURVE('',#281,#238,#360,.T.);
#362=ORIENTED_EDGE('',*,*,#361,.F.);
#363=ORIENTED_EDGE('',*,*,#286,.T.);
#364=EDGE_LOOP('',(#353,#354,#355,#356,#362,#363));
#365=FACE_OUTER_BOUND('',#364,.T.);
#366=ORIENTED_EDGE('',*,*,#269,.T.);
#367=EDGE_LOOP('',(#366));
#368=FACE_BOUND('',#367,.T.);
#369=ADVANCED_FACE('',(#365,#368),#352,.T.);
#370=CARTESIAN_POINT('',(0.0,0.0,0.0));
#371=DIRECTION('',(1.0,0.0,0.0));
#372=DIRECTION('',(0.0,0.0,-1.0));
#373=AXIS2_PLACEMENT_3D('',#370,#371,#372);
#374=PLANE('',#373);
#375=ORIENTED_EDGE('',*,*,#243,.T.);
#376=ORIENTED_EDGE('',*,*,#331,.T.);
#377=ORIENTED_EDGE('',*,*,#294,.T.);
#378=ORIENTED_EDGE('',*,*,#361,.T.);
#379=EDGE_LOOP('',(#375,#376,#377,#378));
#380=FACE_OUTER_BOUND('',#379,.T.);
#381=ADVANCED_FACE('',(#380),#374,.T.);
#382=CLOSED_SHELL('',(#107,#138,#189,#213,#253,#273,#313,#335,#347,#369,#381));
#383=MANIFOLD_SOLID_BREP('',#382);
#384=COLOUR_RGB('Blue Pastel',0.682353019714355,0.807843029499054,0.749019980430603);
#385=FILL_AREA_STYLE_COLOUR('Blue Pastel',#384);
#386=FILL_AREA_STYLE('Blue Pastel',(#385));
#387=SURFACE_STYLE_FILL_AREA(#386);
#388=SURFACE_SIDE_STYLE('Blue Pastel',(#387));
#389=SURFACE_STYLE_USAGE(.BOTH.,#388);
#390=PRESENTATION_STYLE_ASSIGNMENT((#389));
#391=STYLED_ITEM('',(#390),#383);
#392=MECHANICAL_DESIGN_GEOMETRIC_PRESENTATION_REPRESENTATION('',(#391),#36);
#393=ADVANCED_BREP_SHAPE_REPRESENTATION('ABSR',(#383),#36);
#394=SHAPE_REPRESENTATION_RELATIONSHIP('SRR','None',#393,#41);
ENDSEC;
END-ISO-10303-21;
