ISO-10303-21;
HEADER;
/****************************************************************
 * Generated by software with PDE/Lib inside                    *
 * PDElib Version v51a, created Thu 12/14/2006                  *
 * International Technegroup Inc. (www.iti-oh.com)              *
 ****************************************************************/
FILE_DESCRIPTION((''),'2;1');
FILE_NAME('D:\\THANG\\2018\\YouTube\\2F\\10FlushSlideDoor\\Rail.stp','2018-03-07T21:07:51',('Administrator'),(''),'Autodesk Inventor 2008','Autodesk Inventor 2008','');
FILE_SCHEMA(('AUTOMOTIVE_DESIGN { 1 0 10303 214 1 1 1 1 }'));
ENDSEC;
DATA;
#5=APPLICATION_CONTEXT('automotive design');
#6=APPLICATION_PROTOCOL_DEFINITION('International Standard','automotive_design',2001,#5);
#7=PRODUCT_CONTEXT('',#5,'mechanical');
#8=PRODUCT('Rail','Rail',$,(#7));
#9=PRODUCT_RELATED_PRODUCT_CATEGORY('part',$,(#8));
#10=PRODUCT_DEFINITION_FORMATION('',$,#8);
#11=PRODUCT_DEFINITION_CONTEXT('part definition',#5,'design');
#12=PRODUCT_DEFINITION('',$,#10,#11);
#18=(NAMED_UNIT(*)PLANE_ANGLE_UNIT()SI_UNIT($,.RADIAN.));
#19=DIMENSIONAL_EXPONENTS(0.0,0.0,0.0,0.0,0.0,0.0,0.0);
#20=PLANE_ANGLE_MEASURE_WITH_UNIT(PLANE_ANGLE_MEASURE(0.017453292500000),#18);
#24=(CONVERSION_BASED_UNIT('DEGREE',#20)NAMED_UNIT(#19)PLANE_ANGLE_UNIT());
#28=(NAMED_UNIT(*)SI_UNIT($,.STERADIAN.)SOLID_ANGLE_UNIT());
#32=(LENGTH_UNIT()NAMED_UNIT(*)SI_UNIT(.MILLI.,.METRE.));
#34=UNCERTAINTY_MEASURE_WITH_UNIT(LENGTH_MEASURE(0.010000000000000),#32,'DISTANCE_ACCURACY_VALUE','');
#36=(GEOMETRIC_REPRESENTATION_CONTEXT(3)GLOBAL_UNCERTAINTY_ASSIGNED_CONTEXT((#34))GLOBAL_UNIT_ASSIGNED_CONTEXT((#24,#28,#32))REPRESENTATION_CONTEXT('None','None'));
#37=AXIS2_PLACEMENT_3D('',#38,#39,#40);
#38=CARTESIAN_POINT('',(0.0,0.0,0.0));
#39=DIRECTION('',(0.0,0.0,1.0));
#40=DIRECTION('',(1.0,0.0,0.0));
#41=SHAPE_REPRESENTATION('',(#37),#36);
#42=PRODUCT_DEFINITION_SHAPE('','',#12);
#43=SHAPE_DEFINITION_REPRESENTATION(#42,#41);
#49=(NAMED_UNIT(*)PLANE_ANGLE_UNIT()SI_UNIT($,.RADIAN.));
#50=DIMENSIONAL_EXPONENTS(0.0,0.0,0.0,0.0,0.0,0.0,0.0);
#51=PLANE_ANGLE_MEASURE_WITH_UNIT(PLANE_ANGLE_MEASURE(0.017453292500000),#49);
#55=(CONVERSION_BASED_UNIT('DEGREE',#51)NAMED_UNIT(#50)PLANE_ANGLE_UNIT());
#59=(NAMED_UNIT(*)SI_UNIT($,.STERADIAN.)SOLID_ANGLE_UNIT());
#63=(LENGTH_UNIT()NAMED_UNIT(*)SI_UNIT(.MILLI.,.METRE.));
#65=UNCERTAINTY_MEASURE_WITH_UNIT(LENGTH_MEASURE(0.000001000000000),#63,'DISTANCE_ACCURACY_VALUE','');
#67=(GEOMETRIC_REPRESENTATION_CONTEXT(3)GLOBAL_UNCERTAINTY_ASSIGNED_CONTEXT((#65))GLOBAL_UNIT_ASSIGNED_CONTEXT((#55,#59,#63))REPRESENTATION_CONTEXT('','3D'));
#68=CARTESIAN_POINT('',(-35.355339059327477,24.999999999999982,-338.284271247461900));
#69=DIRECTION('',(-0.707106781186548,-3.140185E-016,0.707106781186548));
#70=DIRECTION('',(0.707106781186548,0.0,0.707106781186548));
#71=AXIS2_PLACEMENT_3D('',#68,#69,#70);
#72=PLANE('',#71);
#73=CARTESIAN_POINT('',(-35.355339059327477,23.999999999999993,-338.284271247461900));
#74=VERTEX_POINT('',#73);
#75=CARTESIAN_POINT('',(-5.000000000000058,24.0,-307.928932188134520));
#76=VERTEX_POINT('',#75);
#77=CARTESIAN_POINT('',(-35.355339059327477,23.999999999999993,-338.284271247461900));
#78=DIRECTION('',(0.707106781186548,1.655161E-016,0.707106781186547));
#79=VECTOR('',#78,42.928932188134560);
#80=LINE('',#77,#79);
#81=EDGE_CURVE('',#74,#76,#80,.T.);
#82=ORIENTED_EDGE('',*,*,#81,.F.);
#83=CARTESIAN_POINT('',(-35.355339059327477,24.999999999999982,-338.284271247461900));
#84=VERTEX_POINT('',#83);
#85=CARTESIAN_POINT('',(-35.355339059327477,24.999999999999982,-338.284271247461900));
#86=DIRECTION('',(0.0,-1.0,0.0));
#87=VECTOR('',#86,0.999999999999989);
#88=LINE('',#85,#87);
#89=EDGE_CURVE('',#84,#74,#88,.T.);
#90=ORIENTED_EDGE('',*,*,#89,.F.);
#91=CARTESIAN_POINT('',(-5.000000000000058,24.999999999999996,-307.928932188134520));
#92=VERTEX_POINT('',#91);
#93=CARTESIAN_POINT('',(-5.000000000000058,24.999999999999996,-307.928932188134520));
#94=DIRECTION('',(-0.707106781186548,-3.310321E-016,-0.707106781186547));
#95=VECTOR('',#94,42.928932188134560);
#96=LINE('',#93,#95);
#97=EDGE_CURVE('',#92,#84,#96,.T.);
#98=ORIENTED_EDGE('',*,*,#97,.F.);
#99=CARTESIAN_POINT('',(-5.000000000000058,24.999999999999996,-307.928932188134520));
#100=DIRECTION('',(0.0,-1.0,0.0));
#101=VECTOR('',#100,0.999999999999996);
#102=LINE('',#99,#101);
#103=EDGE_CURVE('',#92,#76,#102,.T.);
#104=ORIENTED_EDGE('',*,*,#103,.T.);
#105=EDGE_LOOP('',(#82,#90,#98,#104));
#106=FACE_OUTER_BOUND('',#105,.T.);
#107=ADVANCED_FACE('',(#106),#72,.F.);
#108=CARTESIAN_POINT('',(-5.000000000000058,24.999999999999996,-307.928932188134520));
#109=DIRECTION('',(-1.0,0.0,0.0));
#110=DIRECTION('',(0.0,0.0,1.0));
#111=AXIS2_PLACEMENT_3D('',#108,#109,#110);
#112=PLANE('',#111);
#113=CARTESIAN_POINT('',(-5.000000000000007,24.0,-2.451172E-032));
#114=VERTEX_POINT('',#113);
#115=CARTESIAN_POINT('',(-5.000000000000058,24.0,-307.928932188134520));
#116=DIRECTION('',(0.0,0.0,1.0));
#117=VECTOR('',#116,307.928932188134520);
#118=LINE('',#115,#117);
#119=EDGE_CURVE('',#76,#114,#118,.T.);
#120=ORIENTED_EDGE('',*,*,#119,.F.);
#121=ORIENTED_EDGE('',*,*,#103,.F.);
#122=CARTESIAN_POINT('',(-5.000000000000007,24.999999999999996,0.0));
#123=VERTEX_POINT('',#122);
#124=CARTESIAN_POINT('',(-5.000000000000007,24.999999999999996,0.0));
#125=DIRECTION('',(0.0,0.0,-1.0));
#126=VECTOR('',#125,307.928932188134520);
#127=LINE('',#124,#126);
#128=EDGE_CURVE('',#123,#92,#127,.T.);
#129=ORIENTED_EDGE('',*,*,#128,.F.);
#130=CARTESIAN_POINT('',(-5.000000000000007,24.999999999999996,0.0));
#131=DIRECTION('',(0.0,-1.0,0.0));
#132=VECTOR('',#131,0.999999999999996);
#133=LINE('',#130,#132);
#134=EDGE_CURVE('',#123,#114,#133,.T.);
#135=ORIENTED_EDGE('',*,*,#134,.T.);
#136=EDGE_LOOP('',(#120,#121,#129,#135));
#137=FACE_OUTER_BOUND('',#136,.T.);
#138=ADVANCED_FACE('',(#137),#112,.F.);
#139=CARTESIAN_POINT('',(-6.661338E-015,24.999999999999996,0.0));
#140=DIRECTION('',(4.440892E-016,-1.0,-2.451172E-032));
#141=DIRECTION('',(-1.0,0.0,0.0));
#142=AXIS2_PLACEMENT_3D('',#139,#140,#141);
#143=CYLINDRICAL_SURFACE('',#142,5.0);
#144=CARTESIAN_POINT('',(4.999999999999992,24.000000000000004,-2.451172E-032));
#145=VERTEX_POINT('',#144);
#146=CARTESIAN_POINT('',(-6.217249E-015,24.000000000000007,-2.451172E-032));
#147=DIRECTION('',(0.0,1.0,0.0));
#148=DIRECTION('',(-1.0,0.0,0.0));
#149=AXIS2_PLACEMENT_3D('',#146,#147,#148);
#150=CIRCLE('',#149,5.0);
#151=EDGE_CURVE('',#114,#145,#150,.T.);
#152=ORIENTED_EDGE('',*,*,#151,.F.);
#153=ORIENTED_EDGE('',*,*,#134,.F.);
#154=CARTESIAN_POINT('',(4.999999999999991,25.0,0.0));
#155=VERTEX_POINT('',#154);
#156=CARTESIAN_POINT('',(-6.661338E-015,24.999999999999996,4.354156E-047));
#157=DIRECTION('',(0.0,-1.0,0.0));
#158=DIRECTION('',(-1.0,0.0,0.0));
#159=AXIS2_PLACEMENT_3D('',#156,#157,#158);
#160=CIRCLE('',#159,5.0);
#161=EDGE_CURVE('',#155,#123,#160,.T.);
#162=ORIENTED_EDGE('',*,*,#161,.F.);
#163=CARTESIAN_POINT('',(4.999999999999991,25.0,0.0));
#164=DIRECTION('',(0.0,-1.0,0.0));
#165=VECTOR('',#164,0.999999999999996);
#166=LINE('',#163,#165);
#167=EDGE_CURVE('',#155,#145,#166,.T.);
#168=ORIENTED_EDGE('',*,*,#167,.T.);
#169=EDGE_LOOP('',(#152,#153,#162,#168));
#170=FACE_OUTER_BOUND('',#169,.T.);
#171=ADVANCED_FACE('',(#170),#143,.F.);
#172=CARTESIAN_POINT('',(4.999999999999991,25.0,0.0));
#173=DIRECTION('',(1.0,0.0,0.0));
#174=DIRECTION('',(0.0,0.0,-1.0));
#175=AXIS2_PLACEMENT_3D('',#172,#173,#174);
#176=PLANE('',#175);
#177=CARTESIAN_POINT('',(4.999999999999948,24.000000000000004,-309.999999999999940));
#178=VERTEX_POINT('',#177);
#179=CARTESIAN_POINT('',(4.999999999999992,24.000000000000004,-2.451172E-032));
#180=DIRECTION('',(0.0,0.0,-1.0));
#181=VECTOR('',#180,309.999999999999940);
#182=LINE('',#179,#181);
#183=EDGE_CURVE('',#145,#178,#182,.T.);
#184=ORIENTED_EDGE('',*,*,#183,.F.);
#185=ORIENTED_EDGE('',*,*,#167,.F.);
#186=CARTESIAN_POINT('',(4.999999999999947,25.0,-309.999999999999940));
#187=VERTEX_POINT('',#186);
#188=CARTESIAN_POINT('',(4.999999999999947,25.0,-309.999999999999940));
#189=DIRECTION('',(0.0,0.0,1.0));
#190=VECTOR('',#189,309.999999999999940);
#191=LINE('',#188,#190);
#192=EDGE_CURVE('',#187,#155,#191,.T.);
#193=ORIENTED_EDGE('',*,*,#192,.F.);
#194=CARTESIAN_POINT('',(4.999999999999947,25.0,-309.999999999999940));
#195=DIRECTION('',(0.0,-1.0,0.0));
#196=VECTOR('',#195,0.999999999999996);
#197=LINE('',#194,#196);
#198=EDGE_CURVE('',#187,#178,#197,.T.);
#199=ORIENTED_EDGE('',*,*,#198,.T.);
#200=EDGE_LOOP('',(#184,#185,#193,#199));
#201=FACE_OUTER_BOUND('',#200,.T.);
#202=ADVANCED_FACE('',(#201),#176,.F.);
#203=CARTESIAN_POINT('',(-5.773160E-014,24.999999999999996,-309.999999999999940));
#204=DIRECTION('',(4.440892E-016,-1.0,-2.451172E-032));
#205=DIRECTION('',(1.0,0.0,0.0));
#206=AXIS2_PLACEMENT_3D('',#203,#204,#205);
#207=CYLINDRICAL_SURFACE('',#206,5.0);
#208=CARTESIAN_POINT('',(3.535533905932673,24.000000000000004,-313.535533905932710));
#209=VERTEX_POINT('',#208);
#210=CARTESIAN_POINT('',(-5.728751E-014,24.000000000000007,-309.999999999999940));
#211=DIRECTION('',(0.0,1.0,0.0));
#212=DIRECTION('',(1.0,0.0,0.0));
#213=AXIS2_PLACEMENT_3D('',#210,#211,#212);
#214=CIRCLE('',#213,5.0);
#215=EDGE_CURVE('',#178,#209,#214,.T.);
#216=ORIENTED_EDGE('',*,*,#215,.F.);
#217=ORIENTED_EDGE('',*,*,#198,.F.);
#218=CARTESIAN_POINT('',(3.535533905932673,25.0,-313.535533905932710));
#219=VERTEX_POINT('',#218);
#220=CARTESIAN_POINT('',(-5.773160E-014,24.999999999999996,-309.999999999999940));
#221=DIRECTION('',(0.0,-1.0,0.0));
#222=DIRECTION('',(1.0,0.0,0.0));
#223=AXIS2_PLACEMENT_3D('',#220,#221,#222);
#224=CIRCLE('',#223,5.0);
#225=EDGE_CURVE('',#219,#187,#224,.T.);
#226=ORIENTED_EDGE('',*,*,#225,.F.);
#227=CARTESIAN_POINT('',(3.535533905932673,25.0,-313.535533905932710));
#228=DIRECTION('',(0.0,-1.0,0.0));
#229=VECTOR('',#228,0.999999999999996);
#230=LINE('',#227,#229);
#231=EDGE_CURVE('',#219,#209,#230,.T.);
#232=ORIENTED_EDGE('',*,*,#231,.T.);
#233=EDGE_LOOP('',(#216,#217,#226,#232));
#234=FACE_OUTER_BOUND('',#233,.T.);
#235=ADVANCED_FACE('',(#234),#207,.F.);
#236=CARTESIAN_POINT('',(3.535533905932673,25.0,-313.535533905932710));
#237=DIRECTION('',(0.707106781186549,3.140185E-016,-0.707106781186546));
#238=DIRECTION('',(-0.707106781186546,0.0,-0.707106781186549));
#239=AXIS2_PLACEMENT_3D('',#236,#237,#238);
#240=PLANE('',#239);
#241=CARTESIAN_POINT('',(-28.284271247461970,24.0,-345.355339059327430));
#242=VERTEX_POINT('',#241);
#243=CARTESIAN_POINT('',(3.535533905932673,24.000000000000004,-313.535533905932710));
#244=DIRECTION('',(-0.707106781186547,-7.894919E-017,-0.707106781186548));
#245=VECTOR('',#244,45.000000000000064);
#246=LINE('',#243,#245);
#247=EDGE_CURVE('',#209,#242,#246,.T.);
#248=ORIENTED_EDGE('',*,*,#247,.F.);
#249=ORIENTED_EDGE('',*,*,#231,.F.);
#250=CARTESIAN_POINT('',(-28.284271247461970,24.999999999999986,-345.355339059327430));
#251=VERTEX_POINT('',#250);
#252=CARTESIAN_POINT('',(-28.284271247461970,24.999999999999986,-345.355339059327430));
#253=DIRECTION('',(0.707106781186547,3.157968E-016,0.707106781186548));
#254=VECTOR('',#253,45.000000000000064);
#255=LINE('',#252,#254);
#256=EDGE_CURVE('',#251,#219,#255,.T.);
#257=ORIENTED_EDGE('',*,*,#256,.F.);
#258=CARTESIAN_POINT('',(-28.284271247461970,24.999999999999986,-345.355339059327430));
#259=DIRECTION('',(0.0,-1.0,0.0));
#260=VECTOR('',#259,0.999999999999986);
#261=LINE('',#258,#260);
#262=EDGE_CURVE('',#251,#242,#261,.T.);
#263=ORIENTED_EDGE('',*,*,#262,.T.);
#264=EDGE_LOOP('',(#248,#249,#257,#263));
#265=FACE_OUTER_BOUND('',#264,.T.);
#266=ADVANCED_FACE('',(#265),#240,.F.);
#267=CARTESIAN_POINT('',(-31.819805153394721,24.999999999999986,-341.819805153394670));
#268=DIRECTION('',(4.440892E-016,-1.0,-2.451172E-032));
#269=DIRECTION('',(0.707106781186546,3.140185E-016,-0.707106781186549));
#270=AXIS2_PLACEMENT_3D('',#267,#268,#269);
#271=CYLINDRICAL_SURFACE('',#270,5.000000000000001);
#272=CARTESIAN_POINT('',(-31.819805153394721,23.999999999999989,-341.819805153394670));
#273=DIRECTION('',(-2.220446E-016,1.000000000000000,2.220446E-016));
#274=DIRECTION('',(0.707106781186546,3.140185E-016,-0.707106781186549));
#275=AXIS2_PLACEMENT_3D('',#272,#273,#274);
#276=CIRCLE('',#275,5.0);
#277=EDGE_CURVE('',#242,#74,#276,.T.);
#278=ORIENTED_EDGE('',*,*,#277,.F.);
#279=ORIENTED_EDGE('',*,*,#262,.F.);
#280=CARTESIAN_POINT('',(-31.819805153394721,24.999999999999982,-341.819805153394670));
#281=DIRECTION('',(2.220446E-016,-1.000000000000000,-2.220446E-016));
#282=DIRECTION('',(0.707106781186546,3.140185E-016,-0.707106781186549));
#283=AXIS2_PLACEMENT_3D('',#280,#281,#282);
#284=CIRCLE('',#283,5.0);
#285=EDGE_CURVE('',#84,#251,#284,.T.);
#286=ORIENTED_EDGE('',*,*,#285,.F.);
#287=ORIENTED_EDGE('',*,*,#89,.T.);
#288=EDGE_LOOP('',(#278,#279,#286,#287));
#289=FACE_OUTER_BOUND('',#288,.T.);
#290=ADVANCED_FACE('',(#289),#271,.F.);
#291=CARTESIAN_POINT('',(-3.546614E-015,13.830611730218402,10.0));
#292=DIRECTION('',(0.0,0.0,1.0));
#293=DIRECTION('',(1.0,0.0,0.0));
#294=AXIS2_PLACEMENT_3D('',#291,#292,#293);
#295=PLANE('',#294);
#296=CARTESIAN_POINT('',(15.999999999999996,24.000000000000004,10.0));
#297=VERTEX_POINT('',#296);
#298=CARTESIAN_POINT('',(-16.000000000000004,23.999999999999993,10.0));
#299=VERTEX_POINT('',#298);
#300=CARTESIAN_POINT('',(15.999999999999996,24.000000000000004,10.0));
#301=DIRECTION('',(-1.0,0.0,0.0));
#302=VECTOR('',#301,32.0);
#303=LINE('',#300,#302);
#304=EDGE_CURVE('',#297,#299,#303,.T.);
#305=ORIENTED_EDGE('',*,*,#304,.F.);
#306=CARTESIAN_POINT('',(16.999999999999993,23.0,10.0));
#307=VERTEX_POINT('',#306);
#308=CARTESIAN_POINT('',(15.999999999999988,23.0,10.0));
#309=DIRECTION('',(0.0,0.0,1.0));
#310=DIRECTION('',(-1.0,0.0,0.0));
#311=AXIS2_PLACEMENT_3D('',#308,#309,#310);
#312=CIRCLE('',#311,1.000000000000008);
#313=EDGE_CURVE('',#307,#297,#312,.T.);
#314=ORIENTED_EDGE('',*,*,#313,.F.);
#315=CARTESIAN_POINT('',(17.0,1.000000000000005,10.0));
#316=VERTEX_POINT('',#315);
#317=CARTESIAN_POINT('',(17.0,1.000000000000005,10.0));
#318=DIRECTION('',(0.0,1.0,0.0));
#319=VECTOR('',#318,21.999999999999993);
#320=LINE('',#317,#319);
#321=EDGE_CURVE('',#316,#307,#320,.T.);
#322=ORIENTED_EDGE('',*,*,#321,.F.);
#323=CARTESIAN_POINT('',(15.999999999999996,4.440892E-015,10.0));
#324=VERTEX_POINT('',#323);
#325=CARTESIAN_POINT('',(15.999999999999996,1.000000000000014,10.0));
#326=DIRECTION('',(0.0,0.0,1.0));
#327=DIRECTION('',(0.0,1.0,0.0));
#328=AXIS2_PLACEMENT_3D('',#325,#326,#327);
#329=CIRCLE('',#328,1.000000000000005);
#330=EDGE_CURVE('',#324,#316,#329,.T.);
#331=ORIENTED_EDGE('',*,*,#330,.F.);
#332=CARTESIAN_POINT('',(7.999999999999998,0.0,10.0));
#333=VERTEX_POINT('',#332);
#334=CARTESIAN_POINT('',(7.999999999999998,0.0,10.0));
#335=DIRECTION('',(1.0,0.0,0.0));
#336=VECTOR('',#335,7.999999999999998);
#337=LINE('',#334,#336);
#338=EDGE_CURVE('',#333,#324,#337,.T.);
#339=ORIENTED_EDGE('',*,*,#338,.F.);
#340=CARTESIAN_POINT('',(7.999999999999998,-1.000000000000001,10.0));
#341=VERTEX_POINT('',#340);
#342=CARTESIAN_POINT('',(7.999999999999998,-1.000000000000001,10.0));
#343=DIRECTION('',(0.0,1.0,0.0));
#344=VECTOR('',#343,1.000000000000001);
#345=LINE('',#342,#344);
#346=EDGE_CURVE('',#341,#333,#345,.T.);
#347=ORIENTED_EDGE('',*,*,#346,.F.);
#348=CARTESIAN_POINT('',(16.000000000000007,-0.999999999999992,10.0));
#349=VERTEX_POINT('',#348);
#350=CARTESIAN_POINT('',(16.000000000000007,-0.999999999999992,10.0));
#351=DIRECTION('',(-1.0,0.0,0.0));
#352=VECTOR('',#351,8.000000000000009);
#353=LINE('',#350,#352);
#354=EDGE_CURVE('',#349,#341,#353,.T.);
#355=ORIENTED_EDGE('',*,*,#354,.F.);
#356=CARTESIAN_POINT('',(18.000000000000007,1.000000000000005,10.0));
#357=VERTEX_POINT('',#356);
#358=CARTESIAN_POINT('',(16.000000000000007,1.000000000000005,10.0));
#359=DIRECTION('',(0.0,0.0,-1.0));
#360=DIRECTION('',(0.0,-1.0,0.0));
#361=AXIS2_PLACEMENT_3D('',#358,#359,#360);
#362=CIRCLE('',#361,2.0);
#363=EDGE_CURVE('',#357,#349,#362,.T.);
#364=ORIENTED_EDGE('',*,*,#363,.F.);
#365=CARTESIAN_POINT('',(18.0,23.0,10.0));
#366=VERTEX_POINT('',#365);
#367=CARTESIAN_POINT('',(18.0,23.0,10.0));
#368=DIRECTION('',(0.0,-1.0,0.0));
#369=VECTOR('',#368,21.999999999999993);
#370=LINE('',#367,#369);
#371=EDGE_CURVE('',#366,#357,#370,.T.);
#372=ORIENTED_EDGE('',*,*,#371,.F.);
#373=CARTESIAN_POINT('',(15.999999999999996,25.000000000000004,10.0));
#374=VERTEX_POINT('',#373);
#375=CARTESIAN_POINT('',(15.999999999999996,23.000000000000004,10.0));
#376=DIRECTION('',(0.0,0.0,-1.0));
#377=DIRECTION('',(1.0,0.0,0.0));
#378=AXIS2_PLACEMENT_3D('',#375,#376,#377);
#379=CIRCLE('',#378,1.999999999999997);
#380=EDGE_CURVE('',#374,#366,#379,.T.);
#381=ORIENTED_EDGE('',*,*,#380,.F.);
#382=CARTESIAN_POINT('',(-16.000000000000007,24.999999999999993,10.0));
#383=VERTEX_POINT('',#382);
#384=CARTESIAN_POINT('',(-16.000000000000007,24.999999999999993,10.0));
#385=DIRECTION('',(1.0,0.0,0.0));
#386=VECTOR('',#385,32.0);
#387=LINE('',#384,#386);
#388=EDGE_CURVE('',#383,#374,#387,.T.);
#389=ORIENTED_EDGE('',*,*,#388,.F.);
#390=CARTESIAN_POINT('',(-18.000000000000011,22.999999999999989,10.0));
#391=VERTEX_POINT('',#390);
#392=CARTESIAN_POINT('',(-16.000000000000004,22.999999999999979,10.0));
#393=DIRECTION('',(0.0,0.0,-1.0));
#394=DIRECTION('',(0.0,1.0,0.0));
#395=AXIS2_PLACEMENT_3D('',#392,#393,#394);
#396=CIRCLE('',#395,2.000000000000006);
#397=EDGE_CURVE('',#391,#383,#396,.T.);
#398=ORIENTED_EDGE('',*,*,#397,.F.);
#399=CARTESIAN_POINT('',(-18.000000000000004,0.999999999999992,10.0));
#400=VERTEX_POINT('',#399);
#401=CARTESIAN_POINT('',(-18.000000000000004,0.999999999999992,10.0));
#402=DIRECTION('',(0.0,1.0,0.0));
#403=VECTOR('',#402,21.999999999999996);
#404=LINE('',#401,#403);
#405=EDGE_CURVE('',#400,#391,#404,.T.);
#406=ORIENTED_EDGE('',*,*,#405,.F.);
#407=CARTESIAN_POINT('',(-16.000000000000004,-1.000000000000010,10.0));
#408=VERTEX_POINT('',#407);
#409=CARTESIAN_POINT('',(-16.000000000000004,0.999999999999988,10.0));
#410=DIRECTION('',(0.0,0.0,-1.0));
#411=DIRECTION('',(-1.0,0.0,0.0));
#412=AXIS2_PLACEMENT_3D('',#409,#410,#411);
#413=CIRCLE('',#412,2.000000000000000);
#414=EDGE_CURVE('',#408,#400,#413,.T.);
#415=ORIENTED_EDGE('',*,*,#414,.F.);
#416=CARTESIAN_POINT('',(-8.0,-1.000000000000005,10.0));
#417=VERTEX_POINT('',#416);
#418=CARTESIAN_POINT('',(-8.0,-1.000000000000005,10.0));
#419=DIRECTION('',(-1.0,0.0,0.0));
#420=VECTOR('',#419,8.000000000000004);
#421=LINE('',#418,#420);
#422=EDGE_CURVE('',#417,#408,#421,.T.);
#423=ORIENTED_EDGE('',*,*,#422,.F.);
#424=CARTESIAN_POINT('',(-8.000000000000002,-4.440892E-015,10.0));
#425=VERTEX_POINT('',#424);
#426=CARTESIAN_POINT('',(-8.000000000000002,-4.440892E-015,10.0));
#427=DIRECTION('',(0.0,-1.0,0.0));
#428=VECTOR('',#427,1.000000000000001);
#429=LINE('',#426,#428);
#430=EDGE_CURVE('',#425,#417,#429,.T.);
#431=ORIENTED_EDGE('',*,*,#430,.F.);
#432=CARTESIAN_POINT('',(-16.0,-8.881784E-015,10.0));
#433=VERTEX_POINT('',#432);
#434=CARTESIAN_POINT('',(-16.0,-8.881784E-015,10.0));
#435=DIRECTION('',(1.0,0.0,0.0));
#436=VECTOR('',#435,7.999999999999998);
#437=LINE('',#434,#436);
#438=EDGE_CURVE('',#433,#425,#437,.T.);
#439=ORIENTED_EDGE('',*,*,#438,.F.);
#440=CARTESIAN_POINT('',(-17.0,0.999999999999992,10.0));
#441=VERTEX_POINT('',#440);
#442=CARTESIAN_POINT('',(-16.0,0.999999999999992,10.0));
#443=DIRECTION('',(0.0,0.0,1.0));
#444=DIRECTION('',(1.0,0.0,0.0));
#445=AXIS2_PLACEMENT_3D('',#442,#443,#444);
#446=CIRCLE('',#445,1.000000000000001);
#447=EDGE_CURVE('',#441,#433,#446,.T.);
#448=ORIENTED_EDGE('',*,*,#447,.F.);
#449=CARTESIAN_POINT('',(-17.000000000000004,23.0,10.0));
#450=VERTEX_POINT('',#449);
#451=CARTESIAN_POINT('',(-17.000000000000004,23.0,10.0));
#452=DIRECTION('',(0.0,-1.0,0.0));
#453=VECTOR('',#452,22.000000000000007);
#454=LINE('',#451,#453);
#455=EDGE_CURVE('',#450,#441,#454,.T.);
#456=ORIENTED_EDGE('',*,*,#455,.F.);
#457=CARTESIAN_POINT('',(-16.000000000000004,23.0,10.0));
#458=DIRECTION('',(0.0,0.0,1.0));
#459=DIRECTION('',(0.0,-1.0,0.0));
#460=AXIS2_PLACEMENT_3D('',#457,#458,#459);
#461=CIRCLE('',#460,1.000000000000001);
#462=EDGE_CURVE('',#299,#450,#461,.T.);
#463=ORIENTED_EDGE('',*,*,#462,.F.);
#464=EDGE_LOOP('',(#305,#314,#322,#331,#339,#347,#355,#364,#372,#381,#389,#398,#406,#415,#423,#431,#439,#448,#456,#463));
#465=FACE_OUTER_BOUND('',#464,.T.);
#466=ADVANCED_FACE('',(#465),#295,.T.);
#467=CARTESIAN_POINT('',(-0.201010126776695,4.440892E-015,-321.514718625761470));
#468=DIRECTION('',(-0.707106781186547,0.0,0.707106781186548));
#469=DIRECTION('',(0.707106781186548,0.0,0.707106781186547));
#470=AXIS2_PLACEMENT_3D('',#467,#468,#469);
#471=PLANE('',#470);
#472=CARTESIAN_POINT('',(-33.234018715767782,4.440892E-015,-354.547727214752510));
#473=VERTEX_POINT('',#472);
#474=CARTESIAN_POINT('',(-33.234018715767782,-0.999999999999996,-354.547727214752510));
#475=VERTEX_POINT('',#474);
#476=CARTESIAN_POINT('',(-33.234018715767782,4.440892E-015,-354.547727214752510));
#477=DIRECTION('',(0.0,-1.0,0.0));
#478=VECTOR('',#477,1.000000000000001);
#479=LINE('',#476,#478);
#480=EDGE_CURVE('',#473,#475,#479,.T.);
#481=ORIENTED_EDGE('',*,*,#480,.T.);
#482=CARTESIAN_POINT('',(-0.201010126776695,-0.999999999999996,-321.514718625761470));
#483=VERTEX_POINT('',#482);
#484=CARTESIAN_POINT('',(-0.201010126776695,-0.999999999999996,-321.514718625761470));
#485=DIRECTION('',(-0.707106781186548,0.0,-0.707106781186547));
#486=VECTOR('',#485,46.715728752538098);
#487=LINE('',#484,#486);
#488=EDGE_CURVE('',#483,#475,#487,.T.);
#489=ORIENTED_EDGE('',*,*,#488,.F.);
#490=CARTESIAN_POINT('',(-0.201010126776695,4.440892E-015,-321.514718625761470));
#491=VERTEX_POINT('',#490);
#492=CARTESIAN_POINT('',(-0.201010126776695,4.440892E-015,-321.514718625761470));
#493=DIRECTION('',(0.0,-1.0,0.0));
#494=VECTOR('',#493,1.000000000000001);
#495=LINE('',#492,#494);
#496=EDGE_CURVE('',#491,#483,#495,.T.);
#497=ORIENTED_EDGE('',*,*,#496,.F.);
#498=CARTESIAN_POINT('',(-0.201010126776695,4.440892E-015,-321.514718625761470));
#499=DIRECTION('',(-0.707106781186548,0.0,-0.707106781186547));
#500=VECTOR('',#499,46.715728752538098);
#501=LINE('',#498,#500);
#502=EDGE_CURVE('',#491,#473,#501,.T.);
#503=ORIENTED_EDGE('',*,*,#502,.T.);
#504=EDGE_LOOP('',(#481,#489,#497,#503));
#505=FACE_OUTER_BOUND('',#504,.T.);
#506=ADVANCED_FACE('',(#505),#471,.T.);
#507=CARTESIAN_POINT('',(5.455844122715696,1.000000000000009,-327.171572875253790));
#508=DIRECTION('',(-0.707106781186548,0.0,-0.707106781186547));
#509=DIRECTION('',(0.0,-1.0,0.0));
#510=AXIS2_PLACEMENT_3D('',#507,#508,#509);
#511=CYLINDRICAL_SURFACE('',#510,2.0);
#512=CARTESIAN_POINT('',(-27.577164466275406,-0.999999999999992,-360.204581464244880));
#513=VERTEX_POINT('',#512);
#514=CARTESIAN_POINT('',(-26.162950903902313,1.000000000000010,-361.618795026617990));
#515=VERTEX_POINT('',#514);
#516=CARTESIAN_POINT('',(-27.577164466275434,1.000000000000009,-360.204581464244880));
#517=DIRECTION('',(0.707106781186548,0.0,0.707106781186547));
#518=DIRECTION('',(0.0,-1.0,0.0));
#519=AXIS2_PLACEMENT_3D('',#516,#517,#518);
#520=CIRCLE('',#519,2.0);
#521=EDGE_CURVE('',#513,#515,#520,.T.);
#522=ORIENTED_EDGE('',*,*,#521,.T.);
#523=CARTESIAN_POINT('',(6.870057685088788,1.000000000000010,-328.585786437626890));
#524=VERTEX_POINT('',#523);
#525=CARTESIAN_POINT('',(6.870057685088788,1.000000000000010,-328.585786437626890));
#526=DIRECTION('',(-0.707106781186548,0.0,-0.707106781186547));
#527=VECTOR('',#526,46.715728752538148);
#528=LINE('',#525,#527);
#529=EDGE_CURVE('',#524,#515,#528,.T.);
#530=ORIENTED_EDGE('',*,*,#529,.F.);
#531=CARTESIAN_POINT('',(5.455844122715692,-0.999999999999992,-327.171572875253790));
#532=VERTEX_POINT('',#531);
#533=CARTESIAN_POINT('',(5.455844122715696,1.000000000000009,-327.171572875253790));
#534=DIRECTION('',(0.707106781186548,0.0,0.707106781186547));
#535=DIRECTION('',(0.0,-1.0,0.0));
#536=AXIS2_PLACEMENT_3D('',#533,#534,#535);
#537=CIRCLE('',#536,2.0);
#538=EDGE_CURVE('',#532,#524,#537,.T.);
#539=ORIENTED_EDGE('',*,*,#538,.F.);
#540=CARTESIAN_POINT('',(5.455844122715692,-0.999999999999992,-327.171572875253790));
#541=DIRECTION('',(-0.707106781186548,0.0,-0.707106781186548));
#542=VECTOR('',#541,46.715728752538141);
#543=LINE('',#540,#542);
#544=EDGE_CURVE('',#532,#513,#543,.T.);
#545=ORIENTED_EDGE('',*,*,#544,.T.);
#546=EDGE_LOOP('',(#522,#530,#539,#545));
#547=FACE_OUTER_BOUND('',#546,.T.);
#548=ADVANCED_FACE('',(#547),#511,.T.);
#549=CARTESIAN_POINT('',(6.870057685088788,1.000000000000010,-328.585786437626890));
#550=DIRECTION('',(0.707106781186547,4.037175E-016,-0.707106781186548));
#551=DIRECTION('',(-0.707106781186548,0.0,-0.707106781186547));
#552=AXIS2_PLACEMENT_3D('',#549,#550,#551);
#553=PLANE('',#552);
#554=CARTESIAN_POINT('',(-26.162950903902317,23.000000000000004,-361.618795026617990));
#555=VERTEX_POINT('',#554);
#556=CARTESIAN_POINT('',(-26.162950903902313,1.000000000000010,-361.618795026617990));
#557=DIRECTION('',(0.0,1.0,0.0));
#558=VECTOR('',#557,21.999999999999993);
#559=LINE('',#556,#558);
#560=EDGE_CURVE('',#515,#555,#559,.T.);
#561=ORIENTED_EDGE('',*,*,#560,.T.);
#562=CARTESIAN_POINT('',(6.870057685088780,23.000000000000004,-328.585786437626890));
#563=VERTEX_POINT('',#562);
#564=CARTESIAN_POINT('',(6.870057685088780,23.000000000000004,-328.585786437626890));
#565=DIRECTION('',(-0.707106781186548,0.0,-0.707106781186548));
#566=VECTOR('',#565,46.715728752538141);
#567=LINE('',#564,#566);
#568=EDGE_CURVE('',#563,#555,#567,.T.);
#569=ORIENTED_EDGE('',*,*,#568,.F.);
#570=CARTESIAN_POINT('',(6.870057685088788,1.000000000000010,-328.585786437626890));
#571=DIRECTION('',(0.0,1.0,0.0));
#572=VECTOR('',#571,21.999999999999993);
#573=LINE('',#570,#572);
#574=EDGE_CURVE('',#524,#563,#573,.T.);
#575=ORIENTED_EDGE('',*,*,#574,.F.);
#576=ORIENTED_EDGE('',*,*,#529,.T.);
#577=EDGE_LOOP('',(#561,#569,#575,#576));
#578=FACE_OUTER_BOUND('',#577,.T.);
#579=ADVANCED_FACE('',(#578),#553,.T.);
#580=CARTESIAN_POINT('',(5.455844122715696,23.000000000000007,-327.171572875253790));
#581=DIRECTION('',(-0.707106781186548,0.0,-0.707106781186547));
#582=DIRECTION('',(0.707106781186547,-2.220446E-015,-0.707106781186548));
#583=AXIS2_PLACEMENT_3D('',#580,#581,#582);
#584=CYLINDRICAL_SURFACE('',#583,1.999999999999997);
#585=CARTESIAN_POINT('',(-27.577164466275413,25.000000000000004,-360.204581464244880));
#586=VERTEX_POINT('',#585);
#587=CARTESIAN_POINT('',(-27.577164466275434,23.000000000000007,-360.204581464244880));
#588=DIRECTION('',(0.707106781186548,0.0,0.707106781186547));
#589=DIRECTION('',(0.707106781186547,-2.220446E-015,-0.707106781186548));
#590=AXIS2_PLACEMENT_3D('',#587,#588,#589);
#591=CIRCLE('',#590,1.999999999999998);
#592=EDGE_CURVE('',#555,#586,#591,.T.);
#593=ORIENTED_EDGE('',*,*,#592,.T.);
#594=CARTESIAN_POINT('',(5.455844122715683,25.000000000000004,-327.171572875253790));
#595=VERTEX_POINT('',#594);
#596=CARTESIAN_POINT('',(5.455844122715683,25.000000000000004,-327.171572875253790));
#597=DIRECTION('',(-0.707106781186548,0.0,-0.707106781186548));
#598=VECTOR('',#597,46.715728752538141);
#599=LINE('',#596,#598);
#600=EDGE_CURVE('',#595,#586,#599,.T.);
#601=ORIENTED_EDGE('',*,*,#600,.F.);
#602=CARTESIAN_POINT('',(5.455844122715696,23.000000000000007,-327.171572875253790));
#603=DIRECTION('',(0.707106781186548,0.0,0.707106781186547));
#604=DIRECTION('',(0.707106781186547,-2.220446E-015,-0.707106781186548));
#605=AXIS2_PLACEMENT_3D('',#602,#603,#604);
#606=CIRCLE('',#605,1.999999999999998);
#607=EDGE_CURVE('',#563,#595,#606,.T.);
#608=ORIENTED_EDGE('',*,*,#607,.F.);
#609=ORIENTED_EDGE('',*,*,#568,.T.);
#610=EDGE_LOOP('',(#593,#601,#608,#609));
#611=FACE_OUTER_BOUND('',#610,.T.);
#612=ADVANCED_FACE('',(#611),#584,.T.);
#613=CARTESIAN_POINT('',(-17.171572875253815,22.999999999999986,-304.544155877284310));
#614=DIRECTION('',(-0.707106781186548,0.0,-0.707106781186547));
#615=DIRECTION('',(0.0,1.0,0.0));
#616=AXIS2_PLACEMENT_3D('',#613,#614,#615);
#617=CYLINDRICAL_SURFACE('',#616,2.000000000000006);
#618=CARTESIAN_POINT('',(-50.204581464244939,24.999999999999993,-337.577164466275350));
#619=VERTEX_POINT('',#618);
#620=CARTESIAN_POINT('',(-51.618795026618031,22.999999999999989,-336.162950903902240));
#621=VERTEX_POINT('',#620);
#622=CARTESIAN_POINT('',(-50.204581464244946,22.999999999999986,-337.577164466275410));
#623=DIRECTION('',(0.707106781186548,0.0,0.707106781186547));
#624=DIRECTION('',(0.0,1.0,0.0));
#625=AXIS2_PLACEMENT_3D('',#622,#623,#624);
#626=CIRCLE('',#625,2.000000000000006);
#627=EDGE_CURVE('',#619,#621,#626,.T.);
#628=ORIENTED_EDGE('',*,*,#627,.T.);
#629=CARTESIAN_POINT('',(-18.585786437626933,22.999999999999989,-303.129942314911200));
#630=VERTEX_POINT('',#629);
#631=CARTESIAN_POINT('',(-18.585786437626933,22.999999999999989,-303.129942314911200));
#632=DIRECTION('',(-0.707106781186548,0.0,-0.707106781186547));
#633=VECTOR('',#632,46.715728752538105);
#634=LINE('',#631,#633);
#635=EDGE_CURVE('',#630,#621,#634,.T.);
#636=ORIENTED_EDGE('',*,*,#635,.F.);
#637=CARTESIAN_POINT('',(-17.171572875253837,24.999999999999993,-304.544155877284250));
#638=VERTEX_POINT('',#637);
#639=CARTESIAN_POINT('',(-17.171572875253815,22.999999999999986,-304.544155877284310));
#640=DIRECTION('',(0.707106781186548,0.0,0.707106781186547));
#641=DIRECTION('',(0.0,1.0,0.0));
#642=AXIS2_PLACEMENT_3D('',#639,#640,#641);
#643=CIRCLE('',#642,2.000000000000006);
#644=EDGE_CURVE('',#638,#630,#643,.T.);
#645=ORIENTED_EDGE('',*,*,#644,.F.);
#646=CARTESIAN_POINT('',(-17.171572875253837,24.999999999999993,-304.544155877284250));
#647=DIRECTION('',(-0.707106781186548,0.0,-0.707106781186547));
#648=VECTOR('',#647,46.715728752538148);
#649=LINE('',#646,#648);
#650=EDGE_CURVE('',#638,#619,#649,.T.);
#651=ORIENTED_EDGE('',*,*,#650,.T.);
#652=EDGE_LOOP('',(#628,#636,#645,#651));
#653=FACE_OUTER_BOUND('',#652,.T.);
#654=ADVANCED_FACE('',(#653),#617,.T.);
#655=CARTESIAN_POINT('',(-18.585786437626933,22.999999999999989,-303.129942314911200));
#656=DIRECTION('',(-0.707106781186547,-2.018587E-016,0.707106781186548));
#657=DIRECTION('',(0.707106781186548,0.0,0.707106781186547));
#658=AXIS2_PLACEMENT_3D('',#655,#656,#657);
#659=PLANE('',#658);
#660=CARTESIAN_POINT('',(-51.618795026618031,0.999999999999992,-336.162950903902240));
#661=VERTEX_POINT('',#660);
#662=CARTESIAN_POINT('',(-51.618795026618031,22.999999999999989,-336.162950903902240));
#663=DIRECTION('',(0.0,-1.0,0.0));
#664=VECTOR('',#663,21.999999999999996);
#665=LINE('',#662,#664);
#666=EDGE_CURVE('',#621,#661,#665,.T.);
#667=ORIENTED_EDGE('',*,*,#666,.T.);
#668=CARTESIAN_POINT('',(-18.585786437626929,0.999999999999992,-303.129942314911200));
#669=VERTEX_POINT('',#668);
#670=CARTESIAN_POINT('',(-18.585786437626929,0.999999999999992,-303.129942314911200));
#671=DIRECTION('',(-0.707106781186548,0.0,-0.707106781186547));
#672=VECTOR('',#671,46.715728752538105);
#673=LINE('',#670,#672);
#674=EDGE_CURVE('',#669,#661,#673,.T.);
#675=ORIENTED_EDGE('',*,*,#674,.F.);
#676=CARTESIAN_POINT('',(-18.585786437626933,22.999999999999989,-303.129942314911200));
#677=DIRECTION('',(0.0,-1.0,0.0));
#678=VECTOR('',#677,21.999999999999996);
#679=LINE('',#676,#678);
#680=EDGE_CURVE('',#630,#669,#679,.T.);
#681=ORIENTED_EDGE('',*,*,#680,.F.);
#682=ORIENTED_EDGE('',*,*,#635,.T.);
#683=EDGE_LOOP('',(#667,#675,#681,#682));
#684=FACE_OUTER_BOUND('',#683,.T.);
#685=ADVANCED_FACE('',(#684),#659,.T.);
#686=CARTESIAN_POINT('',(-17.171572875253815,0.999999999999991,-304.544155877284310));
#687=DIRECTION('',(-0.707106781186548,0.0,-0.707106781186547));
#688=DIRECTION('',(-0.707106781186547,3.469447E-016,0.707106781186548));
#689=AXIS2_PLACEMENT_3D('',#686,#687,#688);
#690=CYLINDRICAL_SURFACE('',#689,2.000000000000000);
#691=CARTESIAN_POINT('',(-50.204581464244939,-1.000000000000008,-337.577164466275350));
#692=VERTEX_POINT('',#691);
#693=CARTESIAN_POINT('',(-50.204581464244946,0.999999999999991,-337.577164466275410));
#694=DIRECTION('',(0.707106781186548,-2.465190E-032,0.707106781186547));
#695=DIRECTION('',(-0.707106781186547,3.469447E-016,0.707106781186548));
#696=AXIS2_PLACEMENT_3D('',#693,#694,#695);
#697=CIRCLE('',#696,2.000000000000000);
#698=EDGE_CURVE('',#661,#692,#697,.T.);
#699=ORIENTED_EDGE('',*,*,#698,.T.);
#700=CARTESIAN_POINT('',(-17.171572875253833,-1.000000000000008,-304.544155877284250));
#701=VERTEX_POINT('',#700);
#702=CARTESIAN_POINT('',(-17.171572875253833,-1.000000000000008,-304.544155877284250));
#703=DIRECTION('',(-0.707106781186548,0.0,-0.707106781186547));
#704=VECTOR('',#703,46.715728752538148);
#705=LINE('',#702,#704);
#706=EDGE_CURVE('',#701,#692,#705,.T.);
#707=ORIENTED_EDGE('',*,*,#706,.F.);
#708=CARTESIAN_POINT('',(-17.171572875253815,0.999999999999991,-304.544155877284310));
#709=DIRECTION('',(0.707106781186548,-2.465190E-032,0.707106781186547));
#710=DIRECTION('',(-0.707106781186547,3.469447E-016,0.707106781186548));
#711=AXIS2_PLACEMENT_3D('',#708,#709,#710);
#712=CIRCLE('',#711,2.000000000000000);
#713=EDGE_CURVE('',#669,#701,#712,.T.);
#714=ORIENTED_EDGE('',*,*,#713,.F.);
#715=ORIENTED_EDGE('',*,*,#674,.T.);
#716=EDGE_LOOP('',(#699,#707,#714,#715));
#717=FACE_OUTER_BOUND('',#716,.T.);
#718=ADVANCED_FACE('',(#717),#690,.T.);
#719=CARTESIAN_POINT('',(-11.514718625761454,-1.000000000000005,-310.201010126776680));
#720=DIRECTION('',(0.707106781186547,0.0,-0.707106781186548));
#721=DIRECTION('',(-0.707106781186548,0.0,-0.707106781186547));
#722=AXIS2_PLACEMENT_3D('',#719,#720,#721);
#723=PLANE('',#722);
#724=CARTESIAN_POINT('',(-44.547727214752541,-1.000000000000005,-343.234018715767720));
#725=VERTEX_POINT('',#724);
#726=CARTESIAN_POINT('',(-44.547727214752541,-4.440892E-015,-343.234018715767720));
#727=VERTEX_POINT('',#726);
#728=CARTESIAN_POINT('',(-44.547727214752541,-1.000000000000005,-343.234018715767720));
#729=DIRECTION('',(0.0,1.0,0.0));
#730=VECTOR('',#729,1.000000000000001);
#731=LINE('',#728,#730);
#732=EDGE_CURVE('',#725,#727,#731,.T.);
#733=ORIENTED_EDGE('',*,*,#732,.T.);
#734=CARTESIAN_POINT('',(-11.514718625761454,-4.440892E-015,-310.201010126776680));
#735=VERTEX_POINT('',#734);
#736=CARTESIAN_POINT('',(-11.514718625761454,-4.440892E-015,-310.201010126776680));
#737=DIRECTION('',(-0.707106781186548,0.0,-0.707106781186547));
#738=VECTOR('',#737,46.715728752538098);
#739=LINE('',#736,#738);
#740=EDGE_CURVE('',#735,#727,#739,.T.);
#741=ORIENTED_EDGE('',*,*,#740,.F.);
#742=CARTESIAN_POINT('',(-11.514718625761454,-1.000000000000005,-310.201010126776680));
#743=VERTEX_POINT('',#742);
#744=CARTESIAN_POINT('',(-11.514718625761454,-1.000000000000005,-310.201010126776680));
#745=DIRECTION('',(0.0,1.0,0.0));
#746=VECTOR('',#745,1.000000000000001);
#747=LINE('',#744,#746);
#748=EDGE_CURVE('',#743,#735,#747,.T.);
#749=ORIENTED_EDGE('',*,*,#748,.F.);
#750=CARTESIAN_POINT('',(-11.514718625761454,-1.000000000000005,-310.201010126776680));
#751=DIRECTION('',(-0.707106781186548,0.0,-0.707106781186547));
#752=VECTOR('',#751,46.715728752538098);
#753=LINE('',#750,#752);
#754=EDGE_CURVE('',#743,#725,#753,.T.);
#755=ORIENTED_EDGE('',*,*,#754,.T.);
#756=EDGE_LOOP('',(#733,#741,#749,#755));
#757=FACE_OUTER_BOUND('',#756,.T.);
#758=ADVANCED_FACE('',(#757),#723,.T.);
#759=CARTESIAN_POINT('',(-17.171572875253815,0.999999999999996,-304.544155877284310));
#760=DIRECTION('',(-0.707106781186548,0.0,-0.707106781186547));
#761=DIRECTION('',(0.707106781186547,4.163336E-015,-0.707106781186548));
#762=AXIS2_PLACEMENT_3D('',#759,#760,#761);
#763=CYLINDRICAL_SURFACE('',#762,1.000000000000001);
#764=CARTESIAN_POINT('',(-50.204581464244939,-4.440892E-015,-337.577164466275350));
#765=VERTEX_POINT('',#764);
#766=CARTESIAN_POINT('',(-50.911688245431478,0.999999999999992,-336.870057685088740));
#767=VERTEX_POINT('',#766);
#768=CARTESIAN_POINT('',(-50.204581464244946,0.999999999999996,-337.577164466275410));
#769=DIRECTION('',(-0.707106781186548,0.0,-0.707106781186547));
#770=DIRECTION('',(0.707106781186547,4.163336E-015,-0.707106781186548));
#771=AXIS2_PLACEMENT_3D('',#768,#769,#770);
#772=CIRCLE('',#771,1.000000000000001);
#773=EDGE_CURVE('',#765,#767,#772,.T.);
#774=ORIENTED_EDGE('',*,*,#773,.T.);
#775=CARTESIAN_POINT('',(-17.878679656440383,0.999999999999992,-303.837049096097700));
#776=VERTEX_POINT('',#775);
#777=CARTESIAN_POINT('',(-17.878679656440383,0.999999999999992,-303.837049096097700));
#778=DIRECTION('',(-0.707106781186548,0.0,-0.707106781186547));
#779=VECTOR('',#778,46.715728752538105);
#780=LINE('',#777,#779);
#781=EDGE_CURVE('',#776,#767,#780,.T.);
#782=ORIENTED_EDGE('',*,*,#781,.F.);
#783=CARTESIAN_POINT('',(-17.171572875253833,-4.440892E-015,-304.544155877284250));
#784=VERTEX_POINT('',#783);
#785=CARTESIAN_POINT('',(-17.171572875253815,0.999999999999996,-304.544155877284310));
#786=DIRECTION('',(-0.707106781186548,0.0,-0.707106781186547));
#787=DIRECTION('',(0.707106781186547,4.163336E-015,-0.707106781186548));
#788=AXIS2_PLACEMENT_3D('',#785,#786,#787);
#789=CIRCLE('',#788,1.000000000000001);
#790=EDGE_CURVE('',#784,#776,#789,.T.);
#791=ORIENTED_EDGE('',*,*,#790,.F.);
#792=CARTESIAN_POINT('',(-17.171572875253833,-4.440892E-015,-304.544155877284250));
#793=DIRECTION('',(-0.707106781186548,0.0,-0.707106781186547));
#794=VECTOR('',#793,46.715728752538148);
#795=LINE('',#792,#794);
#796=EDGE_CURVE('',#784,#765,#795,.T.);
#797=ORIENTED_EDGE('',*,*,#796,.T.);
#798=EDGE_LOOP('',(#774,#782,#791,#797));
#799=FACE_OUTER_BOUND('',#798,.T.);
#800=ADVANCED_FACE('',(#799),#763,.F.);
#801=CARTESIAN_POINT('',(-17.878679656440383,0.999999999999992,-303.837049096097700));
#802=DIRECTION('',(0.707106781186547,0.0,-0.707106781186548));
#803=DIRECTION('',(-0.707106781186548,0.0,-0.707106781186547));
#804=AXIS2_PLACEMENT_3D('',#801,#802,#803);
#805=PLANE('',#804);
#806=CARTESIAN_POINT('',(-50.911688245431478,23.0,-336.870057685088740));
#807=VERTEX_POINT('',#806);
#808=CARTESIAN_POINT('',(-50.911688245431478,0.999999999999992,-336.870057685088740));
#809=DIRECTION('',(0.0,1.0,0.0));
#810=VECTOR('',#809,22.000000000000007);
#811=LINE('',#808,#810);
#812=EDGE_CURVE('',#767,#807,#811,.T.);
#813=ORIENTED_EDGE('',*,*,#812,.T.);
#814=CARTESIAN_POINT('',(-17.878679656440383,23.0,-303.837049096097700));
#815=VERTEX_POINT('',#814);
#816=CARTESIAN_POINT('',(-17.878679656440383,23.0,-303.837049096097700));
#817=DIRECTION('',(-0.707106781186548,0.0,-0.707106781186547));
#818=VECTOR('',#817,46.715728752538105);
#819=LINE('',#816,#818);
#820=EDGE_CURVE('',#815,#807,#819,.T.);
#821=ORIENTED_EDGE('',*,*,#820,.F.);
#822=CARTESIAN_POINT('',(-17.878679656440383,0.999999999999992,-303.837049096097700));
#823=DIRECTION('',(0.0,1.0,0.0));
#824=VECTOR('',#823,22.000000000000007);
#825=LINE('',#822,#824);
#826=EDGE_CURVE('',#776,#815,#825,.T.);
#827=ORIENTED_EDGE('',*,*,#826,.F.);
#828=ORIENTED_EDGE('',*,*,#781,.T.);
#829=EDGE_LOOP('',(#813,#821,#827,#828));
#830=FACE_OUTER_BOUND('',#829,.T.);
#831=ADVANCED_FACE('',(#830),#805,.T.);
#832=CARTESIAN_POINT('',(-17.171572875253815,23.0,-304.544155877284310));
#833=DIRECTION('',(-0.707106781186548,0.0,-0.707106781186547));
#834=DIRECTION('',(0.0,-1.0,0.0));
#835=AXIS2_PLACEMENT_3D('',#832,#833,#834);
#836=CYLINDRICAL_SURFACE('',#835,1.000000000000001);
#837=CARTESIAN_POINT('',(-50.204581464244939,24.0,-337.577164466275350));
#838=VERTEX_POINT('',#837);
#839=CARTESIAN_POINT('',(-50.204581464244946,23.0,-337.577164466275410));
#840=DIRECTION('',(-0.707106781186548,0.0,-0.707106781186547));
#841=DIRECTION('',(0.0,-1.0,0.0));
#842=AXIS2_PLACEMENT_3D('',#839,#840,#841);
#843=CIRCLE('',#842,1.000000000000001);
#844=EDGE_CURVE('',#807,#838,#843,.T.);
#845=ORIENTED_EDGE('',*,*,#844,.T.);
#846=CARTESIAN_POINT('',(-17.171572875253833,24.0,-304.544155877284250));
#847=VERTEX_POINT('',#846);
#848=CARTESIAN_POINT('',(-17.171572875253833,24.0,-304.544155877284250));
#849=DIRECTION('',(-0.707106781186548,0.0,-0.707106781186547));
#850=VECTOR('',#849,46.715728752538148);
#851=LINE('',#848,#850);
#852=EDGE_CURVE('',#847,#838,#851,.T.);
#853=ORIENTED_EDGE('',*,*,#852,.F.);
#854=CARTESIAN_POINT('',(-17.171572875253815,23.0,-304.544155877284310));
#855=DIRECTION('',(-0.707106781186548,0.0,-0.707106781186547));
#856=DIRECTION('',(0.0,-1.0,0.0));
#857=AXIS2_PLACEMENT_3D('',#854,#855,#856);
#858=CIRCLE('',#857,1.000000000000001);
#859=EDGE_CURVE('',#815,#847,#858,.T.);
#860=ORIENTED_EDGE('',*,*,#859,.F.);
#861=ORIENTED_EDGE('',*,*,#820,.T.);
#862=EDGE_LOOP('',(#845,#853,#860,#861));
#863=FACE_OUTER_BOUND('',#862,.T.);
#864=ADVANCED_FACE('',(#863),#836,.F.);
#865=CARTESIAN_POINT('',(5.455844122715696,23.0,-327.171572875253790));
#866=DIRECTION('',(-0.707106781186548,0.0,-0.707106781186547));
#867=DIRECTION('',(-0.707106781186547,-4.440892E-015,0.707106781186548));
#868=AXIS2_PLACEMENT_3D('',#865,#866,#867);
#869=CYLINDRICAL_SURFACE('',#868,1.000000000000008);
#870=CARTESIAN_POINT('',(-27.577164466275413,24.000000000000004,-360.204581464244880));
#871=VERTEX_POINT('',#870);
#872=CARTESIAN_POINT('',(-26.870057685088888,23.000000000000004,-360.911688245431380));
#873=VERTEX_POINT('',#872);
#874=CARTESIAN_POINT('',(-27.577164466275434,23.0,-360.204581464244880));
#875=DIRECTION('',(-0.707106781186548,0.0,-0.707106781186547));
#876=DIRECTION('',(-0.707106781186547,-4.440892E-015,0.707106781186548));
#877=AXIS2_PLACEMENT_3D('',#874,#875,#876);
#878=CIRCLE('',#877,1.000000000000008);
#879=EDGE_CURVE('',#871,#873,#878,.T.);
#880=ORIENTED_EDGE('',*,*,#879,.T.);
#881=CARTESIAN_POINT('',(6.162950903902233,23.000000000000004,-327.878679656440340));
#882=VERTEX_POINT('',#881);
#883=CARTESIAN_POINT('',(6.162950903902233,23.000000000000004,-327.878679656440340));
#884=DIRECTION('',(-0.707106781186548,0.0,-0.707106781186547));
#885=VECTOR('',#884,46.715728752538119);
#886=LINE('',#883,#885);
#887=EDGE_CURVE('',#882,#873,#886,.T.);
#888=ORIENTED_EDGE('',*,*,#887,.F.);
#889=CARTESIAN_POINT('',(5.455844122715683,24.000000000000004,-327.171572875253790));
#890=VERTEX_POINT('',#889);
#891=CARTESIAN_POINT('',(5.455844122715696,23.0,-327.171572875253790));
#892=DIRECTION('',(-0.707106781186548,0.0,-0.707106781186547));
#893=DIRECTION('',(-0.707106781186547,-4.440892E-015,0.707106781186548));
#894=AXIS2_PLACEMENT_3D('',#891,#892,#893);
#895=CIRCLE('',#894,1.000000000000008);
#896=EDGE_CURVE('',#890,#882,#895,.T.);
#897=ORIENTED_EDGE('',*,*,#896,.F.);
#898=CARTESIAN_POINT('',(5.455844122715683,24.000000000000004,-327.171572875253790));
#899=DIRECTION('',(-0.707106781186548,0.0,-0.707106781186548));
#900=VECTOR('',#899,46.715728752538141);
#901=LINE('',#898,#900);
#902=EDGE_CURVE('',#890,#871,#901,.T.);
#903=ORIENTED_EDGE('',*,*,#902,.T.);
#904=EDGE_LOOP('',(#880,#888,#897,#903));
#905=FACE_OUTER_BOUND('',#904,.T.);
#906=ADVANCED_FACE('',(#905),#869,.F.);
#907=CARTESIAN_POINT('',(6.162950903902233,23.000000000000004,-327.878679656440340));
#908=DIRECTION('',(-0.707106781186547,-4.037175E-016,0.707106781186548));
#909=DIRECTION('',(0.707106781186548,0.0,0.707106781186547));
#910=AXIS2_PLACEMENT_3D('',#907,#908,#909);
#911=PLANE('',#910);
#912=CARTESIAN_POINT('',(-26.870057685088881,1.000000000000010,-360.911688245431380));
#913=VERTEX_POINT('',#912);
#914=CARTESIAN_POINT('',(-26.870057685088888,23.000000000000004,-360.911688245431380));
#915=DIRECTION('',(0.0,-1.0,0.0));
#916=VECTOR('',#915,21.999999999999993);
#917=LINE('',#914,#916);
#918=EDGE_CURVE('',#873,#913,#917,.T.);
#919=ORIENTED_EDGE('',*,*,#918,.T.);
#920=CARTESIAN_POINT('',(6.162950903902238,1.000000000000010,-327.878679656440340));
#921=VERTEX_POINT('',#920);
#922=CARTESIAN_POINT('',(6.162950903902238,1.000000000000010,-327.878679656440340));
#923=DIRECTION('',(-0.707106781186548,0.0,-0.707106781186547));
#924=VECTOR('',#923,46.715728752538119);
#925=LINE('',#922,#924);
#926=EDGE_CURVE('',#921,#913,#925,.T.);
#927=ORIENTED_EDGE('',*,*,#926,.F.);
#928=CARTESIAN_POINT('',(6.162950903902233,23.000000000000004,-327.878679656440340));
#929=DIRECTION('',(0.0,-1.0,0.0));
#930=VECTOR('',#929,21.999999999999993);
#931=LINE('',#928,#930);
#932=EDGE_CURVE('',#882,#921,#931,.T.);
#933=ORIENTED_EDGE('',*,*,#932,.F.);
#934=ORIENTED_EDGE('',*,*,#887,.T.);
#935=EDGE_LOOP('',(#919,#927,#933,#934));
#936=FACE_OUTER_BOUND('',#935,.T.);
#937=ADVANCED_FACE('',(#936),#911,.T.);
#938=CARTESIAN_POINT('',(5.455844122715696,1.000000000000014,-327.171572875253790));
#939=DIRECTION('',(-0.707106781186548,0.0,-0.707106781186547));
#940=DIRECTION('',(0.0,1.0,0.0));
#941=AXIS2_PLACEMENT_3D('',#938,#939,#940);
#942=CYLINDRICAL_SURFACE('',#941,1.000000000000005);
#943=CARTESIAN_POINT('',(-27.577164466275409,8.881784E-015,-360.204581464244880));
#944=VERTEX_POINT('',#943);
#945=CARTESIAN_POINT('',(-27.577164466275434,1.000000000000014,-360.204581464244880));
#946=DIRECTION('',(-0.707106781186548,0.0,-0.707106781186547));
#947=DIRECTION('',(0.0,1.0,0.0));
#948=AXIS2_PLACEMENT_3D('',#945,#946,#947);
#949=CIRCLE('',#948,1.000000000000005);
#950=EDGE_CURVE('',#913,#944,#949,.T.);
#951=ORIENTED_EDGE('',*,*,#950,.T.);
#952=CARTESIAN_POINT('',(5.455844122715687,8.881784E-015,-327.171572875253790));
#953=VERTEX_POINT('',#952);
#954=CARTESIAN_POINT('',(5.455844122715687,8.881784E-015,-327.171572875253790));
#955=DIRECTION('',(-0.707106781186548,0.0,-0.707106781186548));
#956=VECTOR('',#955,46.715728752538141);
#957=LINE('',#954,#956);
#958=EDGE_CURVE('',#953,#944,#957,.T.);
#959=ORIENTED_EDGE('',*,*,#958,.F.);
#960=CARTESIAN_POINT('',(5.455844122715696,1.000000000000014,-327.171572875253790));
#961=DIRECTION('',(-0.707106781186548,0.0,-0.707106781186547));
#962=DIRECTION('',(0.0,1.0,0.0));
#963=AXIS2_PLACEMENT_3D('',#960,#961,#962);
#964=CIRCLE('',#963,1.000000000000005);
#965=EDGE_CURVE('',#921,#953,#964,.T.);
#966=ORIENTED_EDGE('',*,*,#965,.F.);
#967=ORIENTED_EDGE('',*,*,#926,.T.);
#968=EDGE_LOOP('',(#951,#959,#966,#967));
#969=FACE_OUTER_BOUND('',#968,.T.);
#970=ADVANCED_FACE('',(#969),#942,.F.);
#971=CARTESIAN_POINT('',(14.999999999999975,1.000000000000010,-301.715728752538100));
#972=CARTESIAN_POINT('',(14.999999999999982,7.296857E-015,-301.715728752538100));
#973=CARTESIAN_POINT('',(15.999999999999982,7.327472E-015,-301.715728752538100));
#974=CARTESIAN_POINT('',(16.999999999999982,7.358087E-015,-301.715728752538100));
#975=CARTESIAN_POINT('',(16.999999999999989,1.000000000000010,-301.715728752538100));
#976=CARTESIAN_POINT('',(14.999999999999975,1.000000000000010,-316.494845776312220));
#977=CARTESIAN_POINT('',(14.999999999999982,7.296857E-015,-316.494845776312220));
#978=CARTESIAN_POINT('',(15.999999999999982,7.327472E-015,-316.917106262705770));
#979=CARTESIAN_POINT('',(16.999999999999982,7.358087E-015,-317.339366749099330));
#980=CARTESIAN_POINT('',(16.999999999999989,1.000000000000010,-317.339366749099330));
#981=CARTESIAN_POINT('',(4.407423593120857,1.000000000000010,-326.801136334356780));
#982=CARTESIAN_POINT('',(4.407423593120864,7.306122E-015,-326.801136334356780));
#983=CARTESIAN_POINT('',(5.104778552924316,7.327472E-015,-327.517862265265880));
#984=CARTESIAN_POINT('',(5.802133512727770,7.348822E-015,-328.234588196174970));
#985=CARTESIAN_POINT('',(5.802133512727774,1.000000000000010,-328.234588196174970));
#993=(BOUNDED_SURFACE()B_SPLINE_SURFACE(2,2,((#971,#976,#981),(#972,#977,#982),(#973,#978,#983),(#974,#979,#984),(#975,#980,#985)),.UNSPECIFIED.,.F.,.F.,.U.)B_SPLINE_SURFACE_WITH_KNOTS((3,2,3),(3,3),(-3.141592653589789,-1.570796326794897,-4.662937E-015),(0.0,0.799095936770314),.UNSPECIFIED.)GEOMETRIC_REPRESENTATION_ITEM()RATIONAL_B_SPLINE_SURFACE(((1.0,0.921236929297630,1.0),(0.707106781186551,0.651412879785830,0.707106781186551),(1.0,0.921236929297630,1.0),(0.707106781186544,0.651412879785823,0.707106781186544),(1.0,0.921236929297630,1.0)))REPRESENTATION_ITEM('')SURFACE());
#994=ORIENTED_EDGE('',*,*,#965,.T.);
#995=CARTESIAN_POINT('',(15.999999999999982,8.813321E-015,-301.715728752538100));
#996=VERTEX_POINT('',#995);
#997=CARTESIAN_POINT('',(-20.000000000000018,8.813321E-015,-301.715728752538100));
#998=DIRECTION('',(0.0,1.0,0.0));
#999=DIRECTION('',(1.0,0.0,0.0));
#1000=AXIS2_PLACEMENT_3D('',#997,#998,#999);
#1001=CIRCLE('',#1000,36.0);
#1002=EDGE_CURVE('',#996,#953,#1001,.T.);
#1003=ORIENTED_EDGE('',*,*,#1002,.F.);
#1004=CARTESIAN_POINT('',(16.999999999999989,1.000000000000010,-301.715728752538100));
#1005=VERTEX_POINT('',#1004);
#1006=CARTESIAN_POINT('',(15.999999999999982,1.000000000000014,-301.715728752538100));
#1007=DIRECTION('',(0.0,0.0,-1.0));
#1008=DIRECTION('',(0.0,1.0,0.0));
#1009=AXIS2_PLACEMENT_3D('',#1006,#1007,#1008);
#1010=CIRCLE('',#1009,1.000000000000005);
#1011=EDGE_CURVE('',#1005,#996,#1010,.T.);
#1012=ORIENTED_EDGE('',*,*,#1011,.F.);
#1013=CARTESIAN_POINT('',(-20.000000000000018,1.000000000000010,-301.715728752538100));
#1014=DIRECTION('',(0.0,1.0,0.0));
#1015=DIRECTION('',(1.0,0.0,0.0));
#1016=AXIS2_PLACEMENT_3D('',#1013,#1014,#1015);
#1017=CIRCLE('',#1016,37.000000000000007);
#1018=EDGE_CURVE('',#1005,#921,#1017,.T.);
#1019=ORIENTED_EDGE('',*,*,#1018,.T.);
#1020=EDGE_LOOP('',(#994,#1003,#1012,#1019));
#1021=FACE_OUTER_BOUND('',#1020,.T.);
#1022=ADVANCED_FACE('',(#1021),#993,.T.);
#1023=CARTESIAN_POINT('',(-20.000000000000018,-0.499999999999996,-301.715728752538100));
#1024=DIRECTION('',(0.0,1.0,0.0));
#1025=DIRECTION('',(1.0,0.0,0.0));
#1026=AXIS2_PLACEMENT_3D('',#1023,#1024,#1025);
#1027=CYLINDRICAL_SURFACE('',#1026,28.0);
#1028=ORIENTED_EDGE('',*,*,#496,.T.);
#1029=CARTESIAN_POINT('',(7.999999999999982,-0.999999999999997,-301.715728752538100));
#1030=VERTEX_POINT('',#1029);
#1031=CARTESIAN_POINT('',(-20.000000000000018,-0.999999999999997,-301.715728752538100));
#1032=DIRECTION('',(0.0,1.0,0.0));
#1033=DIRECTION('',(1.0,0.0,0.0));
#1034=AXIS2_PLACEMENT_3D('',#1031,#1032,#1033);
#1035=CIRCLE('',#1034,28.0);
#1036=EDGE_CURVE('',#1030,#483,#1035,.T.);
#1037=ORIENTED_EDGE('',*,*,#1036,.F.);
#1038=CARTESIAN_POINT('',(7.999999999999982,4.371503E-015,-301.715728752538100));
#1039=VERTEX_POINT('',#1038);
#1040=CARTESIAN_POINT('',(7.999999999999982,4.371503E-015,-301.715728752538100));
#1041=DIRECTION('',(0.0,-1.0,0.0));
#1042=VECTOR('',#1041,1.000000000000001);
#1043=LINE('',#1040,#1042);
#1044=EDGE_CURVE('',#1039,#1030,#1043,.T.);
#1045=ORIENTED_EDGE('',*,*,#1044,.F.);
#1046=CARTESIAN_POINT('',(-20.000000000000018,4.371503E-015,-301.715728752538100));
#1047=DIRECTION('',(0.0,1.0,0.0));
#1048=DIRECTION('',(1.0,0.0,0.0));
#1049=AXIS2_PLACEMENT_3D('',#1046,#1047,#1048);
#1050=CIRCLE('',#1049,28.0);
#1051=EDGE_CURVE('',#1039,#491,#1050,.T.);
#1052=ORIENTED_EDGE('',*,*,#1051,.T.);
#1053=EDGE_LOOP('',(#1028,#1037,#1045,#1052));
#1054=FACE_OUTER_BOUND('',#1053,.T.);
#1055=ADVANCED_FACE('',(#1054),#1027,.F.);
#1056=CARTESIAN_POINT('',(-20.000000000000018,1.000000000000009,-301.715728752538100));
#1057=DIRECTION('',(0.0,1.0,0.0));
#1058=DIRECTION('',(0.0,0.0,1.0));
#1059=AXIS2_PLACEMENT_3D('',#1056,#1057,#1058);
#1060=TOROIDAL_SURFACE('',#1059,36.000000000000007,2.0);
#1061=ORIENTED_EDGE('',*,*,#538,.T.);
#1062=CARTESIAN_POINT('',(17.999999999999989,1.000000000000010,-301.715728752538100));
#1063=VERTEX_POINT('',#1062);
#1064=CARTESIAN_POINT('',(-20.000000000000018,1.000000000000010,-301.715728752538100));
#1065=DIRECTION('',(0.0,1.0,0.0));
#1066=DIRECTION('',(1.0,0.0,0.0));
#1067=AXIS2_PLACEMENT_3D('',#1064,#1065,#1066);
#1068=CIRCLE('',#1067,38.000000000000007);
#1069=EDGE_CURVE('',#1063,#524,#1068,.T.);
#1070=ORIENTED_EDGE('',*,*,#1069,.F.);
#1071=CARTESIAN_POINT('',(15.999999999999993,-0.999999999999991,-301.715728752538100));
#1072=VERTEX_POINT('',#1071);
#1073=CARTESIAN_POINT('',(15.999999999999989,1.000000000000009,-301.715728752538100));
#1074=DIRECTION('',(0.0,0.0,1.0));
#1075=DIRECTION('',(0.0,-1.0,0.0));
#1076=AXIS2_PLACEMENT_3D('',#1073,#1074,#1075);
#1077=CIRCLE('',#1076,2.0);
#1078=EDGE_CURVE('',#1072,#1063,#1077,.T.);
#1079=ORIENTED_EDGE('',*,*,#1078,.F.);
#1080=CARTESIAN_POINT('',(-20.000000000000018,-0.999999999999991,-301.715728752538100));
#1081=DIRECTION('',(0.0,1.0,0.0));
#1082=DIRECTION('',(1.0,0.0,0.0));
#1083=AXIS2_PLACEMENT_3D('',#1080,#1081,#1082);
#1084=CIRCLE('',#1083,36.000000000000007);
#1085=EDGE_CURVE('',#1072,#532,#1084,.T.);
#1086=ORIENTED_EDGE('',*,*,#1085,.T.);
#1087=EDGE_LOOP('',(#1061,#1070,#1079,#1086));
#1088=FACE_OUTER_BOUND('',#1087,.T.);
#1089=ADVANCED_FACE('',(#1088),#1060,.T.);
#1090=CARTESIAN_POINT('',(-20.000000000000018,12.000000000000007,-301.715728752538100));
#1091=DIRECTION('',(0.0,1.0,0.0));
#1092=DIRECTION('',(1.0,0.0,0.0));
#1093=AXIS2_PLACEMENT_3D('',#1090,#1091,#1092);
#1094=CYLINDRICAL_SURFACE('',#1093,38.0);
#1095=ORIENTED_EDGE('',*,*,#574,.T.);
#1096=CARTESIAN_POINT('',(17.999999999999979,23.000000000000004,-301.715728752538100));
#1097=VERTEX_POINT('',#1096);
#1098=CARTESIAN_POINT('',(-20.000000000000018,23.000000000000004,-301.715728752538100));
#1099=DIRECTION('',(0.0,1.0,0.0));
#1100=DIRECTION('',(1.0,0.0,0.0));
#1101=AXIS2_PLACEMENT_3D('',#1098,#1099,#1100);
#1102=CIRCLE('',#1101,38.0);
#1103=EDGE_CURVE('',#1097,#563,#1102,.T.);
#1104=ORIENTED_EDGE('',*,*,#1103,.F.);
#1105=CARTESIAN_POINT('',(17.999999999999989,1.000000000000010,-301.715728752538100));
#1106=DIRECTION('',(0.0,1.0,0.0));
#1107=VECTOR('',#1106,21.999999999999993);
#1108=LINE('',#1105,#1107);
#1109=EDGE_CURVE('',#1063,#1097,#1108,.T.);
#1110=ORIENTED_EDGE('',*,*,#1109,.F.);
#1111=ORIENTED_EDGE('',*,*,#1069,.T.);
#1112=EDGE_LOOP('',(#1095,#1104,#1110,#1111));
#1113=FACE_OUTER_BOUND('',#1112,.T.);
#1114=ADVANCED_FACE('',(#1113),#1094,.T.);
#1115=CARTESIAN_POINT('',(-20.000000000000018,23.000000000000007,-301.715728752538100));
#1116=DIRECTION('',(0.0,1.0,0.0));
#1117=DIRECTION('',(0.0,0.0,1.0));
#1118=AXIS2_PLACEMENT_3D('',#1115,#1116,#1117);
#1119=TOROIDAL_SURFACE('',#1118,36.0,1.999999999999997);
#1120=ORIENTED_EDGE('',*,*,#607,.T.);
#1121=CARTESIAN_POINT('',(15.999999999999980,25.000000000000004,-301.715728752538100));
#1122=VERTEX_POINT('',#1121);
#1123=CARTESIAN_POINT('',(-20.000000000000018,25.000000000000004,-301.715728752538100));
#1124=DIRECTION('',(0.0,1.0,0.0));
#1125=DIRECTION('',(1.0,0.0,0.0));
#1126=AXIS2_PLACEMENT_3D('',#1123,#1124,#1125);
#1127=CIRCLE('',#1126,36.0);
#1128=EDGE_CURVE('',#1122,#595,#1127,.T.);
#1129=ORIENTED_EDGE('',*,*,#1128,.F.);
#1130=CARTESIAN_POINT('',(15.999999999999982,23.000000000000007,-301.715728752538100));
#1131=DIRECTION('',(0.0,0.0,1.0));
#1132=DIRECTION('',(1.0,0.0,0.0));
#1133=AXIS2_PLACEMENT_3D('',#1130,#1131,#1132);
#1134=CIRCLE('',#1133,1.999999999999997);
#1135=EDGE_CURVE('',#1097,#1122,#1134,.T.);
#1136=ORIENTED_EDGE('',*,*,#1135,.F.);
#1137=ORIENTED_EDGE('',*,*,#1103,.T.);
#1138=EDGE_LOOP('',(#1120,#1129,#1136,#1137));
#1139=FACE_OUTER_BOUND('',#1138,.T.);
#1140=ADVANCED_FACE('',(#1139),#1119,.T.);
#1141=CARTESIAN_POINT('',(-20.000000000000018,22.999999999999986,-301.715728752538100));
#1142=DIRECTION('',(0.0,1.0,0.0));
#1143=DIRECTION('',(0.0,0.0,1.0));
#1144=AXIS2_PLACEMENT_3D('',#1141,#1142,#1143);
#1145=TOROIDAL_SURFACE('',#1144,3.999999999999999,2.000000000000006);
#1146=ORIENTED_EDGE('',*,*,#644,.T.);
#1147=CARTESIAN_POINT('',(-18.000000000000025,22.999999999999989,-301.715728752538100));
#1148=VERTEX_POINT('',#1147);
#1149=CARTESIAN_POINT('',(-20.000000000000018,22.999999999999989,-301.715728752538100));
#1150=DIRECTION('',(0.0,1.0,0.0));
#1151=DIRECTION('',(1.0,0.0,0.0));
#1152=AXIS2_PLACEMENT_3D('',#1149,#1150,#1151);
#1153=CIRCLE('',#1152,1.999999999999993);
#1154=EDGE_CURVE('',#1148,#630,#1153,.T.);
#1155=ORIENTED_EDGE('',*,*,#1154,.F.);
#1156=CARTESIAN_POINT('',(-16.000000000000021,24.999999999999993,-301.715728752538100));
#1157=VERTEX_POINT('',#1156);
#1158=CARTESIAN_POINT('',(-16.000000000000018,22.999999999999986,-301.715728752538100));
#1159=DIRECTION('',(0.0,0.0,1.0));
#1160=DIRECTION('',(0.0,1.0,0.0));
#1161=AXIS2_PLACEMENT_3D('',#1158,#1159,#1160);
#1162=CIRCLE('',#1161,2.000000000000006);
#1163=EDGE_CURVE('',#1157,#1148,#1162,.T.);
#1164=ORIENTED_EDGE('',*,*,#1163,.F.);
#1165=CARTESIAN_POINT('',(-20.000000000000018,24.999999999999993,-301.715728752538100));
#1166=DIRECTION('',(0.0,1.0,0.0));
#1167=DIRECTION('',(1.0,0.0,0.0));
#1168=AXIS2_PLACEMENT_3D('',#1165,#1166,#1167);
#1169=CIRCLE('',#1168,3.999999999999995);
#1170=EDGE_CURVE('',#1157,#638,#1169,.T.);
#1171=ORIENTED_EDGE('',*,*,#1170,.T.);
#1172=EDGE_LOOP('',(#1146,#1155,#1164,#1171));
#1173=FACE_OUTER_BOUND('',#1172,.T.);
#1174=ADVANCED_FACE('',(#1173),#1145,.T.);
#1175=CARTESIAN_POINT('',(-20.000000000000018,11.999999999999991,-301.715728752538100));
#1176=DIRECTION('',(0.0,1.0,0.0));
#1177=DIRECTION('',(1.0,0.0,0.0));
#1178=AXIS2_PLACEMENT_3D('',#1175,#1176,#1177);
#1179=CYLINDRICAL_SURFACE('',#1178,1.999999999999995);
#1180=ORIENTED_EDGE('',*,*,#680,.T.);
#1181=CARTESIAN_POINT('',(-18.000000000000021,0.999999999999992,-301.715728752538100));
#1182=VERTEX_POINT('',#1181);
#1183=CARTESIAN_POINT('',(-20.000000000000018,0.999999999999992,-301.715728752538100));
#1184=DIRECTION('',(0.0,1.0,0.0));
#1185=DIRECTION('',(1.0,0.0,0.0));
#1186=AXIS2_PLACEMENT_3D('',#1183,#1184,#1185);
#1187=CIRCLE('',#1186,1.999999999999997);
#1188=EDGE_CURVE('',#1182,#669,#1187,.T.);
#1189=ORIENTED_EDGE('',*,*,#1188,.F.);
#1190=CARTESIAN_POINT('',(-18.000000000000025,22.999999999999989,-301.715728752538100));
#1191=DIRECTION('',(0.0,-1.0,0.0));
#1192=VECTOR('',#1191,21.999999999999996);
#1193=LINE('',#1190,#1192);
#1194=EDGE_CURVE('',#1148,#1182,#1193,.T.);
#1195=ORIENTED_EDGE('',*,*,#1194,.F.);
#1196=ORIENTED_EDGE('',*,*,#1154,.T.);
#1197=EDGE_LOOP('',(#1180,#1189,#1195,#1196));
#1198=FACE_OUTER_BOUND('',#1197,.T.);
#1199=ADVANCED_FACE('',(#1198),#1179,.F.);
#1200=CARTESIAN_POINT('',(-20.000000000000018,0.999999999999991,-301.715728752538100));
#1201=DIRECTION('',(0.0,1.0,0.0));
#1202=DIRECTION('',(0.0,0.0,1.0));
#1203=AXIS2_PLACEMENT_3D('',#1200,#1201,#1202);
#1204=TOROIDAL_SURFACE('',#1203,3.999999999999997,2.000000000000000);
#1205=ORIENTED_EDGE('',*,*,#713,.T.);
#1206=CARTESIAN_POINT('',(-16.000000000000021,-1.000000000000008,-301.715728752538100));
#1207=VERTEX_POINT('',#1206);
#1208=CARTESIAN_POINT('',(-20.000000000000018,-1.000000000000008,-301.715728752538100));
#1209=DIRECTION('',(0.0,1.0,0.0));
#1210=DIRECTION('',(1.0,0.0,0.0));
#1211=AXIS2_PLACEMENT_3D('',#1208,#1209,#1210);
#1212=CIRCLE('',#1211,3.999999999999997);
#1213=EDGE_CURVE('',#1207,#701,#1212,.T.);
#1214=ORIENTED_EDGE('',*,*,#1213,.F.);
#1215=CARTESIAN_POINT('',(-16.000000000000021,0.999999999999991,-301.715728752538100));
#1216=DIRECTION('',(0.0,0.0,1.0));
#1217=DIRECTION('',(-1.0,0.0,0.0));
#1218=AXIS2_PLACEMENT_3D('',#1215,#1216,#1217);
#1219=CIRCLE('',#1218,2.000000000000000);
#1220=EDGE_CURVE('',#1182,#1207,#1219,.T.);
#1221=ORIENTED_EDGE('',*,*,#1220,.F.);
#1222=ORIENTED_EDGE('',*,*,#1188,.T.);
#1223=EDGE_LOOP('',(#1205,#1214,#1221,#1222));
#1224=FACE_OUTER_BOUND('',#1223,.T.);
#1225=ADVANCED_FACE('',(#1224),#1204,.T.);
#1226=CARTESIAN_POINT('',(-20.000000000000018,-0.500000000000005,-301.715728752538100));
#1227=DIRECTION('',(0.0,1.0,0.0));
#1228=DIRECTION('',(1.0,0.0,0.0));
#1229=AXIS2_PLACEMENT_3D('',#1226,#1227,#1228);
#1230=CYLINDRICAL_SURFACE('',#1229,12.0);
#1231=ORIENTED_EDGE('',*,*,#748,.T.);
#1232=CARTESIAN_POINT('',(-8.000000000000018,-4.649059E-015,-301.715728752538100));
#1233=VERTEX_POINT('',#1232);
#1234=CARTESIAN_POINT('',(-20.000000000000018,-4.649059E-015,-301.715728752538100));
#1235=DIRECTION('',(0.0,1.0,0.0));
#1236=DIRECTION('',(1.0,0.0,0.0));
#1237=AXIS2_PLACEMENT_3D('',#1234,#1235,#1236);
#1238=CIRCLE('',#1237,12.0);
#1239=EDGE_CURVE('',#1233,#735,#1238,.T.);
#1240=ORIENTED_EDGE('',*,*,#1239,.F.);
#1241=CARTESIAN_POINT('',(-8.000000000000018,-1.000000000000006,-301.715728752538100));
#1242=VERTEX_POINT('',#1241);
#1243=CARTESIAN_POINT('',(-8.000000000000018,-1.000000000000006,-301.715728752538100));
#1244=DIRECTION('',(0.0,1.0,0.0));
#1245=VECTOR('',#1244,1.000000000000001);
#1246=LINE('',#1243,#1245);
#1247=EDGE_CURVE('',#1242,#1233,#1246,.T.);
#1248=ORIENTED_EDGE('',*,*,#1247,.F.);
#1249=CARTESIAN_POINT('',(-20.000000000000018,-1.000000000000006,-301.715728752538100));
#1250=DIRECTION('',(0.0,1.0,0.0));
#1251=DIRECTION('',(1.0,0.0,0.0));
#1252=AXIS2_PLACEMENT_3D('',#1249,#1250,#1251);
#1253=CIRCLE('',#1252,12.0);
#1254=EDGE_CURVE('',#1242,#743,#1253,.T.);
#1255=ORIENTED_EDGE('',*,*,#1254,.T.);
#1256=EDGE_LOOP('',(#1231,#1240,#1248,#1255));
#1257=FACE_OUTER_BOUND('',#1256,.T.);
#1258=ADVANCED_FACE('',(#1257),#1230,.T.);
#1259=CARTESIAN_POINT('',(-17.000000000000018,0.999999999999992,-301.715728752538100));
#1260=CARTESIAN_POINT('',(-17.000000000000014,-3.860885E-015,-301.715728752538100));
#1261=CARTESIAN_POINT('',(-16.000000000000018,-3.774758E-015,-301.715728752538100));
#1262=CARTESIAN_POINT('',(-15.000000000000021,-3.688632E-015,-301.715728752538100));
#1263=CARTESIAN_POINT('',(-15.000000000000018,0.999999999999992,-301.715728752538100));
#1264=CARTESIAN_POINT('',(-17.000000000000018,0.999999999999992,-303.215728752538100));
#1265=CARTESIAN_POINT('',(-17.000000000000014,-3.860885E-015,-303.215728752538100));
#1266=CARTESIAN_POINT('',(-16.000000000000018,-3.774758E-015,-303.715728752538100));
#1267=CARTESIAN_POINT('',(-15.000000000000023,-3.688632E-015,-304.215728752538100));
#1268=CARTESIAN_POINT('',(-15.000000000000018,0.999999999999992,-304.215728752538100));
#1269=CARTESIAN_POINT('',(-18.200000000000028,0.999999999999992,-304.115728752538130));
#1270=CARTESIAN_POINT('',(-18.200000000000024,-3.826434E-015,-304.115728752538130));
#1271=CARTESIAN_POINT('',(-17.600000000000030,-3.774758E-015,-304.915728752538090));
#1272=CARTESIAN_POINT('',(-17.000000000000036,-3.678674E-015,-305.715728752538100));
#1273=CARTESIAN_POINT('',(-17.000000000000036,0.999999999999992,-305.715728752538100));
#1281=(BOUNDED_SURFACE()B_SPLINE_SURFACE(2,2,((#1259,#1264,#1269),(#1260,#1265,#1270),(#1261,#1266,#1271),(#1262,#1267,#1272),(#1263,#1268,#1273)),.UNSPECIFIED.,.F.,.F.,.U.)B_SPLINE_SURFACE_WITH_KNOTS((3,2,3),(3,3),(-3.141592653589789,-1.570796326794897,-4.218847E-015),(0.0,0.927295218001616),.UNSPECIFIED.)GEOMETRIC_REPRESENTATION_ITEM()RATIONAL_B_SPLINE_SURFACE(((1.0,0.894427190999915,1.0),(0.707106781186548,0.632455532033676,0.707106781186548),(1.0,0.894427190999915,1.0),(0.707106781186549,0.632455532033676,0.707106781186549),(1.0,0.894427190999915,1.0)))REPRESENTATION_ITEM('')SURFACE());
#1282=ORIENTED_EDGE('',*,*,#790,.T.);
#1283=CARTESIAN_POINT('',(-17.000000000000021,0.999999999999992,-301.715728752538100));
#1284=VERTEX_POINT('',#1283);
#1285=CARTESIAN_POINT('',(-20.000000000000018,0.999999999999992,-301.715728752538100));
#1286=DIRECTION('',(0.0,1.0,0.0));
#1287=DIRECTION('',(1.0,0.0,0.0));
#1288=AXIS2_PLACEMENT_3D('',#1285,#1286,#1287);
#1289=CIRCLE('',#1288,2.999999999999998);
#1290=EDGE_CURVE('',#1284,#776,#1289,.T.);
#1291=ORIENTED_EDGE('',*,*,#1290,.F.);
#1292=CARTESIAN_POINT('',(-16.000000000000018,-5.143006E-015,-301.715728752538100));
#1293=VERTEX_POINT('',#1292);
#1294=CARTESIAN_POINT('',(-16.000000000000018,0.999999999999996,-301.715728752538100));
#1295=DIRECTION('',(0.0,0.0,-1.0));
#1296=DIRECTION('',(1.0,0.0,0.0));
#1297=AXIS2_PLACEMENT_3D('',#1294,#1295,#1296);
#1298=CIRCLE('',#1297,1.000000000000001);
#1299=EDGE_CURVE('',#1293,#1284,#1298,.T.);
#1300=ORIENTED_EDGE('',*,*,#1299,.F.);
#1301=CARTESIAN_POINT('',(-20.000000000000018,-5.143006E-015,-301.715728752538100));
#1302=DIRECTION('',(0.0,1.0,0.0));
#1303=DIRECTION('',(1.0,0.0,0.0));
#1304=AXIS2_PLACEMENT_3D('',#1301,#1302,#1303);
#1305=CIRCLE('',#1304,3.999999999999999);
#1306=EDGE_CURVE('',#1293,#784,#1305,.T.);
#1307=ORIENTED_EDGE('',*,*,#1306,.T.);
#1308=EDGE_LOOP('',(#1282,#1291,#1300,#1307));
#1309=FACE_OUTER_BOUND('',#1308,.T.);
#1310=ADVANCED_FACE('',(#1309),#1281,.T.);
#1311=CARTESIAN_POINT('',(-20.000000000000018,11.999999999999995,-301.715728752538100));
#1312=DIRECTION('',(0.0,1.0,0.0));
#1313=DIRECTION('',(1.0,0.0,0.0));
#1314=AXIS2_PLACEMENT_3D('',#1311,#1312,#1313);
#1315=CYLINDRICAL_SURFACE('',#1314,2.999999999999998);
#1316=ORIENTED_EDGE('',*,*,#826,.T.);
#1317=CARTESIAN_POINT('',(-17.000000000000021,23.0,-301.715728752538100));
#1318=VERTEX_POINT('',#1317);
#1319=CARTESIAN_POINT('',(-20.000000000000018,23.0,-301.715728752538100));
#1320=DIRECTION('',(0.0,1.0,0.0));
#1321=DIRECTION('',(1.0,0.0,0.0));
#1322=AXIS2_PLACEMENT_3D('',#1319,#1320,#1321);
#1323=CIRCLE('',#1322,2.999999999999998);
#1324=EDGE_CURVE('',#1318,#815,#1323,.T.);
#1325=ORIENTED_EDGE('',*,*,#1324,.F.);
#1326=CARTESIAN_POINT('',(-17.000000000000021,0.999999999999992,-301.715728752538100));
#1327=DIRECTION('',(0.0,1.0,0.0));
#1328=VECTOR('',#1327,22.000000000000007);
#1329=LINE('',#1326,#1328);
#1330=EDGE_CURVE('',#1284,#1318,#1329,.T.);
#1331=ORIENTED_EDGE('',*,*,#1330,.F.);
#1332=ORIENTED_EDGE('',*,*,#1290,.T.);
#1333=EDGE_LOOP('',(#1316,#1325,#1331,#1332));
#1334=FACE_OUTER_BOUND('',#1333,.T.);
#1335=ADVANCED_FACE('',(#1334),#1315,.T.);
#1336=CARTESIAN_POINT('',(-15.000000000000018,23.0,-301.715728752538100));
#1337=CARTESIAN_POINT('',(-15.000000000000018,24.000000000000004,-301.715728752538100));
#1338=CARTESIAN_POINT('',(-16.000000000000018,24.0,-301.715728752538100));
#1339=CARTESIAN_POINT('',(-17.000000000000018,24.0,-301.715728752538100));
#1340=CARTESIAN_POINT('',(-17.000000000000018,23.0,-301.715728752538100));
#1341=CARTESIAN_POINT('',(-15.000000000000018,23.0,-304.215728752538100));
#1342=CARTESIAN_POINT('',(-15.000000000000018,24.0,-304.215728752538100));
#1343=CARTESIAN_POINT('',(-16.000000000000018,24.0,-303.715728752538100));
#1344=CARTESIAN_POINT('',(-17.000000000000018,24.0,-303.215728752538100));
#1345=CARTESIAN_POINT('',(-17.000000000000018,23.0,-303.215728752538100));
#1346=CARTESIAN_POINT('',(-17.000000000000036,23.0,-305.715728752538100));
#1347=CARTESIAN_POINT('',(-17.000000000000036,24.000000000000004,-305.715728752538100));
#1348=CARTESIAN_POINT('',(-17.600000000000030,24.0,-304.915728752538090));
#1349=CARTESIAN_POINT('',(-18.200000000000028,24.0,-304.115728752538130));
#1350=CARTESIAN_POINT('',(-18.200000000000028,23.0,-304.115728752538130));
#1358=(BOUNDED_SURFACE()B_SPLINE_SURFACE(2,2,((#1336,#1341,#1346),(#1337,#1342,#1347),(#1338,#1343,#1348),(#1339,#1344,#1349),(#1340,#1345,#1350)),.UNSPECIFIED.,.F.,.F.,.U.)B_SPLINE_SURFACE_WITH_KNOTS((3,2,3),(3,3),(0.0,1.570796326794897,3.141592653589793),(0.0,0.927295218001616),.UNSPECIFIED.)GEOMETRIC_REPRESENTATION_ITEM()RATIONAL_B_SPLINE_SURFACE(((1.0,0.894427190999915,1.0),(0.707106781186545,0.632455532033673,0.707106781186545),(1.0,0.894427190999915,1.0),(0.707106781186539,0.632455532033668,0.707106781186539),(1.0,0.894427190999915,1.0)))REPRESENTATION_ITEM('')SURFACE());
#1359=ORIENTED_EDGE('',*,*,#859,.T.);
#1360=CARTESIAN_POINT('',(-16.000000000000018,24.0,-301.715728752538100));
#1361=VERTEX_POINT('',#1360);
#1362=CARTESIAN_POINT('',(-20.000000000000018,24.0,-301.715728752538100));
#1363=DIRECTION('',(0.0,1.0,0.0));
#1364=DIRECTION('',(1.0,0.0,0.0));
#1365=AXIS2_PLACEMENT_3D('',#1362,#1363,#1364);
#1366=CIRCLE('',#1365,3.999999999999999);
#1367=EDGE_CURVE('',#1361,#847,#1366,.T.);
#1368=ORIENTED_EDGE('',*,*,#1367,.F.);
#1369=CARTESIAN_POINT('',(-16.000000000000018,23.0,-301.715728752538100));
#1370=DIRECTION('',(0.0,0.0,-1.0));
#1371=DIRECTION('',(0.0,-1.0,0.0));
#1372=AXIS2_PLACEMENT_3D('',#1369,#1370,#1371);
#1373=CIRCLE('',#1372,1.000000000000001);
#1374=EDGE_CURVE('',#1318,#1361,#1373,.T.);
#1375=ORIENTED_EDGE('',*,*,#1374,.F.);
#1376=ORIENTED_EDGE('',*,*,#1324,.T.);
#1377=EDGE_LOOP('',(#1359,#1368,#1375,#1376));
#1378=FACE_OUTER_BOUND('',#1377,.T.);
#1379=ADVANCED_FACE('',(#1378),#1358,.T.);
#1380=CARTESIAN_POINT('',(16.999999999999975,23.000000000000004,-301.715728752538100));
#1381=CARTESIAN_POINT('',(16.999999999999968,24.000000000000007,-301.715728752538100));
#1382=CARTESIAN_POINT('',(15.999999999999968,24.000000000000007,-301.715728752538100));
#1383=CARTESIAN_POINT('',(14.999999999999966,24.000000000000007,-301.715728752538100));
#1384=CARTESIAN_POINT('',(14.999999999999961,23.000000000000004,-301.715728752538100));
#1385=CARTESIAN_POINT('',(16.999999999999975,23.000000000000004,-317.339366749099330));
#1386=CARTESIAN_POINT('',(16.999999999999968,24.000000000000007,-317.339366749099330));
#1387=CARTESIAN_POINT('',(15.999999999999968,24.000000000000007,-316.917106262705770));
#1388=CARTESIAN_POINT('',(14.999999999999970,24.000000000000007,-316.494845776312220));
#1389=CARTESIAN_POINT('',(14.999999999999961,23.000000000000004,-316.494845776312220));
#1390=CARTESIAN_POINT('',(5.802133512727767,23.000000000000004,-328.234588196174970));
#1391=CARTESIAN_POINT('',(5.802133512727760,24.000000000000007,-328.234588196174970));
#1392=CARTESIAN_POINT('',(5.104778552924309,24.000000000000007,-327.517862265265880));
#1393=CARTESIAN_POINT('',(4.407423593120853,24.000000000000007,-326.801136334356780));
#1394=CARTESIAN_POINT('',(4.407423593120850,23.000000000000004,-326.801136334356780));
#1402=(BOUNDED_SURFACE()B_SPLINE_SURFACE(2,2,((#1380,#1385,#1390),(#1381,#1386,#1391),(#1382,#1387,#1392),(#1383,#1388,#1393),(#1384,#1389,#1394)),.UNSPECIFIED.,.F.,.F.,.U.)B_SPLINE_SURFACE_WITH_KNOTS((3,2,3),(3,3),(3.552714E-015,1.570796326794897,3.141592653589790),(0.0,0.799095936770314),.UNSPECIFIED.)GEOMETRIC_REPRESENTATION_ITEM()RATIONAL_B_SPLINE_SURFACE(((1.0,0.921236929297630,1.0),(0.707106781186542,0.651412879785821,0.707106781186542),(1.0,0.921236929297630,1.0),(0.707106781186548,0.651412879785826,0.707106781186548),(1.0,0.921236929297630,1.0)))REPRESENTATION_ITEM('')SURFACE());
#1403=ORIENTED_EDGE('',*,*,#896,.T.);
#1404=CARTESIAN_POINT('',(16.999999999999979,23.000000000000004,-301.715728752538100));
#1405=VERTEX_POINT('',#1404);
#1406=CARTESIAN_POINT('',(-20.000000000000018,23.000000000000004,-301.715728752538100));
#1407=DIRECTION('',(0.0,1.0,0.0));
#1408=DIRECTION('',(1.0,0.0,0.0));
#1409=AXIS2_PLACEMENT_3D('',#1406,#1407,#1408);
#1410=CIRCLE('',#1409,37.0);
#1411=EDGE_CURVE('',#1405,#882,#1410,.T.);
#1412=ORIENTED_EDGE('',*,*,#1411,.F.);
#1413=CARTESIAN_POINT('',(15.999999999999979,24.000000000000004,-301.715728752538100));
#1414=VERTEX_POINT('',#1413);
#1415=CARTESIAN_POINT('',(15.999999999999972,23.0,-301.715728752538100));
#1416=DIRECTION('',(0.0,0.0,-1.0));
#1417=DIRECTION('',(-1.0,0.0,0.0));
#1418=AXIS2_PLACEMENT_3D('',#1415,#1416,#1417);
#1419=CIRCLE('',#1418,1.000000000000008);
#1420=EDGE_CURVE('',#1414,#1405,#1419,.T.);
#1421=ORIENTED_EDGE('',*,*,#1420,.F.);
#1422=CARTESIAN_POINT('',(-20.000000000000018,24.000000000000004,-301.715728752538100));
#1423=DIRECTION('',(0.0,1.0,0.0));
#1424=DIRECTION('',(1.0,0.0,0.0));
#1425=AXIS2_PLACEMENT_3D('',#1422,#1423,#1424);
#1426=CIRCLE('',#1425,36.0);
#1427=EDGE_CURVE('',#1414,#890,#1426,.T.);
#1428=ORIENTED_EDGE('',*,*,#1427,.T.);
#1429=EDGE_LOOP('',(#1403,#1412,#1421,#1428));
#1430=FACE_OUTER_BOUND('',#1429,.T.);
#1431=ADVANCED_FACE('',(#1430),#1402,.T.);
#1432=CARTESIAN_POINT('',(-20.000000000000018,12.000000000000007,-301.715728752538100));
#1433=DIRECTION('',(0.0,1.0,0.0));
#1434=DIRECTION('',(1.0,0.0,0.0));
#1435=AXIS2_PLACEMENT_3D('',#1432,#1433,#1434);
#1436=CYLINDRICAL_SURFACE('',#1435,37.0);
#1437=ORIENTED_EDGE('',*,*,#932,.T.);
#1438=ORIENTED_EDGE('',*,*,#1018,.F.);
#1439=CARTESIAN_POINT('',(16.999999999999979,23.000000000000004,-301.715728752538100));
#1440=DIRECTION('',(0.0,-1.0,0.0));
#1441=VECTOR('',#1440,21.999999999999993);
#1442=LINE('',#1439,#1441);
#1443=EDGE_CURVE('',#1405,#1005,#1442,.T.);
#1444=ORIENTED_EDGE('',*,*,#1443,.F.);
#1445=ORIENTED_EDGE('',*,*,#1411,.T.);
#1446=EDGE_LOOP('',(#1437,#1438,#1444,#1445));
#1447=FACE_OUTER_BOUND('',#1446,.T.);
#1448=ADVANCED_FACE('',(#1447),#1436,.F.);
#1449=CARTESIAN_POINT('',(16.999999999999996,23.000000000000004,0.0));
#1450=DIRECTION('',(-1.0,0.0,0.0));
#1451=DIRECTION('',(0.0,0.0,1.0));
#1452=AXIS2_PLACEMENT_3D('',#1449,#1450,#1451);
#1453=PLANE('',#1452);
#1454=ORIENTED_EDGE('',*,*,#1443,.T.);
#1455=CARTESIAN_POINT('',(16.999999999999989,1.000000000000010,-301.715728752538100));
#1456=DIRECTION('',(0.0,0.0,1.0));
#1457=VECTOR('',#1456,311.715728752538100);
#1458=LINE('',#1455,#1457);
#1459=EDGE_CURVE('',#1005,#316,#1458,.T.);
#1460=ORIENTED_EDGE('',*,*,#1459,.T.);
#1461=ORIENTED_EDGE('',*,*,#321,.T.);
#1462=CARTESIAN_POINT('',(16.999999999999979,23.000000000000004,-301.715728752538100));
#1463=DIRECTION('',(0.0,0.0,1.0));
#1464=VECTOR('',#1463,311.715728752538100);
#1465=LINE('',#1462,#1464);
#1466=EDGE_CURVE('',#1405,#307,#1465,.T.);
#1467=ORIENTED_EDGE('',*,*,#1466,.F.);
#1468=EDGE_LOOP('',(#1454,#1460,#1461,#1467));
#1469=FACE_OUTER_BOUND('',#1468,.T.);
#1470=ADVANCED_FACE('',(#1469),#1453,.T.);
#1471=CARTESIAN_POINT('',(16.0,1.000000000000014,0.0));
#1472=DIRECTION('',(-5.887518E-017,0.0,-1.0));
#1473=DIRECTION('',(0.0,1.0,0.0));
#1474=AXIS2_PLACEMENT_3D('',#1471,#1472,#1473);
#1475=CYLINDRICAL_SURFACE('',#1474,1.000000000000005);
#1476=ORIENTED_EDGE('',*,*,#1011,.T.);
#1477=CARTESIAN_POINT('',(15.999999999999982,8.813321E-015,-301.715728752538100));
#1478=DIRECTION('',(0.0,0.0,1.0));
#1479=VECTOR('',#1478,311.715728752538100);
#1480=LINE('',#1477,#1479);
#1481=EDGE_CURVE('',#996,#324,#1480,.T.);
#1482=ORIENTED_EDGE('',*,*,#1481,.T.);
#1483=ORIENTED_EDGE('',*,*,#330,.T.);
#1484=ORIENTED_EDGE('',*,*,#1459,.F.);
#1485=EDGE_LOOP('',(#1476,#1482,#1483,#1484));
#1486=FACE_OUTER_BOUND('',#1485,.T.);
#1487=ADVANCED_FACE('',(#1486),#1475,.F.);
#1488=CARTESIAN_POINT('',(16.0,8.813321E-015,0.0));
#1489=DIRECTION('',(0.0,1.0,0.0));
#1490=DIRECTION('',(0.0,0.0,1.0));
#1491=AXIS2_PLACEMENT_3D('',#1488,#1489,#1490);
#1492=PLANE('',#1491);
#1493=CARTESIAN_POINT('',(7.999999999999982,4.371503E-015,-301.715728752538100));
#1494=DIRECTION('',(0.0,0.0,1.0));
#1495=VECTOR('',#1494,311.715728752538100);
#1496=LINE('',#1493,#1495);
#1497=EDGE_CURVE('',#1039,#333,#1496,.T.);
#1498=ORIENTED_EDGE('',*,*,#1497,.T.);
#1499=ORIENTED_EDGE('',*,*,#338,.T.);
#1500=ORIENTED_EDGE('',*,*,#1481,.F.);
#1501=ORIENTED_EDGE('',*,*,#1002,.T.);
#1502=ORIENTED_EDGE('',*,*,#958,.T.);
#1503=CARTESIAN_POINT('',(-27.577164466275409,8.881784E-015,-360.204581464244880));
#1504=DIRECTION('',(-0.707106781186548,-5.551115E-016,0.707106781186547));
#1505=VECTOR('',#1504,7.999999999999987);
#1506=LINE('',#1503,#1505);
#1507=EDGE_CURVE('',#944,#473,#1506,.T.);
#1508=ORIENTED_EDGE('',*,*,#1507,.T.);
#1509=ORIENTED_EDGE('',*,*,#502,.F.);
#1510=ORIENTED_EDGE('',*,*,#1051,.F.);
#1511=EDGE_LOOP('',(#1498,#1499,#1500,#1501,#1502,#1508,#1509,#1510));
#1512=FACE_OUTER_BOUND('',#1511,.T.);
#1513=ADVANCED_FACE('',(#1512),#1492,.T.);
#1514=CARTESIAN_POINT('',(8.0,4.371503E-015,0.0));
#1515=DIRECTION('',(-1.0,0.0,0.0));
#1516=DIRECTION('',(0.0,0.0,1.0));
#1517=AXIS2_PLACEMENT_3D('',#1514,#1515,#1516);
#1518=PLANE('',#1517);
#1519=ORIENTED_EDGE('',*,*,#1044,.T.);
#1520=CARTESIAN_POINT('',(7.999999999999982,-0.999999999999997,-301.715728752538100));
#1521=DIRECTION('',(0.0,0.0,1.0));
#1522=VECTOR('',#1521,311.715728752538100);
#1523=LINE('',#1520,#1522);
#1524=EDGE_CURVE('',#1030,#341,#1523,.T.);
#1525=ORIENTED_EDGE('',*,*,#1524,.T.);
#1526=ORIENTED_EDGE('',*,*,#346,.T.);
#1527=ORIENTED_EDGE('',*,*,#1497,.F.);
#1528=EDGE_LOOP('',(#1519,#1525,#1526,#1527));
#1529=FACE_OUTER_BOUND('',#1528,.T.);
#1530=ADVANCED_FACE('',(#1529),#1518,.T.);
#1531=CARTESIAN_POINT('',(8.0,-0.999999999999997,0.0));
#1532=DIRECTION('',(0.0,-1.0,0.0));
#1533=DIRECTION('',(0.0,0.0,-1.0));
#1534=AXIS2_PLACEMENT_3D('',#1531,#1532,#1533);
#1535=PLANE('',#1534);
#1536=CARTESIAN_POINT('',(15.999999999999993,-0.999999999999991,-301.715728752538100));
#1537=DIRECTION('',(0.0,0.0,1.0));
#1538=VECTOR('',#1537,311.715728752538100);
#1539=LINE('',#1536,#1538);
#1540=EDGE_CURVE('',#1072,#349,#1539,.T.);
#1541=ORIENTED_EDGE('',*,*,#1540,.T.);
#1542=ORIENTED_EDGE('',*,*,#354,.T.);
#1543=ORIENTED_EDGE('',*,*,#1524,.F.);
#1544=ORIENTED_EDGE('',*,*,#1036,.T.);
#1545=ORIENTED_EDGE('',*,*,#488,.T.);
#1546=CARTESIAN_POINT('',(-33.234018715767782,-0.999999999999996,-354.547727214752510));
#1547=DIRECTION('',(0.707106781186548,5.551115E-016,-0.707106781186547));
#1548=VECTOR('',#1547,7.999999999999989);
#1549=LINE('',#1546,#1548);
#1550=EDGE_CURVE('',#475,#513,#1549,.T.);
#1551=ORIENTED_EDGE('',*,*,#1550,.T.);
#1552=ORIENTED_EDGE('',*,*,#544,.F.);
#1553=ORIENTED_EDGE('',*,*,#1085,.F.);
#1554=EDGE_LOOP('',(#1541,#1542,#1543,#1544,#1545,#1551,#1552,#1553));
#1555=FACE_OUTER_BOUND('',#1554,.T.);
#1556=ADVANCED_FACE('',(#1555),#1535,.T.);
#1557=CARTESIAN_POINT('',(16.000000000000007,1.000000000000009,0.0));
#1558=DIRECTION('',(-5.887518E-017,0.0,-1.0));
#1559=DIRECTION('',(0.0,-1.0,0.0));
#1560=AXIS2_PLACEMENT_3D('',#1557,#1558,#1559);
#1561=CYLINDRICAL_SURFACE('',#1560,2.0);
#1562=ORIENTED_EDGE('',*,*,#1078,.T.);
#1563=CARTESIAN_POINT('',(17.999999999999989,1.000000000000010,-301.715728752538100));
#1564=DIRECTION('',(0.0,0.0,1.0));
#1565=VECTOR('',#1564,311.715728752538100);
#1566=LINE('',#1563,#1565);
#1567=EDGE_CURVE('',#1063,#357,#1566,.T.);
#1568=ORIENTED_EDGE('',*,*,#1567,.T.);
#1569=ORIENTED_EDGE('',*,*,#363,.T.);
#1570=ORIENTED_EDGE('',*,*,#1540,.F.);
#1571=EDGE_LOOP('',(#1562,#1568,#1569,#1570));
#1572=FACE_OUTER_BOUND('',#1571,.T.);
#1573=ADVANCED_FACE('',(#1572),#1561,.T.);
#1574=CARTESIAN_POINT('',(18.000000000000007,1.000000000000010,0.0));
#1575=DIRECTION('',(1.0,0.0,0.0));
#1576=DIRECTION('',(0.0,0.0,-1.0));
#1577=AXIS2_PLACEMENT_3D('',#1574,#1575,#1576);
#1578=PLANE('',#1577);
#1579=ORIENTED_EDGE('',*,*,#1109,.T.);
#1580=CARTESIAN_POINT('',(17.999999999999979,23.000000000000004,-301.715728752538100));
#1581=DIRECTION('',(0.0,0.0,1.0));
#1582=VECTOR('',#1581,311.715728752538100);
#1583=LINE('',#1580,#1582);
#1584=EDGE_CURVE('',#1097,#366,#1583,.T.);
#1585=ORIENTED_EDGE('',*,*,#1584,.T.);
#1586=ORIENTED_EDGE('',*,*,#371,.T.);
#1587=ORIENTED_EDGE('',*,*,#1567,.F.);
#1588=EDGE_LOOP('',(#1579,#1585,#1586,#1587));
#1589=FACE_OUTER_BOUND('',#1588,.T.);
#1590=ADVANCED_FACE('',(#1589),#1578,.T.);
#1591=CARTESIAN_POINT('',(16.0,23.000000000000007,0.0));
#1592=DIRECTION('',(-5.887518E-017,0.0,-1.0));
#1593=DIRECTION('',(1.0,0.0,0.0));
#1594=AXIS2_PLACEMENT_3D('',#1591,#1592,#1593);
#1595=CYLINDRICAL_SURFACE('',#1594,1.999999999999997);
#1596=ORIENTED_EDGE('',*,*,#1135,.T.);
#1597=CARTESIAN_POINT('',(15.999999999999980,25.000000000000004,-301.715728752538100));
#1598=DIRECTION('',(0.0,0.0,1.0));
#1599=VECTOR('',#1598,311.715728752538100);
#1600=LINE('',#1597,#1599);
#1601=EDGE_CURVE('',#1122,#374,#1600,.T.);
#1602=ORIENTED_EDGE('',*,*,#1601,.T.);
#1603=ORIENTED_EDGE('',*,*,#380,.T.);
#1604=ORIENTED_EDGE('',*,*,#1584,.F.);
#1605=EDGE_LOOP('',(#1596,#1602,#1603,#1604));
#1606=FACE_OUTER_BOUND('',#1605,.T.);
#1607=ADVANCED_FACE('',(#1606),#1595,.T.);
#1608=CARTESIAN_POINT('',(15.999999999999998,25.000000000000004,0.0));
#1609=DIRECTION('',(0.0,1.0,0.0));
#1610=DIRECTION('',(0.0,0.0,1.0));
#1611=AXIS2_PLACEMENT_3D('',#1608,#1609,#1610);
#1612=PLANE('',#1611);
#1613=CARTESIAN_POINT('',(-16.000000000000021,24.999999999999993,-301.715728752538100));
#1614=DIRECTION('',(0.0,0.0,1.0));
#1615=VECTOR('',#1614,311.715728752538100);
#1616=LINE('',#1613,#1615);
#1617=EDGE_CURVE('',#1157,#383,#1616,.T.);
#1618=ORIENTED_EDGE('',*,*,#1617,.T.);
#1619=ORIENTED_EDGE('',*,*,#388,.T.);
#1620=ORIENTED_EDGE('',*,*,#1601,.F.);
#1621=ORIENTED_EDGE('',*,*,#1128,.T.);
#1622=ORIENTED_EDGE('',*,*,#600,.T.);
#1623=CARTESIAN_POINT('',(-27.577164466275413,25.000000000000004,-360.204581464244880));
#1624=DIRECTION('',(-0.707106781186547,-3.330669E-016,0.707106781186548));
#1625=VECTOR('',#1624,32.000000000000014);
#1626=LINE('',#1623,#1625);
#1627=EDGE_CURVE('',#586,#619,#1626,.T.);
#1628=ORIENTED_EDGE('',*,*,#1627,.T.);
#1629=ORIENTED_EDGE('',*,*,#650,.F.);
#1630=ORIENTED_EDGE('',*,*,#1170,.F.);
#1631=EDGE_LOOP('',(#1618,#1619,#1620,#1621,#1622,#1628,#1629,#1630));
#1632=FACE_OUTER_BOUND('',#1631,.T.);
#1633=ORIENTED_EDGE('',*,*,#192,.T.);
#1634=ORIENTED_EDGE('',*,*,#161,.T.);
#1635=ORIENTED_EDGE('',*,*,#128,.T.);
#1636=ORIENTED_EDGE('',*,*,#97,.T.);
#1637=ORIENTED_EDGE('',*,*,#285,.T.);
#1638=ORIENTED_EDGE('',*,*,#256,.T.);
#1639=ORIENTED_EDGE('',*,*,#225,.T.);
#1640=EDGE_LOOP('',(#1633,#1634,#1635,#1636,#1637,#1638,#1639));
#1641=FACE_BOUND('',#1640,.T.);
#1642=ADVANCED_FACE('',(#1632,#1641),#1612,.T.);
#1643=CARTESIAN_POINT('',(-16.0,22.999999999999986,0.0));
#1644=DIRECTION('',(-5.887518E-017,0.0,-1.0));
#1645=DIRECTION('',(0.0,1.0,0.0));
#1646=AXIS2_PLACEMENT_3D('',#1643,#1644,#1645);
#1647=CYLINDRICAL_SURFACE('',#1646,2.000000000000006);
#1648=ORIENTED_EDGE('',*,*,#1163,.T.);
#1649=CARTESIAN_POINT('',(-18.000000000000025,22.999999999999989,-301.715728752538100));
#1650=DIRECTION('',(0.0,0.0,1.0));
#1651=VECTOR('',#1650,311.715728752538100);
#1652=LINE('',#1649,#1651);
#1653=EDGE_CURVE('',#1148,#391,#1652,.T.);
#1654=ORIENTED_EDGE('',*,*,#1653,.T.);
#1655=ORIENTED_EDGE('',*,*,#397,.T.);
#1656=ORIENTED_EDGE('',*,*,#1617,.F.);
#1657=EDGE_LOOP('',(#1648,#1654,#1655,#1656));
#1658=FACE_OUTER_BOUND('',#1657,.T.);
#1659=ADVANCED_FACE('',(#1658),#1647,.T.);
#1660=CARTESIAN_POINT('',(-18.000000000000007,22.999999999999989,0.0));
#1661=DIRECTION('',(-1.0,0.0,0.0));
#1662=DIRECTION('',(0.0,0.0,1.0));
#1663=AXIS2_PLACEMENT_3D('',#1660,#1661,#1662);
#1664=PLANE('',#1663);
#1665=ORIENTED_EDGE('',*,*,#1194,.T.);
#1666=CARTESIAN_POINT('',(-18.000000000000021,0.999999999999992,-301.715728752538100));
#1667=DIRECTION('',(0.0,0.0,1.0));
#1668=VECTOR('',#1667,311.715728752538100);
#1669=LINE('',#1666,#1668);
#1670=EDGE_CURVE('',#1182,#400,#1669,.T.);
#1671=ORIENTED_EDGE('',*,*,#1670,.T.);
#1672=ORIENTED_EDGE('',*,*,#405,.T.);
#1673=ORIENTED_EDGE('',*,*,#1653,.F.);
#1674=EDGE_LOOP('',(#1665,#1671,#1672,#1673));
#1675=FACE_OUTER_BOUND('',#1674,.T.);
#1676=ADVANCED_FACE('',(#1675),#1664,.T.);
#1677=CARTESIAN_POINT('',(-16.000000000000004,0.999999999999991,0.0));
#1678=DIRECTION('',(-5.887518E-017,0.0,-1.0));
#1679=DIRECTION('',(-1.0,0.0,0.0));
#1680=AXIS2_PLACEMENT_3D('',#1677,#1678,#1679);
#1681=CYLINDRICAL_SURFACE('',#1680,2.000000000000000);
#1682=ORIENTED_EDGE('',*,*,#1220,.T.);
#1683=CARTESIAN_POINT('',(-16.000000000000021,-1.000000000000008,-301.715728752538100));
#1684=DIRECTION('',(0.0,0.0,1.0));
#1685=VECTOR('',#1684,311.715728752538100);
#1686=LINE('',#1683,#1685);
#1687=EDGE_CURVE('',#1207,#408,#1686,.T.);
#1688=ORIENTED_EDGE('',*,*,#1687,.T.);
#1689=ORIENTED_EDGE('',*,*,#414,.T.);
#1690=ORIENTED_EDGE('',*,*,#1670,.F.);
#1691=EDGE_LOOP('',(#1682,#1688,#1689,#1690));
#1692=FACE_OUTER_BOUND('',#1691,.T.);
#1693=ADVANCED_FACE('',(#1692),#1681,.T.);
#1694=CARTESIAN_POINT('',(-16.000000000000004,-1.000000000000008,0.0));
#1695=DIRECTION('',(0.0,-1.0,0.0));
#1696=DIRECTION('',(0.0,0.0,-1.0));
#1697=AXIS2_PLACEMENT_3D('',#1694,#1695,#1696);
#1698=PLANE('',#1697);
#1699=CARTESIAN_POINT('',(-8.000000000000018,-1.000000000000006,-301.715728752538100));
#1700=DIRECTION('',(0.0,0.0,1.0));
#1701=VECTOR('',#1700,311.715728752538100);
#1702=LINE('',#1699,#1701);
#1703=EDGE_CURVE('',#1242,#417,#1702,.T.);
#1704=ORIENTED_EDGE('',*,*,#1703,.T.);
#1705=ORIENTED_EDGE('',*,*,#422,.T.);
#1706=ORIENTED_EDGE('',*,*,#1687,.F.);
#1707=ORIENTED_EDGE('',*,*,#1213,.T.);
#1708=ORIENTED_EDGE('',*,*,#706,.T.);
#1709=CARTESIAN_POINT('',(-50.204581464244939,-1.000000000000008,-337.577164466275350));
#1710=DIRECTION('',(0.707106781186549,2.775558E-016,-0.707106781186546));
#1711=VECTOR('',#1710,8.000000000000004);
#1712=LINE('',#1709,#1711);
#1713=EDGE_CURVE('',#692,#725,#1712,.T.);
#1714=ORIENTED_EDGE('',*,*,#1713,.T.);
#1715=ORIENTED_EDGE('',*,*,#754,.F.);
#1716=ORIENTED_EDGE('',*,*,#1254,.F.);
#1717=EDGE_LOOP('',(#1704,#1705,#1706,#1707,#1708,#1714,#1715,#1716));
#1718=FACE_OUTER_BOUND('',#1717,.T.);
#1719=ADVANCED_FACE('',(#1718),#1698,.T.);
#1720=CARTESIAN_POINT('',(-8.0,-1.000000000000006,0.0));
#1721=DIRECTION('',(1.0,0.0,0.0));
#1722=DIRECTION('',(0.0,0.0,-1.0));
#1723=AXIS2_PLACEMENT_3D('',#1720,#1721,#1722);
#1724=PLANE('',#1723);
#1725=ORIENTED_EDGE('',*,*,#1247,.T.);
#1726=CARTESIAN_POINT('',(-8.000000000000018,-4.649059E-015,-301.715728752538100));
#1727=DIRECTION('',(0.0,0.0,1.0));
#1728=VECTOR('',#1727,311.715728752538100);
#1729=LINE('',#1726,#1728);
#1730=EDGE_CURVE('',#1233,#425,#1729,.T.);
#1731=ORIENTED_EDGE('',*,*,#1730,.T.);
#1732=ORIENTED_EDGE('',*,*,#430,.T.);
#1733=ORIENTED_EDGE('',*,*,#1703,.F.);
#1734=EDGE_LOOP('',(#1725,#1731,#1732,#1733));
#1735=FACE_OUTER_BOUND('',#1734,.T.);
#1736=ADVANCED_FACE('',(#1735),#1724,.T.);
#1737=CARTESIAN_POINT('',(-8.0,-4.649059E-015,0.0));
#1738=DIRECTION('',(0.0,1.0,0.0));
#1739=DIRECTION('',(0.0,0.0,1.0));
#1740=AXIS2_PLACEMENT_3D('',#1737,#1738,#1739);
#1741=PLANE('',#1740);
#1742=CARTESIAN_POINT('',(-16.000000000000018,-5.143006E-015,-301.715728752538100));
#1743=DIRECTION('',(0.0,0.0,1.0));
#1744=VECTOR('',#1743,311.715728752538100);
#1745=LINE('',#1742,#1744);
#1746=EDGE_CURVE('',#1293,#433,#1745,.T.);
#1747=ORIENTED_EDGE('',*,*,#1746,.T.);
#1748=ORIENTED_EDGE('',*,*,#438,.T.);
#1749=ORIENTED_EDGE('',*,*,#1730,.F.);
#1750=ORIENTED_EDGE('',*,*,#1239,.T.);
#1751=ORIENTED_EDGE('',*,*,#740,.T.);
#1752=CARTESIAN_POINT('',(-44.547727214752541,-4.440892E-015,-343.234018715767720));
#1753=DIRECTION('',(-0.707106781186549,0.0,0.707106781186546));
#1754=VECTOR('',#1753,8.000000000000004);
#1755=LINE('',#1752,#1754);
#1756=EDGE_CURVE('',#727,#765,#1755,.T.);
#1757=ORIENTED_EDGE('',*,*,#1756,.T.);
#1758=ORIENTED_EDGE('',*,*,#796,.F.);
#1759=ORIENTED_EDGE('',*,*,#1306,.F.);
#1760=EDGE_LOOP('',(#1747,#1748,#1749,#1750,#1751,#1757,#1758,#1759));
#1761=FACE_OUTER_BOUND('',#1760,.T.);
#1762=ADVANCED_FACE('',(#1761),#1741,.T.);
#1763=CARTESIAN_POINT('',(-16.0,0.999999999999996,0.0));
#1764=DIRECTION('',(-5.887518E-017,0.0,-1.0));
#1765=DIRECTION('',(1.0,0.0,0.0));
#1766=AXIS2_PLACEMENT_3D('',#1763,#1764,#1765);
#1767=CYLINDRICAL_SURFACE('',#1766,1.000000000000001);
#1768=ORIENTED_EDGE('',*,*,#1299,.T.);
#1769=CARTESIAN_POINT('',(-17.000000000000021,0.999999999999992,-301.715728752538100));
#1770=DIRECTION('',(0.0,0.0,1.0));
#1771=VECTOR('',#1770,311.715728752538100);
#1772=LINE('',#1769,#1771);
#1773=EDGE_CURVE('',#1284,#441,#1772,.T.);
#1774=ORIENTED_EDGE('',*,*,#1773,.T.);
#1775=ORIENTED_EDGE('',*,*,#447,.T.);
#1776=ORIENTED_EDGE('',*,*,#1746,.F.);
#1777=EDGE_LOOP('',(#1768,#1774,#1775,#1776));
#1778=FACE_OUTER_BOUND('',#1777,.T.);
#1779=ADVANCED_FACE('',(#1778),#1767,.F.);
#1780=CARTESIAN_POINT('',(-17.0,0.999999999999992,0.0));
#1781=DIRECTION('',(1.0,0.0,0.0));
#1782=DIRECTION('',(0.0,0.0,-1.0));
#1783=AXIS2_PLACEMENT_3D('',#1780,#1781,#1782);
#1784=PLANE('',#1783);
#1785=ORIENTED_EDGE('',*,*,#1330,.T.);
#1786=CARTESIAN_POINT('',(-17.000000000000021,23.0,-301.715728752538100));
#1787=DIRECTION('',(0.0,0.0,1.0));
#1788=VECTOR('',#1787,311.715728752538100);
#1789=LINE('',#1786,#1788);
#1790=EDGE_CURVE('',#1318,#450,#1789,.T.);
#1791=ORIENTED_EDGE('',*,*,#1790,.T.);
#1792=ORIENTED_EDGE('',*,*,#455,.T.);
#1793=ORIENTED_EDGE('',*,*,#1773,.F.);
#1794=EDGE_LOOP('',(#1785,#1791,#1792,#1793));
#1795=FACE_OUTER_BOUND('',#1794,.T.);
#1796=ADVANCED_FACE('',(#1795),#1784,.T.);
#1797=CARTESIAN_POINT('',(-16.0,23.0,0.0));
#1798=DIRECTION('',(-5.887518E-017,0.0,-1.0));
#1799=DIRECTION('',(0.0,-1.0,0.0));
#1800=AXIS2_PLACEMENT_3D('',#1797,#1798,#1799);
#1801=CYLINDRICAL_SURFACE('',#1800,1.000000000000001);
#1802=ORIENTED_EDGE('',*,*,#1374,.T.);
#1803=CARTESIAN_POINT('',(-16.000000000000018,24.0,-301.715728752538100));
#1804=DIRECTION('',(0.0,0.0,1.0));
#1805=VECTOR('',#1804,311.715728752538100);
#1806=LINE('',#1803,#1805);
#1807=EDGE_CURVE('',#1361,#299,#1806,.T.);
#1808=ORIENTED_EDGE('',*,*,#1807,.T.);
#1809=ORIENTED_EDGE('',*,*,#462,.T.);
#1810=ORIENTED_EDGE('',*,*,#1790,.F.);
#1811=EDGE_LOOP('',(#1802,#1808,#1809,#1810));
#1812=FACE_OUTER_BOUND('',#1811,.T.);
#1813=ADVANCED_FACE('',(#1812),#1801,.F.);
#1814=CARTESIAN_POINT('',(-16.0,24.0,0.0));
#1815=DIRECTION('',(0.0,-1.0,0.0));
#1816=DIRECTION('',(0.0,0.0,-1.0));
#1817=AXIS2_PLACEMENT_3D('',#1814,#1815,#1816);
#1818=PLANE('',#1817);
#1819=CARTESIAN_POINT('',(15.999999999999996,24.000000000000004,10.0));
#1820=DIRECTION('',(0.0,0.0,-1.0));
#1821=VECTOR('',#1820,311.715728752538100);
#1822=LINE('',#1819,#1821);
#1823=EDGE_CURVE('',#297,#1414,#1822,.T.);
#1824=ORIENTED_EDGE('',*,*,#1823,.F.);
#1825=ORIENTED_EDGE('',*,*,#304,.T.);
#1826=ORIENTED_EDGE('',*,*,#1807,.F.);
#1827=ORIENTED_EDGE('',*,*,#1367,.T.);
#1828=ORIENTED_EDGE('',*,*,#852,.T.);
#1829=CARTESIAN_POINT('',(-50.204581464244939,24.0,-337.577164466275350));
#1830=DIRECTION('',(0.707106781186547,1.110223E-016,-0.707106781186548));
#1831=VECTOR('',#1830,32.000000000000014);
#1832=LINE('',#1829,#1831);
#1833=EDGE_CURVE('',#838,#871,#1832,.T.);
#1834=ORIENTED_EDGE('',*,*,#1833,.T.);
#1835=ORIENTED_EDGE('',*,*,#902,.F.);
#1836=ORIENTED_EDGE('',*,*,#1427,.F.);
#1837=EDGE_LOOP('',(#1824,#1825,#1826,#1827,#1828,#1834,#1835,#1836));
#1838=FACE_OUTER_BOUND('',#1837,.T.);
#1839=ORIENTED_EDGE('',*,*,#183,.T.);
#1840=ORIENTED_EDGE('',*,*,#215,.T.);
#1841=ORIENTED_EDGE('',*,*,#247,.T.);
#1842=ORIENTED_EDGE('',*,*,#277,.T.);
#1843=ORIENTED_EDGE('',*,*,#81,.T.);
#1844=ORIENTED_EDGE('',*,*,#119,.T.);
#1845=ORIENTED_EDGE('',*,*,#151,.T.);
#1846=EDGE_LOOP('',(#1839,#1840,#1841,#1842,#1843,#1844,#1845));
#1847=FACE_BOUND('',#1846,.T.);
#1848=ADVANCED_FACE('',(#1838,#1847),#1818,.T.);
#1849=CARTESIAN_POINT('',(15.999999999999989,23.0,0.0));
#1850=DIRECTION('',(-5.887518E-017,0.0,-1.0));
#1851=DIRECTION('',(-1.0,0.0,0.0));
#1852=AXIS2_PLACEMENT_3D('',#1849,#1850,#1851);
#1853=CYLINDRICAL_SURFACE('',#1852,1.000000000000008);
#1854=ORIENTED_EDGE('',*,*,#1420,.T.);
#1855=ORIENTED_EDGE('',*,*,#1466,.T.);
#1856=ORIENTED_EDGE('',*,*,#313,.T.);
#1857=ORIENTED_EDGE('',*,*,#1823,.T.);
#1858=EDGE_LOOP('',(#1854,#1855,#1856,#1857));
#1859=FACE_OUTER_BOUND('',#1858,.T.);
#1860=ADVANCED_FACE('',(#1859),#1853,.F.);
#1861=CARTESIAN_POINT('',(-38.890872965260137,0.0,-348.890872965260140));
#1862=DIRECTION('',(0.707106781186548,0.0,0.707106781186547));
#1863=DIRECTION('',(0.707106781186547,0.0,-0.707106781186548));
#1864=AXIS2_PLACEMENT_3D('',#1861,#1862,#1863);
#1865=PLANE('',#1864);
#1866=ORIENTED_EDGE('',*,*,#1507,.F.);
#1867=ORIENTED_EDGE('',*,*,#950,.F.);
#1868=ORIENTED_EDGE('',*,*,#918,.F.);
#1869=ORIENTED_EDGE('',*,*,#879,.F.);
#1870=ORIENTED_EDGE('',*,*,#1833,.F.);
#1871=ORIENTED_EDGE('',*,*,#844,.F.);
#1872=ORIENTED_EDGE('',*,*,#812,.F.);
#1873=ORIENTED_EDGE('',*,*,#773,.F.);
#1874=ORIENTED_EDGE('',*,*,#1756,.F.);
#1875=ORIENTED_EDGE('',*,*,#732,.F.);
#1876=ORIENTED_EDGE('',*,*,#1713,.F.);
#1877=ORIENTED_EDGE('',*,*,#698,.F.);
#1878=ORIENTED_EDGE('',*,*,#666,.F.);
#1879=ORIENTED_EDGE('',*,*,#627,.F.);
#1880=ORIENTED_EDGE('',*,*,#1627,.F.);
#1881=ORIENTED_EDGE('',*,*,#592,.F.);
#1882=ORIENTED_EDGE('',*,*,#560,.F.);
#1883=ORIENTED_EDGE('',*,*,#521,.F.);
#1884=ORIENTED_EDGE('',*,*,#1550,.F.);
#1885=ORIENTED_EDGE('',*,*,#480,.F.);
#1886=EDGE_LOOP('',(#1866,#1867,#1868,#1869,#1870,#1871,#1872,#1873,#1874,#1875,#1876,#1877,#1878,#1879,#1880,#1881,#1882,#1883,#1884,#1885));
#1887=FACE_OUTER_BOUND('',#1886,.T.);
#1888=ADVANCED_FACE('',(#1887),#1865,.F.);
#1889=CLOSED_SHELL('',(#107,#138,#171,#202,#235,#266,#290,#466,#506,#548,#579,#612,#654,#685,#718,#758,#800,#831,#864,#906,#937,#970,#1022,#1055,#1089,#1114,#1140,#1174,#1199,#1225,#1258,#1310,#1335,#1379,#1431,#1448,#1470,#1487,#1513,#1530,#1556,#1573,#1590,#1607,#1642,#1659,#1676,#1693,#1719,#1736,#1762,#1779,#1796,#1813,#1848,#1860,#1888));
#1890=MANIFOLD_SOLID_BREP('',#1889);
#1891=DRAUGHTING_PRE_DEFINED_COLOUR('yellow');
#1892=FILL_AREA_STYLE_COLOUR('Yellow',#1891);
#1893=FILL_AREA_STYLE('Yellow',(#1892));
#1894=SURFACE_STYLE_FILL_AREA(#1893);
#1895=SURFACE_SIDE_STYLE('Yellow',(#1894));
#1896=SURFACE_STYLE_USAGE(.BOTH.,#1895);
#1897=PRESENTATION_STYLE_ASSIGNMENT((#1896));
#1898=STYLED_ITEM('',(#1897),#1890);
#1899=MECHANICAL_DESIGN_GEOMETRIC_PRESENTATION_REPRESENTATION('',(#1898),#36);
#1900=ADVANCED_BREP_SHAPE_REPRESENTATION('ABSR',(#1890),#36);
#1901=SHAPE_REPRESENTATION_RELATIONSHIP('SRR','None',#1900,#41);
ENDSEC;
END-ISO-10303-21;
