ISO-10303-21;
HEADER;
/****************************************************************
 * Generated by software with PDE/Lib inside                    *
 * PDElib Version v51a, created Thu 12/14/2006                  *
 * International Technegroup Inc. (www.iti-oh.com)              *
 ****************************************************************/
FILE_DESCRIPTION((''),'2;1');
FILE_NAME('D:\\THANG\\2018\\YouTube\\2F\\10FlushSlideDoor\\Z10x3.stp','2018-03-07T21:08:35',('Administrator'),(''),'Autodesk Inventor 2008','Autodesk Inventor 2008','');
FILE_SCHEMA(('AUTOMOTIVE_DESIGN { 1 0 10303 214 1 1 1 1 }'));
ENDSEC;
DATA;
#5=APPLICATION_CONTEXT('automotive design');
#6=APPLICATION_PROTOCOL_DEFINITION('International Standard','automotive_design',2001,#5);
#7=PRODUCT_CONTEXT('',#5,'mechanical');
#8=PRODUCT('Z10x3','Z10x3',$,(#7));
#9=PRODUCT_RELATED_PRODUCT_CATEGORY('part',$,(#8));
#10=PRODUCT_DEFINITION_FORMATION('',$,#8);
#11=PRODUCT_DEFINITION_CONTEXT('part definition',#5,'design');
#12=PRODUCT_DEFINITION('',$,#10,#11);
#18=(NAMED_UNIT(*)PLANE_ANGLE_UNIT()SI_UNIT($,.RADIAN.));
#19=DIMENSIONAL_EXPONENTS(0.0,0.0,0.0,0.0,0.0,0.0,0.0);
#20=PLANE_ANGLE_MEASURE_WITH_UNIT(PLANE_ANGLE_MEASURE(0.017453292500000),#18);
#24=(CONVERSION_BASED_UNIT('DEGREE',#20)NAMED_UNIT(#19)PLANE_ANGLE_UNIT());
#28=(NAMED_UNIT(*)SI_UNIT($,.STERADIAN.)SOLID_ANGLE_UNIT());
#32=(LENGTH_UNIT()NAMED_UNIT(*)SI_UNIT(.MILLI.,.METRE.));
#34=UNCERTAINTY_MEASURE_WITH_UNIT(LENGTH_MEASURE(0.010000000000000),#32,'DISTANCE_ACCURACY_VALUE','');
#36=(GEOMETRIC_REPRESENTATION_CONTEXT(3)GLOBAL_UNCERTAINTY_ASSIGNED_CONTEXT((#34))GLOBAL_UNIT_ASSIGNED_CONTEXT((#24,#28,#32))REPRESENTATION_CONTEXT('None','None'));
#37=AXIS2_PLACEMENT_3D('',#38,#39,#40);
#38=CARTESIAN_POINT('',(0.0,0.0,0.0));
#39=DIRECTION('',(0.0,0.0,1.0));
#40=DIRECTION('',(1.0,0.0,0.0));
#41=SHAPE_REPRESENTATION('',(#37),#36);
#42=PRODUCT_DEFINITION_SHAPE('','',#12);
#43=SHAPE_DEFINITION_REPRESENTATION(#42,#41);
#49=(NAMED_UNIT(*)PLANE_ANGLE_UNIT()SI_UNIT($,.RADIAN.));
#50=DIMENSIONAL_EXPONENTS(0.0,0.0,0.0,0.0,0.0,0.0,0.0);
#51=PLANE_ANGLE_MEASURE_WITH_UNIT(PLANE_ANGLE_MEASURE(0.017453292500000),#49);
#55=(CONVERSION_BASED_UNIT('DEGREE',#51)NAMED_UNIT(#50)PLANE_ANGLE_UNIT());
#59=(NAMED_UNIT(*)SI_UNIT($,.STERADIAN.)SOLID_ANGLE_UNIT());
#63=(LENGTH_UNIT()NAMED_UNIT(*)SI_UNIT(.MILLI.,.METRE.));
#65=UNCERTAINTY_MEASURE_WITH_UNIT(LENGTH_MEASURE(0.000001000000000),#63,'DISTANCE_ACCURACY_VALUE','');
#67=(GEOMETRIC_REPRESENTATION_CONTEXT(3)GLOBAL_UNCERTAINTY_ASSIGNED_CONTEXT((#65))GLOBAL_UNIT_ASSIGNED_CONTEXT((#55,#59,#63))REPRESENTATION_CONTEXT('','3D'));
#68=CARTESIAN_POINT('',(0.0,6.605827E-015,109.0));
#69=DIRECTION('',(0.0,0.0,-1.0));
#70=DIRECTION('',(-1.0,0.0,0.0));
#71=AXIS2_PLACEMENT_3D('',#68,#69,#70);
#72=CONICAL_SURFACE('',#71,5.999999999999996,45.000000000000099);
#73=CARTESIAN_POINT('',(4.999999999999995,5.993524E-015,110.0));
#74=VERTEX_POINT('',#73);
#75=CARTESIAN_POINT('',(0.0,6.605827E-015,110.0));
#76=DIRECTION('',(0.0,0.0,-1.0));
#77=DIRECTION('',(-1.0,0.0,0.0));
#78=AXIS2_PLACEMENT_3D('',#75,#76,#77);
#79=CIRCLE('',#78,4.999999999999995);
#80=EDGE_CURVE('',#74,#74,#79,.T.);
#81=ORIENTED_EDGE('',*,*,#80,.T.);
#82=EDGE_LOOP('',(#81));
#83=FACE_OUTER_BOUND('',#82,.T.);
#84=CARTESIAN_POINT('',(6.999999999999995,7.463051E-015,108.0));
#85=VERTEX_POINT('',#84);
#86=CARTESIAN_POINT('',(0.0,6.605827E-015,108.0));
#87=DIRECTION('',(0.0,0.0,1.0));
#88=DIRECTION('',(-1.0,0.0,0.0));
#89=AXIS2_PLACEMENT_3D('',#86,#87,#88);
#90=CIRCLE('',#89,6.999999999999995);
#91=EDGE_CURVE('',#85,#85,#90,.T.);
#92=ORIENTED_EDGE('',*,*,#91,.T.);
#93=EDGE_LOOP('',(#92));
#94=FACE_BOUND('',#93,.T.);
#95=ADVANCED_FACE('',(#83,#94),#72,.T.);
#96=CARTESIAN_POINT('',(0.0,6.605827E-015,90.0));
#97=DIRECTION('',(0.0,0.0,1.0));
#98=DIRECTION('',(-1.0,0.0,0.0));
#99=AXIS2_PLACEMENT_3D('',#96,#97,#98);
#100=CYLINDRICAL_SURFACE('',#99,6.999999999999995);
#101=CARTESIAN_POINT('',(6.999999999999995,7.463080E-015,90.0));
#102=VERTEX_POINT('',#101);
#103=CARTESIAN_POINT('',(0.0,6.605827E-015,90.0));
#104=DIRECTION('',(0.0,0.0,-1.0));
#105=DIRECTION('',(-1.0,0.0,0.0));
#106=AXIS2_PLACEMENT_3D('',#103,#104,#105);
#107=CIRCLE('',#106,6.999999999999995);
#108=EDGE_CURVE('',#102,#102,#107,.T.);
#109=ORIENTED_EDGE('',*,*,#108,.F.);
#110=EDGE_LOOP('',(#109));
#111=FACE_OUTER_BOUND('',#110,.T.);
#112=ORIENTED_EDGE('',*,*,#91,.F.);
#113=EDGE_LOOP('',(#112));
#114=FACE_BOUND('',#113,.T.);
#115=ADVANCED_FACE('',(#111,#114),#100,.T.);
#116=CARTESIAN_POINT('',(0.0,6.605827E-015,110.0));
#117=DIRECTION('',(0.0,0.0,-1.0));
#118=DIRECTION('',(-1.0,0.0,0.0));
#119=AXIS2_PLACEMENT_3D('',#116,#117,#118);
#120=PLANE('',#119);
#121=ORIENTED_EDGE('',*,*,#80,.F.);
#122=EDGE_LOOP('',(#121));
#123=FACE_OUTER_BOUND('',#122,.T.);
#124=ADVANCED_FACE('',(#123),#120,.F.);
#125=CARTESIAN_POINT('',(0.0,6.983303E-015,-37.0));
#126=DIRECTION('',(0.0,0.0,1.0));
#127=DIRECTION('',(1.0,0.0,0.0));
#128=AXIS2_PLACEMENT_3D('',#125,#126,#127);
#129=PLANE('',#128);
#130=CARTESIAN_POINT('',(-3.650000000000002,3.417235724968358,-37.0));
#131=VERTEX_POINT('',#130);
#132=CARTESIAN_POINT('',(-3.650000000000007,-3.417235724968340,-37.0));
#133=VERTEX_POINT('',#132);
#134=CARTESIAN_POINT('',(0.0,6.983303E-015,-37.0));
#135=DIRECTION('',(0.0,0.0,1.0));
#136=DIRECTION('',(0.0,1.0,0.0));
#137=AXIS2_PLACEMENT_3D('',#134,#135,#136);
#138=CIRCLE('',#137,4.999999999999999);
#139=EDGE_CURVE('',#131,#133,#138,.T.);
#140=ORIENTED_EDGE('',*,*,#139,.F.);
#141=CARTESIAN_POINT('',(-3.650000000000007,-3.417235724968340,-37.0));
#142=DIRECTION('',(0.0,1.0,0.0));
#143=VECTOR('',#142,6.834471449936697);
#144=LINE('',#141,#143);
#145=EDGE_CURVE('',#133,#131,#144,.T.);
#146=ORIENTED_EDGE('',*,*,#145,.F.);
#147=EDGE_LOOP('',(#140,#146));
#148=FACE_OUTER_BOUND('',#147,.T.);
#149=ADVANCED_FACE('',(#148),#129,.F.);
#150=CARTESIAN_POINT('',(0.0,6.983303E-015,-37.0));
#151=DIRECTION('',(0.0,0.0,1.0));
#152=DIRECTION('',(1.0,0.0,0.0));
#153=AXIS2_PLACEMENT_3D('',#150,#151,#152);
#154=PLANE('',#153);
#155=CARTESIAN_POINT('',(-3.417235724968339,-3.650000000000007,-37.0));
#156=VERTEX_POINT('',#155);
#157=CARTESIAN_POINT('',(3.417235724968346,-3.650000000000000,-37.0));
#158=VERTEX_POINT('',#157);
#159=CARTESIAN_POINT('',(0.0,6.983303E-015,-37.0));
#160=DIRECTION('',(0.0,0.0,1.0));
#161=DIRECTION('',(0.0,1.0,0.0));
#162=AXIS2_PLACEMENT_3D('',#159,#160,#161);
#163=CIRCLE('',#162,4.999999999999999);
#164=EDGE_CURVE('',#156,#158,#163,.T.);
#165=ORIENTED_EDGE('',*,*,#164,.F.);
#166=CARTESIAN_POINT('',(3.417235724968346,-3.650000000000000,-37.0));
#167=DIRECTION('',(-1.0,0.0,0.0));
#168=VECTOR('',#167,6.834471449936686);
#169=LINE('',#166,#168);
#170=EDGE_CURVE('',#158,#156,#169,.T.);
#171=ORIENTED_EDGE('',*,*,#170,.F.);
#172=EDGE_LOOP('',(#165,#171));
#173=FACE_OUTER_BOUND('',#172,.T.);
#174=ADVANCED_FACE('',(#173),#154,.F.);
#175=CARTESIAN_POINT('',(0.0,6.983303E-015,-37.0));
#176=DIRECTION('',(0.0,0.0,1.0));
#177=DIRECTION('',(1.0,0.0,0.0));
#178=AXIS2_PLACEMENT_3D('',#175,#176,#177);
#179=PLANE('',#178);
#180=CARTESIAN_POINT('',(3.650000000000013,-3.417235724968333,-37.0));
#181=VERTEX_POINT('',#180);
#182=CARTESIAN_POINT('',(3.650000000000008,3.417235724968353,-37.0));
#183=VERTEX_POINT('',#182);
#184=CARTESIAN_POINT('',(0.0,6.983303E-015,-37.0));
#185=DIRECTION('',(0.0,0.0,1.0));
#186=DIRECTION('',(0.0,1.0,0.0));
#187=AXIS2_PLACEMENT_3D('',#184,#185,#186);
#188=CIRCLE('',#187,4.999999999999999);
#189=EDGE_CURVE('',#181,#183,#188,.T.);
#190=ORIENTED_EDGE('',*,*,#189,.F.);
#191=CARTESIAN_POINT('',(3.650000000000008,3.417235724968353,-37.0));
#192=DIRECTION('',(0.0,-1.0,0.0));
#193=VECTOR('',#192,6.834471449936686);
#194=LINE('',#191,#193);
#195=EDGE_CURVE('',#183,#181,#194,.T.);
#196=ORIENTED_EDGE('',*,*,#195,.F.);
#197=EDGE_LOOP('',(#190,#196));
#198=FACE_OUTER_BOUND('',#197,.T.);
#199=ADVANCED_FACE('',(#198),#179,.F.);
#200=CARTESIAN_POINT('',(0.0,6.983303E-015,-37.0));
#201=DIRECTION('',(0.0,0.0,1.0));
#202=DIRECTION('',(1.0,0.0,0.0));
#203=AXIS2_PLACEMENT_3D('',#200,#201,#202);
#204=PLANE('',#203);
#205=CARTESIAN_POINT('',(3.417235724968358,3.650000000000003,-37.0));
#206=VERTEX_POINT('',#205);
#207=CARTESIAN_POINT('',(-3.417235724968352,3.650000000000008,-37.0));
#208=VERTEX_POINT('',#207);
#209=CARTESIAN_POINT('',(0.0,6.983303E-015,-37.0));
#210=DIRECTION('',(0.0,0.0,1.0));
#211=DIRECTION('',(0.0,1.0,0.0));
#212=AXIS2_PLACEMENT_3D('',#209,#210,#211);
#213=CIRCLE('',#212,4.999999999999999);
#214=EDGE_CURVE('',#206,#208,#213,.T.);
#215=ORIENTED_EDGE('',*,*,#214,.F.);
#216=CARTESIAN_POINT('',(-3.417235724968352,3.650000000000008,-37.0));
#217=DIRECTION('',(1.0,0.0,0.0));
#218=VECTOR('',#217,6.834471449936710);
#219=LINE('',#216,#218);
#220=EDGE_CURVE('',#208,#206,#219,.T.);
#221=ORIENTED_EDGE('',*,*,#220,.F.);
#222=EDGE_LOOP('',(#215,#221));
#223=FACE_OUTER_BOUND('',#222,.T.);
#224=ADVANCED_FACE('',(#223),#204,.F.);
#225=CARTESIAN_POINT('',(3.323559E-015,3.650000000000008,-50.0));
#226=DIRECTION('',(0.0,1.0,0.0));
#227=DIRECTION('',(0.0,0.0,1.0));
#228=AXIS2_PLACEMENT_3D('',#225,#226,#227);
#229=PLANE('',#228);
#230=CARTESIAN_POINT('',(3.417235724968358,3.650000000000005,-48.650000000000006));
#231=VERTEX_POINT('',#230);
#232=CARTESIAN_POINT('',(3.417235724968358,3.650000000000005,-48.650000000000006));
#233=DIRECTION('',(0.0,0.0,1.0));
#234=VECTOR('',#233,11.650000000000006);
#235=LINE('',#232,#234);
#236=EDGE_CURVE('',#231,#206,#235,.T.);
#237=ORIENTED_EDGE('',*,*,#236,.F.);
#238=CARTESIAN_POINT('',(-4.469813E-016,3.650000000000008,-50.0));
#239=VERTEX_POINT('',#238);
#240=CARTESIAN_POINT('',(2.775558E-015,3.650000000000008,-50.0));
#241=CARTESIAN_POINT('',(1.441954959090676,3.650000000000007,-50.0));
#242=CARTESIAN_POINT('',(3.417235724968342,3.650000000000006,-48.650000000000006));
#250=(BOUNDED_CURVE()B_SPLINE_CURVE(2,(#240,#241,#242),.UNSPECIFIED.,.F.,.U.)B_SPLINE_CURVE_WITH_KNOTS((3,3),(0.371631838649641,0.743263677299283),.UNSPECIFIED.)CURVE()GEOMETRIC_REPRESENTATION_ITEM()RATIONAL_B_SPLINE_CURVE((1.0,1.088545592453255,1.0))REPRESENTATION_ITEM(''));
#251=EDGE_CURVE('',#239,#231,#250,.T.);
#252=ORIENTED_EDGE('',*,*,#251,.F.);
#253=CARTESIAN_POINT('',(-3.417235724968353,3.650000000000011,-48.650000000000006));
#254=VERTEX_POINT('',#253);
#255=CARTESIAN_POINT('',(-3.417235724968337,3.650000000000011,-48.650000000000006));
#256=CARTESIAN_POINT('',(-1.441954959090670,3.650000000000008,-50.0));
#257=CARTESIAN_POINT('',(2.775558E-015,3.650000000000008,-50.0));
#265=(BOUNDED_CURVE()B_SPLINE_CURVE(2,(#255,#256,#257),.UNSPECIFIED.,.F.,.U.)B_SPLINE_CURVE_WITH_KNOTS((3,3),(0.0,0.371631838649641),.UNSPECIFIED.)CURVE()GEOMETRIC_REPRESENTATION_ITEM()RATIONAL_B_SPLINE_CURVE((1.0,1.088545592453256,1.0))REPRESENTATION_ITEM(''));
#266=EDGE_CURVE('',#254,#239,#265,.T.);
#267=ORIENTED_EDGE('',*,*,#266,.F.);
#268=CARTESIAN_POINT('',(-3.417235724968352,3.650000000000008,-37.0));
#269=DIRECTION('',(0.0,0.0,-1.0));
#270=VECTOR('',#269,11.650000000000006);
#271=LINE('',#268,#270);
#272=EDGE_CURVE('',#208,#254,#271,.T.);
#273=ORIENTED_EDGE('',*,*,#272,.F.);
#274=ORIENTED_EDGE('',*,*,#220,.T.);
#275=EDGE_LOOP('',(#237,#252,#267,#273,#274));
#276=FACE_OUTER_BOUND('',#275,.T.);
#277=ADVANCED_FACE('',(#276),#229,.T.);
#278=CARTESIAN_POINT('',(3.650000000000007,3.650000000000023,-50.0));
#279=DIRECTION('',(1.0,0.0,0.0));
#280=DIRECTION('',(0.0,0.0,-1.0));
#281=AXIS2_PLACEMENT_3D('',#278,#279,#280);
#282=PLANE('',#281);
#283=CARTESIAN_POINT('',(3.650000000000013,-3.417235724968331,-48.650000000000006));
#284=VERTEX_POINT('',#283);
#285=CARTESIAN_POINT('',(3.650000000000013,-3.417235724968331,-48.650000000000006));
#286=DIRECTION('',(0.0,0.0,1.0));
#287=VECTOR('',#286,11.650000000000006);
#288=LINE('',#285,#287);
#289=EDGE_CURVE('',#284,#181,#288,.T.);
#290=ORIENTED_EDGE('',*,*,#289,.F.);
#291=CARTESIAN_POINT('',(3.650000000000010,1.248199E-014,-50.0));
#292=VERTEX_POINT('',#291);
#293=CARTESIAN_POINT('',(3.650000000000010,1.248199E-014,-50.0));
#294=CARTESIAN_POINT('',(3.650000000000011,-1.441954959090641,-50.0));
#295=CARTESIAN_POINT('',(3.650000000000013,-3.417235724968315,-48.650000000000006));
#303=(BOUNDED_CURVE()B_SPLINE_CURVE(2,(#293,#294,#295),.UNSPECIFIED.,.F.,.U.)B_SPLINE_CURVE_WITH_KNOTS((3,3),(0.371631838649640,0.743263677299280),.UNSPECIFIED.)CURVE()GEOMETRIC_REPRESENTATION_ITEM()RATIONAL_B_SPLINE_CURVE((1.0,1.088545592453202,1.0))REPRESENTATION_ITEM(''));
#304=EDGE_CURVE('',#292,#284,#303,.T.);
#305=ORIENTED_EDGE('',*,*,#304,.F.);
#306=CARTESIAN_POINT('',(3.650000000000008,3.417235724968355,-48.650000000000006));
#307=VERTEX_POINT('',#306);
#308=CARTESIAN_POINT('',(3.650000000000008,3.417235724968340,-48.650000000000006));
#309=CARTESIAN_POINT('',(3.650000000000009,1.441954959090667,-50.0));
#310=CARTESIAN_POINT('',(3.650000000000010,1.248199E-014,-50.0));
#318=(BOUNDED_CURVE()B_SPLINE_CURVE(2,(#308,#309,#310),.UNSPECIFIED.,.F.,.U.)B_SPLINE_CURVE_WITH_KNOTS((3,3),(0.0,0.371631838649640),.UNSPECIFIED.)CURVE()GEOMETRIC_REPRESENTATION_ITEM()RATIONAL_B_SPLINE_CURVE((1.0,1.088545592453198,1.0))REPRESENTATION_ITEM(''));
#319=EDGE_CURVE('',#307,#292,#318,.T.);
#320=ORIENTED_EDGE('',*,*,#319,.F.);
#321=CARTESIAN_POINT('',(3.650000000000008,3.417235724968353,-37.0));
#322=DIRECTION('',(0.0,0.0,-1.0));
#323=VECTOR('',#322,11.650000000000006);
#324=LINE('',#321,#323);
#325=EDGE_CURVE('',#183,#307,#324,.T.);
#326=ORIENTED_EDGE('',*,*,#325,.F.);
#327=ORIENTED_EDGE('',*,*,#195,.T.);
#328=EDGE_LOOP('',(#290,#305,#320,#326,#327));
#329=FACE_OUTER_BOUND('',#328,.T.);
#330=ADVANCED_FACE('',(#329),#282,.T.);
#331=CARTESIAN_POINT('',(3.650000000000013,-3.649999999999997,-50.0));
#332=DIRECTION('',(0.0,-1.0,0.0));
#333=DIRECTION('',(0.0,0.0,-1.0));
#334=AXIS2_PLACEMENT_3D('',#331,#332,#333);
#335=PLANE('',#334);
#336=CARTESIAN_POINT('',(-3.417235724968339,-3.650000000000004,-48.650000000000006));
#337=VERTEX_POINT('',#336);
#338=CARTESIAN_POINT('',(-3.417235724968339,-3.650000000000004,-48.650000000000006));
#339=DIRECTION('',(0.0,0.0,1.0));
#340=VECTOR('',#339,11.650000000000006);
#341=LINE('',#338,#340);
#342=EDGE_CURVE('',#337,#156,#341,.T.);
#343=ORIENTED_EDGE('',*,*,#342,.F.);
#344=CARTESIAN_POINT('',(3.279329E-015,-3.650000000000000,-50.0));
#345=VERTEX_POINT('',#344);
#346=CARTESIAN_POINT('',(3.279329E-015,-3.650000000000000,-50.0));
#347=CARTESIAN_POINT('',(-1.441954959090673,-3.650000000000002,-50.000000000000007));
#348=CARTESIAN_POINT('',(-3.417235724968340,-3.650000000000003,-48.650000000000006));
#356=(BOUNDED_CURVE()B_SPLINE_CURVE(2,(#346,#347,#348),.UNSPECIFIED.,.F.,.U.)B_SPLINE_CURVE_WITH_KNOTS((3,3),(0.371631838649641,0.743263677299283),.UNSPECIFIED.)CURVE()GEOMETRIC_REPRESENTATION_ITEM()RATIONAL_B_SPLINE_CURVE((1.0,1.088545592453195,1.0))REPRESENTATION_ITEM(''));
#357=EDGE_CURVE('',#345,#337,#356,.T.);
#358=ORIENTED_EDGE('',*,*,#357,.F.);
#359=CARTESIAN_POINT('',(3.417235724968346,-3.649999999999997,-48.650000000000006));
#360=VERTEX_POINT('',#359);
#361=CARTESIAN_POINT('',(3.417235724968347,-3.649999999999997,-48.650000000000006));
#362=CARTESIAN_POINT('',(1.441954959090677,-3.650000000000000,-49.999999999999993));
#363=CARTESIAN_POINT('',(3.279329E-015,-3.650000000000000,-50.0));
#371=(BOUNDED_CURVE()B_SPLINE_CURVE(2,(#361,#362,#363),.UNSPECIFIED.,.F.,.U.)B_SPLINE_CURVE_WITH_KNOTS((3,3),(0.0,0.371631838649641),.UNSPECIFIED.)CURVE()GEOMETRIC_REPRESENTATION_ITEM()RATIONAL_B_SPLINE_CURVE((1.0,1.088545592453195,1.0))REPRESENTATION_ITEM(''));
#372=EDGE_CURVE('',#360,#345,#371,.T.);
#373=ORIENTED_EDGE('',*,*,#372,.F.);
#374=CARTESIAN_POINT('',(3.417235724968346,-3.650000000000000,-37.0));
#375=DIRECTION('',(0.0,0.0,-1.0));
#376=VECTOR('',#375,11.650000000000006);
#377=LINE('',#374,#376);
#378=EDGE_CURVE('',#158,#360,#377,.T.);
#379=ORIENTED_EDGE('',*,*,#378,.F.);
#380=ORIENTED_EDGE('',*,*,#170,.T.);
#381=EDGE_LOOP('',(#343,#358,#373,#379,#380));
#382=FACE_OUTER_BOUND('',#381,.T.);
#383=ADVANCED_FACE('',(#382),#335,.T.);
#384=CARTESIAN_POINT('',(-3.650000000000007,-3.650000000000004,-50.0));
#385=DIRECTION('',(-1.0,0.0,0.0));
#386=DIRECTION('',(0.0,0.0,1.0));
#387=AXIS2_PLACEMENT_3D('',#384,#385,#386);
#388=PLANE('',#387);
#389=CARTESIAN_POINT('',(-3.650000000000002,3.417235724968361,-48.650000000000006));
#390=VERTEX_POINT('',#389);
#391=CARTESIAN_POINT('',(-3.650000000000002,3.417235724968361,-48.650000000000006));
#392=DIRECTION('',(0.0,0.0,1.0));
#393=VECTOR('',#392,11.650000000000006);
#394=LINE('',#391,#393);
#395=EDGE_CURVE('',#390,#131,#394,.T.);
#396=ORIENTED_EDGE('',*,*,#395,.F.);
#397=CARTESIAN_POINT('',(-3.650000000000004,1.166215E-014,-50.0));
#398=VERTEX_POINT('',#397);
#399=CARTESIAN_POINT('',(-3.650000000000004,1.166215E-014,-50.0));
#400=CARTESIAN_POINT('',(-3.650000000000003,1.441954959090696,-50.0));
#401=CARTESIAN_POINT('',(-3.650000000000002,3.417235724968361,-48.650000000000006));
#409=(BOUNDED_CURVE()B_SPLINE_CURVE(2,(#399,#400,#401),.UNSPECIFIED.,.F.,.U.)B_SPLINE_CURVE_WITH_KNOTS((3,3),(0.371631838649642,0.743263677299284),.UNSPECIFIED.)CURVE()GEOMETRIC_REPRESENTATION_ITEM()RATIONAL_B_SPLINE_CURVE((1.0,1.088545592453196,1.0))REPRESENTATION_ITEM(''));
#410=EDGE_CURVE('',#398,#390,#409,.T.);
#411=ORIENTED_EDGE('',*,*,#410,.F.);
#412=CARTESIAN_POINT('',(-3.650000000000007,-3.417235724968337,-48.650000000000006));
#413=VERTEX_POINT('',#412);
#414=CARTESIAN_POINT('',(-3.650000000000006,-3.417235724968339,-48.650000000000006));
#415=CARTESIAN_POINT('',(-3.650000000000006,-1.441954959090672,-50.0));
#416=CARTESIAN_POINT('',(-3.650000000000004,1.166215E-014,-50.0));
#424=(BOUNDED_CURVE()B_SPLINE_CURVE(2,(#414,#415,#416),.UNSPECIFIED.,.F.,.U.)B_SPLINE_CURVE_WITH_KNOTS((3,3),(0.0,0.371631838649642),.UNSPECIFIED.)CURVE()GEOMETRIC_REPRESENTATION_ITEM()RATIONAL_B_SPLINE_CURVE((1.0,1.088545592453197,1.0))REPRESENTATION_ITEM(''));
#425=EDGE_CURVE('',#413,#398,#424,.T.);
#426=ORIENTED_EDGE('',*,*,#425,.F.);
#427=CARTESIAN_POINT('',(-3.650000000000007,-3.417235724968340,-37.0));
#428=DIRECTION('',(0.0,0.0,-1.0));
#429=VECTOR('',#428,11.650000000000006);
#430=LINE('',#427,#429);
#431=EDGE_CURVE('',#133,#413,#430,.T.);
#432=ORIENTED_EDGE('',*,*,#431,.F.);
#433=ORIENTED_EDGE('',*,*,#145,.T.);
#434=EDGE_LOOP('',(#396,#411,#426,#432,#433));
#435=FACE_OUTER_BOUND('',#434,.T.);
#436=ADVANCED_FACE('',(#435),#388,.T.);
#437=CARTESIAN_POINT('',(0.0,8.021361E-015,-42.500000000000000));
#438=DIRECTION('',(0.0,1.887379E-016,-1.0));
#439=DIRECTION('',(0.0,1.0,0.0));
#440=AXIS2_PLACEMENT_3D('',#437,#438,#439);
#441=CYLINDRICAL_SURFACE('',#440,4.999999999999999);
#442=ORIENTED_EDGE('',*,*,#236,.T.);
#443=ORIENTED_EDGE('',*,*,#214,.T.);
#444=ORIENTED_EDGE('',*,*,#272,.T.);
#445=CARTESIAN_POINT('',(0.0,9.182100E-015,-48.650000000000006));
#446=DIRECTION('',(0.0,0.0,-1.0));
#447=DIRECTION('',(0.0,-1.0,0.0));
#448=AXIS2_PLACEMENT_3D('',#445,#446,#447);
#449=CIRCLE('',#448,4.999999999999999);
#450=EDGE_CURVE('',#390,#254,#449,.T.);
#451=ORIENTED_EDGE('',*,*,#450,.F.);
#452=ORIENTED_EDGE('',*,*,#395,.T.);
#453=ORIENTED_EDGE('',*,*,#139,.T.);
#454=ORIENTED_EDGE('',*,*,#431,.T.);
#455=CARTESIAN_POINT('',(0.0,9.182100E-015,-48.650000000000006));
#456=DIRECTION('',(0.0,0.0,-1.0));
#457=DIRECTION('',(0.0,-1.0,0.0));
#458=AXIS2_PLACEMENT_3D('',#455,#456,#457);
#459=CIRCLE('',#458,4.999999999999999);
#460=EDGE_CURVE('',#337,#413,#459,.T.);
#461=ORIENTED_EDGE('',*,*,#460,.F.);
#462=ORIENTED_EDGE('',*,*,#342,.T.);
#463=ORIENTED_EDGE('',*,*,#164,.T.);
#464=ORIENTED_EDGE('',*,*,#378,.T.);
#465=CARTESIAN_POINT('',(0.0,9.182100E-015,-48.650000000000006));
#466=DIRECTION('',(0.0,0.0,-1.0));
#467=DIRECTION('',(0.0,-1.0,0.0));
#468=AXIS2_PLACEMENT_3D('',#465,#466,#467);
#469=CIRCLE('',#468,4.999999999999999);
#470=EDGE_CURVE('',#284,#360,#469,.T.);
#471=ORIENTED_EDGE('',*,*,#470,.F.);
#472=ORIENTED_EDGE('',*,*,#289,.T.);
#473=ORIENTED_EDGE('',*,*,#189,.T.);
#474=ORIENTED_EDGE('',*,*,#325,.T.);
#475=CARTESIAN_POINT('',(0.0,9.182100E-015,-48.650000000000006));
#476=DIRECTION('',(0.0,0.0,-1.0));
#477=DIRECTION('',(0.0,-1.0,0.0));
#478=AXIS2_PLACEMENT_3D('',#475,#476,#477);
#479=CIRCLE('',#478,4.999999999999999);
#480=EDGE_CURVE('',#231,#307,#479,.T.);
#481=ORIENTED_EDGE('',*,*,#480,.F.);
#482=EDGE_LOOP('',(#442,#443,#444,#451,#452,#453,#454,#461,#462,#463,#464,#471,#472,#473,#474,#481));
#483=FACE_OUTER_BOUND('',#482,.T.);
#484=CARTESIAN_POINT('',(0.0,5.000000000000004,-35.0));
#485=VERTEX_POINT('',#484);
#486=CARTESIAN_POINT('',(0.0,6.605827E-015,-35.0));
#487=DIRECTION('',(0.0,0.0,-1.0));
#488=DIRECTION('',(0.0,1.0,0.0));
#489=AXIS2_PLACEMENT_3D('',#486,#487,#488);
#490=CIRCLE('',#489,4.999999999999998);
#491=EDGE_CURVE('',#485,#485,#490,.T.);
#492=ORIENTED_EDGE('',*,*,#491,.T.);
#493=EDGE_LOOP('',(#492));
#494=FACE_BOUND('',#493,.T.);
#495=ADVANCED_FACE('',(#483,#494),#441,.T.);
#496=CARTESIAN_POINT('',(0.0,9.309498E-015,-49.325000000000003));
#497=DIRECTION('',(0.0,-1.887379E-016,1.0));
#498=DIRECTION('',(0.0,-1.0,0.0));
#499=AXIS2_PLACEMENT_3D('',#496,#497,#498);
#500=CONICAL_SURFACE('',#499,4.324999999999999,45.000000000000071);
#501=ORIENTED_EDGE('',*,*,#266,.T.);
#502=CARTESIAN_POINT('',(0.0,9.436896E-015,-50.0));
#503=DIRECTION('',(0.0,0.0,1.0));
#504=DIRECTION('',(0.0,-1.0,0.0));
#505=AXIS2_PLACEMENT_3D('',#502,#503,#504);
#506=CIRCLE('',#505,3.649999999999999);
#507=EDGE_CURVE('',#239,#398,#506,.T.);
#508=ORIENTED_EDGE('',*,*,#507,.T.);
#509=ORIENTED_EDGE('',*,*,#410,.T.);
#510=ORIENTED_EDGE('',*,*,#450,.T.);
#511=EDGE_LOOP('',(#501,#508,#509,#510));
#512=FACE_OUTER_BOUND('',#511,.T.);
#513=ADVANCED_FACE('',(#512),#500,.T.);
#514=CARTESIAN_POINT('',(0.0,9.309498E-015,-49.325000000000003));
#515=DIRECTION('',(0.0,-1.887379E-016,1.0));
#516=DIRECTION('',(0.0,-1.0,0.0));
#517=AXIS2_PLACEMENT_3D('',#514,#515,#516);
#518=CONICAL_SURFACE('',#517,4.324999999999999,45.000000000000071);
#519=ORIENTED_EDGE('',*,*,#357,.T.);
#520=ORIENTED_EDGE('',*,*,#460,.T.);
#521=ORIENTED_EDGE('',*,*,#425,.T.);
#522=CARTESIAN_POINT('',(0.0,9.436896E-015,-50.0));
#523=DIRECTION('',(0.0,0.0,1.0));
#524=DIRECTION('',(0.0,-1.0,0.0));
#525=AXIS2_PLACEMENT_3D('',#522,#523,#524);
#526=CIRCLE('',#525,3.649999999999999);
#527=EDGE_CURVE('',#398,#345,#526,.T.);
#528=ORIENTED_EDGE('',*,*,#527,.T.);
#529=EDGE_LOOP('',(#519,#520,#521,#528));
#530=FACE_OUTER_BOUND('',#529,.T.);
#531=ADVANCED_FACE('',(#530),#518,.T.);
#532=CARTESIAN_POINT('',(0.0,9.309498E-015,-49.325000000000003));
#533=DIRECTION('',(0.0,-1.887379E-016,1.0));
#534=DIRECTION('',(0.0,-1.0,0.0));
#535=AXIS2_PLACEMENT_3D('',#532,#533,#534);
#536=CONICAL_SURFACE('',#535,4.324999999999999,45.000000000000071);
#537=ORIENTED_EDGE('',*,*,#304,.T.);
#538=ORIENTED_EDGE('',*,*,#470,.T.);
#539=ORIENTED_EDGE('',*,*,#372,.T.);
#540=CARTESIAN_POINT('',(0.0,9.436896E-015,-50.0));
#541=DIRECTION('',(0.0,0.0,1.0));
#542=DIRECTION('',(0.0,-1.0,0.0));
#543=AXIS2_PLACEMENT_3D('',#540,#541,#542);
#544=CIRCLE('',#543,3.649999999999999);
#545=EDGE_CURVE('',#345,#292,#544,.T.);
#546=ORIENTED_EDGE('',*,*,#545,.T.);
#547=EDGE_LOOP('',(#537,#538,#539,#546));
#548=FACE_OUTER_BOUND('',#547,.T.);
#549=ADVANCED_FACE('',(#548),#536,.T.);
#550=CARTESIAN_POINT('',(0.0,9.309498E-015,-49.325000000000003));
#551=DIRECTION('',(0.0,-1.887379E-016,1.0));
#552=DIRECTION('',(0.0,-1.0,0.0));
#553=AXIS2_PLACEMENT_3D('',#550,#551,#552);
#554=CONICAL_SURFACE('',#553,4.324999999999999,45.000000000000071);
#555=ORIENTED_EDGE('',*,*,#251,.T.);
#556=ORIENTED_EDGE('',*,*,#480,.T.);
#557=ORIENTED_EDGE('',*,*,#319,.T.);
#558=CARTESIAN_POINT('',(0.0,9.436896E-015,-50.0));
#559=DIRECTION('',(0.0,0.0,1.0));
#560=DIRECTION('',(0.0,-1.0,0.0));
#561=AXIS2_PLACEMENT_3D('',#558,#559,#560);
#562=CIRCLE('',#561,3.649999999999999);
#563=EDGE_CURVE('',#292,#239,#562,.T.);
#564=ORIENTED_EDGE('',*,*,#563,.T.);
#565=EDGE_LOOP('',(#555,#556,#557,#564));
#566=FACE_OUTER_BOUND('',#565,.T.);
#567=ADVANCED_FACE('',(#566),#554,.T.);
#568=CARTESIAN_POINT('',(0.0,2.500000000000009,-50.0));
#569=DIRECTION('',(0.0,0.0,-1.0));
#570=DIRECTION('',(-1.0,0.0,0.0));
#571=AXIS2_PLACEMENT_3D('',#568,#569,#570);
#572=PLANE('',#571);
#573=ORIENTED_EDGE('',*,*,#507,.F.);
#574=ORIENTED_EDGE('',*,*,#563,.F.);
#575=ORIENTED_EDGE('',*,*,#545,.F.);
#576=ORIENTED_EDGE('',*,*,#527,.F.);
#577=EDGE_LOOP('',(#573,#574,#575,#576));
#578=FACE_OUTER_BOUND('',#577,.T.);
#579=ADVANCED_FACE('',(#578),#572,.T.);
#580=CARTESIAN_POINT('',(0.0,2.831069E-015,42.0));
#581=DIRECTION('',(0.0,0.0,1.0));
#582=DIRECTION('',(-1.0,0.0,0.0));
#583=AXIS2_PLACEMENT_3D('',#580,#581,#582);
#584=CYLINDRICAL_SURFACE('',#583,7.999999999999996);
#585=CARTESIAN_POINT('',(7.999999999999996,3.810786E-015,90.0));
#586=VERTEX_POINT('',#585);
#587=CARTESIAN_POINT('',(0.0,2.831069E-015,90.0));
#588=DIRECTION('',(0.0,0.0,-1.0));
#589=DIRECTION('',(-1.0,0.0,0.0));
#590=AXIS2_PLACEMENT_3D('',#587,#588,#589);
#591=CIRCLE('',#590,7.999999999999996);
#592=EDGE_CURVE('',#586,#586,#591,.T.);
#593=ORIENTED_EDGE('',*,*,#592,.T.);
#594=EDGE_LOOP('',(#593));
#595=FACE_OUTER_BOUND('',#594,.T.);
#596=CARTESIAN_POINT('',(7.999999999999996,3.810786E-015,42.0));
#597=VERTEX_POINT('',#596);
#598=CARTESIAN_POINT('',(0.0,2.831069E-015,42.0));
#599=DIRECTION('',(0.0,0.0,-1.0));
#600=DIRECTION('',(-1.0,0.0,0.0));
#601=AXIS2_PLACEMENT_3D('',#598,#599,#600);
#602=CIRCLE('',#601,7.999999999999996);
#603=EDGE_CURVE('',#597,#597,#602,.T.);
#604=ORIENTED_EDGE('',*,*,#603,.F.);
#605=EDGE_LOOP('',(#604));
#606=FACE_BOUND('',#605,.T.);
#607=ADVANCED_FACE('',(#595,#606),#584,.T.);
#608=CARTESIAN_POINT('',(0.0,2.831069E-015,90.0));
#609=DIRECTION('',(0.0,0.0,-1.0));
#610=DIRECTION('',(-1.0,0.0,0.0));
#611=AXIS2_PLACEMENT_3D('',#608,#609,#610);
#612=PLANE('',#611);
#613=ORIENTED_EDGE('',*,*,#592,.F.);
#614=EDGE_LOOP('',(#613));
#615=FACE_OUTER_BOUND('',#614,.T.);
#616=ORIENTED_EDGE('',*,*,#108,.T.);
#617=EDGE_LOOP('',(#616));
#618=FACE_BOUND('',#617,.T.);
#619=ADVANCED_FACE('',(#615,#618),#612,.F.);
#620=CARTESIAN_POINT('',(0.0,0.0,0.0));
#621=DIRECTION('',(0.0,0.0,-1.0));
#622=DIRECTION('',(-1.0,0.0,0.0));
#623=AXIS2_PLACEMENT_3D('',#620,#621,#622);
#624=PLANE('',#623);
#625=CARTESIAN_POINT('',(-8.554567113000347,7.306290543714566,0.0));
#626=VERTEX_POINT('',#625);
#627=CARTESIAN_POINT('',(-11.690064869943306,13.687307380800560,0.0));
#628=VERTEX_POINT('',#627);
#629=CARTESIAN_POINT('',(4.274267630074881,17.570978016393333,0.0));
#630=DIRECTION('',(0.0,0.0,-1.000000000000000));
#631=DIRECTION('',(-0.780820718876543,-0.624755156019635,0.0));
#632=AXIS2_PLACEMENT_3D('',#629,#630,#631);
#633=CIRCLE('',#632,16.429936389922588);
#634=EDGE_CURVE('',#626,#628,#633,.T.);
#635=ORIENTED_EDGE('',*,*,#634,.T.);
#636=CARTESIAN_POINT('',(-9.404974164887086,15.347522958373659,0.0));
#637=VERTEX_POINT('',#636);
#638=CARTESIAN_POINT('',(0.0,0.0,0.0));
#639=DIRECTION('',(0.0,0.0,-1.0));
#640=DIRECTION('',(-1.0,0.0,0.0));
#641=AXIS2_PLACEMENT_3D('',#638,#639,#640);
#642=CIRCLE('',#641,18.0);
#643=EDGE_CURVE('',#628,#637,#642,.T.);
#644=ORIENTED_EDGE('',*,*,#643,.T.);
#645=CARTESIAN_POINT('',(-4.305188614107262,10.393644740751975,0.0));
#646=VERTEX_POINT('',#645);
#647=CARTESIAN_POINT('',(-18.031814476369647,1.364660732881979,0.0));
#648=DIRECTION('',(0.0,0.0,-1.0));
#649=DIRECTION('',(0.525068393860240,0.851060034174457,0.0));
#650=AXIS2_PLACEMENT_3D('',#647,#648,#649);
#651=CIRCLE('',#650,16.429936389922588);
#652=EDGE_CURVE('',#637,#646,#651,.T.);
#653=ORIENTED_EDGE('',*,*,#652,.T.);
#654=CARTESIAN_POINT('',(-2.626260343378934,10.939161604473862,0.0));
#655=VERTEX_POINT('',#654);
#656=CARTESIAN_POINT('',(0.0,0.0,0.0));
#657=DIRECTION('',(0.0,0.0,-1.000000000000000));
#658=DIRECTION('',(-0.382683432365090,0.923879532511287,0.0));
#659=AXIS2_PLACEMENT_3D('',#656,#657,#658);
#660=CIRCLE('',#659,11.249999999999998);
#661=EDGE_CURVE('',#646,#655,#660,.T.);
#662=ORIENTED_EDGE('',*,*,#661,.T.);
#663=CARTESIAN_POINT('',(-1.412263723101205,17.944512007196305,0.0));
#664=VERTEX_POINT('',#663);
#665=CARTESIAN_POINT('',(13.785916897628567,11.702868345741692,0.0));
#666=DIRECTION('',(0.0,0.0,-1.000000000000000));
#667=DIRECTION('',(-0.998919098133211,-0.046482635303217,0.0));
#668=AXIS2_PLACEMENT_3D('',#665,#666,#667);
#669=CIRCLE('',#668,16.429936389922588);
#670=EDGE_CURVE('',#655,#664,#669,.T.);
#671=ORIENTED_EDGE('',*,*,#670,.T.);
#672=CARTESIAN_POINT('',(1.412263723101203,17.944512007196309,0.0));
#673=VERTEX_POINT('',#672);
#674=CARTESIAN_POINT('',(0.0,0.0,0.0));
#675=DIRECTION('',(0.0,0.0,-1.0));
#676=DIRECTION('',(-1.0,0.0,0.0));
#677=AXIS2_PLACEMENT_3D('',#674,#675,#676);
#678=CIRCLE('',#677,18.0);
#679=EDGE_CURVE('',#664,#673,#678,.T.);
#680=ORIENTED_EDGE('',*,*,#679,.T.);
#681=CARTESIAN_POINT('',(2.626260343378932,10.939161604473863,0.0));
#682=VERTEX_POINT('',#681);
#683=CARTESIAN_POINT('',(-13.785916897628576,11.702868345741695,0.0));
#684=DIRECTION('',(0.0,0.0,-1.000000000000000));
#685=DIRECTION('',(0.925029790745366,0.379894572524515,0.0));
#686=AXIS2_PLACEMENT_3D('',#683,#684,#685);
#687=CIRCLE('',#686,16.429936389922588);
#688=EDGE_CURVE('',#673,#682,#687,.T.);
#689=ORIENTED_EDGE('',*,*,#688,.T.);
#690=CARTESIAN_POINT('',(4.305188614107261,10.393644740751977,0.0));
#691=VERTEX_POINT('',#690);
#692=CARTESIAN_POINT('',(0.0,0.0,0.0));
#693=DIRECTION('',(0.0,0.0,-1.000000000000000));
#694=DIRECTION('',(0.233445363855905,0.972369920397677,0.0));
#695=AXIS2_PLACEMENT_3D('',#692,#693,#694);
#696=CIRCLE('',#695,11.249999999999998);
#697=EDGE_CURVE('',#682,#691,#696,.T.);
#698=ORIENTED_EDGE('',*,*,#697,.T.);
#699=CARTESIAN_POINT('',(9.404974164887083,15.347522958373661,0.0));
#700=VERTEX_POINT('',#699);
#701=CARTESIAN_POINT('',(18.031814476369643,1.364660732881984,0.0));
#702=DIRECTION('',(0.0,0.0,-1.000000000000000));
#703=DIRECTION('',(-0.835464333914384,0.549544672212363,0.0));
#704=AXIS2_PLACEMENT_3D('',#701,#702,#703);
#705=CIRCLE('',#704,16.429936389922588);
#706=EDGE_CURVE('',#691,#700,#705,.T.);
#707=ORIENTED_EDGE('',*,*,#706,.T.);
#708=CARTESIAN_POINT('',(11.690064869943303,13.687307380800565,0.0));
#709=VERTEX_POINT('',#708);
#710=CARTESIAN_POINT('',(0.0,0.0,0.0));
#711=DIRECTION('',(0.0,0.0,-1.0));
#712=DIRECTION('',(-1.0,0.0,0.0));
#713=AXIS2_PLACEMENT_3D('',#710,#711,#712);
#714=CIRCLE('',#713,18.0);
#715=EDGE_CURVE('',#700,#709,#714,.T.);
#716=ORIENTED_EDGE('',*,*,#715,.T.);
#717=CARTESIAN_POINT('',(8.554567113000346,7.306290543714569,0.0));
#718=VERTEX_POINT('',#717);
#719=CARTESIAN_POINT('',(-4.274267630074889,17.570978016393340,0.0));
#720=DIRECTION('',(0.0,0.0,-1.0));
#721=DIRECTION('',(0.971661248171966,-0.236377703688181,0.0));
#722=AXIS2_PLACEMENT_3D('',#719,#720,#721);
#723=CIRCLE('',#722,16.429936389922588);
#724=EDGE_CURVE('',#709,#718,#723,.T.);
#725=ORIENTED_EDGE('',*,*,#724,.T.);
#726=CARTESIAN_POINT('',(9.592201848983539,5.878108853054423,0.0));
#727=VERTEX_POINT('',#726);
#728=CARTESIAN_POINT('',(0.0,0.0,0.0));
#729=DIRECTION('',(0.0,0.0,-1.000000000000000));
#730=DIRECTION('',(0.760405965600031,0.649448048330184,0.0));
#731=AXIS2_PLACEMENT_3D('',#728,#729,#730);
#732=CIRCLE('',#731,11.249999999999996);
#733=EDGE_CURVE('',#718,#727,#732,.T.);
#734=ORIENTED_EDGE('',*,*,#733,.T.);
#735=CARTESIAN_POINT('',(16.629831585203164,6.888301782571613,0.0));
#736=VERTEX_POINT('',#735);
#737=CARTESIAN_POINT('',(15.390171803969901,-9.494800896826305,0.0));
#738=DIRECTION('',(0.0,0.0,-1.0));
#739=DIRECTION('',(-0.352890590528554,0.935664593279241,0.0));
#740=AXIS2_PLACEMENT_3D('',#737,#738,#739);
#741=CIRCLE('',#740,16.429936389922592);
#742=EDGE_CURVE('',#727,#736,#741,.T.);
#743=ORIENTED_EDGE('',*,*,#742,.T.);
#744=CARTESIAN_POINT('',(17.502658567158178,4.202016549406303,0.0));
#745=VERTEX_POINT('',#744);
#746=CARTESIAN_POINT('',(0.0,0.0,0.0));
#747=DIRECTION('',(0.0,0.0,-1.0));
#748=DIRECTION('',(-1.0,0.0,0.0));
#749=AXIS2_PLACEMENT_3D('',#746,#747,#748);
#750=CIRCLE('',#749,18.0);
#751=EDGE_CURVE('',#736,#745,#750,.T.);
#752=ORIENTED_EDGE('',*,*,#751,.T.);
#753=CARTESIAN_POINT('',(11.215320004497691,0.882664826938259,0.0));
#754=VERTEX_POINT('',#753);
#755=CARTESIAN_POINT('',(6.870006595153942,16.727571300359934,0.0));
#756=DIRECTION('',(0.0,0.0,-1.000000000000000));
#757=DIRECTION('',(0.647151134348021,-0.762361731274642,0.0));
#758=AXIS2_PLACEMENT_3D('',#755,#756,#757);
#759=CIRCLE('',#758,16.429936389922588);
#760=EDGE_CURVE('',#745,#754,#759,.T.);
#761=ORIENTED_EDGE('',*,*,#760,.T.);
#762=CARTESIAN_POINT('',(11.215320004497691,-0.882664826938258,0.0));
#763=VERTEX_POINT('',#762);
#764=CARTESIAN_POINT('',(0.0,0.0,0.0));
#765=DIRECTION('',(0.0,0.0,-1.0));
#766=DIRECTION('',(0.996917333733128,0.078459095727845,0.0));
#767=AXIS2_PLACEMENT_3D('',#764,#765,#766);
#768=CIRCLE('',#767,11.249999999999998);
#769=EDGE_CURVE('',#754,#763,#768,.T.);
#770=ORIENTED_EDGE('',*,*,#769,.T.);
#771=CARTESIAN_POINT('',(17.502658567158178,-4.202016549406302,0.0));
#772=VERTEX_POINT('',#771);
#773=CARTESIAN_POINT('',(6.870006595153941,-16.727571300359930,0.0));
#774=DIRECTION('',(0.0,0.0,-1.000000000000000));
#775=DIRECTION('',(0.264475364129162,0.964392441783296,0.0));
#776=AXIS2_PLACEMENT_3D('',#773,#774,#775);
#777=CIRCLE('',#776,16.429936389922588);
#778=EDGE_CURVE('',#763,#772,#777,.T.);
#779=ORIENTED_EDGE('',*,*,#778,.T.);
#780=CARTESIAN_POINT('',(16.629831585203167,-6.888301782571610,0.0));
#781=VERTEX_POINT('',#780);
#782=CARTESIAN_POINT('',(0.0,0.0,0.0));
#783=DIRECTION('',(0.0,0.0,-1.0));
#784=DIRECTION('',(-1.0,0.0,0.0));
#785=AXIS2_PLACEMENT_3D('',#782,#783,#784);
#786=CIRCLE('',#785,18.0);
#787=EDGE_CURVE('',#772,#781,#786,.T.);
#788=ORIENTED_EDGE('',*,*,#787,.T.);
#789=CARTESIAN_POINT('',(9.592201848983539,-5.878108853054423,0.0));
#790=VERTEX_POINT('',#789);
#791=CARTESIAN_POINT('',(15.390171803969906,9.494800896826314,0.0));
#792=DIRECTION('',(0.0,0.0,-1.000000000000000));
#793=DIRECTION('',(0.075451283061182,-0.997149489236404,0.0));
#794=AXIS2_PLACEMENT_3D('',#791,#792,#793);
#795=CIRCLE('',#794,16.429936389922588);
#796=EDGE_CURVE('',#781,#790,#795,.T.);
#797=ORIENTED_EDGE('',*,*,#796,.T.);
#798=CARTESIAN_POINT('',(8.554567113000347,-7.306290543714566,0.0));
#799=VERTEX_POINT('',#798);
#800=CARTESIAN_POINT('',(0.0,0.0,0.0));
#801=DIRECTION('',(0.0,0.0,-1.000000000000000));
#802=DIRECTION('',(0.852640164354093,-0.522498564715949,0.0));
#803=AXIS2_PLACEMENT_3D('',#800,#801,#802);
#804=CIRCLE('',#803,11.249999999999998);
#805=EDGE_CURVE('',#790,#799,#804,.T.);
#806=ORIENTED_EDGE('',*,*,#805,.T.);
#807=CARTESIAN_POINT('',(11.690064869943306,-13.687307380800560,0.0));
#808=VERTEX_POINT('',#807);
#809=CARTESIAN_POINT('',(-4.274267630074884,-17.570978016393333,0.0));
#810=DIRECTION('',(0.0,0.0,-1.0));
#811=DIRECTION('',(0.780820718876543,0.624755156019635,0.0));
#812=AXIS2_PLACEMENT_3D('',#809,#810,#811);
#813=CIRCLE('',#812,16.429936389922592);
#814=EDGE_CURVE('',#799,#808,#813,.T.);
#815=ORIENTED_EDGE('',*,*,#814,.T.);
#816=CARTESIAN_POINT('',(9.404974164887088,-15.347522958373656,0.0));
#817=VERTEX_POINT('',#816);
#818=CARTESIAN_POINT('',(0.0,0.0,0.0));
#819=DIRECTION('',(0.0,0.0,-1.0));
#820=DIRECTION('',(-1.0,0.0,0.0));
#821=AXIS2_PLACEMENT_3D('',#818,#819,#820);
#822=CIRCLE('',#821,18.0);
#823=EDGE_CURVE('',#808,#817,#822,.T.);
#824=ORIENTED_EDGE('',*,*,#823,.T.);
#825=CARTESIAN_POINT('',(4.305188614107264,-10.393644740751975,0.0));
#826=VERTEX_POINT('',#825);
#827=CARTESIAN_POINT('',(18.031814476369647,-1.364660732881977,0.0));
#828=DIRECTION('',(0.0,0.0,-1.0));
#829=DIRECTION('',(-0.525068393860240,-0.851060034174457,0.0));
#830=AXIS2_PLACEMENT_3D('',#827,#828,#829);
#831=CIRCLE('',#830,16.429936389922588);
#832=EDGE_CURVE('',#817,#826,#831,.T.);
#833=ORIENTED_EDGE('',*,*,#832,.T.);
#834=CARTESIAN_POINT('',(2.626260343378934,-10.939161604473862,0.0));
#835=VERTEX_POINT('',#834);
#836=CARTESIAN_POINT('',(0.0,0.0,0.0));
#837=DIRECTION('',(0.0,0.0,-1.000000000000000));
#838=DIRECTION('',(0.382683432365090,-0.923879532511287,0.0));
#839=AXIS2_PLACEMENT_3D('',#836,#837,#838);
#840=CIRCLE('',#839,11.249999999999998);
#841=EDGE_CURVE('',#826,#835,#840,.T.);
#842=ORIENTED_EDGE('',*,*,#841,.T.);
#843=CARTESIAN_POINT('',(1.412263723101207,-17.944512007196305,0.0));
#844=VERTEX_POINT('',#843);
#845=CARTESIAN_POINT('',(-13.785916897628566,-11.702868345741695,0.0));
#846=DIRECTION('',(0.0,0.0,-1.000000000000000));
#847=DIRECTION('',(0.998919098133211,0.046482635303217,0.0));
#848=AXIS2_PLACEMENT_3D('',#845,#846,#847);
#849=CIRCLE('',#848,16.429936389922588);
#850=EDGE_CURVE('',#835,#844,#849,.T.);
#851=ORIENTED_EDGE('',*,*,#850,.T.);
#852=CARTESIAN_POINT('',(-1.412263723101201,-17.944512007196305,0.0));
#853=VERTEX_POINT('',#852);
#854=CARTESIAN_POINT('',(0.0,0.0,0.0));
#855=DIRECTION('',(0.0,0.0,-1.0));
#856=DIRECTION('',(-1.0,0.0,0.0));
#857=AXIS2_PLACEMENT_3D('',#854,#855,#856);
#858=CIRCLE('',#857,18.0);
#859=EDGE_CURVE('',#844,#853,#858,.T.);
#860=ORIENTED_EDGE('',*,*,#859,.T.);
#861=CARTESIAN_POINT('',(-2.626260343378932,-10.939161604473863,0.0));
#862=VERTEX_POINT('',#861);
#863=CARTESIAN_POINT('',(13.785916897628574,-11.702868345741690,0.0));
#864=DIRECTION('',(0.0,0.0,-1.0));
#865=DIRECTION('',(-0.925029790745366,-0.379894572524515,0.0));
#866=AXIS2_PLACEMENT_3D('',#863,#864,#865);
#867=CIRCLE('',#866,16.429936389922588);
#868=EDGE_CURVE('',#853,#862,#867,.T.);
#869=ORIENTED_EDGE('',*,*,#868,.T.);
#870=CARTESIAN_POINT('',(-4.305188614107260,-10.393644740751975,0.0));
#871=VERTEX_POINT('',#870);
#872=CARTESIAN_POINT('',(0.0,0.0,0.0));
#873=DIRECTION('',(0.0,0.0,-1.0));
#874=DIRECTION('',(-0.233445363855905,-0.972369920397677,0.0));
#875=AXIS2_PLACEMENT_3D('',#872,#873,#874);
#876=CIRCLE('',#875,11.249999999999998);
#877=EDGE_CURVE('',#862,#871,#876,.T.);
#878=ORIENTED_EDGE('',*,*,#877,.T.);
#879=CARTESIAN_POINT('',(-9.404974164887083,-15.347522958373661,0.0));
#880=VERTEX_POINT('',#879);
#881=CARTESIAN_POINT('',(-18.031814476369640,-1.364660732881986,0.0));
#882=DIRECTION('',(0.0,0.0,-1.0));
#883=DIRECTION('',(0.835464333914384,-0.549544672212363,0.0));
#884=AXIS2_PLACEMENT_3D('',#881,#882,#883);
#885=CIRCLE('',#884,16.429936389922588);
#886=EDGE_CURVE('',#871,#880,#885,.T.);
#887=ORIENTED_EDGE('',*,*,#886,.T.);
#888=CARTESIAN_POINT('',(-11.690064869943303,-13.687307380800565,0.0));
#889=VERTEX_POINT('',#888);
#890=CARTESIAN_POINT('',(0.0,0.0,0.0));
#891=DIRECTION('',(0.0,0.0,-1.0));
#892=DIRECTION('',(-1.0,0.0,0.0));
#893=AXIS2_PLACEMENT_3D('',#890,#891,#892);
#894=CIRCLE('',#893,18.0);
#895=EDGE_CURVE('',#880,#889,#894,.T.);
#896=ORIENTED_EDGE('',*,*,#895,.T.);
#897=CARTESIAN_POINT('',(-8.554567113000346,-7.306290543714569,0.0));
#898=VERTEX_POINT('',#897);
#899=CARTESIAN_POINT('',(4.274267630074889,-17.570978016393340,0.0));
#900=DIRECTION('',(0.0,0.0,-1.0));
#901=DIRECTION('',(-0.971661248171966,0.236377703688180,0.0));
#902=AXIS2_PLACEMENT_3D('',#899,#900,#901);
#903=CIRCLE('',#902,16.429936389922588);
#904=EDGE_CURVE('',#889,#898,#903,.T.);
#905=ORIENTED_EDGE('',*,*,#904,.T.);
#906=CARTESIAN_POINT('',(-9.592201848983539,-5.878108853054424,0.0));
#907=VERTEX_POINT('',#906);
#908=CARTESIAN_POINT('',(0.0,0.0,0.0));
#909=DIRECTION('',(0.0,0.0,-1.0));
#910=DIRECTION('',(-0.760405965600031,-0.649448048330184,0.0));
#911=AXIS2_PLACEMENT_3D('',#908,#909,#910);
#912=CIRCLE('',#911,11.249999999999998);
#913=EDGE_CURVE('',#898,#907,#912,.T.);
#914=ORIENTED_EDGE('',*,*,#913,.T.);
#915=CARTESIAN_POINT('',(-16.629831585203164,-6.888301782571614,0.0));
#916=VERTEX_POINT('',#915);
#917=CARTESIAN_POINT('',(-15.390171803969901,9.494800896826305,0.0));
#918=DIRECTION('',(0.0,0.0,-1.0));
#919=DIRECTION('',(0.352890590528554,-0.935664593279241,0.0));
#920=AXIS2_PLACEMENT_3D('',#917,#918,#919);
#921=CIRCLE('',#920,16.429936389922592);
#922=EDGE_CURVE('',#907,#916,#921,.T.);
#923=ORIENTED_EDGE('',*,*,#922,.T.);
#924=CARTESIAN_POINT('',(-17.502658567158178,-4.202016549406309,0.0));
#925=VERTEX_POINT('',#924);
#926=CARTESIAN_POINT('',(0.0,0.0,0.0));
#927=DIRECTION('',(0.0,0.0,-1.0));
#928=DIRECTION('',(-1.0,0.0,0.0));
#929=AXIS2_PLACEMENT_3D('',#926,#927,#928);
#930=CIRCLE('',#929,18.0);
#931=EDGE_CURVE('',#916,#925,#930,.T.);
#932=ORIENTED_EDGE('',*,*,#931,.T.);
#933=CARTESIAN_POINT('',(-11.215320004497691,-0.882664826938262,0.0));
#934=VERTEX_POINT('',#933);
#935=CARTESIAN_POINT('',(-6.870006595153937,-16.727571300359937,0.0));
#936=DIRECTION('',(0.0,0.0,-1.000000000000000));
#937=DIRECTION('',(-0.647151134348021,0.762361731274642,0.0));
#938=AXIS2_PLACEMENT_3D('',#935,#936,#937);
#939=CIRCLE('',#938,16.429936389922588);
#940=EDGE_CURVE('',#925,#934,#939,.T.);
#941=ORIENTED_EDGE('',*,*,#940,.T.);
#942=CARTESIAN_POINT('',(-11.215320004497688,0.882664826938254,0.0));
#943=VERTEX_POINT('',#942);
#944=CARTESIAN_POINT('',(0.0,0.0,0.0));
#945=DIRECTION('',(0.0,0.0,-1.000000000000000));
#946=DIRECTION('',(-0.996917333733128,-0.078459095727846,0.0));
#947=AXIS2_PLACEMENT_3D('',#944,#945,#946);
#948=CIRCLE('',#947,11.249999999999998);
#949=EDGE_CURVE('',#934,#943,#948,.T.);
#950=ORIENTED_EDGE('',*,*,#949,.T.);
#951=CARTESIAN_POINT('',(-17.502658567158182,4.202016549406297,0.0));
#952=VERTEX_POINT('',#951);
#953=CARTESIAN_POINT('',(-6.870006595153948,16.727571300359926,0.0));
#954=DIRECTION('',(0.0,0.0,-1.0));
#955=DIRECTION('',(-0.264475364129162,-0.964392441783296,0.0));
#956=AXIS2_PLACEMENT_3D('',#953,#954,#955);
#957=CIRCLE('',#956,16.429936389922592);
#958=EDGE_CURVE('',#943,#952,#957,.T.);
#959=ORIENTED_EDGE('',*,*,#958,.T.);
#960=CARTESIAN_POINT('',(-16.629831585203167,6.888301782571610,0.0));
#961=VERTEX_POINT('',#960);
#962=CARTESIAN_POINT('',(0.0,0.0,0.0));
#963=DIRECTION('',(0.0,0.0,-1.0));
#964=DIRECTION('',(-1.0,0.0,0.0));
#965=AXIS2_PLACEMENT_3D('',#962,#963,#964);
#966=CIRCLE('',#965,18.0);
#967=EDGE_CURVE('',#952,#961,#966,.T.);
#968=ORIENTED_EDGE('',*,*,#967,.T.);
#969=CARTESIAN_POINT('',(-9.592201848983539,5.878108853054421,0.0));
#970=VERTEX_POINT('',#969);
#971=CARTESIAN_POINT('',(-15.390171803969901,-9.494800896826314,0.0));
#972=DIRECTION('',(0.0,0.0,-1.000000000000000));
#973=DIRECTION('',(-0.075451283061182,0.997149489236404,0.0));
#974=AXIS2_PLACEMENT_3D('',#971,#972,#973);
#975=CIRCLE('',#974,16.429936389922588);
#976=EDGE_CURVE('',#961,#970,#975,.T.);
#977=ORIENTED_EDGE('',*,*,#976,.T.);
#978=CARTESIAN_POINT('',(0.0,0.0,0.0));
#979=DIRECTION('',(0.0,0.0,-1.000000000000000));
#980=DIRECTION('',(-0.852640164354093,0.522498564715949,0.0));
#981=AXIS2_PLACEMENT_3D('',#978,#979,#980);
#982=CIRCLE('',#981,11.249999999999998);
#983=EDGE_CURVE('',#970,#626,#982,.T.);
#984=ORIENTED_EDGE('',*,*,#983,.T.);
#985=EDGE_LOOP('',(#635,#644,#653,#662,#671,#680,#689,#698,#707,#716,#725,#734,#743,#752,#761,#770,#779,#788,#797,#806,#815,#824,#833,#842,#851,#860,#869,#878,#887,#896,#905,#914,#923,#932,#941,#950,#959,#968,#977,#984));
#986=FACE_OUTER_BOUND('',#985,.T.);
#987=CARTESIAN_POINT('',(0.0,7.999999999999999,0.0));
#988=VERTEX_POINT('',#987);
#989=CARTESIAN_POINT('',(0.0,0.0,0.0));
#990=DIRECTION('',(0.0,0.0,1.0));
#991=DIRECTION('',(0.0,1.0,0.0));
#992=AXIS2_PLACEMENT_3D('',#989,#990,#991);
#993=CIRCLE('',#992,7.999999999999998);
#994=EDGE_CURVE('',#988,#988,#993,.T.);
#995=ORIENTED_EDGE('',*,*,#994,.T.);
#996=EDGE_LOOP('',(#995));
#997=FACE_BOUND('',#996,.T.);
#998=ADVANCED_FACE('',(#986,#997),#624,.T.);
#999=CARTESIAN_POINT('',(0.0,0.0,0.0));
#1000=DIRECTION('',(0.0,0.0,1.0));
#1001=DIRECTION('',(-1.0,0.0,0.0));
#1002=AXIS2_PLACEMENT_3D('',#999,#1000,#1001);
#1003=CYLINDRICAL_SURFACE('',#1002,18.0);
#1004=CARTESIAN_POINT('',(-11.690064869943306,13.687307380800560,42.0));
#1005=VERTEX_POINT('',#1004);
#1006=CARTESIAN_POINT('',(-11.690064869943306,13.687307380800560,0.0));
#1007=DIRECTION('',(0.0,0.0,1.0));
#1008=VECTOR('',#1007,42.0);
#1009=LINE('',#1006,#1008);
#1010=EDGE_CURVE('',#628,#1005,#1009,.T.);
#1011=ORIENTED_EDGE('',*,*,#1010,.T.);
#1012=CARTESIAN_POINT('',(-9.404974164887086,15.347522958373659,42.0));
#1013=VERTEX_POINT('',#1012);
#1014=CARTESIAN_POINT('',(0.0,0.0,42.0));
#1015=DIRECTION('',(0.0,0.0,-1.0));
#1016=DIRECTION('',(-1.0,0.0,0.0));
#1017=AXIS2_PLACEMENT_3D('',#1014,#1015,#1016);
#1018=CIRCLE('',#1017,18.0);
#1019=EDGE_CURVE('',#1005,#1013,#1018,.T.);
#1020=ORIENTED_EDGE('',*,*,#1019,.T.);
#1021=CARTESIAN_POINT('',(-9.404974164887086,15.347522958373659,42.0));
#1022=DIRECTION('',(0.0,0.0,-1.0));
#1023=VECTOR('',#1022,42.0);
#1024=LINE('',#1021,#1023);
#1025=EDGE_CURVE('',#1013,#637,#1024,.T.);
#1026=ORIENTED_EDGE('',*,*,#1025,.T.);
#1027=ORIENTED_EDGE('',*,*,#643,.F.);
#1028=EDGE_LOOP('',(#1011,#1020,#1026,#1027));
#1029=FACE_OUTER_BOUND('',#1028,.T.);
#1030=ADVANCED_FACE('',(#1029),#1003,.T.);
#1031=CARTESIAN_POINT('',(13.785916897628567,11.702868345741692,0.0));
#1032=DIRECTION('',(0.0,0.0,1.0));
#1033=DIRECTION('',(-0.998919098133211,-0.046482635303217,0.0));
#1034=AXIS2_PLACEMENT_3D('',#1031,#1032,#1033);
#1035=CYLINDRICAL_SURFACE('',#1034,16.429936389922588);
#1036=CARTESIAN_POINT('',(-1.412263723101205,17.944512007196305,42.0));
#1037=VERTEX_POINT('',#1036);
#1038=CARTESIAN_POINT('',(-2.626260343378934,10.939161604473862,42.0));
#1039=VERTEX_POINT('',#1038);
#1040=CARTESIAN_POINT('',(13.785916897628567,11.702868345741692,42.0));
#1041=DIRECTION('',(0.0,0.0,1.000000000000000));
#1042=DIRECTION('',(-0.998919098133211,-0.046482635303217,0.0));
#1043=AXIS2_PLACEMENT_3D('',#1040,#1041,#1042);
#1044=CIRCLE('',#1043,16.429936389922588);
#1045=EDGE_CURVE('',#1037,#1039,#1044,.T.);
#1046=ORIENTED_EDGE('',*,*,#1045,.F.);
#1047=CARTESIAN_POINT('',(-1.412263723101205,17.944512007196305,0.0));
#1048=DIRECTION('',(0.0,0.0,1.0));
#1049=VECTOR('',#1048,42.0);
#1050=LINE('',#1047,#1049);
#1051=EDGE_CURVE('',#664,#1037,#1050,.T.);
#1052=ORIENTED_EDGE('',*,*,#1051,.F.);
#1053=ORIENTED_EDGE('',*,*,#670,.F.);
#1054=CARTESIAN_POINT('',(-2.626260343378934,10.939161604473862,0.0));
#1055=DIRECTION('',(0.0,0.0,1.0));
#1056=VECTOR('',#1055,42.0);
#1057=LINE('',#1054,#1056);
#1058=EDGE_CURVE('',#655,#1039,#1057,.T.);
#1059=ORIENTED_EDGE('',*,*,#1058,.T.);
#1060=EDGE_LOOP('',(#1046,#1052,#1053,#1059));
#1061=FACE_OUTER_BOUND('',#1060,.T.);
#1062=ADVANCED_FACE('',(#1061),#1035,.T.);
#1063=CARTESIAN_POINT('',(-18.031814476369647,1.364660732881979,0.0));
#1064=DIRECTION('',(0.0,0.0,1.0));
#1065=DIRECTION('',(0.525068393860240,0.851060034174457,0.0));
#1066=AXIS2_PLACEMENT_3D('',#1063,#1064,#1065);
#1067=CYLINDRICAL_SURFACE('',#1066,16.429936389922588);
#1068=CARTESIAN_POINT('',(-4.305188614107262,10.393644740751975,42.0));
#1069=VERTEX_POINT('',#1068);
#1070=CARTESIAN_POINT('',(-18.031814476369647,1.364660732881979,42.0));
#1071=DIRECTION('',(0.0,0.0,1.0));
#1072=DIRECTION('',(0.525068393860240,0.851060034174457,0.0));
#1073=AXIS2_PLACEMENT_3D('',#1070,#1071,#1072);
#1074=CIRCLE('',#1073,16.429936389922588);
#1075=EDGE_CURVE('',#1069,#1013,#1074,.T.);
#1076=ORIENTED_EDGE('',*,*,#1075,.F.);
#1077=CARTESIAN_POINT('',(-4.305188614107262,10.393644740751975,0.0));
#1078=DIRECTION('',(0.0,0.0,1.0));
#1079=VECTOR('',#1078,42.0);
#1080=LINE('',#1077,#1079);
#1081=EDGE_CURVE('',#646,#1069,#1080,.T.);
#1082=ORIENTED_EDGE('',*,*,#1081,.F.);
#1083=ORIENTED_EDGE('',*,*,#652,.F.);
#1084=ORIENTED_EDGE('',*,*,#1025,.F.);
#1085=EDGE_LOOP('',(#1076,#1082,#1083,#1084));
#1086=FACE_OUTER_BOUND('',#1085,.T.);
#1087=ADVANCED_FACE('',(#1086),#1067,.T.);
#1088=CARTESIAN_POINT('',(0.0,0.0,0.0));
#1089=DIRECTION('',(0.0,0.0,1.0));
#1090=DIRECTION('',(-0.382683432365090,0.923879532511287,0.0));
#1091=AXIS2_PLACEMENT_3D('',#1088,#1089,#1090);
#1092=CYLINDRICAL_SURFACE('',#1091,11.249999999999998);
#1093=CARTESIAN_POINT('',(0.0,0.0,42.0));
#1094=DIRECTION('',(0.0,0.0,1.000000000000000));
#1095=DIRECTION('',(-0.382683432365090,0.923879532511287,0.0));
#1096=AXIS2_PLACEMENT_3D('',#1093,#1094,#1095);
#1097=CIRCLE('',#1096,11.249999999999998);
#1098=EDGE_CURVE('',#1039,#1069,#1097,.T.);
#1099=ORIENTED_EDGE('',*,*,#1098,.F.);
#1100=ORIENTED_EDGE('',*,*,#1058,.F.);
#1101=ORIENTED_EDGE('',*,*,#661,.F.);
#1102=ORIENTED_EDGE('',*,*,#1081,.T.);
#1103=EDGE_LOOP('',(#1099,#1100,#1101,#1102));
#1104=FACE_OUTER_BOUND('',#1103,.T.);
#1105=ADVANCED_FACE('',(#1104),#1092,.T.);
#1106=CARTESIAN_POINT('',(0.0,0.0,0.0));
#1107=DIRECTION('',(0.0,0.0,1.0));
#1108=DIRECTION('',(-1.0,0.0,0.0));
#1109=AXIS2_PLACEMENT_3D('',#1106,#1107,#1108);
#1110=CYLINDRICAL_SURFACE('',#1109,18.0);
#1111=CARTESIAN_POINT('',(-16.629831585203167,6.888301782571610,42.0));
#1112=VERTEX_POINT('',#1111);
#1113=CARTESIAN_POINT('',(-16.629831585203167,6.888301782571610,42.0));
#1114=DIRECTION('',(0.0,0.0,-1.0));
#1115=VECTOR('',#1114,42.0);
#1116=LINE('',#1113,#1115);
#1117=EDGE_CURVE('',#1112,#961,#1116,.T.);
#1118=ORIENTED_EDGE('',*,*,#1117,.T.);
#1119=ORIENTED_EDGE('',*,*,#967,.F.);
#1120=CARTESIAN_POINT('',(-17.502658567158182,4.202016549406297,42.000000000000014));
#1121=VERTEX_POINT('',#1120);
#1122=CARTESIAN_POINT('',(-17.502658567158182,4.202016549406297,0.0));
#1123=DIRECTION('',(0.0,0.0,1.0));
#1124=VECTOR('',#1123,42.000000000000014);
#1125=LINE('',#1122,#1124);
#1126=EDGE_CURVE('',#952,#1121,#1125,.T.);
#1127=ORIENTED_EDGE('',*,*,#1126,.T.);
#1128=CARTESIAN_POINT('',(0.0,0.0,42.0));
#1129=DIRECTION('',(0.0,0.0,-1.0));
#1130=DIRECTION('',(-1.0,0.0,0.0));
#1131=AXIS2_PLACEMENT_3D('',#1128,#1129,#1130);
#1132=CIRCLE('',#1131,18.0);
#1133=EDGE_CURVE('',#1121,#1112,#1132,.T.);
#1134=ORIENTED_EDGE('',*,*,#1133,.T.);
#1135=EDGE_LOOP('',(#1118,#1119,#1127,#1134));
#1136=FACE_OUTER_BOUND('',#1135,.T.);
#1137=ADVANCED_FACE('',(#1136),#1110,.T.);
#1138=CARTESIAN_POINT('',(0.0,0.0,0.0));
#1139=DIRECTION('',(0.0,0.0,1.0));
#1140=DIRECTION('',(-1.0,0.0,0.0));
#1141=AXIS2_PLACEMENT_3D('',#1138,#1139,#1140);
#1142=CYLINDRICAL_SURFACE('',#1141,18.0);
#1143=CARTESIAN_POINT('',(-17.502658567158178,-4.202016549406309,42.000000000000014));
#1144=VERTEX_POINT('',#1143);
#1145=CARTESIAN_POINT('',(-17.502658567158178,-4.202016549406309,42.000000000000014));
#1146=DIRECTION('',(0.0,0.0,-1.0));
#1147=VECTOR('',#1146,42.000000000000014);
#1148=LINE('',#1145,#1147);
#1149=EDGE_CURVE('',#1144,#925,#1148,.T.);
#1150=ORIENTED_EDGE('',*,*,#1149,.T.);
#1151=ORIENTED_EDGE('',*,*,#931,.F.);
#1152=CARTESIAN_POINT('',(-16.629831585203164,-6.888301782571614,42.000000000000014));
#1153=VERTEX_POINT('',#1152);
#1154=CARTESIAN_POINT('',(-16.629831585203164,-6.888301782571614,0.0));
#1155=DIRECTION('',(0.0,0.0,1.0));
#1156=VECTOR('',#1155,42.000000000000014);
#1157=LINE('',#1154,#1156);
#1158=EDGE_CURVE('',#916,#1153,#1157,.T.);
#1159=ORIENTED_EDGE('',*,*,#1158,.T.);
#1160=CARTESIAN_POINT('',(0.0,0.0,42.0));
#1161=DIRECTION('',(0.0,0.0,-1.0));
#1162=DIRECTION('',(-1.0,0.0,0.0));
#1163=AXIS2_PLACEMENT_3D('',#1160,#1161,#1162);
#1164=CIRCLE('',#1163,18.0);
#1165=EDGE_CURVE('',#1153,#1144,#1164,.T.);
#1166=ORIENTED_EDGE('',*,*,#1165,.T.);
#1167=EDGE_LOOP('',(#1150,#1151,#1159,#1166));
#1168=FACE_OUTER_BOUND('',#1167,.T.);
#1169=ADVANCED_FACE('',(#1168),#1142,.T.);
#1170=CARTESIAN_POINT('',(0.0,0.0,0.0));
#1171=DIRECTION('',(0.0,0.0,1.0));
#1172=DIRECTION('',(-1.0,0.0,0.0));
#1173=AXIS2_PLACEMENT_3D('',#1170,#1171,#1172);
#1174=CYLINDRICAL_SURFACE('',#1173,18.0);
#1175=CARTESIAN_POINT('',(-11.690064869943303,-13.687307380800565,42.000000000000014));
#1176=VERTEX_POINT('',#1175);
#1177=CARTESIAN_POINT('',(-11.690064869943303,-13.687307380800565,42.000000000000014));
#1178=DIRECTION('',(0.0,0.0,-1.0));
#1179=VECTOR('',#1178,42.000000000000014);
#1180=LINE('',#1177,#1179);
#1181=EDGE_CURVE('',#1176,#889,#1180,.T.);
#1182=ORIENTED_EDGE('',*,*,#1181,.T.);
#1183=ORIENTED_EDGE('',*,*,#895,.F.);
#1184=CARTESIAN_POINT('',(-9.404974164887083,-15.347522958373661,42.0));
#1185=VERTEX_POINT('',#1184);
#1186=CARTESIAN_POINT('',(-9.404974164887083,-15.347522958373661,0.0));
#1187=DIRECTION('',(0.0,0.0,1.0));
#1188=VECTOR('',#1187,42.0);
#1189=LINE('',#1186,#1188);
#1190=EDGE_CURVE('',#880,#1185,#1189,.T.);
#1191=ORIENTED_EDGE('',*,*,#1190,.T.);
#1192=CARTESIAN_POINT('',(0.0,0.0,42.0));
#1193=DIRECTION('',(0.0,0.0,-1.0));
#1194=DIRECTION('',(-1.0,0.0,0.0));
#1195=AXIS2_PLACEMENT_3D('',#1192,#1193,#1194);
#1196=CIRCLE('',#1195,18.0);
#1197=EDGE_CURVE('',#1185,#1176,#1196,.T.);
#1198=ORIENTED_EDGE('',*,*,#1197,.T.);
#1199=EDGE_LOOP('',(#1182,#1183,#1191,#1198));
#1200=FACE_OUTER_BOUND('',#1199,.T.);
#1201=ADVANCED_FACE('',(#1200),#1174,.T.);
#1202=CARTESIAN_POINT('',(0.0,0.0,0.0));
#1203=DIRECTION('',(0.0,0.0,1.0));
#1204=DIRECTION('',(-1.0,0.0,0.0));
#1205=AXIS2_PLACEMENT_3D('',#1202,#1203,#1204);
#1206=CYLINDRICAL_SURFACE('',#1205,18.0);
#1207=CARTESIAN_POINT('',(-1.412263723101201,-17.944512007196305,42.0));
#1208=VERTEX_POINT('',#1207);
#1209=CARTESIAN_POINT('',(-1.412263723101201,-17.944512007196305,42.0));
#1210=DIRECTION('',(0.0,0.0,-1.0));
#1211=VECTOR('',#1210,42.0);
#1212=LINE('',#1209,#1211);
#1213=EDGE_CURVE('',#1208,#853,#1212,.T.);
#1214=ORIENTED_EDGE('',*,*,#1213,.T.);
#1215=ORIENTED_EDGE('',*,*,#859,.F.);
#1216=CARTESIAN_POINT('',(1.412263723101207,-17.944512007196305,42.0));
#1217=VERTEX_POINT('',#1216);
#1218=CARTESIAN_POINT('',(1.412263723101207,-17.944512007196305,0.0));
#1219=DIRECTION('',(0.0,0.0,1.0));
#1220=VECTOR('',#1219,42.0);
#1221=LINE('',#1218,#1220);
#1222=EDGE_CURVE('',#844,#1217,#1221,.T.);
#1223=ORIENTED_EDGE('',*,*,#1222,.T.);
#1224=CARTESIAN_POINT('',(0.0,0.0,42.0));
#1225=DIRECTION('',(0.0,0.0,-1.0));
#1226=DIRECTION('',(-1.0,0.0,0.0));
#1227=AXIS2_PLACEMENT_3D('',#1224,#1225,#1226);
#1228=CIRCLE('',#1227,18.0);
#1229=EDGE_CURVE('',#1217,#1208,#1228,.T.);
#1230=ORIENTED_EDGE('',*,*,#1229,.T.);
#1231=EDGE_LOOP('',(#1214,#1215,#1223,#1230));
#1232=FACE_OUTER_BOUND('',#1231,.T.);
#1233=ADVANCED_FACE('',(#1232),#1206,.T.);
#1234=CARTESIAN_POINT('',(0.0,0.0,0.0));
#1235=DIRECTION('',(0.0,0.0,1.0));
#1236=DIRECTION('',(-1.0,0.0,0.0));
#1237=AXIS2_PLACEMENT_3D('',#1234,#1235,#1236);
#1238=CYLINDRICAL_SURFACE('',#1237,18.0);
#1239=CARTESIAN_POINT('',(9.404974164887088,-15.347522958373656,42.0));
#1240=VERTEX_POINT('',#1239);
#1241=CARTESIAN_POINT('',(9.404974164887088,-15.347522958373656,42.0));
#1242=DIRECTION('',(0.0,0.0,-1.0));
#1243=VECTOR('',#1242,42.0);
#1244=LINE('',#1241,#1243);
#1245=EDGE_CURVE('',#1240,#817,#1244,.T.);
#1246=ORIENTED_EDGE('',*,*,#1245,.T.);
#1247=ORIENTED_EDGE('',*,*,#823,.F.);
#1248=CARTESIAN_POINT('',(11.690064869943306,-13.687307380800560,42.000000000000014));
#1249=VERTEX_POINT('',#1248);
#1250=CARTESIAN_POINT('',(11.690064869943306,-13.687307380800560,0.0));
#1251=DIRECTION('',(0.0,0.0,1.0));
#1252=VECTOR('',#1251,42.000000000000014);
#1253=LINE('',#1250,#1252);
#1254=EDGE_CURVE('',#808,#1249,#1253,.T.);
#1255=ORIENTED_EDGE('',*,*,#1254,.T.);
#1256=CARTESIAN_POINT('',(0.0,0.0,42.0));
#1257=DIRECTION('',(0.0,0.0,-1.0));
#1258=DIRECTION('',(-1.0,0.0,0.0));
#1259=AXIS2_PLACEMENT_3D('',#1256,#1257,#1258);
#1260=CIRCLE('',#1259,18.0);
#1261=EDGE_CURVE('',#1249,#1240,#1260,.T.);
#1262=ORIENTED_EDGE('',*,*,#1261,.T.);
#1263=EDGE_LOOP('',(#1246,#1247,#1255,#1262));
#1264=FACE_OUTER_BOUND('',#1263,.T.);
#1265=ADVANCED_FACE('',(#1264),#1238,.T.);
#1266=CARTESIAN_POINT('',(0.0,0.0,0.0));
#1267=DIRECTION('',(0.0,0.0,1.0));
#1268=DIRECTION('',(-1.0,0.0,0.0));
#1269=AXIS2_PLACEMENT_3D('',#1266,#1267,#1268);
#1270=CYLINDRICAL_SURFACE('',#1269,18.0);
#1271=CARTESIAN_POINT('',(16.629831585203167,-6.888301782571610,42.000000000000014));
#1272=VERTEX_POINT('',#1271);
#1273=CARTESIAN_POINT('',(16.629831585203167,-6.888301782571610,42.000000000000014));
#1274=DIRECTION('',(0.0,0.0,-1.0));
#1275=VECTOR('',#1274,42.000000000000014);
#1276=LINE('',#1273,#1275);
#1277=EDGE_CURVE('',#1272,#781,#1276,.T.);
#1278=ORIENTED_EDGE('',*,*,#1277,.T.);
#1279=ORIENTED_EDGE('',*,*,#787,.F.);
#1280=CARTESIAN_POINT('',(17.502658567158178,-4.202016549406302,42.000000000000014));
#1281=VERTEX_POINT('',#1280);
#1282=CARTESIAN_POINT('',(17.502658567158178,-4.202016549406302,0.0));
#1283=DIRECTION('',(0.0,0.0,1.0));
#1284=VECTOR('',#1283,42.000000000000014);
#1285=LINE('',#1282,#1284);
#1286=EDGE_CURVE('',#772,#1281,#1285,.T.);
#1287=ORIENTED_EDGE('',*,*,#1286,.T.);
#1288=CARTESIAN_POINT('',(0.0,0.0,42.0));
#1289=DIRECTION('',(0.0,0.0,-1.0));
#1290=DIRECTION('',(-1.0,0.0,0.0));
#1291=AXIS2_PLACEMENT_3D('',#1288,#1289,#1290);
#1292=CIRCLE('',#1291,18.0);
#1293=EDGE_CURVE('',#1281,#1272,#1292,.T.);
#1294=ORIENTED_EDGE('',*,*,#1293,.T.);
#1295=EDGE_LOOP('',(#1278,#1279,#1287,#1294));
#1296=FACE_OUTER_BOUND('',#1295,.T.);
#1297=ADVANCED_FACE('',(#1296),#1270,.T.);
#1298=CARTESIAN_POINT('',(0.0,0.0,0.0));
#1299=DIRECTION('',(0.0,0.0,1.0));
#1300=DIRECTION('',(-1.0,0.0,0.0));
#1301=AXIS2_PLACEMENT_3D('',#1298,#1299,#1300);
#1302=CYLINDRICAL_SURFACE('',#1301,18.0);
#1303=CARTESIAN_POINT('',(17.502658567158178,4.202016549406303,42.000000000000014));
#1304=VERTEX_POINT('',#1303);
#1305=CARTESIAN_POINT('',(17.502658567158178,4.202016549406303,42.000000000000014));
#1306=DIRECTION('',(0.0,0.0,-1.0));
#1307=VECTOR('',#1306,42.000000000000014);
#1308=LINE('',#1305,#1307);
#1309=EDGE_CURVE('',#1304,#745,#1308,.T.);
#1310=ORIENTED_EDGE('',*,*,#1309,.T.);
#1311=ORIENTED_EDGE('',*,*,#751,.F.);
#1312=CARTESIAN_POINT('',(16.629831585203164,6.888301782571613,42.000000000000014));
#1313=VERTEX_POINT('',#1312);
#1314=CARTESIAN_POINT('',(16.629831585203164,6.888301782571613,0.0));
#1315=DIRECTION('',(0.0,0.0,1.0));
#1316=VECTOR('',#1315,42.000000000000014);
#1317=LINE('',#1314,#1316);
#1318=EDGE_CURVE('',#736,#1313,#1317,.T.);
#1319=ORIENTED_EDGE('',*,*,#1318,.T.);
#1320=CARTESIAN_POINT('',(0.0,0.0,42.0));
#1321=DIRECTION('',(0.0,0.0,-1.0));
#1322=DIRECTION('',(-1.0,0.0,0.0));
#1323=AXIS2_PLACEMENT_3D('',#1320,#1321,#1322);
#1324=CIRCLE('',#1323,18.0);
#1325=EDGE_CURVE('',#1313,#1304,#1324,.T.);
#1326=ORIENTED_EDGE('',*,*,#1325,.T.);
#1327=EDGE_LOOP('',(#1310,#1311,#1319,#1326));
#1328=FACE_OUTER_BOUND('',#1327,.T.);
#1329=ADVANCED_FACE('',(#1328),#1302,.T.);
#1330=CARTESIAN_POINT('',(0.0,0.0,0.0));
#1331=DIRECTION('',(0.0,0.0,1.0));
#1332=DIRECTION('',(-1.0,0.0,0.0));
#1333=AXIS2_PLACEMENT_3D('',#1330,#1331,#1332);
#1334=CYLINDRICAL_SURFACE('',#1333,18.0);
#1335=CARTESIAN_POINT('',(11.690064869943303,13.687307380800565,42.000000000000014));
#1336=VERTEX_POINT('',#1335);
#1337=CARTESIAN_POINT('',(11.690064869943303,13.687307380800565,42.000000000000014));
#1338=DIRECTION('',(0.0,0.0,-1.0));
#1339=VECTOR('',#1338,42.000000000000014);
#1340=LINE('',#1337,#1339);
#1341=EDGE_CURVE('',#1336,#709,#1340,.T.);
#1342=ORIENTED_EDGE('',*,*,#1341,.T.);
#1343=ORIENTED_EDGE('',*,*,#715,.F.);
#1344=CARTESIAN_POINT('',(9.404974164887083,15.347522958373661,42.000000000000014));
#1345=VERTEX_POINT('',#1344);
#1346=CARTESIAN_POINT('',(9.404974164887083,15.347522958373661,0.0));
#1347=DIRECTION('',(0.0,0.0,1.0));
#1348=VECTOR('',#1347,42.000000000000014);
#1349=LINE('',#1346,#1348);
#1350=EDGE_CURVE('',#700,#1345,#1349,.T.);
#1351=ORIENTED_EDGE('',*,*,#1350,.T.);
#1352=CARTESIAN_POINT('',(0.0,0.0,42.0));
#1353=DIRECTION('',(0.0,0.0,-1.0));
#1354=DIRECTION('',(-1.0,0.0,0.0));
#1355=AXIS2_PLACEMENT_3D('',#1352,#1353,#1354);
#1356=CIRCLE('',#1355,18.0);
#1357=EDGE_CURVE('',#1345,#1336,#1356,.T.);
#1358=ORIENTED_EDGE('',*,*,#1357,.T.);
#1359=EDGE_LOOP('',(#1342,#1343,#1351,#1358));
#1360=FACE_OUTER_BOUND('',#1359,.T.);
#1361=ADVANCED_FACE('',(#1360),#1334,.T.);
#1362=CARTESIAN_POINT('',(0.0,0.0,0.0));
#1363=DIRECTION('',(0.0,0.0,1.0));
#1364=DIRECTION('',(-1.0,0.0,0.0));
#1365=AXIS2_PLACEMENT_3D('',#1362,#1363,#1364);
#1366=CYLINDRICAL_SURFACE('',#1365,18.0);
#1367=CARTESIAN_POINT('',(1.412263723101203,17.944512007196309,42.000000000000014));
#1368=VERTEX_POINT('',#1367);
#1369=CARTESIAN_POINT('',(1.412263723101203,17.944512007196309,42.000000000000014));
#1370=DIRECTION('',(0.0,0.0,-1.0));
#1371=VECTOR('',#1370,42.000000000000014);
#1372=LINE('',#1369,#1371);
#1373=EDGE_CURVE('',#1368,#673,#1372,.T.);
#1374=ORIENTED_EDGE('',*,*,#1373,.T.);
#1375=ORIENTED_EDGE('',*,*,#679,.F.);
#1376=ORIENTED_EDGE('',*,*,#1051,.T.);
#1377=CARTESIAN_POINT('',(0.0,0.0,42.0));
#1378=DIRECTION('',(0.0,0.0,-1.0));
#1379=DIRECTION('',(-1.0,0.0,0.0));
#1380=AXIS2_PLACEMENT_3D('',#1377,#1378,#1379);
#1381=CIRCLE('',#1380,18.0);
#1382=EDGE_CURVE('',#1037,#1368,#1381,.T.);
#1383=ORIENTED_EDGE('',*,*,#1382,.T.);
#1384=EDGE_LOOP('',(#1374,#1375,#1376,#1383));
#1385=FACE_OUTER_BOUND('',#1384,.T.);
#1386=ADVANCED_FACE('',(#1385),#1366,.T.);
#1387=CARTESIAN_POINT('',(0.0,0.0,42.0));
#1388=DIRECTION('',(0.0,0.0,-1.0));
#1389=DIRECTION('',(-1.0,0.0,0.0));
#1390=AXIS2_PLACEMENT_3D('',#1387,#1388,#1389);
#1391=PLANE('',#1390);
#1392=CARTESIAN_POINT('',(-8.554567113000347,7.306290543714566,42.0));
#1393=VERTEX_POINT('',#1392);
#1394=CARTESIAN_POINT('',(4.274267630074881,17.570978016393333,42.0));
#1395=DIRECTION('',(0.0,0.0,1.000000000000000));
#1396=DIRECTION('',(-0.780820718876543,-0.624755156019635,0.0));
#1397=AXIS2_PLACEMENT_3D('',#1394,#1395,#1396);
#1398=CIRCLE('',#1397,16.429936389922588);
#1399=EDGE_CURVE('',#1005,#1393,#1398,.T.);
#1400=ORIENTED_EDGE('',*,*,#1399,.T.);
#1401=CARTESIAN_POINT('',(-9.592201848983539,5.878108853054421,42.0));
#1402=VERTEX_POINT('',#1401);
#1403=CARTESIAN_POINT('',(0.0,0.0,42.0));
#1404=DIRECTION('',(0.0,0.0,1.000000000000000));
#1405=DIRECTION('',(-0.852640164354093,0.522498564715949,0.0));
#1406=AXIS2_PLACEMENT_3D('',#1403,#1404,#1405);
#1407=CIRCLE('',#1406,11.249999999999998);
#1408=EDGE_CURVE('',#1393,#1402,#1407,.T.);
#1409=ORIENTED_EDGE('',*,*,#1408,.T.);
#1410=CARTESIAN_POINT('',(-15.390171803969901,-9.494800896826314,42.0));
#1411=DIRECTION('',(0.0,0.0,1.000000000000000));
#1412=DIRECTION('',(-0.075451283061182,0.997149489236404,0.0));
#1413=AXIS2_PLACEMENT_3D('',#1410,#1411,#1412);
#1414=CIRCLE('',#1413,16.429936389922588);
#1415=EDGE_CURVE('',#1402,#1112,#1414,.T.);
#1416=ORIENTED_EDGE('',*,*,#1415,.T.);
#1417=ORIENTED_EDGE('',*,*,#1133,.F.);
#1418=CARTESIAN_POINT('',(-11.215320004497688,0.882664826938254,42.000000000000014));
#1419=VERTEX_POINT('',#1418);
#1420=CARTESIAN_POINT('',(-6.870006595153948,16.727571300359926,42.000000000000021));
#1421=DIRECTION('',(0.0,0.0,1.0));
#1422=DIRECTION('',(-0.264475364129162,-0.964392441783296,0.0));
#1423=AXIS2_PLACEMENT_3D('',#1420,#1421,#1422);
#1424=CIRCLE('',#1423,16.429936389922592);
#1425=EDGE_CURVE('',#1121,#1419,#1424,.T.);
#1426=ORIENTED_EDGE('',*,*,#1425,.T.);
#1427=CARTESIAN_POINT('',(-11.215320004497691,-0.882664826938262,42.000000000000014));
#1428=VERTEX_POINT('',#1427);
#1429=CARTESIAN_POINT('',(0.0,0.0,42.000000000000021));
#1430=DIRECTION('',(0.0,0.0,1.000000000000000));
#1431=DIRECTION('',(-0.996917333733128,-0.078459095727846,0.0));
#1432=AXIS2_PLACEMENT_3D('',#1429,#1430,#1431);
#1433=CIRCLE('',#1432,11.249999999999998);
#1434=EDGE_CURVE('',#1419,#1428,#1433,.T.);
#1435=ORIENTED_EDGE('',*,*,#1434,.T.);
#1436=CARTESIAN_POINT('',(-6.870006595153937,-16.727571300359937,42.000000000000021));
#1437=DIRECTION('',(0.0,0.0,1.000000000000000));
#1438=DIRECTION('',(-0.647151134348021,0.762361731274642,0.0));
#1439=AXIS2_PLACEMENT_3D('',#1436,#1437,#1438);
#1440=CIRCLE('',#1439,16.429936389922588);
#1441=EDGE_CURVE('',#1428,#1144,#1440,.T.);
#1442=ORIENTED_EDGE('',*,*,#1441,.T.);
#1443=ORIENTED_EDGE('',*,*,#1165,.F.);
#1444=CARTESIAN_POINT('',(-9.592201848983539,-5.878108853054424,42.000000000000014));
#1445=VERTEX_POINT('',#1444);
#1446=CARTESIAN_POINT('',(-15.390171803969901,9.494800896826305,42.000000000000021));
#1447=DIRECTION('',(0.0,0.0,1.0));
#1448=DIRECTION('',(0.352890590528554,-0.935664593279241,0.0));
#1449=AXIS2_PLACEMENT_3D('',#1446,#1447,#1448);
#1450=CIRCLE('',#1449,16.429936389922592);
#1451=EDGE_CURVE('',#1153,#1445,#1450,.T.);
#1452=ORIENTED_EDGE('',*,*,#1451,.T.);
#1453=CARTESIAN_POINT('',(-8.554567113000346,-7.306290543714569,42.000000000000014));
#1454=VERTEX_POINT('',#1453);
#1455=CARTESIAN_POINT('',(0.0,0.0,42.000000000000021));
#1456=DIRECTION('',(0.0,0.0,1.0));
#1457=DIRECTION('',(-0.760405965600031,-0.649448048330184,0.0));
#1458=AXIS2_PLACEMENT_3D('',#1455,#1456,#1457);
#1459=CIRCLE('',#1458,11.249999999999998);
#1460=EDGE_CURVE('',#1445,#1454,#1459,.T.);
#1461=ORIENTED_EDGE('',*,*,#1460,.T.);
#1462=CARTESIAN_POINT('',(4.274267630074889,-17.570978016393340,42.000000000000021));
#1463=DIRECTION('',(0.0,0.0,1.0));
#1464=DIRECTION('',(-0.971661248171966,0.236377703688180,0.0));
#1465=AXIS2_PLACEMENT_3D('',#1462,#1463,#1464);
#1466=CIRCLE('',#1465,16.429936389922588);
#1467=EDGE_CURVE('',#1454,#1176,#1466,.T.);
#1468=ORIENTED_EDGE('',*,*,#1467,.T.);
#1469=ORIENTED_EDGE('',*,*,#1197,.F.);
#1470=CARTESIAN_POINT('',(-4.305188614107260,-10.393644740751975,42.0));
#1471=VERTEX_POINT('',#1470);
#1472=CARTESIAN_POINT('',(-18.031814476369640,-1.364660732881986,42.0));
#1473=DIRECTION('',(0.0,0.0,1.0));
#1474=DIRECTION('',(0.835464333914384,-0.549544672212363,0.0));
#1475=AXIS2_PLACEMENT_3D('',#1472,#1473,#1474);
#1476=CIRCLE('',#1475,16.429936389922588);
#1477=EDGE_CURVE('',#1185,#1471,#1476,.T.);
#1478=ORIENTED_EDGE('',*,*,#1477,.T.);
#1479=CARTESIAN_POINT('',(-2.626260343378932,-10.939161604473863,42.0));
#1480=VERTEX_POINT('',#1479);
#1481=CARTESIAN_POINT('',(0.0,0.0,42.0));
#1482=DIRECTION('',(0.0,0.0,1.0));
#1483=DIRECTION('',(-0.233445363855905,-0.972369920397677,0.0));
#1484=AXIS2_PLACEMENT_3D('',#1481,#1482,#1483);
#1485=CIRCLE('',#1484,11.249999999999998);
#1486=EDGE_CURVE('',#1471,#1480,#1485,.T.);
#1487=ORIENTED_EDGE('',*,*,#1486,.T.);
#1488=CARTESIAN_POINT('',(13.785916897628574,-11.702868345741690,42.0));
#1489=DIRECTION('',(0.0,0.0,1.0));
#1490=DIRECTION('',(-0.925029790745366,-0.379894572524515,0.0));
#1491=AXIS2_PLACEMENT_3D('',#1488,#1489,#1490);
#1492=CIRCLE('',#1491,16.429936389922588);
#1493=EDGE_CURVE('',#1480,#1208,#1492,.T.);
#1494=ORIENTED_EDGE('',*,*,#1493,.T.);
#1495=ORIENTED_EDGE('',*,*,#1229,.F.);
#1496=CARTESIAN_POINT('',(2.626260343378934,-10.939161604473862,42.0));
#1497=VERTEX_POINT('',#1496);
#1498=CARTESIAN_POINT('',(-13.785916897628566,-11.702868345741695,42.0));
#1499=DIRECTION('',(0.0,0.0,1.000000000000000));
#1500=DIRECTION('',(0.998919098133211,0.046482635303217,0.0));
#1501=AXIS2_PLACEMENT_3D('',#1498,#1499,#1500);
#1502=CIRCLE('',#1501,16.429936389922588);
#1503=EDGE_CURVE('',#1217,#1497,#1502,.T.);
#1504=ORIENTED_EDGE('',*,*,#1503,.T.);
#1505=CARTESIAN_POINT('',(4.305188614107264,-10.393644740751975,42.0));
#1506=VERTEX_POINT('',#1505);
#1507=CARTESIAN_POINT('',(0.0,0.0,42.0));
#1508=DIRECTION('',(0.0,0.0,1.000000000000000));
#1509=DIRECTION('',(0.382683432365090,-0.923879532511287,0.0));
#1510=AXIS2_PLACEMENT_3D('',#1507,#1508,#1509);
#1511=CIRCLE('',#1510,11.249999999999998);
#1512=EDGE_CURVE('',#1497,#1506,#1511,.T.);
#1513=ORIENTED_EDGE('',*,*,#1512,.T.);
#1514=CARTESIAN_POINT('',(18.031814476369647,-1.364660732881977,42.0));
#1515=DIRECTION('',(0.0,0.0,1.0));
#1516=DIRECTION('',(-0.525068393860240,-0.851060034174457,0.0));
#1517=AXIS2_PLACEMENT_3D('',#1514,#1515,#1516);
#1518=CIRCLE('',#1517,16.429936389922588);
#1519=EDGE_CURVE('',#1506,#1240,#1518,.T.);
#1520=ORIENTED_EDGE('',*,*,#1519,.T.);
#1521=ORIENTED_EDGE('',*,*,#1261,.F.);
#1522=CARTESIAN_POINT('',(8.554567113000347,-7.306290543714566,42.000000000000014));
#1523=VERTEX_POINT('',#1522);
#1524=CARTESIAN_POINT('',(-4.274267630074884,-17.570978016393333,42.000000000000021));
#1525=DIRECTION('',(0.0,0.0,1.0));
#1526=DIRECTION('',(0.780820718876543,0.624755156019635,0.0));
#1527=AXIS2_PLACEMENT_3D('',#1524,#1525,#1526);
#1528=CIRCLE('',#1527,16.429936389922592);
#1529=EDGE_CURVE('',#1249,#1523,#1528,.T.);
#1530=ORIENTED_EDGE('',*,*,#1529,.T.);
#1531=CARTESIAN_POINT('',(9.592201848983539,-5.878108853054423,42.000000000000014));
#1532=VERTEX_POINT('',#1531);
#1533=CARTESIAN_POINT('',(0.0,0.0,42.000000000000021));
#1534=DIRECTION('',(0.0,0.0,1.000000000000000));
#1535=DIRECTION('',(0.852640164354093,-0.522498564715949,0.0));
#1536=AXIS2_PLACEMENT_3D('',#1533,#1534,#1535);
#1537=CIRCLE('',#1536,11.249999999999998);
#1538=EDGE_CURVE('',#1523,#1532,#1537,.T.);
#1539=ORIENTED_EDGE('',*,*,#1538,.T.);
#1540=CARTESIAN_POINT('',(15.390171803969906,9.494800896826314,42.000000000000021));
#1541=DIRECTION('',(0.0,0.0,1.000000000000000));
#1542=DIRECTION('',(0.075451283061182,-0.997149489236404,0.0));
#1543=AXIS2_PLACEMENT_3D('',#1540,#1541,#1542);
#1544=CIRCLE('',#1543,16.429936389922588);
#1545=EDGE_CURVE('',#1532,#1272,#1544,.T.);
#1546=ORIENTED_EDGE('',*,*,#1545,.T.);
#1547=ORIENTED_EDGE('',*,*,#1293,.F.);
#1548=CARTESIAN_POINT('',(11.215320004497691,-0.882664826938258,42.000000000000014));
#1549=VERTEX_POINT('',#1548);
#1550=CARTESIAN_POINT('',(6.870006595153941,-16.727571300359930,42.000000000000021));
#1551=DIRECTION('',(0.0,0.0,1.000000000000000));
#1552=DIRECTION('',(0.264475364129162,0.964392441783296,0.0));
#1553=AXIS2_PLACEMENT_3D('',#1550,#1551,#1552);
#1554=CIRCLE('',#1553,16.429936389922588);
#1555=EDGE_CURVE('',#1281,#1549,#1554,.T.);
#1556=ORIENTED_EDGE('',*,*,#1555,.T.);
#1557=CARTESIAN_POINT('',(11.215320004497691,0.882664826938259,42.000000000000014));
#1558=VERTEX_POINT('',#1557);
#1559=CARTESIAN_POINT('',(0.0,0.0,42.000000000000021));
#1560=DIRECTION('',(0.0,0.0,1.0));
#1561=DIRECTION('',(0.996917333733128,0.078459095727845,0.0));
#1562=AXIS2_PLACEMENT_3D('',#1559,#1560,#1561);
#1563=CIRCLE('',#1562,11.249999999999998);
#1564=EDGE_CURVE('',#1549,#1558,#1563,.T.);
#1565=ORIENTED_EDGE('',*,*,#1564,.T.);
#1566=CARTESIAN_POINT('',(6.870006595153942,16.727571300359934,42.000000000000021));
#1567=DIRECTION('',(0.0,0.0,1.000000000000000));
#1568=DIRECTION('',(0.647151134348021,-0.762361731274642,0.0));
#1569=AXIS2_PLACEMENT_3D('',#1566,#1567,#1568);
#1570=CIRCLE('',#1569,16.429936389922588);
#1571=EDGE_CURVE('',#1558,#1304,#1570,.T.);
#1572=ORIENTED_EDGE('',*,*,#1571,.T.);
#1573=ORIENTED_EDGE('',*,*,#1325,.F.);
#1574=CARTESIAN_POINT('',(9.592201848983539,5.878108853054423,42.000000000000014));
#1575=VERTEX_POINT('',#1574);
#1576=CARTESIAN_POINT('',(15.390171803969901,-9.494800896826305,42.000000000000021));
#1577=DIRECTION('',(0.0,0.0,1.0));
#1578=DIRECTION('',(-0.352890590528554,0.935664593279241,0.0));
#1579=AXIS2_PLACEMENT_3D('',#1576,#1577,#1578);
#1580=CIRCLE('',#1579,16.429936389922592);
#1581=EDGE_CURVE('',#1313,#1575,#1580,.T.);
#1582=ORIENTED_EDGE('',*,*,#1581,.T.);
#1583=CARTESIAN_POINT('',(8.554567113000346,7.306290543714569,42.000000000000014));
#1584=VERTEX_POINT('',#1583);
#1585=CARTESIAN_POINT('',(0.0,0.0,42.000000000000021));
#1586=DIRECTION('',(0.0,0.0,1.000000000000000));
#1587=DIRECTION('',(0.760405965600031,0.649448048330184,0.0));
#1588=AXIS2_PLACEMENT_3D('',#1585,#1586,#1587);
#1589=CIRCLE('',#1588,11.249999999999996);
#1590=EDGE_CURVE('',#1575,#1584,#1589,.T.);
#1591=ORIENTED_EDGE('',*,*,#1590,.T.);
#1592=CARTESIAN_POINT('',(-4.274267630074889,17.570978016393340,42.000000000000021));
#1593=DIRECTION('',(0.0,0.0,1.0));
#1594=DIRECTION('',(0.971661248171966,-0.236377703688181,0.0));
#1595=AXIS2_PLACEMENT_3D('',#1592,#1593,#1594);
#1596=CIRCLE('',#1595,16.429936389922588);
#1597=EDGE_CURVE('',#1584,#1336,#1596,.T.);
#1598=ORIENTED_EDGE('',*,*,#1597,.T.);
#1599=ORIENTED_EDGE('',*,*,#1357,.F.);
#1600=CARTESIAN_POINT('',(4.305188614107261,10.393644740751977,42.000000000000014));
#1601=VERTEX_POINT('',#1600);
#1602=CARTESIAN_POINT('',(18.031814476369643,1.364660732881984,42.000000000000021));
#1603=DIRECTION('',(0.0,0.0,1.000000000000000));
#1604=DIRECTION('',(-0.835464333914384,0.549544672212363,0.0));
#1605=AXIS2_PLACEMENT_3D('',#1602,#1603,#1604);
#1606=CIRCLE('',#1605,16.429936389922588);
#1607=EDGE_CURVE('',#1345,#1601,#1606,.T.);
#1608=ORIENTED_EDGE('',*,*,#1607,.T.);
#1609=CARTESIAN_POINT('',(2.626260343378932,10.939161604473863,42.000000000000014));
#1610=VERTEX_POINT('',#1609);
#1611=CARTESIAN_POINT('',(0.0,0.0,42.000000000000021));
#1612=DIRECTION('',(0.0,0.0,1.000000000000000));
#1613=DIRECTION('',(0.233445363855905,0.972369920397677,0.0));
#1614=AXIS2_PLACEMENT_3D('',#1611,#1612,#1613);
#1615=CIRCLE('',#1614,11.249999999999998);
#1616=EDGE_CURVE('',#1601,#1610,#1615,.T.);
#1617=ORIENTED_EDGE('',*,*,#1616,.T.);
#1618=CARTESIAN_POINT('',(-13.785916897628576,11.702868345741695,42.000000000000021));
#1619=DIRECTION('',(0.0,0.0,1.000000000000000));
#1620=DIRECTION('',(0.925029790745366,0.379894572524515,0.0));
#1621=AXIS2_PLACEMENT_3D('',#1618,#1619,#1620);
#1622=CIRCLE('',#1621,16.429936389922588);
#1623=EDGE_CURVE('',#1610,#1368,#1622,.T.);
#1624=ORIENTED_EDGE('',*,*,#1623,.T.);
#1625=ORIENTED_EDGE('',*,*,#1382,.F.);
#1626=ORIENTED_EDGE('',*,*,#1045,.T.);
#1627=ORIENTED_EDGE('',*,*,#1098,.T.);
#1628=ORIENTED_EDGE('',*,*,#1075,.T.);
#1629=ORIENTED_EDGE('',*,*,#1019,.F.);
#1630=EDGE_LOOP('',(#1400,#1409,#1416,#1417,#1426,#1435,#1442,#1443,#1452,#1461,#1468,#1469,#1478,#1487,#1494,#1495,#1504,#1513,#1520,#1521,#1530,#1539,#1546,#1547,#1556,#1565,#1572,#1573,#1582,#1591,#1598,#1599,#1608,#1617,#1624,#1625,#1626,#1627,#1628,#1629));
#1631=FACE_OUTER_BOUND('',#1630,.T.);
#1632=ORIENTED_EDGE('',*,*,#603,.T.);
#1633=EDGE_LOOP('',(#1632));
#1634=FACE_BOUND('',#1633,.T.);
#1635=ADVANCED_FACE('',(#1631,#1634),#1391,.F.);
#1636=CARTESIAN_POINT('',(18.031814476369643,1.364660732881984,0.0));
#1637=DIRECTION('',(0.0,0.0,1.0));
#1638=DIRECTION('',(-0.835464333914384,0.549544672212363,0.0));
#1639=AXIS2_PLACEMENT_3D('',#1636,#1637,#1638);
#1640=CYLINDRICAL_SURFACE('',#1639,16.429936389922592);
#1641=ORIENTED_EDGE('',*,*,#1607,.F.);
#1642=ORIENTED_EDGE('',*,*,#1350,.F.);
#1643=ORIENTED_EDGE('',*,*,#706,.F.);
#1644=CARTESIAN_POINT('',(4.305188614107261,10.393644740751977,0.0));
#1645=DIRECTION('',(0.0,0.0,1.0));
#1646=VECTOR('',#1645,42.000000000000014);
#1647=LINE('',#1644,#1646);
#1648=EDGE_CURVE('',#691,#1601,#1647,.T.);
#1649=ORIENTED_EDGE('',*,*,#1648,.T.);
#1650=EDGE_LOOP('',(#1641,#1642,#1643,#1649));
#1651=FACE_OUTER_BOUND('',#1650,.T.);
#1652=ADVANCED_FACE('',(#1651),#1640,.T.);
#1653=CARTESIAN_POINT('',(-13.785916897628576,11.702868345741695,0.0));
#1654=DIRECTION('',(0.0,0.0,1.0));
#1655=DIRECTION('',(0.925029790745366,0.379894572524515,0.0));
#1656=AXIS2_PLACEMENT_3D('',#1653,#1654,#1655);
#1657=CYLINDRICAL_SURFACE('',#1656,16.429936389922592);
#1658=ORIENTED_EDGE('',*,*,#1623,.F.);
#1659=CARTESIAN_POINT('',(2.626260343378932,10.939161604473863,0.0));
#1660=DIRECTION('',(0.0,0.0,1.0));
#1661=VECTOR('',#1660,42.000000000000014);
#1662=LINE('',#1659,#1661);
#1663=EDGE_CURVE('',#682,#1610,#1662,.T.);
#1664=ORIENTED_EDGE('',*,*,#1663,.F.);
#1665=ORIENTED_EDGE('',*,*,#688,.F.);
#1666=ORIENTED_EDGE('',*,*,#1373,.F.);
#1667=EDGE_LOOP('',(#1658,#1664,#1665,#1666));
#1668=FACE_OUTER_BOUND('',#1667,.T.);
#1669=ADVANCED_FACE('',(#1668),#1657,.T.);
#1670=CARTESIAN_POINT('',(0.0,0.0,0.0));
#1671=DIRECTION('',(0.0,0.0,1.0));
#1672=DIRECTION('',(0.233445363855905,0.972369920397677,0.0));
#1673=AXIS2_PLACEMENT_3D('',#1670,#1671,#1672);
#1674=CYLINDRICAL_SURFACE('',#1673,11.249999999999998);
#1675=ORIENTED_EDGE('',*,*,#1616,.F.);
#1676=ORIENTED_EDGE('',*,*,#1648,.F.);
#1677=ORIENTED_EDGE('',*,*,#697,.F.);
#1678=ORIENTED_EDGE('',*,*,#1663,.T.);
#1679=EDGE_LOOP('',(#1675,#1676,#1677,#1678));
#1680=FACE_OUTER_BOUND('',#1679,.T.);
#1681=ADVANCED_FACE('',(#1680),#1674,.T.);
#1682=CARTESIAN_POINT('',(15.390171803969901,-9.494800896826305,0.0));
#1683=DIRECTION('',(0.0,0.0,1.0));
#1684=DIRECTION('',(-0.352890590528554,0.935664593279241,0.0));
#1685=AXIS2_PLACEMENT_3D('',#1682,#1683,#1684);
#1686=CYLINDRICAL_SURFACE('',#1685,16.429936389922592);
#1687=ORIENTED_EDGE('',*,*,#1581,.F.);
#1688=ORIENTED_EDGE('',*,*,#1318,.F.);
#1689=ORIENTED_EDGE('',*,*,#742,.F.);
#1690=CARTESIAN_POINT('',(9.592201848983539,5.878108853054423,0.0));
#1691=DIRECTION('',(0.0,0.0,1.0));
#1692=VECTOR('',#1691,42.000000000000014);
#1693=LINE('',#1690,#1692);
#1694=EDGE_CURVE('',#727,#1575,#1693,.T.);
#1695=ORIENTED_EDGE('',*,*,#1694,.T.);
#1696=EDGE_LOOP('',(#1687,#1688,#1689,#1695));
#1697=FACE_OUTER_BOUND('',#1696,.T.);
#1698=ADVANCED_FACE('',(#1697),#1686,.T.);
#1699=CARTESIAN_POINT('',(-4.274267630074889,17.570978016393340,0.0));
#1700=DIRECTION('',(0.0,0.0,1.0));
#1701=DIRECTION('',(0.971661248171966,-0.236377703688181,0.0));
#1702=AXIS2_PLACEMENT_3D('',#1699,#1700,#1701);
#1703=CYLINDRICAL_SURFACE('',#1702,16.429936389922588);
#1704=ORIENTED_EDGE('',*,*,#1597,.F.);
#1705=CARTESIAN_POINT('',(8.554567113000346,7.306290543714569,0.0));
#1706=DIRECTION('',(0.0,0.0,1.0));
#1707=VECTOR('',#1706,42.000000000000014);
#1708=LINE('',#1705,#1707);
#1709=EDGE_CURVE('',#718,#1584,#1708,.T.);
#1710=ORIENTED_EDGE('',*,*,#1709,.F.);
#1711=ORIENTED_EDGE('',*,*,#724,.F.);
#1712=ORIENTED_EDGE('',*,*,#1341,.F.);
#1713=EDGE_LOOP('',(#1704,#1710,#1711,#1712));
#1714=FACE_OUTER_BOUND('',#1713,.T.);
#1715=ADVANCED_FACE('',(#1714),#1703,.T.);
#1716=CARTESIAN_POINT('',(0.0,0.0,0.0));
#1717=DIRECTION('',(0.0,0.0,1.0));
#1718=DIRECTION('',(0.760405965600031,0.649448048330184,0.0));
#1719=AXIS2_PLACEMENT_3D('',#1716,#1717,#1718);
#1720=CYLINDRICAL_SURFACE('',#1719,11.249999999999998);
#1721=ORIENTED_EDGE('',*,*,#1590,.F.);
#1722=ORIENTED_EDGE('',*,*,#1694,.F.);
#1723=ORIENTED_EDGE('',*,*,#733,.F.);
#1724=ORIENTED_EDGE('',*,*,#1709,.T.);
#1725=EDGE_LOOP('',(#1721,#1722,#1723,#1724));
#1726=FACE_OUTER_BOUND('',#1725,.T.);
#1727=ADVANCED_FACE('',(#1726),#1720,.T.);
#1728=CARTESIAN_POINT('',(6.870006595153941,-16.727571300359930,0.0));
#1729=DIRECTION('',(0.0,0.0,1.0));
#1730=DIRECTION('',(0.264475364129162,0.964392441783296,0.0));
#1731=AXIS2_PLACEMENT_3D('',#1728,#1729,#1730);
#1732=CYLINDRICAL_SURFACE('',#1731,16.429936389922592);
#1733=ORIENTED_EDGE('',*,*,#1555,.F.);
#1734=ORIENTED_EDGE('',*,*,#1286,.F.);
#1735=ORIENTED_EDGE('',*,*,#778,.F.);
#1736=CARTESIAN_POINT('',(11.215320004497691,-0.882664826938258,0.0));
#1737=DIRECTION('',(0.0,0.0,1.0));
#1738=VECTOR('',#1737,42.000000000000014);
#1739=LINE('',#1736,#1738);
#1740=EDGE_CURVE('',#763,#1549,#1739,.T.);
#1741=ORIENTED_EDGE('',*,*,#1740,.T.);
#1742=EDGE_LOOP('',(#1733,#1734,#1735,#1741));
#1743=FACE_OUTER_BOUND('',#1742,.T.);
#1744=ADVANCED_FACE('',(#1743),#1732,.T.);
#1745=CARTESIAN_POINT('',(6.870006595153942,16.727571300359934,0.0));
#1746=DIRECTION('',(0.0,0.0,1.0));
#1747=DIRECTION('',(0.647151134348021,-0.762361731274642,0.0));
#1748=AXIS2_PLACEMENT_3D('',#1745,#1746,#1747);
#1749=CYLINDRICAL_SURFACE('',#1748,16.429936389922592);
#1750=ORIENTED_EDGE('',*,*,#1571,.F.);
#1751=CARTESIAN_POINT('',(11.215320004497691,0.882664826938259,0.0));
#1752=DIRECTION('',(0.0,0.0,1.0));
#1753=VECTOR('',#1752,42.000000000000014);
#1754=LINE('',#1751,#1753);
#1755=EDGE_CURVE('',#754,#1558,#1754,.T.);
#1756=ORIENTED_EDGE('',*,*,#1755,.F.);
#1757=ORIENTED_EDGE('',*,*,#760,.F.);
#1758=ORIENTED_EDGE('',*,*,#1309,.F.);
#1759=EDGE_LOOP('',(#1750,#1756,#1757,#1758));
#1760=FACE_OUTER_BOUND('',#1759,.T.);
#1761=ADVANCED_FACE('',(#1760),#1749,.T.);
#1762=CARTESIAN_POINT('',(0.0,0.0,0.0));
#1763=DIRECTION('',(0.0,0.0,1.0));
#1764=DIRECTION('',(0.996917333733128,0.078459095727845,0.0));
#1765=AXIS2_PLACEMENT_3D('',#1762,#1763,#1764);
#1766=CYLINDRICAL_SURFACE('',#1765,11.249999999999998);
#1767=ORIENTED_EDGE('',*,*,#1564,.F.);
#1768=ORIENTED_EDGE('',*,*,#1740,.F.);
#1769=ORIENTED_EDGE('',*,*,#769,.F.);
#1770=ORIENTED_EDGE('',*,*,#1755,.T.);
#1771=EDGE_LOOP('',(#1767,#1768,#1769,#1770));
#1772=FACE_OUTER_BOUND('',#1771,.T.);
#1773=ADVANCED_FACE('',(#1772),#1766,.T.);
#1774=CARTESIAN_POINT('',(-4.274267630074884,-17.570978016393333,0.0));
#1775=DIRECTION('',(0.0,0.0,1.0));
#1776=DIRECTION('',(0.780820718876543,0.624755156019635,0.0));
#1777=AXIS2_PLACEMENT_3D('',#1774,#1775,#1776);
#1778=CYLINDRICAL_SURFACE('',#1777,16.429936389922592);
#1779=ORIENTED_EDGE('',*,*,#1529,.F.);
#1780=ORIENTED_EDGE('',*,*,#1254,.F.);
#1781=ORIENTED_EDGE('',*,*,#814,.F.);
#1782=CARTESIAN_POINT('',(8.554567113000347,-7.306290543714566,0.0));
#1783=DIRECTION('',(0.0,0.0,1.0));
#1784=VECTOR('',#1783,42.000000000000014);
#1785=LINE('',#1782,#1784);
#1786=EDGE_CURVE('',#799,#1523,#1785,.T.);
#1787=ORIENTED_EDGE('',*,*,#1786,.T.);
#1788=EDGE_LOOP('',(#1779,#1780,#1781,#1787));
#1789=FACE_OUTER_BOUND('',#1788,.T.);
#1790=ADVANCED_FACE('',(#1789),#1778,.T.);
#1791=CARTESIAN_POINT('',(15.390171803969906,9.494800896826314,0.0));
#1792=DIRECTION('',(0.0,0.0,1.0));
#1793=DIRECTION('',(0.075451283061182,-0.997149489236404,0.0));
#1794=AXIS2_PLACEMENT_3D('',#1791,#1792,#1793);
#1795=CYLINDRICAL_SURFACE('',#1794,16.429936389922592);
#1796=ORIENTED_EDGE('',*,*,#1545,.F.);
#1797=CARTESIAN_POINT('',(9.592201848983539,-5.878108853054423,0.0));
#1798=DIRECTION('',(0.0,0.0,1.0));
#1799=VECTOR('',#1798,42.000000000000014);
#1800=LINE('',#1797,#1799);
#1801=EDGE_CURVE('',#790,#1532,#1800,.T.);
#1802=ORIENTED_EDGE('',*,*,#1801,.F.);
#1803=ORIENTED_EDGE('',*,*,#796,.F.);
#1804=ORIENTED_EDGE('',*,*,#1277,.F.);
#1805=EDGE_LOOP('',(#1796,#1802,#1803,#1804));
#1806=FACE_OUTER_BOUND('',#1805,.T.);
#1807=ADVANCED_FACE('',(#1806),#1795,.T.);
#1808=CARTESIAN_POINT('',(0.0,0.0,0.0));
#1809=DIRECTION('',(0.0,0.0,1.0));
#1810=DIRECTION('',(0.852640164354093,-0.522498564715949,0.0));
#1811=AXIS2_PLACEMENT_3D('',#1808,#1809,#1810);
#1812=CYLINDRICAL_SURFACE('',#1811,11.249999999999998);
#1813=ORIENTED_EDGE('',*,*,#1538,.F.);
#1814=ORIENTED_EDGE('',*,*,#1786,.F.);
#1815=ORIENTED_EDGE('',*,*,#805,.F.);
#1816=ORIENTED_EDGE('',*,*,#1801,.T.);
#1817=EDGE_LOOP('',(#1813,#1814,#1815,#1816));
#1818=FACE_OUTER_BOUND('',#1817,.T.);
#1819=ADVANCED_FACE('',(#1818),#1812,.T.);
#1820=CARTESIAN_POINT('',(-13.785916897628566,-11.702868345741695,0.0));
#1821=DIRECTION('',(0.0,0.0,1.0));
#1822=DIRECTION('',(0.998919098133211,0.046482635303217,0.0));
#1823=AXIS2_PLACEMENT_3D('',#1820,#1821,#1822);
#1824=CYLINDRICAL_SURFACE('',#1823,16.429936389922588);
#1825=ORIENTED_EDGE('',*,*,#1503,.F.);
#1826=ORIENTED_EDGE('',*,*,#1222,.F.);
#1827=ORIENTED_EDGE('',*,*,#850,.F.);
#1828=CARTESIAN_POINT('',(2.626260343378934,-10.939161604473862,0.0));
#1829=DIRECTION('',(0.0,0.0,1.0));
#1830=VECTOR('',#1829,42.0);
#1831=LINE('',#1828,#1830);
#1832=EDGE_CURVE('',#835,#1497,#1831,.T.);
#1833=ORIENTED_EDGE('',*,*,#1832,.T.);
#1834=EDGE_LOOP('',(#1825,#1826,#1827,#1833));
#1835=FACE_OUTER_BOUND('',#1834,.T.);
#1836=ADVANCED_FACE('',(#1835),#1824,.T.);
#1837=CARTESIAN_POINT('',(18.031814476369647,-1.364660732881977,0.0));
#1838=DIRECTION('',(0.0,0.0,1.0));
#1839=DIRECTION('',(-0.525068393860240,-0.851060034174457,0.0));
#1840=AXIS2_PLACEMENT_3D('',#1837,#1838,#1839);
#1841=CYLINDRICAL_SURFACE('',#1840,16.429936389922588);
#1842=ORIENTED_EDGE('',*,*,#1519,.F.);
#1843=CARTESIAN_POINT('',(4.305188614107264,-10.393644740751975,0.0));
#1844=DIRECTION('',(0.0,0.0,1.0));
#1845=VECTOR('',#1844,42.0);
#1846=LINE('',#1843,#1845);
#1847=EDGE_CURVE('',#826,#1506,#1846,.T.);
#1848=ORIENTED_EDGE('',*,*,#1847,.F.);
#1849=ORIENTED_EDGE('',*,*,#832,.F.);
#1850=ORIENTED_EDGE('',*,*,#1245,.F.);
#1851=EDGE_LOOP('',(#1842,#1848,#1849,#1850));
#1852=FACE_OUTER_BOUND('',#1851,.T.);
#1853=ADVANCED_FACE('',(#1852),#1841,.T.);
#1854=CARTESIAN_POINT('',(0.0,0.0,0.0));
#1855=DIRECTION('',(0.0,0.0,1.0));
#1856=DIRECTION('',(0.382683432365090,-0.923879532511287,0.0));
#1857=AXIS2_PLACEMENT_3D('',#1854,#1855,#1856);
#1858=CYLINDRICAL_SURFACE('',#1857,11.249999999999998);
#1859=ORIENTED_EDGE('',*,*,#1512,.F.);
#1860=ORIENTED_EDGE('',*,*,#1832,.F.);
#1861=ORIENTED_EDGE('',*,*,#841,.F.);
#1862=ORIENTED_EDGE('',*,*,#1847,.T.);
#1863=EDGE_LOOP('',(#1859,#1860,#1861,#1862));
#1864=FACE_OUTER_BOUND('',#1863,.T.);
#1865=ADVANCED_FACE('',(#1864),#1858,.T.);
#1866=CARTESIAN_POINT('',(-18.031814476369640,-1.364660732881986,0.0));
#1867=DIRECTION('',(0.0,0.0,1.0));
#1868=DIRECTION('',(0.835464333914384,-0.549544672212363,0.0));
#1869=AXIS2_PLACEMENT_3D('',#1866,#1867,#1868);
#1870=CYLINDRICAL_SURFACE('',#1869,16.429936389922588);
#1871=ORIENTED_EDGE('',*,*,#1477,.F.);
#1872=ORIENTED_EDGE('',*,*,#1190,.F.);
#1873=ORIENTED_EDGE('',*,*,#886,.F.);
#1874=CARTESIAN_POINT('',(-4.305188614107260,-10.393644740751975,0.0));
#1875=DIRECTION('',(0.0,0.0,1.0));
#1876=VECTOR('',#1875,42.0);
#1877=LINE('',#1874,#1876);
#1878=EDGE_CURVE('',#871,#1471,#1877,.T.);
#1879=ORIENTED_EDGE('',*,*,#1878,.T.);
#1880=EDGE_LOOP('',(#1871,#1872,#1873,#1879));
#1881=FACE_OUTER_BOUND('',#1880,.T.);
#1882=ADVANCED_FACE('',(#1881),#1870,.T.);
#1883=CARTESIAN_POINT('',(13.785916897628574,-11.702868345741690,0.0));
#1884=DIRECTION('',(0.0,0.0,1.0));
#1885=DIRECTION('',(-0.925029790745366,-0.379894572524515,0.0));
#1886=AXIS2_PLACEMENT_3D('',#1883,#1884,#1885);
#1887=CYLINDRICAL_SURFACE('',#1886,16.429936389922588);
#1888=ORIENTED_EDGE('',*,*,#1493,.F.);
#1889=CARTESIAN_POINT('',(-2.626260343378932,-10.939161604473863,0.0));
#1890=DIRECTION('',(0.0,0.0,1.0));
#1891=VECTOR('',#1890,42.0);
#1892=LINE('',#1889,#1891);
#1893=EDGE_CURVE('',#862,#1480,#1892,.T.);
#1894=ORIENTED_EDGE('',*,*,#1893,.F.);
#1895=ORIENTED_EDGE('',*,*,#868,.F.);
#1896=ORIENTED_EDGE('',*,*,#1213,.F.);
#1897=EDGE_LOOP('',(#1888,#1894,#1895,#1896));
#1898=FACE_OUTER_BOUND('',#1897,.T.);
#1899=ADVANCED_FACE('',(#1898),#1887,.T.);
#1900=CARTESIAN_POINT('',(0.0,0.0,0.0));
#1901=DIRECTION('',(0.0,0.0,1.0));
#1902=DIRECTION('',(-0.233445363855905,-0.972369920397677,0.0));
#1903=AXIS2_PLACEMENT_3D('',#1900,#1901,#1902);
#1904=CYLINDRICAL_SURFACE('',#1903,11.249999999999998);
#1905=ORIENTED_EDGE('',*,*,#1486,.F.);
#1906=ORIENTED_EDGE('',*,*,#1878,.F.);
#1907=ORIENTED_EDGE('',*,*,#877,.F.);
#1908=ORIENTED_EDGE('',*,*,#1893,.T.);
#1909=EDGE_LOOP('',(#1905,#1906,#1907,#1908));
#1910=FACE_OUTER_BOUND('',#1909,.T.);
#1911=ADVANCED_FACE('',(#1910),#1904,.T.);
#1912=CARTESIAN_POINT('',(-15.390171803969901,9.494800896826305,0.0));
#1913=DIRECTION('',(0.0,0.0,1.0));
#1914=DIRECTION('',(0.352890590528554,-0.935664593279241,0.0));
#1915=AXIS2_PLACEMENT_3D('',#1912,#1913,#1914);
#1916=CYLINDRICAL_SURFACE('',#1915,16.429936389922592);
#1917=ORIENTED_EDGE('',*,*,#1451,.F.);
#1918=ORIENTED_EDGE('',*,*,#1158,.F.);
#1919=ORIENTED_EDGE('',*,*,#922,.F.);
#1920=CARTESIAN_POINT('',(-9.592201848983539,-5.878108853054424,0.0));
#1921=DIRECTION('',(0.0,0.0,1.0));
#1922=VECTOR('',#1921,42.000000000000014);
#1923=LINE('',#1920,#1922);
#1924=EDGE_CURVE('',#907,#1445,#1923,.T.);
#1925=ORIENTED_EDGE('',*,*,#1924,.T.);
#1926=EDGE_LOOP('',(#1917,#1918,#1919,#1925));
#1927=FACE_OUTER_BOUND('',#1926,.T.);
#1928=ADVANCED_FACE('',(#1927),#1916,.T.);
#1929=CARTESIAN_POINT('',(4.274267630074889,-17.570978016393340,0.0));
#1930=DIRECTION('',(0.0,0.0,1.0));
#1931=DIRECTION('',(-0.971661248171966,0.236377703688180,0.0));
#1932=AXIS2_PLACEMENT_3D('',#1929,#1930,#1931);
#1933=CYLINDRICAL_SURFACE('',#1932,16.429936389922588);
#1934=ORIENTED_EDGE('',*,*,#1467,.F.);
#1935=CARTESIAN_POINT('',(-8.554567113000346,-7.306290543714569,0.0));
#1936=DIRECTION('',(0.0,0.0,1.0));
#1937=VECTOR('',#1936,42.000000000000014);
#1938=LINE('',#1935,#1937);
#1939=EDGE_CURVE('',#898,#1454,#1938,.T.);
#1940=ORIENTED_EDGE('',*,*,#1939,.F.);
#1941=ORIENTED_EDGE('',*,*,#904,.F.);
#1942=ORIENTED_EDGE('',*,*,#1181,.F.);
#1943=EDGE_LOOP('',(#1934,#1940,#1941,#1942));
#1944=FACE_OUTER_BOUND('',#1943,.T.);
#1945=ADVANCED_FACE('',(#1944),#1933,.T.);
#1946=CARTESIAN_POINT('',(0.0,0.0,0.0));
#1947=DIRECTION('',(0.0,0.0,1.0));
#1948=DIRECTION('',(-0.760405965600031,-0.649448048330184,0.0));
#1949=AXIS2_PLACEMENT_3D('',#1946,#1947,#1948);
#1950=CYLINDRICAL_SURFACE('',#1949,11.249999999999998);
#1951=ORIENTED_EDGE('',*,*,#1460,.F.);
#1952=ORIENTED_EDGE('',*,*,#1924,.F.);
#1953=ORIENTED_EDGE('',*,*,#913,.F.);
#1954=ORIENTED_EDGE('',*,*,#1939,.T.);
#1955=EDGE_LOOP('',(#1951,#1952,#1953,#1954));
#1956=FACE_OUTER_BOUND('',#1955,.T.);
#1957=ADVANCED_FACE('',(#1956),#1950,.T.);
#1958=CARTESIAN_POINT('',(-6.870006595153948,16.727571300359926,0.0));
#1959=DIRECTION('',(0.0,0.0,1.0));
#1960=DIRECTION('',(-0.264475364129162,-0.964392441783296,0.0));
#1961=AXIS2_PLACEMENT_3D('',#1958,#1959,#1960);
#1962=CYLINDRICAL_SURFACE('',#1961,16.429936389922592);
#1963=ORIENTED_EDGE('',*,*,#1425,.F.);
#1964=ORIENTED_EDGE('',*,*,#1126,.F.);
#1965=ORIENTED_EDGE('',*,*,#958,.F.);
#1966=CARTESIAN_POINT('',(-11.215320004497688,0.882664826938254,0.0));
#1967=DIRECTION('',(0.0,0.0,1.0));
#1968=VECTOR('',#1967,42.000000000000014);
#1969=LINE('',#1966,#1968);
#1970=EDGE_CURVE('',#943,#1419,#1969,.T.);
#1971=ORIENTED_EDGE('',*,*,#1970,.T.);
#1972=EDGE_LOOP('',(#1963,#1964,#1965,#1971));
#1973=FACE_OUTER_BOUND('',#1972,.T.);
#1974=ADVANCED_FACE('',(#1973),#1962,.T.);
#1975=CARTESIAN_POINT('',(-6.870006595153937,-16.727571300359937,0.0));
#1976=DIRECTION('',(0.0,0.0,1.0));
#1977=DIRECTION('',(-0.647151134348021,0.762361731274642,0.0));
#1978=AXIS2_PLACEMENT_3D('',#1975,#1976,#1977);
#1979=CYLINDRICAL_SURFACE('',#1978,16.429936389922592);
#1980=ORIENTED_EDGE('',*,*,#1441,.F.);
#1981=CARTESIAN_POINT('',(-11.215320004497691,-0.882664826938262,0.0));
#1982=DIRECTION('',(0.0,0.0,1.0));
#1983=VECTOR('',#1982,42.000000000000014);
#1984=LINE('',#1981,#1983);
#1985=EDGE_CURVE('',#934,#1428,#1984,.T.);
#1986=ORIENTED_EDGE('',*,*,#1985,.F.);
#1987=ORIENTED_EDGE('',*,*,#940,.F.);
#1988=ORIENTED_EDGE('',*,*,#1149,.F.);
#1989=EDGE_LOOP('',(#1980,#1986,#1987,#1988));
#1990=FACE_OUTER_BOUND('',#1989,.T.);
#1991=ADVANCED_FACE('',(#1990),#1979,.T.);
#1992=CARTESIAN_POINT('',(0.0,0.0,0.0));
#1993=DIRECTION('',(0.0,0.0,1.0));
#1994=DIRECTION('',(-0.996917333733128,-0.078459095727846,0.0));
#1995=AXIS2_PLACEMENT_3D('',#1992,#1993,#1994);
#1996=CYLINDRICAL_SURFACE('',#1995,11.249999999999998);
#1997=ORIENTED_EDGE('',*,*,#1434,.F.);
#1998=ORIENTED_EDGE('',*,*,#1970,.F.);
#1999=ORIENTED_EDGE('',*,*,#949,.F.);
#2000=ORIENTED_EDGE('',*,*,#1985,.T.);
#2001=EDGE_LOOP('',(#1997,#1998,#1999,#2000));
#2002=FACE_OUTER_BOUND('',#2001,.T.);
#2003=ADVANCED_FACE('',(#2002),#1996,.T.);
#2004=CARTESIAN_POINT('',(4.274267630074881,17.570978016393333,0.0));
#2005=DIRECTION('',(0.0,0.0,1.0));
#2006=DIRECTION('',(-0.780820718876543,-0.624755156019635,0.0));
#2007=AXIS2_PLACEMENT_3D('',#2004,#2005,#2006);
#2008=CYLINDRICAL_SURFACE('',#2007,16.429936389922592);
#2009=ORIENTED_EDGE('',*,*,#1399,.F.);
#2010=ORIENTED_EDGE('',*,*,#1010,.F.);
#2011=ORIENTED_EDGE('',*,*,#634,.F.);
#2012=CARTESIAN_POINT('',(-8.554567113000347,7.306290543714566,0.0));
#2013=DIRECTION('',(0.0,0.0,1.0));
#2014=VECTOR('',#2013,42.0);
#2015=LINE('',#2012,#2014);
#2016=EDGE_CURVE('',#626,#1393,#2015,.T.);
#2017=ORIENTED_EDGE('',*,*,#2016,.T.);
#2018=EDGE_LOOP('',(#2009,#2010,#2011,#2017));
#2019=FACE_OUTER_BOUND('',#2018,.T.);
#2020=ADVANCED_FACE('',(#2019),#2008,.T.);
#2021=CARTESIAN_POINT('',(-15.390171803969901,-9.494800896826314,0.0));
#2022=DIRECTION('',(0.0,0.0,1.0));
#2023=DIRECTION('',(-0.075451283061182,0.997149489236404,0.0));
#2024=AXIS2_PLACEMENT_3D('',#2021,#2022,#2023);
#2025=CYLINDRICAL_SURFACE('',#2024,16.429936389922592);
#2026=ORIENTED_EDGE('',*,*,#1415,.F.);
#2027=CARTESIAN_POINT('',(-9.592201848983539,5.878108853054421,0.0));
#2028=DIRECTION('',(0.0,0.0,1.0));
#2029=VECTOR('',#2028,42.0);
#2030=LINE('',#2027,#2029);
#2031=EDGE_CURVE('',#970,#1402,#2030,.T.);
#2032=ORIENTED_EDGE('',*,*,#2031,.F.);
#2033=ORIENTED_EDGE('',*,*,#976,.F.);
#2034=ORIENTED_EDGE('',*,*,#1117,.F.);
#2035=EDGE_LOOP('',(#2026,#2032,#2033,#2034));
#2036=FACE_OUTER_BOUND('',#2035,.T.);
#2037=ADVANCED_FACE('',(#2036),#2025,.T.);
#2038=CARTESIAN_POINT('',(0.0,0.0,0.0));
#2039=DIRECTION('',(0.0,0.0,1.0));
#2040=DIRECTION('',(-0.852640164354093,0.522498564715949,0.0));
#2041=AXIS2_PLACEMENT_3D('',#2038,#2039,#2040);
#2042=CYLINDRICAL_SURFACE('',#2041,11.249999999999998);
#2043=ORIENTED_EDGE('',*,*,#1408,.F.);
#2044=ORIENTED_EDGE('',*,*,#2016,.F.);
#2045=ORIENTED_EDGE('',*,*,#983,.F.);
#2046=ORIENTED_EDGE('',*,*,#2031,.T.);
#2047=EDGE_LOOP('',(#2043,#2044,#2045,#2046));
#2048=FACE_OUTER_BOUND('',#2047,.T.);
#2049=ADVANCED_FACE('',(#2048),#2042,.T.);
#2050=CARTESIAN_POINT('',(0.0,6.000000000000004,-35.0));
#2051=DIRECTION('',(0.0,0.0,-1.0));
#2052=DIRECTION('',(-1.0,0.0,0.0));
#2053=AXIS2_PLACEMENT_3D('',#2050,#2051,#2052);
#2054=PLANE('',#2053);
#2055=CARTESIAN_POINT('',(0.0,7.000000000000002,-35.0));
#2056=VERTEX_POINT('',#2055);
#2057=CARTESIAN_POINT('',(0.0,6.605827E-015,-35.0));
#2058=DIRECTION('',(0.0,0.0,-1.0));
#2059=DIRECTION('',(0.0,1.0,0.0));
#2060=AXIS2_PLACEMENT_3D('',#2057,#2058,#2059);
#2061=CIRCLE('',#2060,6.999999999999995);
#2062=EDGE_CURVE('',#2056,#2056,#2061,.T.);
#2063=ORIENTED_EDGE('',*,*,#2062,.T.);
#2064=EDGE_LOOP('',(#2063));
#2065=FACE_OUTER_BOUND('',#2064,.T.);
#2066=ORIENTED_EDGE('',*,*,#491,.F.);
#2067=EDGE_LOOP('',(#2066));
#2068=FACE_BOUND('',#2067,.T.);
#2069=ADVANCED_FACE('',(#2065,#2068),#2054,.T.);
#2070=CARTESIAN_POINT('',(0.0,4.718448E-015,-25.0));
#2071=DIRECTION('',(0.0,1.887379E-016,-1.0));
#2072=DIRECTION('',(0.0,1.0,0.0));
#2073=AXIS2_PLACEMENT_3D('',#2070,#2071,#2072);
#2074=CYLINDRICAL_SURFACE('',#2073,6.999999999999997);
#2075=ORIENTED_EDGE('',*,*,#2062,.F.);
#2076=EDGE_LOOP('',(#2075));
#2077=FACE_OUTER_BOUND('',#2076,.T.);
#2078=CARTESIAN_POINT('',(0.0,7.000000000000002,-15.0));
#2079=VERTEX_POINT('',#2078);
#2080=CARTESIAN_POINT('',(0.0,2.831069E-015,-15.000000000000002));
#2081=DIRECTION('',(0.0,0.0,-1.0));
#2082=DIRECTION('',(0.0,1.0,0.0));
#2083=AXIS2_PLACEMENT_3D('',#2080,#2081,#2082);
#2084=CIRCLE('',#2083,6.999999999999998);
#2085=EDGE_CURVE('',#2079,#2079,#2084,.T.);
#2086=ORIENTED_EDGE('',*,*,#2085,.T.);
#2087=EDGE_LOOP('',(#2086));
#2088=FACE_BOUND('',#2087,.T.);
#2089=ADVANCED_FACE('',(#2077,#2088),#2074,.T.);
#2090=CARTESIAN_POINT('',(0.0,7.500000000000000,-15.0));
#2091=DIRECTION('',(0.0,0.0,-1.0));
#2092=DIRECTION('',(-1.0,0.0,0.0));
#2093=AXIS2_PLACEMENT_3D('',#2090,#2091,#2092);
#2094=PLANE('',#2093);
#2095=CARTESIAN_POINT('',(0.0,7.999999999999999,-15.0));
#2096=VERTEX_POINT('',#2095);
#2097=CARTESIAN_POINT('',(0.0,2.831069E-015,-15.000000000000002));
#2098=DIRECTION('',(0.0,0.0,-1.0));
#2099=DIRECTION('',(0.0,1.0,0.0));
#2100=AXIS2_PLACEMENT_3D('',#2097,#2098,#2099);
#2101=CIRCLE('',#2100,7.999999999999996);
#2102=EDGE_CURVE('',#2096,#2096,#2101,.T.);
#2103=ORIENTED_EDGE('',*,*,#2102,.T.);
#2104=EDGE_LOOP('',(#2103));
#2105=FACE_OUTER_BOUND('',#2104,.T.);
#2106=ORIENTED_EDGE('',*,*,#2085,.F.);
#2107=EDGE_LOOP('',(#2106));
#2108=FACE_BOUND('',#2107,.T.);
#2109=ADVANCED_FACE('',(#2105,#2108),#2094,.T.);
#2110=CARTESIAN_POINT('',(0.0,1.415534E-015,-7.500000000000001));
#2111=DIRECTION('',(0.0,1.887379E-016,-1.0));
#2112=DIRECTION('',(0.0,1.0,0.0));
#2113=AXIS2_PLACEMENT_3D('',#2110,#2111,#2112);
#2114=CYLINDRICAL_SURFACE('',#2113,7.999999999999998);
#2115=ORIENTED_EDGE('',*,*,#2102,.F.);
#2116=EDGE_LOOP('',(#2115));
#2117=FACE_OUTER_BOUND('',#2116,.T.);
#2118=ORIENTED_EDGE('',*,*,#994,.F.);
#2119=EDGE_LOOP('',(#2118));
#2120=FACE_BOUND('',#2119,.T.);
#2121=ADVANCED_FACE('',(#2117,#2120),#2114,.T.);
#2122=CLOSED_SHELL('',(#95,#115,#124,#149,#174,#199,#224,#277,#330,#383,#436,#495,#513,#531,#549,#567,#579,#607,#619,#998,#1030,#1062,#1087,#1105,#1137,#1169,#1201,#1233,#1265,#1297,#1329,#1361,#1386,#1635,#1652,#1669,#1681,#1698,#1715,#1727,#1744,#1761,#1773,#1790,#1807,#1819,#1836,#1853,#1865,#1882,#1899,#1911,#1928,#1945,#1957,#1974,#1991,#2003,#2020,#2037,#2049,#2069,#2089,#2109,#2121));
#2123=CARTESIAN_POINT('',(0.0,1.424880E-031,-7.549517E-016));
#2124=DIRECTION('',(0.0,-1.887379E-016,1.0));
#2125=DIRECTION('',(-1.0,0.0,0.0));
#2126=AXIS2_PLACEMENT_3D('',#2123,#2124,#2125);
#2127=CYLINDRICAL_SURFACE('',#2126,2.975000000000001);
#2128=CARTESIAN_POINT('',(2.975000000000001,-5.038620E-016,4.599999999999999));
#2129=VERTEX_POINT('',#2128);
#2130=CARTESIAN_POINT('',(0.0,-8.681944E-016,4.599999999999999));
#2131=DIRECTION('',(0.0,0.0,-1.0));
#2132=DIRECTION('',(-1.0,0.0,0.0));
#2133=AXIS2_PLACEMENT_3D('',#2130,#2131,#2132);
#2134=CIRCLE('',#2133,2.975000000000001);
#2135=EDGE_CURVE('',#2129,#2129,#2134,.T.);
#2136=ORIENTED_EDGE('',*,*,#2135,.T.);
#2137=EDGE_LOOP('',(#2136));
#2138=FACE_OUTER_BOUND('',#2137,.T.);
#2139=CARTESIAN_POINT('',(2.975000000000001,3.643324E-016,-7.549517E-016));
#2140=VERTEX_POINT('',#2139);
#2141=CARTESIAN_POINT('',(0.0,1.424880E-031,-7.549517E-016));
#2142=DIRECTION('',(0.0,0.0,-1.0));
#2143=DIRECTION('',(-1.0,0.0,0.0));
#2144=AXIS2_PLACEMENT_3D('',#2141,#2142,#2143);
#2145=CIRCLE('',#2144,2.975000000000001);
#2146=EDGE_CURVE('',#2140,#2140,#2145,.T.);
#2147=ORIENTED_EDGE('',*,*,#2146,.F.);
#2148=EDGE_LOOP('',(#2147));
#2149=FACE_BOUND('',#2148,.T.);
#2150=ADVANCED_FACE('',(#2138,#2149),#2127,.T.);
#2151=CARTESIAN_POINT('',(0.0,-8.681944E-016,4.599999999999999));
#2152=DIRECTION('',(0.0,0.0,-1.0));
#2153=DIRECTION('',(-1.0,0.0,0.0));
#2154=AXIS2_PLACEMENT_3D('',#2151,#2152,#2153);
#2155=PLANE('',#2154);
#2156=ORIENTED_EDGE('',*,*,#2135,.F.);
#2157=EDGE_LOOP('',(#2156));
#2158=FACE_OUTER_BOUND('',#2157,.T.);
#2159=ADVANCED_FACE('',(#2158),#2155,.F.);
#2160=CARTESIAN_POINT('',(0.0,4.000000000000000,-6.183972E-033));
#2161=DIRECTION('',(0.0,0.0,1.0));
#2162=DIRECTION('',(1.0,0.0,0.0));
#2163=AXIS2_PLACEMENT_3D('',#2160,#2161,#2162);
#2164=PLANE('',#2163);
#2165=CARTESIAN_POINT('',(-3.000000000000000,3.673940E-016,0.0));
#2166=VERTEX_POINT('',#2165);
#2167=CARTESIAN_POINT('',(0.0,0.0,0.0));
#2168=DIRECTION('',(0.0,0.0,1.0));
#2169=DIRECTION('',(1.0,0.0,0.0));
#2170=AXIS2_PLACEMENT_3D('',#2167,#2168,#2169);
#2171=CIRCLE('',#2170,3.000000000000000);
#2172=EDGE_CURVE('',#2166,#2166,#2171,.T.);
#2173=ORIENTED_EDGE('',*,*,#2172,.T.);
#2174=EDGE_LOOP('',(#2173));
#2175=FACE_OUTER_BOUND('',#2174,.T.);
#2176=ORIENTED_EDGE('',*,*,#2146,.T.);
#2177=EDGE_LOOP('',(#2176));
#2178=FACE_BOUND('',#2177,.T.);
#2179=ADVANCED_FACE('',(#2175,#2178),#2164,.T.);
#2180=CARTESIAN_POINT('',(0.0,0.0,0.0));
#2181=DIRECTION('',(0.0,0.0,1.0));
#2182=DIRECTION('',(1.0,0.0,0.0));
#2183=AXIS2_PLACEMENT_3D('',#2180,#2181,#2182);
#2184=CYLINDRICAL_SURFACE('',#2183,3.000000000000000);
#2185=CARTESIAN_POINT('',(-3.000000000000000,3.673940E-016,10.0));
#2186=VERTEX_POINT('',#2185);
#2187=CARTESIAN_POINT('',(0.0,0.0,10.0));
#2188=DIRECTION('',(0.0,0.0,-1.0));
#2189=DIRECTION('',(1.0,0.0,0.0));
#2190=AXIS2_PLACEMENT_3D('',#2187,#2188,#2189);
#2191=CIRCLE('',#2190,3.000000000000000);
#2192=EDGE_CURVE('',#2186,#2186,#2191,.T.);
#2193=ORIENTED_EDGE('',*,*,#2192,.F.);
#2194=EDGE_LOOP('',(#2193));
#2195=FACE_OUTER_BOUND('',#2194,.T.);
#2196=ORIENTED_EDGE('',*,*,#2172,.F.);
#2197=EDGE_LOOP('',(#2196));
#2198=FACE_BOUND('',#2197,.T.);
#2199=ADVANCED_FACE('',(#2195,#2198),#2184,.F.);
#2200=CARTESIAN_POINT('',(0.0,0.0,10.0));
#2201=DIRECTION('',(0.0,0.0,1.0));
#2202=DIRECTION('',(1.0,0.0,0.0));
#2203=AXIS2_PLACEMENT_3D('',#2200,#2201,#2202);
#2204=PLANE('',#2203);
#2205=ORIENTED_EDGE('',*,*,#2192,.T.);
#2206=EDGE_LOOP('',(#2205));
#2207=FACE_OUTER_BOUND('',#2206,.T.);
#2208=ADVANCED_FACE('',(#2207),#2204,.F.);
#2209=CLOSED_SHELL('',(#2150,#2159,#2179,#2199,#2208));
#2210=ORIENTED_CLOSED_SHELL('',*,#2209,.F.);
#2211=BREP_WITH_VOIDS('',#2122,(#2210));
#2212=COLOUR_RGB('Green Pastel',0.572548985481262,0.721569001674652,0.560783982276917);
#2213=FILL_AREA_STYLE_COLOUR('Green Pastel',#2212);
#2214=FILL_AREA_STYLE('Green Pastel',(#2213));
#2215=SURFACE_STYLE_FILL_AREA(#2214);
#2216=SURFACE_SIDE_STYLE('Green Pastel',(#2215));
#2217=SURFACE_STYLE_USAGE(.BOTH.,#2216);
#2218=PRESENTATION_STYLE_ASSIGNMENT((#2217));
#2219=STYLED_ITEM('',(#2218),#2211);
#2220=MECHANICAL_DESIGN_GEOMETRIC_PRESENTATION_REPRESENTATION('',(#2219),#36);
#2221=ADVANCED_BREP_SHAPE_REPRESENTATION('ABSR',(#2211),#36);
#2222=SHAPE_REPRESENTATION_RELATIONSHIP('SRR','None',#2221,#41);
ENDSEC;
END-ISO-10303-21;
