ISO-10303-21;
HEADER;
/****************************************************************
 * Generated by software with PDE/Lib inside                    *
 * PDElib Version v51a, created Thu 12/14/2006                  *
 * International Technegroup Inc. (www.iti-oh.com)              *
 ****************************************************************/
FILE_DESCRIPTION((''),'2;1');
FILE_NAME('D:\\THANG\\2018\\YouTube\\2F\\10FlushSlideDoor\\AssSlider.stp','2018-03-07T21:06:21',('Administrator'),(''),'Autodesk Inventor 2008','Autodesk Inventor 2008','');
FILE_SCHEMA(('AUTOMOTIVE_DESIGN { 1 0 10303 214 1 1 1 1 }'));
ENDSEC;
DATA;
#5=APPLICATION_CONTEXT('automotive design');
#6=APPLICATION_PROTOCOL_DEFINITION('International Standard','automotive_design',2001,#5);
#7=PRODUCT_CONTEXT('',#5,'mechanical');
#8=PRODUCT('AssSlider','AssSlider',$,(#7));
#9=PRODUCT_RELATED_PRODUCT_CATEGORY('part',$,(#8));
#10=PRODUCT_DEFINITION_FORMATION('',$,#8);
#11=PRODUCT_DEFINITION_CONTEXT('part definition',#5,'design');
#12=PRODUCT_DEFINITION('',$,#10,#11);
#18=(NAMED_UNIT(*)PLANE_ANGLE_UNIT()SI_UNIT($,.RADIAN.));
#19=DIMENSIONAL_EXPONENTS(0.0,0.0,0.0,0.0,0.0,0.0,0.0);
#20=PLANE_ANGLE_MEASURE_WITH_UNIT(PLANE_ANGLE_MEASURE(0.017453292500000),#18);
#24=(CONVERSION_BASED_UNIT('DEGREE',#20)NAMED_UNIT(#19)PLANE_ANGLE_UNIT());
#28=(NAMED_UNIT(*)SI_UNIT($,.STERADIAN.)SOLID_ANGLE_UNIT());
#32=(LENGTH_UNIT()NAMED_UNIT(*)SI_UNIT(.MILLI.,.METRE.));
#34=UNCERTAINTY_MEASURE_WITH_UNIT(LENGTH_MEASURE(0.010000000000000),#32,'DISTANCE_ACCURACY_VALUE','');
#36=(GEOMETRIC_REPRESENTATION_CONTEXT(3)GLOBAL_UNCERTAINTY_ASSIGNED_CONTEXT((#34))GLOBAL_UNIT_ASSIGNED_CONTEXT((#24,#28,#32))REPRESENTATION_CONTEXT('None','None'));
#37=AXIS2_PLACEMENT_3D('',#38,#39,#40);
#38=CARTESIAN_POINT('',(0.0,0.0,0.0));
#39=DIRECTION('',(0.0,0.0,1.0));
#40=DIRECTION('',(1.0,0.0,0.0));
#41=SHAPE_REPRESENTATION('',(#37,#884,#1051,#1063,#1270,#1282),#36);
#42=PRODUCT_DEFINITION_SHAPE('','',#12);
#43=SHAPE_DEFINITION_REPRESENTATION(#42,#41);
#44=APPLICATION_CONTEXT('automotive design');
#45=APPLICATION_PROTOCOL_DEFINITION('International Standard','automotive_design',2001,#44);
#46=PRODUCT_CONTEXT('',#44,'mechanical');
#47=PRODUCT('RollerBody','RollerBody',$,(#46));
#48=PRODUCT_RELATED_PRODUCT_CATEGORY('part',$,(#47));
#49=PRODUCT_DEFINITION_FORMATION('',$,#47);
#50=PRODUCT_DEFINITION_CONTEXT('part definition',#44,'design');
#51=PRODUCT_DEFINITION('',$,#49,#50);
#57=(NAMED_UNIT(*)PLANE_ANGLE_UNIT()SI_UNIT($,.RADIAN.));
#58=DIMENSIONAL_EXPONENTS(0.0,0.0,0.0,0.0,0.0,0.0,0.0);
#59=PLANE_ANGLE_MEASURE_WITH_UNIT(PLANE_ANGLE_MEASURE(0.017453292500000),#57);
#63=(CONVERSION_BASED_UNIT('DEGREE',#59)NAMED_UNIT(#58)PLANE_ANGLE_UNIT());
#67=(NAMED_UNIT(*)SI_UNIT($,.STERADIAN.)SOLID_ANGLE_UNIT());
#71=(LENGTH_UNIT()NAMED_UNIT(*)SI_UNIT(.MILLI.,.METRE.));
#73=UNCERTAINTY_MEASURE_WITH_UNIT(LENGTH_MEASURE(0.010000000000000),#71,'DISTANCE_ACCURACY_VALUE','');
#75=(GEOMETRIC_REPRESENTATION_CONTEXT(3)GLOBAL_UNCERTAINTY_ASSIGNED_CONTEXT((#73))GLOBAL_UNIT_ASSIGNED_CONTEXT((#63,#67,#71))REPRESENTATION_CONTEXT('None','None'));
#76=AXIS2_PLACEMENT_3D('',#77,#78,#79);
#77=CARTESIAN_POINT('',(0.0,0.0,0.0));
#78=DIRECTION('',(0.0,0.0,1.0));
#79=DIRECTION('',(1.0,0.0,0.0));
#80=SHAPE_REPRESENTATION('',(#76),#75);
#81=PRODUCT_DEFINITION_SHAPE('','',#51);
#82=SHAPE_DEFINITION_REPRESENTATION(#81,#80);
#88=(NAMED_UNIT(*)PLANE_ANGLE_UNIT()SI_UNIT($,.RADIAN.));
#89=DIMENSIONAL_EXPONENTS(0.0,0.0,0.0,0.0,0.0,0.0,0.0);
#90=PLANE_ANGLE_MEASURE_WITH_UNIT(PLANE_ANGLE_MEASURE(0.017453292500000),#88);
#94=(CONVERSION_BASED_UNIT('DEGREE',#90)NAMED_UNIT(#89)PLANE_ANGLE_UNIT());
#98=(NAMED_UNIT(*)SI_UNIT($,.STERADIAN.)SOLID_ANGLE_UNIT());
#102=(LENGTH_UNIT()NAMED_UNIT(*)SI_UNIT(.MILLI.,.METRE.));
#104=UNCERTAINTY_MEASURE_WITH_UNIT(LENGTH_MEASURE(0.000001000000000),#102,'DISTANCE_ACCURACY_VALUE','');
#106=(GEOMETRIC_REPRESENTATION_CONTEXT(3)GLOBAL_UNCERTAINTY_ASSIGNED_CONTEXT((#104))GLOBAL_UNIT_ASSIGNED_CONTEXT((#94,#98,#102))REPRESENTATION_CONTEXT('','3D'));
#107=CARTESIAN_POINT('',(0.0,7.000000000000001,0.0));
#108=DIRECTION('',(0.0,1.0,0.0));
#109=DIRECTION('',(-1.0,0.0,0.0));
#110=AXIS2_PLACEMENT_3D('',#107,#108,#109);
#111=CYLINDRICAL_SURFACE('',#110,4.0);
#112=CARTESIAN_POINT('',(4.0,22.0,-4.898587E-016));
#113=VERTEX_POINT('',#112);
#114=CARTESIAN_POINT('',(0.0,22.0,0.0));
#115=DIRECTION('',(0.0,-1.0,0.0));
#116=DIRECTION('',(-1.0,0.0,0.0));
#117=AXIS2_PLACEMENT_3D('',#114,#115,#116);
#118=CIRCLE('',#117,4.0);
#119=EDGE_CURVE('',#113,#113,#118,.T.);
#120=ORIENTED_EDGE('',*,*,#119,.T.);
#121=EDGE_LOOP('',(#120));
#122=FACE_OUTER_BOUND('',#121,.T.);
#123=CARTESIAN_POINT('',(4.0,7.000000000000001,-4.898587E-016));
#124=VERTEX_POINT('',#123);
#125=CARTESIAN_POINT('',(0.0,7.000000000000001,0.0));
#126=DIRECTION('',(0.0,-1.0,0.0));
#127=DIRECTION('',(-1.0,0.0,0.0));
#128=AXIS2_PLACEMENT_3D('',#125,#126,#127);
#129=CIRCLE('',#128,4.0);
#130=EDGE_CURVE('',#124,#124,#129,.T.);
#131=ORIENTED_EDGE('',*,*,#130,.F.);
#132=EDGE_LOOP('',(#131));
#133=FACE_BOUND('',#132,.T.);
#134=ADVANCED_FACE('',(#122,#133),#111,.T.);
#135=CARTESIAN_POINT('',(0.0,22.0,0.0));
#136=DIRECTION('',(0.0,-1.0,0.0));
#137=DIRECTION('',(0.0,0.0,-1.0));
#138=AXIS2_PLACEMENT_3D('',#135,#136,#137);
#139=PLANE('',#138);
#140=ORIENTED_EDGE('',*,*,#119,.F.);
#141=EDGE_LOOP('',(#140));
#142=FACE_OUTER_BOUND('',#141,.T.);
#143=ADVANCED_FACE('',(#142),#139,.F.);
#144=CARTESIAN_POINT('',(-14.999999999999998,-4.000000000000002,9.0));
#145=DIRECTION('',(0.0,-1.0,0.0));
#146=DIRECTION('',(0.0,0.0,-1.0));
#147=AXIS2_PLACEMENT_3D('',#144,#145,#146);
#148=PLANE('',#147);
#149=CARTESIAN_POINT('',(-14.999999999999998,-4.000000000000002,-9.0));
#150=VERTEX_POINT('',#149);
#151=CARTESIAN_POINT('',(-5.0,-4.000000000000000,-9.0));
#152=VERTEX_POINT('',#151);
#153=CARTESIAN_POINT('',(-14.999999999999998,-4.000000000000002,-9.0));
#154=DIRECTION('',(1.0,0.0,0.0));
#155=VECTOR('',#154,9.999999999999998);
#156=LINE('',#153,#155);
#157=EDGE_CURVE('',#150,#152,#156,.T.);
#158=ORIENTED_EDGE('',*,*,#157,.F.);
#159=CARTESIAN_POINT('',(-14.999999999999998,-4.000000000000002,9.0));
#160=VERTEX_POINT('',#159);
#161=CARTESIAN_POINT('',(-14.999999999999998,-4.000000000000002,9.0));
#162=DIRECTION('',(0.0,0.0,-1.0));
#163=VECTOR('',#162,18.0);
#164=LINE('',#161,#163);
#165=EDGE_CURVE('',#160,#150,#164,.T.);
#166=ORIENTED_EDGE('',*,*,#165,.F.);
#167=CARTESIAN_POINT('',(-5.0,-4.000000000000000,9.0));
#168=VERTEX_POINT('',#167);
#169=CARTESIAN_POINT('',(-5.0,-4.000000000000000,9.0));
#170=DIRECTION('',(-1.0,0.0,0.0));
#171=VECTOR('',#170,9.999999999999998);
#172=LINE('',#169,#171);
#173=EDGE_CURVE('',#168,#160,#172,.T.);
#174=ORIENTED_EDGE('',*,*,#173,.F.);
#175=CARTESIAN_POINT('',(-5.0,-4.000000000000000,9.0));
#176=DIRECTION('',(0.0,0.0,-1.0));
#177=VECTOR('',#176,18.0);
#178=LINE('',#175,#177);
#179=EDGE_CURVE('',#168,#152,#178,.T.);
#180=ORIENTED_EDGE('',*,*,#179,.T.);
#181=EDGE_LOOP('',(#158,#166,#174,#180));
#182=FACE_OUTER_BOUND('',#181,.T.);
#183=ADVANCED_FACE('',(#182),#148,.F.);
#184=CARTESIAN_POINT('',(-5.0,-4.000000000000000,9.0));
#185=DIRECTION('',(1.0,0.0,0.0));
#186=DIRECTION('',(0.0,0.0,-1.0));
#187=AXIS2_PLACEMENT_3D('',#184,#185,#186);
#188=PLANE('',#187);
#189=CARTESIAN_POINT('',(-5.0,7.000000000000001,-9.0));
#190=VERTEX_POINT('',#189);
#191=CARTESIAN_POINT('',(-5.0,-4.000000000000000,-9.0));
#192=DIRECTION('',(0.0,1.0,0.0));
#193=VECTOR('',#192,11.0);
#194=LINE('',#191,#193);
#195=EDGE_CURVE('',#152,#190,#194,.T.);
#196=ORIENTED_EDGE('',*,*,#195,.F.);
#197=ORIENTED_EDGE('',*,*,#179,.F.);
#198=CARTESIAN_POINT('',(-5.0,7.000000000000001,9.0));
#199=VERTEX_POINT('',#198);
#200=CARTESIAN_POINT('',(-5.0,7.000000000000001,9.0));
#201=DIRECTION('',(0.0,-1.0,0.0));
#202=VECTOR('',#201,11.0);
#203=LINE('',#200,#202);
#204=EDGE_CURVE('',#199,#168,#203,.T.);
#205=ORIENTED_EDGE('',*,*,#204,.F.);
#206=CARTESIAN_POINT('',(-5.0,7.000000000000001,-9.0));
#207=DIRECTION('',(0.0,0.0,1.0));
#208=VECTOR('',#207,18.0);
#209=LINE('',#206,#208);
#210=EDGE_CURVE('',#190,#199,#209,.T.);
#211=ORIENTED_EDGE('',*,*,#210,.F.);
#212=EDGE_LOOP('',(#196,#197,#205,#211));
#213=FACE_OUTER_BOUND('',#212,.T.);
#214=ADVANCED_FACE('',(#213),#188,.F.);
#215=CARTESIAN_POINT('',(5.0,7.0,9.0));
#216=DIRECTION('',(-1.0,0.0,0.0));
#217=DIRECTION('',(0.0,0.0,1.0));
#218=AXIS2_PLACEMENT_3D('',#215,#216,#217);
#219=PLANE('',#218);
#220=CARTESIAN_POINT('',(5.0,7.0,-9.0));
#221=VERTEX_POINT('',#220);
#222=CARTESIAN_POINT('',(5.0,-4.0,-9.0));
#223=VERTEX_POINT('',#222);
#224=CARTESIAN_POINT('',(5.0,7.0,-9.0));
#225=DIRECTION('',(0.0,-1.0,0.0));
#226=VECTOR('',#225,11.0);
#227=LINE('',#224,#226);
#228=EDGE_CURVE('',#221,#223,#227,.T.);
#229=ORIENTED_EDGE('',*,*,#228,.F.);
#230=CARTESIAN_POINT('',(5.0,7.0,9.0));
#231=VERTEX_POINT('',#230);
#232=CARTESIAN_POINT('',(5.0,7.0,9.0));
#233=DIRECTION('',(0.0,0.0,-1.0));
#234=VECTOR('',#233,18.0);
#235=LINE('',#232,#234);
#236=EDGE_CURVE('',#231,#221,#235,.T.);
#237=ORIENTED_EDGE('',*,*,#236,.F.);
#238=CARTESIAN_POINT('',(5.0,-4.0,9.0));
#239=VERTEX_POINT('',#238);
#240=CARTESIAN_POINT('',(5.0,-4.0,9.0));
#241=DIRECTION('',(0.0,1.0,0.0));
#242=VECTOR('',#241,11.0);
#243=LINE('',#240,#242);
#244=EDGE_CURVE('',#239,#231,#243,.T.);
#245=ORIENTED_EDGE('',*,*,#244,.F.);
#246=CARTESIAN_POINT('',(5.0,-4.0,9.0));
#247=DIRECTION('',(0.0,0.0,-1.0));
#248=VECTOR('',#247,18.0);
#249=LINE('',#246,#248);
#250=EDGE_CURVE('',#239,#223,#249,.T.);
#251=ORIENTED_EDGE('',*,*,#250,.T.);
#252=EDGE_LOOP('',(#229,#237,#245,#251));
#253=FACE_OUTER_BOUND('',#252,.T.);
#254=ADVANCED_FACE('',(#253),#219,.F.);
#255=CARTESIAN_POINT('',(5.0,-4.0,9.0));
#256=DIRECTION('',(0.0,-1.0,0.0));
#257=DIRECTION('',(0.0,0.0,-1.0));
#258=AXIS2_PLACEMENT_3D('',#255,#256,#257);
#259=PLANE('',#258);
#260=CARTESIAN_POINT('',(15.000000000000004,-3.999999999999997,-9.0));
#261=VERTEX_POINT('',#260);
#262=CARTESIAN_POINT('',(5.0,-4.0,-9.0));
#263=DIRECTION('',(1.0,0.0,0.0));
#264=VECTOR('',#263,10.000000000000004);
#265=LINE('',#262,#264);
#266=EDGE_CURVE('',#223,#261,#265,.T.);
#267=ORIENTED_EDGE('',*,*,#266,.F.);
#268=ORIENTED_EDGE('',*,*,#250,.F.);
#269=CARTESIAN_POINT('',(15.000000000000004,-3.999999999999997,9.0));
#270=VERTEX_POINT('',#269);
#271=CARTESIAN_POINT('',(15.000000000000004,-3.999999999999997,9.0));
#272=DIRECTION('',(-1.0,0.0,0.0));
#273=VECTOR('',#272,10.000000000000004);
#274=LINE('',#271,#273);
#275=EDGE_CURVE('',#270,#239,#274,.T.);
#276=ORIENTED_EDGE('',*,*,#275,.F.);
#277=CARTESIAN_POINT('',(15.000000000000004,-3.999999999999997,-9.0));
#278=DIRECTION('',(0.0,0.0,1.0));
#279=VECTOR('',#278,18.0);
#280=LINE('',#277,#279);
#281=EDGE_CURVE('',#261,#270,#280,.T.);
#282=ORIENTED_EDGE('',*,*,#281,.F.);
#283=EDGE_LOOP('',(#267,#268,#276,#282));
#284=FACE_OUTER_BOUND('',#283,.T.);
#285=ADVANCED_FACE('',(#284),#259,.F.);
#286=CARTESIAN_POINT('',(-15.0,-7.000000000000001,0.0));
#287=DIRECTION('',(-1.0,0.0,0.0));
#288=DIRECTION('',(0.0,0.0,1.0));
#289=AXIS2_PLACEMENT_3D('',#286,#287,#288);
#290=PLANE('',#289);
#291=ORIENTED_EDGE('',*,*,#165,.T.);
#292=CARTESIAN_POINT('',(-15.0,-7.000000000000001,-9.0));
#293=VERTEX_POINT('',#292);
#294=CARTESIAN_POINT('',(-14.999999999999998,-4.000000000000002,-9.0));
#295=DIRECTION('',(0.0,-1.0,0.0));
#296=VECTOR('',#295,2.999999999999999);
#297=LINE('',#294,#296);
#298=EDGE_CURVE('',#150,#293,#297,.T.);
#299=ORIENTED_EDGE('',*,*,#298,.T.);
#300=CARTESIAN_POINT('',(-15.0,-7.000000000000001,9.0));
#301=VERTEX_POINT('',#300);
#302=CARTESIAN_POINT('',(-15.0,-7.000000000000001,9.0));
#303=DIRECTION('',(0.0,0.0,-1.0));
#304=VECTOR('',#303,18.0);
#305=LINE('',#302,#304);
#306=EDGE_CURVE('',#301,#293,#305,.T.);
#307=ORIENTED_EDGE('',*,*,#306,.F.);
#308=CARTESIAN_POINT('',(-15.0,-7.000000000000001,9.0));
#309=DIRECTION('',(0.0,1.0,0.0));
#310=VECTOR('',#309,2.999999999999999);
#311=LINE('',#308,#310);
#312=EDGE_CURVE('',#301,#160,#311,.T.);
#313=ORIENTED_EDGE('',*,*,#312,.T.);
#314=EDGE_LOOP('',(#291,#299,#307,#313));
#315=FACE_OUTER_BOUND('',#314,.T.);
#316=ADVANCED_FACE('',(#315),#290,.T.);
#317=CARTESIAN_POINT('',(0.0,0.0,9.0));
#318=DIRECTION('',(0.0,0.0,1.0));
#319=DIRECTION('',(1.0,0.0,0.0));
#320=AXIS2_PLACEMENT_3D('',#317,#318,#319);
#321=PLANE('',#320);
#322=ORIENTED_EDGE('',*,*,#204,.T.);
#323=ORIENTED_EDGE('',*,*,#173,.T.);
#324=ORIENTED_EDGE('',*,*,#312,.F.);
#325=CARTESIAN_POINT('',(15.0,-7.000000000000001,9.0));
#326=VERTEX_POINT('',#325);
#327=CARTESIAN_POINT('',(15.0,-7.000000000000001,9.0));
#328=DIRECTION('',(-1.0,0.0,0.0));
#329=VECTOR('',#328,30.0);
#330=LINE('',#327,#329);
#331=EDGE_CURVE('',#326,#301,#330,.T.);
#332=ORIENTED_EDGE('',*,*,#331,.F.);
#333=CARTESIAN_POINT('',(15.000000000000004,-3.999999999999997,9.0));
#334=DIRECTION('',(0.0,-1.0,0.0));
#335=VECTOR('',#334,3.000000000000004);
#336=LINE('',#333,#335);
#337=EDGE_CURVE('',#270,#326,#336,.T.);
#338=ORIENTED_EDGE('',*,*,#337,.F.);
#339=ORIENTED_EDGE('',*,*,#275,.T.);
#340=ORIENTED_EDGE('',*,*,#244,.T.);
#341=CARTESIAN_POINT('',(-5.0,7.000000000000001,9.0));
#342=DIRECTION('',(1.0,0.0,0.0));
#343=VECTOR('',#342,10.0);
#344=LINE('',#341,#343);
#345=EDGE_CURVE('',#199,#231,#344,.T.);
#346=ORIENTED_EDGE('',*,*,#345,.F.);
#347=EDGE_LOOP('',(#322,#323,#324,#332,#338,#339,#340,#346));
#348=FACE_OUTER_BOUND('',#347,.T.);
#349=CARTESIAN_POINT('',(0.0,-1.999999999999998,9.0));
#350=VERTEX_POINT('',#349);
#351=CARTESIAN_POINT('',(0.0,2.000000000000001,9.0));
#352=DIRECTION('',(0.0,0.0,-1.0));
#353=DIRECTION('',(0.0,-1.0,0.0));
#354=AXIS2_PLACEMENT_3D('',#351,#352,#353);
#355=CIRCLE('',#354,3.999999999999999);
#356=EDGE_CURVE('',#350,#350,#355,.T.);
#357=ORIENTED_EDGE('',*,*,#356,.T.);
#358=EDGE_LOOP('',(#357));
#359=FACE_BOUND('',#358,.T.);
#360=ADVANCED_FACE('',(#348,#359),#321,.T.);
#361=CARTESIAN_POINT('',(0.0,-7.000000000000001,0.0));
#362=DIRECTION('',(0.0,-1.0,0.0));
#363=DIRECTION('',(-1.0,0.0,0.0));
#364=AXIS2_PLACEMENT_3D('',#361,#362,#363);
#365=CYLINDRICAL_SURFACE('',#364,2.0);
#366=CARTESIAN_POINT('',(2.0,-15.0,2.449294E-016));
#367=VERTEX_POINT('',#366);
#368=CARTESIAN_POINT('',(0.0,-15.0,0.0));
#369=DIRECTION('',(0.0,1.0,0.0));
#370=DIRECTION('',(-1.0,0.0,0.0));
#371=AXIS2_PLACEMENT_3D('',#368,#369,#370);
#372=CIRCLE('',#371,2.0);
#373=EDGE_CURVE('',#367,#367,#372,.T.);
#374=ORIENTED_EDGE('',*,*,#373,.T.);
#375=EDGE_LOOP('',(#374));
#376=FACE_OUTER_BOUND('',#375,.T.);
#377=CARTESIAN_POINT('',(2.0,-7.000000000000001,2.449294E-016));
#378=VERTEX_POINT('',#377);
#379=CARTESIAN_POINT('',(0.0,-7.000000000000001,0.0));
#380=DIRECTION('',(0.0,1.0,0.0));
#381=DIRECTION('',(-1.0,0.0,0.0));
#382=AXIS2_PLACEMENT_3D('',#379,#380,#381);
#383=CIRCLE('',#382,2.0);
#384=EDGE_CURVE('',#378,#378,#383,.T.);
#385=ORIENTED_EDGE('',*,*,#384,.F.);
#386=EDGE_LOOP('',(#385));
#387=FACE_BOUND('',#386,.T.);
#388=ADVANCED_FACE('',(#376,#387),#365,.T.);
#389=CARTESIAN_POINT('',(0.0,-15.0,0.0));
#390=DIRECTION('',(0.0,1.0,0.0));
#391=DIRECTION('',(0.0,0.0,1.0));
#392=AXIS2_PLACEMENT_3D('',#389,#390,#391);
#393=PLANE('',#392);
#394=ORIENTED_EDGE('',*,*,#373,.F.);
#395=EDGE_LOOP('',(#394));
#396=FACE_OUTER_BOUND('',#395,.T.);
#397=ADVANCED_FACE('',(#396),#393,.F.);
#398=CARTESIAN_POINT('',(-4.898425E-016,6.0,-9.0));
#399=CARTESIAN_POINT('',(-4.898425E-016,6.0,-9.999999999999998));
#400=CARTESIAN_POINT('',(-3.999999999999999,5.999999999999998,-9.0));
#401=CARTESIAN_POINT('',(-3.999999999999999,5.999999999999998,-9.999999999999998));
#402=CARTESIAN_POINT('',(-3.999999999999999,2.000000000000000,-9.0));
#403=CARTESIAN_POINT('',(-3.999999999999999,2.000000000000000,-9.999999999999998));
#404=CARTESIAN_POINT('',(-3.999999999999997,-1.999999999999998,-9.0));
#405=CARTESIAN_POINT('',(-3.999999999999997,-1.999999999999998,-9.999999999999998));
#406=CARTESIAN_POINT('',(4.898425E-016,-1.999999999999998,-9.0));
#407=CARTESIAN_POINT('',(4.898425E-016,-1.999999999999998,-9.999999999999998));
#408=CARTESIAN_POINT('',(3.999999999999999,-1.999999999999997,-9.0));
#409=CARTESIAN_POINT('',(3.999999999999999,-1.999999999999997,-9.999999999999998));
#410=CARTESIAN_POINT('',(3.999999999999999,2.000000000000001,-9.0));
#411=CARTESIAN_POINT('',(3.999999999999999,2.000000000000001,-9.999999999999998));
#412=CARTESIAN_POINT('',(3.999999999999997,6.0,-9.0));
#413=CARTESIAN_POINT('',(3.999999999999997,6.0,-9.999999999999998));
#414=CARTESIAN_POINT('',(-4.898425E-016,6.0,-9.0));
#415=CARTESIAN_POINT('',(-4.898425E-016,6.0,-9.999999999999998));
#423=(BOUNDED_SURFACE()B_SPLINE_SURFACE(1,2,((#398,#400,#402,#404,#406,#408,#410,#412,#414),(#399,#401,#403,#405,#407,#409,#411,#413,#415)),.UNSPECIFIED.,.F.,.T.,.U.)B_SPLINE_SURFACE_WITH_KNOTS((2,2),(3,2,2,2,3),(-0.125000000000000,0.125000000000000),(0.0,6.283185307179585,12.566370614359169,18.849555921538755,25.132741228718338),.UNSPECIFIED.)GEOMETRIC_REPRESENTATION_ITEM()RATIONAL_B_SPLINE_SURFACE(((1.0,0.707106781186548,1.0,0.707106781186548,1.0,0.707106781186548,1.0,0.707106781186548,1.0),(1.0,0.707106781186548,1.0,0.707106781186548,1.0,0.707106781186548,1.0,0.707106781186548,1.0)))REPRESENTATION_ITEM('')SURFACE());
#424=CARTESIAN_POINT('',(0.0,-1.999999999999999,-9.999999999999998));
#425=VERTEX_POINT('',#424);
#426=CARTESIAN_POINT('',(0.0,2.000000000000001,-9.999999999999998));
#427=DIRECTION('',(0.0,0.0,1.0));
#428=DIRECTION('',(0.0,-1.0,0.0));
#429=AXIS2_PLACEMENT_3D('',#426,#427,#428);
#430=CIRCLE('',#429,4.000000000000000);
#431=EDGE_CURVE('',#425,#425,#430,.T.);
#432=ORIENTED_EDGE('',*,*,#431,.T.);
#433=EDGE_LOOP('',(#432));
#434=FACE_OUTER_BOUND('',#433,.T.);
#435=CARTESIAN_POINT('',(0.0,-1.999999999999998,-9.0));
#436=VERTEX_POINT('',#435);
#437=CARTESIAN_POINT('',(0.0,2.000000000000001,-9.0));
#438=DIRECTION('',(0.0,0.0,1.0));
#439=DIRECTION('',(0.0,-1.0,0.0));
#440=AXIS2_PLACEMENT_3D('',#437,#438,#439);
#441=CIRCLE('',#440,3.999999999999999);
#442=EDGE_CURVE('',#436,#436,#441,.T.);
#443=ORIENTED_EDGE('',*,*,#442,.F.);
#444=EDGE_LOOP('',(#443));
#445=FACE_BOUND('',#444,.T.);
#446=ADVANCED_FACE('',(#434,#445),#423,.T.);
#447=CARTESIAN_POINT('',(-4.000000000000000,5.999999999999999,-10.0));
#448=CARTESIAN_POINT('',(4.000000000000000,5.999999999999999,-10.0));
#449=CARTESIAN_POINT('',(-4.000000000000000,-1.999999999999999,-9.999999999999998));
#450=CARTESIAN_POINT('',(4.000000000000000,-1.999999999999999,-10.0));
#451=B_SPLINE_SURFACE_WITH_KNOTS('',1,1,((#447,#449),(#448,#450)),.UNSPECIFIED.,.F.,.F.,.U.,(2,2),(2,2),(0.0,7.999999999999999),(0.0,7.999999999999998),.UNSPECIFIED.);
#452=ORIENTED_EDGE('',*,*,#431,.F.);
#453=EDGE_LOOP('',(#452));
#454=FACE_OUTER_BOUND('',#453,.T.);
#455=CARTESIAN_POINT('',(0.0,-0.999999999999999,-9.999999999999998));
#456=VERTEX_POINT('',#455);
#457=CARTESIAN_POINT('',(0.0,2.000000000000001,-9.999999999999998));
#458=DIRECTION('',(0.0,0.0,1.0));
#459=DIRECTION('',(0.0,-1.0,0.0));
#460=AXIS2_PLACEMENT_3D('',#457,#458,#459);
#461=CIRCLE('',#460,2.999999999999999);
#462=EDGE_CURVE('',#456,#456,#461,.T.);
#463=ORIENTED_EDGE('',*,*,#462,.T.);
#464=EDGE_LOOP('',(#463));
#465=FACE_BOUND('',#464,.T.);
#466=ADVANCED_FACE('',(#454,#465),#451,.T.);
#467=CARTESIAN_POINT('',(-3.673819E-016,5.0,-9.999999999999998));
#468=CARTESIAN_POINT('',(-3.673819E-016,5.0,-15.999999999999998));
#469=CARTESIAN_POINT('',(-3.000000000000000,4.999999999999999,-9.999999999999998));
#470=CARTESIAN_POINT('',(-3.0,4.999999999999998,-15.999999999999998));
#471=CARTESIAN_POINT('',(-3.000000000000000,2.0,-9.999999999999998));
#472=CARTESIAN_POINT('',(-3.000000000000000,1.999999999999999,-15.999999999999998));
#473=CARTESIAN_POINT('',(-2.999999999999999,-0.999999999999999,-9.999999999999998));
#474=CARTESIAN_POINT('',(-2.999999999999999,-1.000000000000000,-15.999999999999998));
#475=CARTESIAN_POINT('',(3.673819E-016,-0.999999999999999,-9.999999999999998));
#476=CARTESIAN_POINT('',(3.673819E-016,-1.000000000000001,-15.999999999999998));
#477=CARTESIAN_POINT('',(3.000000000000000,-0.999999999999998,-9.999999999999998));
#478=CARTESIAN_POINT('',(3.0,-1.000000000000000,-15.999999999999998));
#479=CARTESIAN_POINT('',(3.000000000000000,2.000000000000001,-9.999999999999998));
#480=CARTESIAN_POINT('',(3.000000000000000,2.0,-15.999999999999998));
#481=CARTESIAN_POINT('',(2.999999999999999,5.0,-9.999999999999998));
#482=CARTESIAN_POINT('',(2.999999999999999,5.0,-15.999999999999998));
#483=CARTESIAN_POINT('',(-3.673819E-016,5.0,-9.999999999999998));
#484=CARTESIAN_POINT('',(-3.673819E-016,5.0,-15.999999999999998));
#492=(BOUNDED_SURFACE()B_SPLINE_SURFACE(1,2,((#467,#469,#471,#473,#475,#477,#479,#481,#483),(#468,#470,#472,#474,#476,#478,#480,#482,#484)),.UNSPECIFIED.,.F.,.T.,.U.)B_SPLINE_SURFACE_WITH_KNOTS((2,2),(3,2,2,2,3),(-1.0,1.0),(0.0,4.712388980384690,9.424777960769379,14.137166941154069,18.849555921538759),.UNSPECIFIED.)GEOMETRIC_REPRESENTATION_ITEM()RATIONAL_B_SPLINE_SURFACE(((1.0,0.707106781186548,1.0,0.707106781186548,1.0,0.707106781186548,1.0,0.707106781186548,1.0),(1.0,0.707106781186548,1.0,0.707106781186548,1.0,0.707106781186548,1.0,0.707106781186548,1.0)))REPRESENTATION_ITEM('')SURFACE());
#493=CARTESIAN_POINT('',(0.0,-1.000000000000001,-15.999999999999998));
#494=VERTEX_POINT('',#493);
#495=CARTESIAN_POINT('',(0.0,2.000000000000000,-15.999999999999998));
#496=DIRECTION('',(0.0,0.0,1.0));
#497=DIRECTION('',(0.0,-1.0,0.0));
#498=AXIS2_PLACEMENT_3D('',#495,#496,#497);
#499=CIRCLE('',#498,3.000000000000000);
#500=EDGE_CURVE('',#494,#494,#499,.T.);
#501=ORIENTED_EDGE('',*,*,#500,.T.);
#502=EDGE_LOOP('',(#501));
#503=FACE_OUTER_BOUND('',#502,.T.);
#504=ORIENTED_EDGE('',*,*,#462,.F.);
#505=EDGE_LOOP('',(#504));
#506=FACE_BOUND('',#505,.T.);
#507=ADVANCED_FACE('',(#503,#506),#492,.T.);
#508=CARTESIAN_POINT('',(-3.000000000000000,5.0,-16.0));
#509=CARTESIAN_POINT('',(3.000000000000000,5.0,-16.0));
#510=CARTESIAN_POINT('',(-3.000000000000000,-1.0,-16.0));
#511=CARTESIAN_POINT('',(3.000000000000000,-1.0,-16.0));
#512=B_SPLINE_SURFACE_WITH_KNOTS('',1,1,((#508,#510),(#509,#511)),.UNSPECIFIED.,.F.,.F.,.U.,(2,2),(2,2),(0.0,6.000000000000001),(0.0,6.0),.UNSPECIFIED.);
#513=ORIENTED_EDGE('',*,*,#500,.F.);
#514=EDGE_LOOP('',(#513));
#515=FACE_OUTER_BOUND('',#514,.T.);
#516=ADVANCED_FACE('',(#515),#512,.T.);
#517=CARTESIAN_POINT('',(-12.0,-8.0,3.575590E-015));
#518=CARTESIAN_POINT('',(-12.0,-12.000000000000002,3.575590E-015));
#519=CARTESIAN_POINT('',(-12.0,-8.0,2.000000000000003));
#520=CARTESIAN_POINT('',(-12.0,-12.0,2.000000000000003));
#521=CARTESIAN_POINT('',(-10.0,-8.0,2.000000000000004));
#522=CARTESIAN_POINT('',(-10.0,-12.000000000000002,2.000000000000004));
#523=CARTESIAN_POINT('',(-8.0,-8.0,2.000000000000002));
#524=CARTESIAN_POINT('',(-8.0,-12.0,2.000000000000002));
#525=CARTESIAN_POINT('',(-8.0,-8.0,3.085748E-015));
#526=CARTESIAN_POINT('',(-8.0,-12.000000000000002,3.085748E-015));
#527=CARTESIAN_POINT('',(-8.0,-8.0,-1.999999999999996));
#528=CARTESIAN_POINT('',(-8.0,-12.0,-1.999999999999996));
#529=CARTESIAN_POINT('',(-10.0,-8.0,-1.999999999999997));
#530=CARTESIAN_POINT('',(-10.0,-12.000000000000002,-1.999999999999997));
#531=CARTESIAN_POINT('',(-12.0,-8.0,-1.999999999999996));
#532=CARTESIAN_POINT('',(-12.0,-12.0,-1.999999999999996));
#533=CARTESIAN_POINT('',(-12.0,-8.0,3.575590E-015));
#534=CARTESIAN_POINT('',(-12.0,-12.000000000000002,3.575590E-015));
#542=(BOUNDED_SURFACE()B_SPLINE_SURFACE(1,2,((#517,#519,#521,#523,#525,#527,#529,#531,#533),(#518,#520,#522,#524,#526,#528,#530,#532,#534)),.UNSPECIFIED.,.F.,.T.,.U.)B_SPLINE_SURFACE_WITH_KNOTS((2,2),(3,2,2,2,3),(0.0,2.000000000000001),(0.0,3.141592653589793,6.283185307179586,9.424777960769379,12.566370614359172),.UNSPECIFIED.)GEOMETRIC_REPRESENTATION_ITEM()RATIONAL_B_SPLINE_SURFACE(((1.0,0.707106781186548,1.0,0.707106781186548,1.0,0.707106781186548,1.0,0.707106781186548,1.0),(1.0,0.707106781186548,1.0,0.707106781186548,1.0,0.707106781186548,1.0,0.707106781186548,1.0)))REPRESENTATION_ITEM('')SURFACE());
#543=CARTESIAN_POINT('',(-12.0,-12.000000000000002,3.575598E-015));
#544=VERTEX_POINT('',#543);
#545=CARTESIAN_POINT('',(-10.0,-12.000000000000002,3.330669E-015));
#546=DIRECTION('',(0.0,-1.0,0.0));
#547=DIRECTION('',(1.0,0.0,0.0));
#548=AXIS2_PLACEMENT_3D('',#545,#546,#547);
#549=CIRCLE('',#548,2.0);
#550=EDGE_CURVE('',#544,#544,#549,.T.);
#551=ORIENTED_EDGE('',*,*,#550,.F.);
#552=EDGE_LOOP('',(#551));
#553=FACE_OUTER_BOUND('',#552,.T.);
#554=CARTESIAN_POINT('',(-12.0,-8.0,3.575598E-015));
#555=VERTEX_POINT('',#554);
#556=CARTESIAN_POINT('',(-10.0,-8.0,3.330669E-015));
#557=DIRECTION('',(0.0,-1.0,0.0));
#558=DIRECTION('',(1.0,0.0,0.0));
#559=AXIS2_PLACEMENT_3D('',#556,#557,#558);
#560=CIRCLE('',#559,2.0);
#561=EDGE_CURVE('',#555,#555,#560,.T.);
#562=ORIENTED_EDGE('',*,*,#561,.T.);
#563=EDGE_LOOP('',(#562));
#564=FACE_BOUND('',#563,.T.);
#565=ADVANCED_FACE('',(#553,#564),#542,.T.);
#566=CARTESIAN_POINT('',(-12.0,-12.000000000000002,-1.999999999999997));
#567=CARTESIAN_POINT('',(-12.0,-12.000000000000002,2.000000000000004));
#568=CARTESIAN_POINT('',(-8.0,-12.000000000000002,-1.999999999999997));
#569=CARTESIAN_POINT('',(-8.0,-12.000000000000002,2.000000000000004));
#570=B_SPLINE_SURFACE_WITH_KNOTS('',1,1,((#566,#568),(#567,#569)),.UNSPECIFIED.,.F.,.F.,.U.,(2,2),(2,2),(0.0,4.0),(0.0,4.0),.UNSPECIFIED.);
#571=ORIENTED_EDGE('',*,*,#550,.T.);
#572=EDGE_LOOP('',(#571));
#573=FACE_OUTER_BOUND('',#572,.T.);
#574=ADVANCED_FACE('',(#573),#570,.F.);
#575=CARTESIAN_POINT('',(-13.0,-7.000000000000001,3.698051E-015));
#576=CARTESIAN_POINT('',(-13.0,-8.0,3.698051E-015));
#577=CARTESIAN_POINT('',(-13.000000000000002,-7.000000000000001,3.000000000000003));
#578=CARTESIAN_POINT('',(-13.000000000000002,-8.0,3.000000000000003));
#579=CARTESIAN_POINT('',(-10.0,-7.000000000000001,3.000000000000004));
#580=CARTESIAN_POINT('',(-10.0,-8.0,3.000000000000004));
#581=CARTESIAN_POINT('',(-7.000000000000001,-7.000000000000001,3.000000000000002));
#582=CARTESIAN_POINT('',(-7.000000000000001,-8.0,3.000000000000002));
#583=CARTESIAN_POINT('',(-7.0,-7.000000000000001,2.963287E-015));
#584=CARTESIAN_POINT('',(-7.0,-8.0,2.963287E-015));
#585=CARTESIAN_POINT('',(-7.000000000000001,-7.000000000000001,-2.999999999999996));
#586=CARTESIAN_POINT('',(-7.000000000000001,-8.0,-2.999999999999996));
#587=CARTESIAN_POINT('',(-10.0,-7.000000000000001,-2.999999999999996));
#588=CARTESIAN_POINT('',(-10.0,-8.0,-2.999999999999996));
#589=CARTESIAN_POINT('',(-13.000000000000002,-7.000000000000001,-2.999999999999995));
#590=CARTESIAN_POINT('',(-13.000000000000002,-8.0,-2.999999999999995));
#591=CARTESIAN_POINT('',(-13.0,-7.000000000000001,3.698051E-015));
#592=CARTESIAN_POINT('',(-13.0,-8.0,3.698051E-015));
#600=(BOUNDED_SURFACE()B_SPLINE_SURFACE(1,2,((#575,#577,#579,#581,#583,#585,#587,#589,#591),(#576,#578,#580,#582,#584,#586,#588,#590,#592)),.UNSPECIFIED.,.F.,.T.,.U.)B_SPLINE_SURFACE_WITH_KNOTS((2,2),(3,2,2,2,3),(0.0,0.333333333333333),(0.0,4.712388980384691,9.424777960769381,14.137166941154071,18.849555921538762),.UNSPECIFIED.)GEOMETRIC_REPRESENTATION_ITEM()RATIONAL_B_SPLINE_SURFACE(((1.0,0.707106781186548,1.0,0.707106781186548,1.0,0.707106781186548,1.0,0.707106781186548,1.0),(1.0,0.707106781186548,1.0,0.707106781186548,1.0,0.707106781186548,1.0,0.707106781186548,1.0)))REPRESENTATION_ITEM('')SURFACE());
#601=CARTESIAN_POINT('',(-13.0,-8.0,3.698063E-015));
#602=VERTEX_POINT('',#601);
#603=CARTESIAN_POINT('',(-10.0,-8.0,3.330669E-015));
#604=DIRECTION('',(0.0,-1.0,0.0));
#605=DIRECTION('',(1.0,0.0,0.0));
#606=AXIS2_PLACEMENT_3D('',#603,#604,#605);
#607=CIRCLE('',#606,3.000000000000000);
#608=EDGE_CURVE('',#602,#602,#607,.T.);
#609=ORIENTED_EDGE('',*,*,#608,.F.);
#610=EDGE_LOOP('',(#609));
#611=FACE_OUTER_BOUND('',#610,.T.);
#612=CARTESIAN_POINT('',(-13.0,-7.000000000000001,3.698063E-015));
#613=VERTEX_POINT('',#612);
#614=CARTESIAN_POINT('',(-10.0,-7.000000000000001,3.330669E-015));
#615=DIRECTION('',(0.0,1.0,0.0));
#616=DIRECTION('',(1.0,0.0,0.0));
#617=AXIS2_PLACEMENT_3D('',#614,#615,#616);
#618=CIRCLE('',#617,3.000000000000000);
#619=EDGE_CURVE('',#613,#613,#618,.T.);
#620=ORIENTED_EDGE('',*,*,#619,.F.);
#621=EDGE_LOOP('',(#620));
#622=FACE_BOUND('',#621,.T.);
#623=ADVANCED_FACE('',(#611,#622),#600,.T.);
#624=CARTESIAN_POINT('',(-13.0,-8.0,-2.999999999999997));
#625=CARTESIAN_POINT('',(-13.0,-8.0,3.000000000000004));
#626=CARTESIAN_POINT('',(-7.0,-8.0,-2.999999999999997));
#627=CARTESIAN_POINT('',(-7.0,-8.0,3.000000000000004));
#628=B_SPLINE_SURFACE_WITH_KNOTS('',1,1,((#624,#626),(#625,#627)),.UNSPECIFIED.,.F.,.F.,.U.,(2,2),(2,2),(0.0,6.000000000000001),(0.0,6.0),.UNSPECIFIED.);
#629=ORIENTED_EDGE('',*,*,#608,.T.);
#630=EDGE_LOOP('',(#629));
#631=FACE_OUTER_BOUND('',#630,.T.);
#632=ORIENTED_EDGE('',*,*,#561,.F.);
#633=EDGE_LOOP('',(#632));
#634=FACE_BOUND('',#633,.T.);
#635=ADVANCED_FACE('',(#631,#634),#628,.F.);
#636=CARTESIAN_POINT('',(10.0,-8.0,3.330669E-015));
#637=DIRECTION('',(0.0,-1.0,0.0));
#638=DIRECTION('',(-1.0,0.0,0.0));
#639=AXIS2_PLACEMENT_3D('',#636,#637,#638);
#640=CYLINDRICAL_SURFACE('',#639,2.0);
#641=CARTESIAN_POINT('',(12.0,-12.000000000000002,3.575598E-015));
#642=VERTEX_POINT('',#641);
#643=CARTESIAN_POINT('',(10.0,-12.000000000000002,3.330669E-015));
#644=DIRECTION('',(0.0,1.0,0.0));
#645=DIRECTION('',(-1.0,0.0,0.0));
#646=AXIS2_PLACEMENT_3D('',#643,#644,#645);
#647=CIRCLE('',#646,2.0);
#648=EDGE_CURVE('',#642,#642,#647,.T.);
#649=ORIENTED_EDGE('',*,*,#648,.T.);
#650=EDGE_LOOP('',(#649));
#651=FACE_OUTER_BOUND('',#650,.T.);
#652=CARTESIAN_POINT('',(12.0,-8.0,3.575598E-015));
#653=VERTEX_POINT('',#652);
#654=CARTESIAN_POINT('',(10.0,-8.0,3.330669E-015));
#655=DIRECTION('',(0.0,1.0,0.0));
#656=DIRECTION('',(-1.0,0.0,0.0));
#657=AXIS2_PLACEMENT_3D('',#654,#655,#656);
#658=CIRCLE('',#657,2.0);
#659=EDGE_CURVE('',#653,#653,#658,.T.);
#660=ORIENTED_EDGE('',*,*,#659,.F.);
#661=EDGE_LOOP('',(#660));
#662=FACE_BOUND('',#661,.T.);
#663=ADVANCED_FACE('',(#651,#662),#640,.T.);
#664=CARTESIAN_POINT('',(10.0,-12.000000000000002,3.330669E-015));
#665=DIRECTION('',(0.0,1.0,0.0));
#666=DIRECTION('',(0.0,0.0,1.0));
#667=AXIS2_PLACEMENT_3D('',#664,#665,#666);
#668=PLANE('',#667);
#669=ORIENTED_EDGE('',*,*,#648,.F.);
#670=EDGE_LOOP('',(#669));
#671=FACE_OUTER_BOUND('',#670,.T.);
#672=ADVANCED_FACE('',(#671),#668,.F.);
#673=CARTESIAN_POINT('',(10.0,-7.000000000000001,3.330669E-015));
#674=DIRECTION('',(0.0,-1.0,0.0));
#675=DIRECTION('',(-1.0,0.0,0.0));
#676=AXIS2_PLACEMENT_3D('',#673,#674,#675);
#677=CYLINDRICAL_SURFACE('',#676,3.000000000000000);
#678=CARTESIAN_POINT('',(13.0,-8.0,3.698063E-015));
#679=VERTEX_POINT('',#678);
#680=CARTESIAN_POINT('',(10.0,-8.0,3.330669E-015));
#681=DIRECTION('',(0.0,1.0,0.0));
#682=DIRECTION('',(-1.0,0.0,0.0));
#683=AXIS2_PLACEMENT_3D('',#680,#681,#682);
#684=CIRCLE('',#683,3.000000000000000);
#685=EDGE_CURVE('',#679,#679,#684,.T.);
#686=ORIENTED_EDGE('',*,*,#685,.T.);
#687=EDGE_LOOP('',(#686));
#688=FACE_OUTER_BOUND('',#687,.T.);
#689=CARTESIAN_POINT('',(13.0,-7.000000000000001,3.698063E-015));
#690=VERTEX_POINT('',#689);
#691=CARTESIAN_POINT('',(10.0,-7.000000000000001,3.330669E-015));
#692=DIRECTION('',(0.0,1.0,0.0));
#693=DIRECTION('',(-1.0,0.0,0.0));
#694=AXIS2_PLACEMENT_3D('',#691,#692,#693);
#695=CIRCLE('',#694,3.000000000000000);
#696=EDGE_CURVE('',#690,#690,#695,.T.);
#697=ORIENTED_EDGE('',*,*,#696,.F.);
#698=EDGE_LOOP('',(#697));
#699=FACE_BOUND('',#698,.T.);
#700=ADVANCED_FACE('',(#688,#699),#677,.T.);
#701=CARTESIAN_POINT('',(10.0,-8.0,3.330669E-015));
#702=DIRECTION('',(0.0,1.0,0.0));
#703=DIRECTION('',(0.0,0.0,1.0));
#704=AXIS2_PLACEMENT_3D('',#701,#702,#703);
#705=PLANE('',#704);
#706=ORIENTED_EDGE('',*,*,#685,.F.);
#707=EDGE_LOOP('',(#706));
#708=FACE_OUTER_BOUND('',#707,.T.);
#709=ORIENTED_EDGE('',*,*,#659,.T.);
#710=EDGE_LOOP('',(#709));
#711=FACE_BOUND('',#710,.T.);
#712=ADVANCED_FACE('',(#708,#711),#705,.F.);
#713=CARTESIAN_POINT('',(0.0,2.000000000000001,9.499999999999998));
#714=DIRECTION('',(0.0,-1.189525E-016,1.0));
#715=DIRECTION('',(0.0,-1.0,0.0));
#716=AXIS2_PLACEMENT_3D('',#713,#714,#715);
#717=CYLINDRICAL_SURFACE('',#716,3.999999999999999);
#718=CARTESIAN_POINT('',(0.0,-1.999999999999999,9.999999999999998));
#719=VERTEX_POINT('',#718);
#720=CARTESIAN_POINT('',(0.0,2.000000000000001,9.999999999999998));
#721=DIRECTION('',(0.0,0.0,1.0));
#722=DIRECTION('',(0.0,-1.0,0.0));
#723=AXIS2_PLACEMENT_3D('',#720,#721,#722);
#724=CIRCLE('',#723,4.000000000000000);
#725=EDGE_CURVE('',#719,#719,#724,.T.);
#726=ORIENTED_EDGE('',*,*,#725,.F.);
#727=EDGE_LOOP('',(#726));
#728=FACE_OUTER_BOUND('',#727,.T.);
#729=ORIENTED_EDGE('',*,*,#356,.F.);
#730=EDGE_LOOP('',(#729));
#731=FACE_BOUND('',#730,.T.);
#732=ADVANCED_FACE('',(#728,#731),#717,.T.);
#733=CARTESIAN_POINT('',(0.0,-1.499999999999999,9.999999999999998));
#734=DIRECTION('',(0.0,0.0,1.0));
#735=DIRECTION('',(1.0,0.0,0.0));
#736=AXIS2_PLACEMENT_3D('',#733,#734,#735);
#737=PLANE('',#736);
#738=ORIENTED_EDGE('',*,*,#725,.T.);
#739=EDGE_LOOP('',(#738));
#740=FACE_OUTER_BOUND('',#739,.T.);
#741=CARTESIAN_POINT('',(0.0,-0.999999999999999,9.999999999999998));
#742=VERTEX_POINT('',#741);
#743=CARTESIAN_POINT('',(0.0,2.000000000000001,9.999999999999998));
#744=DIRECTION('',(0.0,0.0,1.0));
#745=DIRECTION('',(0.0,-1.0,0.0));
#746=AXIS2_PLACEMENT_3D('',#743,#744,#745);
#747=CIRCLE('',#746,2.999999999999999);
#748=EDGE_CURVE('',#742,#742,#747,.T.);
#749=ORIENTED_EDGE('',*,*,#748,.F.);
#750=EDGE_LOOP('',(#749));
#751=FACE_BOUND('',#750,.T.);
#752=ADVANCED_FACE('',(#740,#751),#737,.T.);
#753=CARTESIAN_POINT('',(0.0,2.0,12.999999999999998));
#754=DIRECTION('',(0.0,-1.189525E-016,1.0));
#755=DIRECTION('',(0.0,-1.0,0.0));
#756=AXIS2_PLACEMENT_3D('',#753,#754,#755);
#757=CYLINDRICAL_SURFACE('',#756,3.0);
#758=CARTESIAN_POINT('',(0.0,-1.000000000000001,15.999999999999998));
#759=VERTEX_POINT('',#758);
#760=CARTESIAN_POINT('',(0.0,2.000000000000000,15.999999999999998));
#761=DIRECTION('',(0.0,0.0,1.0));
#762=DIRECTION('',(0.0,-1.0,0.0));
#763=AXIS2_PLACEMENT_3D('',#760,#761,#762);
#764=CIRCLE('',#763,3.000000000000000);
#765=EDGE_CURVE('',#759,#759,#764,.T.);
#766=ORIENTED_EDGE('',*,*,#765,.F.);
#767=EDGE_LOOP('',(#766));
#768=FACE_OUTER_BOUND('',#767,.T.);
#769=ORIENTED_EDGE('',*,*,#748,.T.);
#770=EDGE_LOOP('',(#769));
#771=FACE_BOUND('',#770,.T.);
#772=ADVANCED_FACE('',(#768,#771),#757,.T.);
#773=CARTESIAN_POINT('',(0.0,0.500000000000000,16.0));
#774=DIRECTION('',(0.0,0.0,1.0));
#775=DIRECTION('',(1.0,0.0,0.0));
#776=AXIS2_PLACEMENT_3D('',#773,#774,#775);
#777=PLANE('',#776);
#778=ORIENTED_EDGE('',*,*,#765,.T.);
#779=EDGE_LOOP('',(#778));
#780=FACE_OUTER_BOUND('',#779,.T.);
#781=ADVANCED_FACE('',(#780),#777,.T.);
#782=CARTESIAN_POINT('',(-2.775558E-016,-1.387779E-016,-9.0));
#783=DIRECTION('',(0.0,0.0,1.0));
#784=DIRECTION('',(1.0,0.0,0.0));
#785=AXIS2_PLACEMENT_3D('',#782,#783,#784);
#786=PLANE('',#785);
#787=ORIENTED_EDGE('',*,*,#195,.T.);
#788=CARTESIAN_POINT('',(5.0,7.0,-9.0));
#789=DIRECTION('',(-1.0,0.0,0.0));
#790=VECTOR('',#789,10.0);
#791=LINE('',#788,#790);
#792=EDGE_CURVE('',#221,#190,#791,.T.);
#793=ORIENTED_EDGE('',*,*,#792,.F.);
#794=ORIENTED_EDGE('',*,*,#228,.T.);
#795=ORIENTED_EDGE('',*,*,#266,.T.);
#796=CARTESIAN_POINT('',(15.0,-7.000000000000001,-9.0));
#797=VERTEX_POINT('',#796);
#798=CARTESIAN_POINT('',(15.0,-7.000000000000001,-9.0));
#799=DIRECTION('',(0.0,1.0,0.0));
#800=VECTOR('',#799,3.000000000000004);
#801=LINE('',#798,#800);
#802=EDGE_CURVE('',#797,#261,#801,.T.);
#803=ORIENTED_EDGE('',*,*,#802,.F.);
#804=CARTESIAN_POINT('',(-15.0,-7.000000000000001,-9.0));
#805=DIRECTION('',(1.0,0.0,0.0));
#806=VECTOR('',#805,30.0);
#807=LINE('',#804,#806);
#808=EDGE_CURVE('',#293,#797,#807,.T.);
#809=ORIENTED_EDGE('',*,*,#808,.F.);
#810=ORIENTED_EDGE('',*,*,#298,.F.);
#811=ORIENTED_EDGE('',*,*,#157,.T.);
#812=EDGE_LOOP('',(#787,#793,#794,#795,#803,#809,#810,#811));
#813=FACE_OUTER_BOUND('',#812,.T.);
#814=ORIENTED_EDGE('',*,*,#442,.T.);
#815=EDGE_LOOP('',(#814));
#816=FACE_BOUND('',#815,.T.);
#817=ADVANCED_FACE('',(#813,#816),#786,.F.);
#818=CARTESIAN_POINT('',(15.0,0.0,0.0));
#819=DIRECTION('',(1.0,0.0,0.0));
#820=DIRECTION('',(0.0,0.0,-1.0));
#821=AXIS2_PLACEMENT_3D('',#818,#819,#820);
#822=PLANE('',#821);
#823=ORIENTED_EDGE('',*,*,#281,.T.);
#824=ORIENTED_EDGE('',*,*,#337,.T.);
#825=CARTESIAN_POINT('',(15.0,-7.000000000000001,9.0));
#826=DIRECTION('',(0.0,0.0,-1.0));
#827=VECTOR('',#826,18.0);
#828=LINE('',#825,#827);
#829=EDGE_CURVE('',#326,#797,#828,.T.);
#830=ORIENTED_EDGE('',*,*,#829,.T.);
#831=ORIENTED_EDGE('',*,*,#802,.T.);
#832=EDGE_LOOP('',(#823,#824,#830,#831));
#833=FACE_OUTER_BOUND('',#832,.T.);
#834=ADVANCED_FACE('',(#833),#822,.T.);
#835=CARTESIAN_POINT('',(15.0,-7.000000000000001,0.0));
#836=DIRECTION('',(0.0,-1.0,0.0));
#837=DIRECTION('',(0.0,0.0,-1.0));
#838=AXIS2_PLACEMENT_3D('',#835,#836,#837);
#839=PLANE('',#838);
#840=ORIENTED_EDGE('',*,*,#331,.T.);
#841=ORIENTED_EDGE('',*,*,#306,.T.);
#842=ORIENTED_EDGE('',*,*,#808,.T.);
#843=ORIENTED_EDGE('',*,*,#829,.F.);
#844=EDGE_LOOP('',(#840,#841,#842,#843));
#845=FACE_OUTER_BOUND('',#844,.T.);
#846=ORIENTED_EDGE('',*,*,#384,.T.);
#847=EDGE_LOOP('',(#846));
#848=FACE_BOUND('',#847,.T.);
#849=ORIENTED_EDGE('',*,*,#619,.T.);
#850=EDGE_LOOP('',(#849));
#851=FACE_BOUND('',#850,.T.);
#852=ORIENTED_EDGE('',*,*,#696,.T.);
#853=EDGE_LOOP('',(#852));
#854=FACE_BOUND('',#853,.T.);
#855=ADVANCED_FACE('',(#845,#848,#851,#854),#839,.T.);
#856=CARTESIAN_POINT('',(0.0,7.000000000000001,0.0));
#857=DIRECTION('',(0.0,1.0,0.0));
#858=DIRECTION('',(0.0,0.0,1.0));
#859=AXIS2_PLACEMENT_3D('',#856,#857,#858);
#860=PLANE('',#859);
#861=ORIENTED_EDGE('',*,*,#210,.T.);
#862=ORIENTED_EDGE('',*,*,#345,.T.);
#863=ORIENTED_EDGE('',*,*,#236,.T.);
#864=ORIENTED_EDGE('',*,*,#792,.T.);
#865=EDGE_LOOP('',(#861,#862,#863,#864));
#866=FACE_OUTER_BOUND('',#865,.T.);
#867=ORIENTED_EDGE('',*,*,#130,.T.);
#868=EDGE_LOOP('',(#867));
#869=FACE_BOUND('',#868,.T.);
#870=ADVANCED_FACE('',(#866,#869),#860,.T.);
#871=CLOSED_SHELL('',(#134,#143,#183,#214,#254,#285,#316,#360,#388,#397,#446,#466,#507,#516,#565,#574,#623,#635,#663,#672,#700,#712,#732,#752,#772,#781,#817,#834,#855,#870));
#872=MANIFOLD_SOLID_BREP('',#871);
#873=COLOUR_RGB('Blue Sea',0.007843139581382,0.513725996017456,0.815685987472534);
#874=FILL_AREA_STYLE_COLOUR('Blue Sea',#873);
#875=FILL_AREA_STYLE('Blue Sea',(#874));
#876=SURFACE_STYLE_FILL_AREA(#875);
#877=SURFACE_SIDE_STYLE('Blue Sea',(#876));
#878=SURFACE_STYLE_USAGE(.BOTH.,#877);
#879=PRESENTATION_STYLE_ASSIGNMENT((#878));
#880=STYLED_ITEM('',(#879),#872);
#881=MECHANICAL_DESIGN_GEOMETRIC_PRESENTATION_REPRESENTATION('',(#880,#1048,#1267),#36);
#882=ADVANCED_BREP_SHAPE_REPRESENTATION('ABSR',(#872),#75);
#883=SHAPE_REPRESENTATION_RELATIONSHIP('SRR','None',#882,#80);
#884=AXIS2_PLACEMENT_3D('',#885,#886,#887);
#885=CARTESIAN_POINT('',(50.487977868759955,2.920828E-011,11.0));
#886=DIRECTION('',(1.183199E-016,-1.0,-1.261617E-017));
#887=DIRECTION('',(1.0,1.183199E-016,-4.796210E-034));
#888=NEXT_ASSEMBLY_USAGE_OCCURRENCE('RollerBody:1','RollerBody:1','RollerBody:1',#12,#51,'RollerBody:1');
#889=PRODUCT_DEFINITION_SHAPE('RollerBody:1','RollerBody:1',#888);
#890=ITEM_DEFINED_TRANSFORMATION('RollerBody:1','RollerBody:1',#76,#884);
#894=(REPRESENTATION_RELATIONSHIP('RollerBody:1','RollerBody:1',#80,#41)REPRESENTATION_RELATIONSHIP_WITH_TRANSFORMATION(#890)SHAPE_REPRESENTATION_RELATIONSHIP());
#895=CONTEXT_DEPENDENT_SHAPE_REPRESENTATION(#894,#889);
#896=APPLICATION_CONTEXT('automotive design');
#897=APPLICATION_PROTOCOL_DEFINITION('International Standard','automotive_design',2001,#896);
#898=PRODUCT_CONTEXT('',#896,'mechanical');
#899=PRODUCT('RollerV','RollerV',$,(#898));
#900=PRODUCT_RELATED_PRODUCT_CATEGORY('part',$,(#899));
#901=PRODUCT_DEFINITION_FORMATION('',$,#899);
#902=PRODUCT_DEFINITION_CONTEXT('part definition',#896,'design');
#903=PRODUCT_DEFINITION('',$,#901,#902);
#909=(NAMED_UNIT(*)PLANE_ANGLE_UNIT()SI_UNIT($,.RADIAN.));
#910=DIMENSIONAL_EXPONENTS(0.0,0.0,0.0,0.0,0.0,0.0,0.0);
#911=PLANE_ANGLE_MEASURE_WITH_UNIT(PLANE_ANGLE_MEASURE(0.017453292500000),#909);
#915=(CONVERSION_BASED_UNIT('DEGREE',#911)NAMED_UNIT(#910)PLANE_ANGLE_UNIT());
#919=(NAMED_UNIT(*)SI_UNIT($,.STERADIAN.)SOLID_ANGLE_UNIT());
#923=(LENGTH_UNIT()NAMED_UNIT(*)SI_UNIT(.MILLI.,.METRE.));
#925=UNCERTAINTY_MEASURE_WITH_UNIT(LENGTH_MEASURE(0.010000000000000),#923,'DISTANCE_ACCURACY_VALUE','');
#927=(GEOMETRIC_REPRESENTATION_CONTEXT(3)GLOBAL_UNCERTAINTY_ASSIGNED_CONTEXT((#925))GLOBAL_UNIT_ASSIGNED_CONTEXT((#915,#919,#923))REPRESENTATION_CONTEXT('None','None'));
#928=AXIS2_PLACEMENT_3D('',#929,#930,#931);
#929=CARTESIAN_POINT('',(0.0,0.0,0.0));
#930=DIRECTION('',(0.0,0.0,1.0));
#931=DIRECTION('',(1.0,0.0,0.0));
#932=SHAPE_REPRESENTATION('',(#928),#927);
#933=PRODUCT_DEFINITION_SHAPE('','',#903);
#934=SHAPE_DEFINITION_REPRESENTATION(#933,#932);
#940=(NAMED_UNIT(*)PLANE_ANGLE_UNIT()SI_UNIT($,.RADIAN.));
#941=DIMENSIONAL_EXPONENTS(0.0,0.0,0.0,0.0,0.0,0.0,0.0);
#942=PLANE_ANGLE_MEASURE_WITH_UNIT(PLANE_ANGLE_MEASURE(0.017453292500000),#940);
#946=(CONVERSION_BASED_UNIT('DEGREE',#942)NAMED_UNIT(#941)PLANE_ANGLE_UNIT());
#950=(NAMED_UNIT(*)SI_UNIT($,.STERADIAN.)SOLID_ANGLE_UNIT());
#954=(LENGTH_UNIT()NAMED_UNIT(*)SI_UNIT(.MILLI.,.METRE.));
#956=UNCERTAINTY_MEASURE_WITH_UNIT(LENGTH_MEASURE(0.000001000000000),#954,'DISTANCE_ACCURACY_VALUE','');
#958=(GEOMETRIC_REPRESENTATION_CONTEXT(3)GLOBAL_UNCERTAINTY_ASSIGNED_CONTEXT((#956))GLOBAL_UNIT_ASSIGNED_CONTEXT((#946,#950,#954))REPRESENTATION_CONTEXT('','3D'));
#959=CARTESIAN_POINT('',(-1.500000000000000,-2.755455E-016,0.0));
#960=DIRECTION('',(1.0,1.836970E-016,0.0));
#961=DIRECTION('',(0.0,1.0,0.0));
#962=AXIS2_PLACEMENT_3D('',#959,#960,#961);
#963=CYLINDRICAL_SURFACE('',#962,3.000000000000000);
#964=CARTESIAN_POINT('',(-3.000000000000002,3.000000000000000,0.0));
#965=VERTEX_POINT('',#964);
#966=CARTESIAN_POINT('',(-3.000000000000001,-5.510911E-016,0.0));
#967=DIRECTION('',(1.0,0.0,0.0));
#968=DIRECTION('',(0.0,1.0,0.0));
#969=AXIS2_PLACEMENT_3D('',#966,#967,#968);
#970=CIRCLE('',#969,3.000000000000001);
#971=EDGE_CURVE('',#965,#965,#970,.T.);
#972=ORIENTED_EDGE('',*,*,#971,.F.);
#973=EDGE_LOOP('',(#972));
#974=FACE_OUTER_BOUND('',#973,.T.);
#975=CARTESIAN_POINT('',(3.000000000000002,3.000000000000001,0.0));
#976=VERTEX_POINT('',#975);
#977=CARTESIAN_POINT('',(3.000000000000002,5.510911E-016,0.0));
#978=DIRECTION('',(1.0,0.0,0.0));
#979=DIRECTION('',(0.0,1.0,0.0));
#980=AXIS2_PLACEMENT_3D('',#977,#978,#979);
#981=CIRCLE('',#980,3.000000000000000);
#982=EDGE_CURVE('',#976,#976,#981,.T.);
#983=ORIENTED_EDGE('',*,*,#982,.T.);
#984=EDGE_LOOP('',(#983));
#985=FACE_BOUND('',#984,.T.);
#986=ADVANCED_FACE('',(#974,#985),#963,.F.);
#987=CARTESIAN_POINT('',(-3.000000000000002,7.098076211353316,0.0));
#988=DIRECTION('',(-1.0,0.0,0.0));
#989=DIRECTION('',(0.0,0.0,1.0));
#990=AXIS2_PLACEMENT_3D('',#987,#988,#989);
#991=PLANE('',#990);
#992=CARTESIAN_POINT('',(-3.000000000000002,11.196152422706632,0.0));
#993=VERTEX_POINT('',#992);
#994=CARTESIAN_POINT('',(-2.999999999999999,-5.510911E-016,0.0));
#995=DIRECTION('',(1.0,0.0,0.0));
#996=DIRECTION('',(0.0,1.0,0.0));
#997=AXIS2_PLACEMENT_3D('',#994,#995,#996);
#998=CIRCLE('',#997,11.196152422706632);
#999=EDGE_CURVE('',#993,#993,#998,.T.);
#1000=ORIENTED_EDGE('',*,*,#999,.F.);
#1001=EDGE_LOOP('',(#1000));
#1002=FACE_OUTER_BOUND('',#1001,.T.);
#1003=ORIENTED_EDGE('',*,*,#971,.T.);
#1004=EDGE_LOOP('',(#1003));
#1005=FACE_BOUND('',#1004,.T.);
#1006=ADVANCED_FACE('',(#1002,#1005),#991,.T.);
#1007=CARTESIAN_POINT('',(1.102092E-015,0.0,0.0));
#1008=DIRECTION('',(1.0,1.836970E-016,0.0));
#1009=DIRECTION('',(0.0,0.0,-1.0));
#1010=AXIS2_PLACEMENT_3D('',#1007,#1008,#1009);
#1011=TOROIDAL_SURFACE('',#1010,6.000000000000001,6.0);
#1012=CARTESIAN_POINT('',(3.000000000000002,11.196152422706632,0.0));
#1013=VERTEX_POINT('',#1012);
#1014=CARTESIAN_POINT('',(3.000000000000004,5.510911E-016,0.0));
#1015=DIRECTION('',(1.0,0.0,0.0));
#1016=DIRECTION('',(0.0,1.0,0.0));
#1017=AXIS2_PLACEMENT_3D('',#1014,#1015,#1016);
#1018=CIRCLE('',#1017,11.196152422706632);
#1019=EDGE_CURVE('',#1013,#1013,#1018,.T.);
#1020=ORIENTED_EDGE('',*,*,#1019,.F.);
#1021=EDGE_LOOP('',(#1020));
#1022=FACE_OUTER_BOUND('',#1021,.T.);
#1023=ORIENTED_EDGE('',*,*,#999,.T.);
#1024=EDGE_LOOP('',(#1023));
#1025=FACE_BOUND('',#1024,.T.);
#1026=ADVANCED_FACE('',(#1022,#1025),#1011,.T.);
#1027=CARTESIAN_POINT('',(3.000000000000002,7.098076211353316,0.0));
#1028=DIRECTION('',(1.0,0.0,0.0));
#1029=DIRECTION('',(0.0,0.0,-1.0));
#1030=AXIS2_PLACEMENT_3D('',#1027,#1028,#1029);
#1031=PLANE('',#1030);
#1032=ORIENTED_EDGE('',*,*,#1019,.T.);
#1033=EDGE_LOOP('',(#1032));
#1034=FACE_OUTER_BOUND('',#1033,.T.);
#1035=ORIENTED_EDGE('',*,*,#982,.F.);
#1036=EDGE_LOOP('',(#1035));
#1037=FACE_BOUND('',#1036,.T.);
#1038=ADVANCED_FACE('',(#1034,#1037),#1031,.T.);
#1039=CLOSED_SHELL('',(#986,#1006,#1026,#1038));
#1040=MANIFOLD_SOLID_BREP('',#1039);
#1041=COLOUR_RGB('Lavender',0.643136978149414,0.549019992351532,1.0);
#1042=FILL_AREA_STYLE_COLOUR('Lavender',#1041);
#1043=FILL_AREA_STYLE('Lavender',(#1042));
#1044=SURFACE_STYLE_FILL_AREA(#1043);
#1045=SURFACE_SIDE_STYLE('Lavender',(#1044));
#1046=SURFACE_STYLE_USAGE(.BOTH.,#1045);
#1047=PRESENTATION_STYLE_ASSIGNMENT((#1046));
#1048=STYLED_ITEM('',(#1047),#1040);
#1049=ADVANCED_BREP_SHAPE_REPRESENTATION('ABSR',(#1040),#927);
#1050=SHAPE_REPRESENTATION_RELATIONSHIP('SRR','None',#1049,#932);
#1051=AXIS2_PLACEMENT_3D('',#1052,#1053,#1054);
#1052=CARTESIAN_POINT('',(50.487977868759955,-12.999999999970772,13.0));
#1053=DIRECTION('',(-6.711626E-017,-1.261617E-017,1.0));
#1054=DIRECTION('',(1.641809E-016,1.0,1.261617E-017));
#1055=NEXT_ASSEMBLY_USAGE_OCCURRENCE('RollerV:1','RollerV:1','RollerV:1',#12,#903,'RollerV:1');
#1056=PRODUCT_DEFINITION_SHAPE('RollerV:1','RollerV:1',#1055);
#1057=ITEM_DEFINED_TRANSFORMATION('RollerV:1','RollerV:1',#928,#1051);
#1061=(REPRESENTATION_RELATIONSHIP('RollerV:1','RollerV:1',#932,#41)REPRESENTATION_RELATIONSHIP_WITH_TRANSFORMATION(#1057)SHAPE_REPRESENTATION_RELATIONSHIP());
#1062=CONTEXT_DEPENDENT_SHAPE_REPRESENTATION(#1061,#1056);
#1063=AXIS2_PLACEMENT_3D('',#1064,#1065,#1066);
#1064=CARTESIAN_POINT('',(50.487977868759955,13.000000000029228,13.000000000000004));
#1065=DIRECTION('',(-6.711626E-017,-1.261617E-017,1.0));
#1066=DIRECTION('',(-1.546932E-016,-1.0,-1.261617E-017));
#1067=NEXT_ASSEMBLY_USAGE_OCCURRENCE('RollerV:2','RollerV:2','RollerV:2',#12,#903,'RollerV:2');
#1068=PRODUCT_DEFINITION_SHAPE('RollerV:2','RollerV:2',#1067);
#1069=ITEM_DEFINED_TRANSFORMATION('RollerV:2','RollerV:2',#928,#1063);
#1073=(REPRESENTATION_RELATIONSHIP('RollerV:2','RollerV:2',#932,#41)REPRESENTATION_RELATIONSHIP_WITH_TRANSFORMATION(#1069)SHAPE_REPRESENTATION_RELATIONSHIP());
#1074=CONTEXT_DEPENDENT_SHAPE_REPRESENTATION(#1073,#1068);
#1075=APPLICATION_CONTEXT('automotive design');
#1076=APPLICATION_PROTOCOL_DEFINITION('International Standard','automotive_design',2001,#1075);
#1077=PRODUCT_CONTEXT('',#1075,'mechanical');
#1078=PRODUCT('RollerH','RollerH',$,(#1077));
#1079=PRODUCT_RELATED_PRODUCT_CATEGORY('part',$,(#1078));
#1080=PRODUCT_DEFINITION_FORMATION('',$,#1078);
#1081=PRODUCT_DEFINITION_CONTEXT('part definition',#1075,'design');
#1082=PRODUCT_DEFINITION('',$,#1080,#1081);
#1088=(NAMED_UNIT(*)PLANE_ANGLE_UNIT()SI_UNIT($,.RADIAN.));
#1089=DIMENSIONAL_EXPONENTS(0.0,0.0,0.0,0.0,0.0,0.0,0.0);
#1090=PLANE_ANGLE_MEASURE_WITH_UNIT(PLANE_ANGLE_MEASURE(0.017453292500000),#1088);
#1094=(CONVERSION_BASED_UNIT('DEGREE',#1090)NAMED_UNIT(#1089)PLANE_ANGLE_UNIT());
#1098=(NAMED_UNIT(*)SI_UNIT($,.STERADIAN.)SOLID_ANGLE_UNIT());
#1102=(LENGTH_UNIT()NAMED_UNIT(*)SI_UNIT(.MILLI.,.METRE.));
#1104=UNCERTAINTY_MEASURE_WITH_UNIT(LENGTH_MEASURE(0.010000000000000),#1102,'DISTANCE_ACCURACY_VALUE','');
#1106=(GEOMETRIC_REPRESENTATION_CONTEXT(3)GLOBAL_UNCERTAINTY_ASSIGNED_CONTEXT((#1104))GLOBAL_UNIT_ASSIGNED_CONTEXT((#1094,#1098,#1102))REPRESENTATION_CONTEXT('None','None'));
#1107=AXIS2_PLACEMENT_3D('',#1108,#1109,#1110);
#1108=CARTESIAN_POINT('',(0.0,0.0,0.0));
#1109=DIRECTION('',(0.0,0.0,1.0));
#1110=DIRECTION('',(1.0,0.0,0.0));
#1111=SHAPE_REPRESENTATION('',(#1107),#1106);
#1112=PRODUCT_DEFINITION_SHAPE('','',#1082);
#1113=SHAPE_DEFINITION_REPRESENTATION(#1112,#1111);
#1119=(NAMED_UNIT(*)PLANE_ANGLE_UNIT()SI_UNIT($,.RADIAN.));
#1120=DIMENSIONAL_EXPONENTS(0.0,0.0,0.0,0.0,0.0,0.0,0.0);
#1121=PLANE_ANGLE_MEASURE_WITH_UNIT(PLANE_ANGLE_MEASURE(0.017453292500000),#1119);
#1125=(CONVERSION_BASED_UNIT('DEGREE',#1121)NAMED_UNIT(#1120)PLANE_ANGLE_UNIT());
#1129=(NAMED_UNIT(*)SI_UNIT($,.STERADIAN.)SOLID_ANGLE_UNIT());
#1133=(LENGTH_UNIT()NAMED_UNIT(*)SI_UNIT(.MILLI.,.METRE.));
#1135=UNCERTAINTY_MEASURE_WITH_UNIT(LENGTH_MEASURE(0.000001000000000),#1133,'DISTANCE_ACCURACY_VALUE','');
#1137=(GEOMETRIC_REPRESENTATION_CONTEXT(3)GLOBAL_UNCERTAINTY_ASSIGNED_CONTEXT((#1135))GLOBAL_UNIT_ASSIGNED_CONTEXT((#1125,#1129,#1133))REPRESENTATION_CONTEXT('','3D'));
#1138=CARTESIAN_POINT('',(-1.799999999999999,-3.306546E-016,0.0));
#1139=DIRECTION('',(1.0,1.836970E-016,0.0));
#1140=DIRECTION('',(0.0,0.0,-1.0));
#1141=AXIS2_PLACEMENT_3D('',#1138,#1139,#1140);
#1142=TOROIDAL_SURFACE('',#1141,7.800000000000001,0.200000000000000);
#1143=CARTESIAN_POINT('',(-2.000000000000000,7.800000000000001,0.0));
#1144=VERTEX_POINT('',#1143);
#1145=CARTESIAN_POINT('',(-1.999999999999999,-3.673940E-016,0.0));
#1146=DIRECTION('',(1.0,0.0,0.0));
#1147=DIRECTION('',(0.0,-1.0,0.0));
#1148=AXIS2_PLACEMENT_3D('',#1145,#1146,#1147);
#1149=CIRCLE('',#1148,7.800000000000001);
#1150=EDGE_CURVE('',#1144,#1144,#1149,.T.);
#1151=ORIENTED_EDGE('',*,*,#1150,.T.);
#1152=EDGE_LOOP('',(#1151));
#1153=FACE_OUTER_BOUND('',#1152,.T.);
#1154=CARTESIAN_POINT('',(-1.800000000000001,8.0,-1.959370E-015));
#1155=VERTEX_POINT('',#1154);
#1156=CARTESIAN_POINT('',(-1.799999999999999,-3.306546E-016,0.0));
#1157=DIRECTION('',(-1.0,0.0,0.0));
#1158=DIRECTION('',(0.0,-1.0,0.0));
#1159=AXIS2_PLACEMENT_3D('',#1156,#1157,#1158);
#1160=CIRCLE('',#1159,8.0);
#1161=EDGE_CURVE('',#1155,#1155,#1160,.T.);
#1162=ORIENTED_EDGE('',*,*,#1161,.T.);
#1163=EDGE_LOOP('',(#1162));
#1164=FACE_BOUND('',#1163,.T.);
#1165=ADVANCED_FACE('',(#1153,#1164),#1142,.T.);
#1166=CARTESIAN_POINT('',(1.000000000000002,1.836970E-016,0.0));
#1167=DIRECTION('',(1.0,1.836970E-016,0.0));
#1168=DIRECTION('',(0.0,1.0,0.0));
#1169=AXIS2_PLACEMENT_3D('',#1166,#1167,#1168);
#1170=CYLINDRICAL_SURFACE('',#1169,8.0);
#1171=CARTESIAN_POINT('',(1.800000000000000,8.0,0.0));
#1172=VERTEX_POINT('',#1171);
#1173=CARTESIAN_POINT('',(1.800000000000001,3.306546E-016,0.0));
#1174=DIRECTION('',(1.0,0.0,0.0));
#1175=DIRECTION('',(0.0,-1.0,0.0));
#1176=AXIS2_PLACEMENT_3D('',#1173,#1174,#1175);
#1177=CIRCLE('',#1176,8.0);
#1178=EDGE_CURVE('',#1172,#1172,#1177,.T.);
#1179=ORIENTED_EDGE('',*,*,#1178,.F.);
#1180=EDGE_LOOP('',(#1179));
#1181=FACE_OUTER_BOUND('',#1180,.T.);
#1182=ORIENTED_EDGE('',*,*,#1161,.F.);
#1183=EDGE_LOOP('',(#1182));
#1184=FACE_BOUND('',#1183,.T.);
#1185=ADVANCED_FACE('',(#1181,#1184),#1170,.T.);
#1186=CARTESIAN_POINT('',(-2.000000000000000,7.828427124746192,0.0));
#1187=DIRECTION('',(-1.0,0.0,0.0));
#1188=DIRECTION('',(0.0,0.0,1.0));
#1189=AXIS2_PLACEMENT_3D('',#1186,#1187,#1188);
#1190=PLANE('',#1189);
#1191=ORIENTED_EDGE('',*,*,#1150,.F.);
#1192=EDGE_LOOP('',(#1191));
#1193=FACE_OUTER_BOUND('',#1192,.T.);
#1194=CARTESIAN_POINT('',(-2.000000000000001,1.999999999999998,0.0));
#1195=VERTEX_POINT('',#1194);
#1196=CARTESIAN_POINT('',(-2.000000000000001,-3.673940E-016,0.0));
#1197=DIRECTION('',(1.0,0.0,0.0));
#1198=DIRECTION('',(0.0,1.0,0.0));
#1199=AXIS2_PLACEMENT_3D('',#1196,#1197,#1198);
#1200=CIRCLE('',#1199,1.999999999999999);
#1201=EDGE_CURVE('',#1195,#1195,#1200,.T.);
#1202=ORIENTED_EDGE('',*,*,#1201,.T.);
#1203=EDGE_LOOP('',(#1202));
#1204=FACE_BOUND('',#1203,.T.);
#1205=ADVANCED_FACE('',(#1193,#1204),#1190,.T.);
#1206=CARTESIAN_POINT('',(1.800000000000001,3.306546E-016,0.0));
#1207=DIRECTION('',(1.0,1.836970E-016,0.0));
#1208=DIRECTION('',(0.0,0.0,-1.0));
#1209=AXIS2_PLACEMENT_3D('',#1206,#1207,#1208);
#1210=TOROIDAL_SURFACE('',#1209,7.800000000000001,0.200000000000000);
#1211=ORIENTED_EDGE('',*,*,#1178,.T.);
#1212=EDGE_LOOP('',(#1211));
#1213=FACE_OUTER_BOUND('',#1212,.T.);
#1214=CARTESIAN_POINT('',(2.0,7.800000000000001,-1.910386E-015));
#1215=VERTEX_POINT('',#1214);
#1216=CARTESIAN_POINT('',(2.000000000000001,3.673940E-016,0.0));
#1217=DIRECTION('',(-1.0,0.0,0.0));
#1218=DIRECTION('',(0.0,-1.0,0.0));
#1219=AXIS2_PLACEMENT_3D('',#1216,#1217,#1218);
#1220=CIRCLE('',#1219,7.800000000000001);
#1221=EDGE_CURVE('',#1215,#1215,#1220,.T.);
#1222=ORIENTED_EDGE('',*,*,#1221,.T.);
#1223=EDGE_LOOP('',(#1222));
#1224=FACE_BOUND('',#1223,.T.);
#1225=ADVANCED_FACE('',(#1213,#1224),#1210,.T.);
#1226=CARTESIAN_POINT('',(2.000000000000001,4.828427124746190,0.0));
#1227=DIRECTION('',(1.0,0.0,0.0));
#1228=DIRECTION('',(0.0,0.0,-1.0));
#1229=AXIS2_PLACEMENT_3D('',#1226,#1227,#1228);
#1230=PLANE('',#1229);
#1231=ORIENTED_EDGE('',*,*,#1221,.F.);
#1232=EDGE_LOOP('',(#1231));
#1233=FACE_OUTER_BOUND('',#1232,.T.);
#1234=CARTESIAN_POINT('',(2.000000000000001,1.999999999999998,0.0));
#1235=VERTEX_POINT('',#1234);
#1236=CARTESIAN_POINT('',(2.000000000000001,3.673940E-016,0.0));
#1237=DIRECTION('',(1.0,0.0,0.0));
#1238=DIRECTION('',(0.0,1.0,0.0));
#1239=AXIS2_PLACEMENT_3D('',#1236,#1237,#1238);
#1240=CIRCLE('',#1239,1.999999999999998);
#1241=EDGE_CURVE('',#1235,#1235,#1240,.T.);
#1242=ORIENTED_EDGE('',*,*,#1241,.F.);
#1243=EDGE_LOOP('',(#1242));
#1244=FACE_BOUND('',#1243,.T.);
#1245=ADVANCED_FACE('',(#1233,#1244),#1230,.T.);
#1246=CARTESIAN_POINT('',(-1.000000000000000,-1.836970E-016,0.0));
#1247=DIRECTION('',(1.0,1.836970E-016,0.0));
#1248=DIRECTION('',(0.0,1.0,0.0));
#1249=AXIS2_PLACEMENT_3D('',#1246,#1247,#1248);
#1250=CYLINDRICAL_SURFACE('',#1249,1.999999999999999);
#1251=ORIENTED_EDGE('',*,*,#1241,.T.);
#1252=EDGE_LOOP('',(#1251));
#1253=FACE_OUTER_BOUND('',#1252,.T.);
#1254=ORIENTED_EDGE('',*,*,#1201,.F.);
#1255=EDGE_LOOP('',(#1254));
#1256=FACE_BOUND('',#1255,.T.);
#1257=ADVANCED_FACE('',(#1253,#1256),#1250,.F.);
#1258=CLOSED_SHELL('',(#1165,#1185,#1205,#1225,#1245,#1257));
#1259=MANIFOLD_SOLID_BREP('',#1258);
#1260=DRAUGHTING_PRE_DEFINED_COLOUR('green');
#1261=FILL_AREA_STYLE_COLOUR('Green',#1260);
#1262=FILL_AREA_STYLE('Green',(#1261));
#1263=SURFACE_STYLE_FILL_AREA(#1262);
#1264=SURFACE_SIDE_STYLE('Green',(#1263));
#1265=SURFACE_STYLE_USAGE(.BOTH.,#1264);
#1266=PRESENTATION_STYLE_ASSIGNMENT((#1265));
#1267=STYLED_ITEM('',(#1266),#1259);
#1268=ADVANCED_BREP_SHAPE_REPRESENTATION('ABSR',(#1259),#1106);
#1269=SHAPE_REPRESENTATION_RELATIONSHIP('SRR','None',#1268,#1111);
#1270=AXIS2_PLACEMENT_3D('',#1271,#1272,#1273);
#1271=CARTESIAN_POINT('',(60.487977868759906,2.920622E-011,0.999999999999950));
#1272=DIRECTION('',(-1.0,-7.955549E-031,-1.895809E-016));
#1273=DIRECTION('',(-1.895809E-016,-1.813451E-016,1.0));
#1274=NEXT_ASSEMBLY_USAGE_OCCURRENCE('RollerH:1','RollerH:1','RollerH:1',#12,#1082,'RollerH:1');
#1275=PRODUCT_DEFINITION_SHAPE('RollerH:1','RollerH:1',#1274);
#1276=ITEM_DEFINED_TRANSFORMATION('RollerH:1','RollerH:1',#1107,#1270);
#1280=(REPRESENTATION_RELATIONSHIP('RollerH:1','RollerH:1',#1111,#41)REPRESENTATION_RELATIONSHIP_WITH_TRANSFORMATION(#1276)SHAPE_REPRESENTATION_RELATIONSHIP());
#1281=CONTEXT_DEPENDENT_SHAPE_REPRESENTATION(#1280,#1275);
#1282=AXIS2_PLACEMENT_3D('',#1283,#1284,#1285);
#1283=CARTESIAN_POINT('',(40.487977868759955,2.920375E-011,0.999999999999948));
#1284=DIRECTION('',(-0.808814917482098,0.588063286779941,-1.655724E-016));
#1285=DIRECTION('',(-3.131060E-016,-1.490867E-016,1.0));
#1286=NEXT_ASSEMBLY_USAGE_OCCURRENCE('RollerH:2','RollerH:2','RollerH:2',#12,#1082,'RollerH:2');
#1287=PRODUCT_DEFINITION_SHAPE('RollerH:2','RollerH:2',#1286);
#1288=ITEM_DEFINED_TRANSFORMATION('RollerH:2','RollerH:2',#1107,#1282);
#1292=(REPRESENTATION_RELATIONSHIP('RollerH:2','RollerH:2',#1111,#41)REPRESENTATION_RELATIONSHIP_WITH_TRANSFORMATION(#1288)SHAPE_REPRESENTATION_RELATIONSHIP());
#1293=CONTEXT_DEPENDENT_SHAPE_REPRESENTATION(#1292,#1287);
ENDSEC;
END-ISO-10303-21;
