ISO-10303-21;
HEADER;
/****************************************************************
 * Generated by software with PDE/Lib inside                    *
 * PDElib Version v51a, created Thu 12/14/2006                  *
 * International Technegroup Inc. (www.iti-oh.com)              *
 ****************************************************************/
FILE_DESCRIPTION((''),'2;1');
FILE_NAME('D:\\THANG\\2018\\YouTube\\2F\\10FlushSlideDoor\\Bearing1.stp','2018-03-07T21:06:30',('Administrator'),(''),'Autodesk Inventor 2008','Autodesk Inventor 2008','');
FILE_SCHEMA(('AUTOMOTIVE_DESIGN { 1 0 10303 214 1 1 1 1 }'));
ENDSEC;
DATA;
#5=APPLICATION_CONTEXT('automotive design');
#6=APPLICATION_PROTOCOL_DEFINITION('International Standard','automotive_design',2001,#5);
#7=PRODUCT_CONTEXT('',#5,'mechanical');
#8=PRODUCT('Bearing1','Bearing1',$,(#7));
#9=PRODUCT_RELATED_PRODUCT_CATEGORY('part',$,(#8));
#10=PRODUCT_DEFINITION_FORMATION('',$,#8);
#11=PRODUCT_DEFINITION_CONTEXT('part definition',#5,'design');
#12=PRODUCT_DEFINITION('',$,#10,#11);
#18=(NAMED_UNIT(*)PLANE_ANGLE_UNIT()SI_UNIT($,.RADIAN.));
#19=DIMENSIONAL_EXPONENTS(0.0,0.0,0.0,0.0,0.0,0.0,0.0);
#20=PLANE_ANGLE_MEASURE_WITH_UNIT(PLANE_ANGLE_MEASURE(0.017453292500000),#18);
#24=(CONVERSION_BASED_UNIT('DEGREE',#20)NAMED_UNIT(#19)PLANE_ANGLE_UNIT());
#28=(NAMED_UNIT(*)SI_UNIT($,.STERADIAN.)SOLID_ANGLE_UNIT());
#32=(LENGTH_UNIT()NAMED_UNIT(*)SI_UNIT(.MILLI.,.METRE.));
#34=UNCERTAINTY_MEASURE_WITH_UNIT(LENGTH_MEASURE(0.010000000000000),#32,'DISTANCE_ACCURACY_VALUE','');
#36=(GEOMETRIC_REPRESENTATION_CONTEXT(3)GLOBAL_UNCERTAINTY_ASSIGNED_CONTEXT((#34))GLOBAL_UNIT_ASSIGNED_CONTEXT((#24,#28,#32))REPRESENTATION_CONTEXT('None','None'));
#37=AXIS2_PLACEMENT_3D('',#38,#39,#40);
#38=CARTESIAN_POINT('',(0.0,0.0,0.0));
#39=DIRECTION('',(0.0,0.0,1.0));
#40=DIRECTION('',(1.0,0.0,0.0));
#41=SHAPE_REPRESENTATION('',(#37),#36);
#42=PRODUCT_DEFINITION_SHAPE('','',#12);
#43=SHAPE_DEFINITION_REPRESENTATION(#42,#41);
#49=(NAMED_UNIT(*)PLANE_ANGLE_UNIT()SI_UNIT($,.RADIAN.));
#50=DIMENSIONAL_EXPONENTS(0.0,0.0,0.0,0.0,0.0,0.0,0.0);
#51=PLANE_ANGLE_MEASURE_WITH_UNIT(PLANE_ANGLE_MEASURE(0.017453292500000),#49);
#55=(CONVERSION_BASED_UNIT('DEGREE',#51)NAMED_UNIT(#50)PLANE_ANGLE_UNIT());
#59=(NAMED_UNIT(*)SI_UNIT($,.STERADIAN.)SOLID_ANGLE_UNIT());
#63=(LENGTH_UNIT()NAMED_UNIT(*)SI_UNIT(.MILLI.,.METRE.));
#65=UNCERTAINTY_MEASURE_WITH_UNIT(LENGTH_MEASURE(0.000001000000000),#63,'DISTANCE_ACCURACY_VALUE','');
#67=(GEOMETRIC_REPRESENTATION_CONTEXT(3)GLOBAL_UNCERTAINTY_ASSIGNED_CONTEXT((#65))GLOBAL_UNIT_ASSIGNED_CONTEXT((#55,#59,#63))REPRESENTATION_CONTEXT('','3D'));
#68=CARTESIAN_POINT('',(32.999999999999986,-46.649999999999984,-3.330669E-015));
#69=DIRECTION('',(0.0,1.0,0.0));
#70=DIRECTION('',(-1.0,0.0,0.0));
#71=AXIS2_PLACEMENT_3D('',#68,#69,#70);
#72=CONICAL_SURFACE('',#71,2.400000000000000,45.000000000000718);
#73=CARTESIAN_POINT('',(35.299999999999990,-46.749999999999979,-3.612329E-015));
#74=VERTEX_POINT('',#73);
#75=CARTESIAN_POINT('',(32.999999999999986,-46.749999999999979,-3.330669E-015));
#76=DIRECTION('',(0.0,1.0,0.0));
#77=DIRECTION('',(-1.0,0.0,0.0));
#78=AXIS2_PLACEMENT_3D('',#75,#76,#77);
#79=CIRCLE('',#78,2.300000000000000);
#80=EDGE_CURVE('',#74,#74,#79,.T.);
#81=ORIENTED_EDGE('',*,*,#80,.T.);
#82=EDGE_LOOP('',(#81));
#83=FACE_OUTER_BOUND('',#82,.T.);
#84=CARTESIAN_POINT('',(35.499999999999986,-46.549999999999983,-3.024517E-015));
#85=VERTEX_POINT('',#84);
#86=CARTESIAN_POINT('',(32.999999999999986,-46.549999999999983,-3.330669E-015));
#87=DIRECTION('',(0.0,-1.0,0.0));
#88=DIRECTION('',(-1.0,0.0,0.0));
#89=AXIS2_PLACEMENT_3D('',#86,#87,#88);
#90=CIRCLE('',#89,2.500000000000000);
#91=EDGE_CURVE('',#85,#85,#90,.T.);
#92=ORIENTED_EDGE('',*,*,#91,.T.);
#93=EDGE_LOOP('',(#92));
#94=FACE_BOUND('',#93,.T.);
#95=ADVANCED_FACE('',(#83,#94),#72,.T.);
#96=CARTESIAN_POINT('',(32.999999999999986,-41.749999999999979,-3.330669E-015));
#97=DIRECTION('',(0.0,-1.0,0.0));
#98=DIRECTION('',(-1.0,0.0,0.0));
#99=AXIS2_PLACEMENT_3D('',#96,#97,#98);
#100=CYLINDRICAL_SURFACE('',#99,2.500000000000000);
#101=CARTESIAN_POINT('',(35.499999999999986,-41.749999999999979,-3.024507E-015));
#102=VERTEX_POINT('',#101);
#103=CARTESIAN_POINT('',(32.999999999999986,-41.749999999999986,-3.330669E-015));
#104=DIRECTION('',(0.0,1.0,0.0));
#105=DIRECTION('',(-1.0,0.0,0.0));
#106=AXIS2_PLACEMENT_3D('',#103,#104,#105);
#107=CIRCLE('',#106,2.500000000000000);
#108=EDGE_CURVE('',#102,#102,#107,.T.);
#109=ORIENTED_EDGE('',*,*,#108,.F.);
#110=EDGE_LOOP('',(#109));
#111=FACE_OUTER_BOUND('',#110,.T.);
#112=ORIENTED_EDGE('',*,*,#91,.F.);
#113=EDGE_LOOP('',(#112));
#114=FACE_BOUND('',#113,.T.);
#115=ADVANCED_FACE('',(#111,#114),#100,.T.);
#116=CARTESIAN_POINT('',(32.999999999999986,-46.749999999999979,-3.330669E-015));
#117=DIRECTION('',(0.0,1.0,0.0));
#118=DIRECTION('',(0.0,0.0,1.0));
#119=AXIS2_PLACEMENT_3D('',#116,#117,#118);
#120=PLANE('',#119);
#121=ORIENTED_EDGE('',*,*,#80,.F.);
#122=EDGE_LOOP('',(#121));
#123=FACE_OUTER_BOUND('',#122,.T.);
#124=ADVANCED_FACE('',(#123),#120,.F.);
#125=CARTESIAN_POINT('',(-33.000000000000007,-46.649999999999999,-3.330669E-015));
#126=DIRECTION('',(0.0,1.0,0.0));
#127=DIRECTION('',(-1.0,0.0,0.0));
#128=AXIS2_PLACEMENT_3D('',#125,#126,#127);
#129=CONICAL_SURFACE('',#128,2.400000000000000,45.000000000000718);
#130=CARTESIAN_POINT('',(-30.700000000000006,-46.750000000000000,-3.612329E-015));
#131=VERTEX_POINT('',#130);
#132=CARTESIAN_POINT('',(-33.000000000000007,-46.750000000000000,-3.330669E-015));
#133=DIRECTION('',(0.0,1.0,0.0));
#134=DIRECTION('',(-1.0,0.0,0.0));
#135=AXIS2_PLACEMENT_3D('',#132,#133,#134);
#136=CIRCLE('',#135,2.300000000000000);
#137=EDGE_CURVE('',#131,#131,#136,.T.);
#138=ORIENTED_EDGE('',*,*,#137,.T.);
#139=EDGE_LOOP('',(#138));
#140=FACE_OUTER_BOUND('',#139,.T.);
#141=CARTESIAN_POINT('',(-30.500000000000007,-46.550000000000004,-3.024517E-015));
#142=VERTEX_POINT('',#141);
#143=CARTESIAN_POINT('',(-33.000000000000007,-46.550000000000004,-3.330669E-015));
#144=DIRECTION('',(0.0,-1.0,0.0));
#145=DIRECTION('',(-1.0,0.0,0.0));
#146=AXIS2_PLACEMENT_3D('',#143,#144,#145);
#147=CIRCLE('',#146,2.500000000000000);
#148=EDGE_CURVE('',#142,#142,#147,.T.);
#149=ORIENTED_EDGE('',*,*,#148,.T.);
#150=EDGE_LOOP('',(#149));
#151=FACE_BOUND('',#150,.T.);
#152=ADVANCED_FACE('',(#140,#151),#129,.T.);
#153=CARTESIAN_POINT('',(-33.000000000000007,-41.750000000000000,-3.330669E-015));
#154=DIRECTION('',(0.0,-1.0,0.0));
#155=DIRECTION('',(-1.0,0.0,0.0));
#156=AXIS2_PLACEMENT_3D('',#153,#154,#155);
#157=CYLINDRICAL_SURFACE('',#156,2.500000000000000);
#158=CARTESIAN_POINT('',(-30.500000000000007,-41.750000000000000,-3.024507E-015));
#159=VERTEX_POINT('',#158);
#160=CARTESIAN_POINT('',(-33.000000000000007,-41.749999999999986,-3.330669E-015));
#161=DIRECTION('',(0.0,1.0,0.0));
#162=DIRECTION('',(-1.0,0.0,0.0));
#163=AXIS2_PLACEMENT_3D('',#160,#161,#162);
#164=CIRCLE('',#163,2.500000000000000);
#165=EDGE_CURVE('',#159,#159,#164,.T.);
#166=ORIENTED_EDGE('',*,*,#165,.F.);
#167=EDGE_LOOP('',(#166));
#168=FACE_OUTER_BOUND('',#167,.T.);
#169=ORIENTED_EDGE('',*,*,#148,.F.);
#170=EDGE_LOOP('',(#169));
#171=FACE_BOUND('',#170,.T.);
#172=ADVANCED_FACE('',(#168,#171),#157,.T.);
#173=CARTESIAN_POINT('',(-33.000000000000007,-46.750000000000000,-3.330669E-015));
#174=DIRECTION('',(0.0,1.0,0.0));
#175=DIRECTION('',(0.0,0.0,1.0));
#176=AXIS2_PLACEMENT_3D('',#173,#174,#175);
#177=PLANE('',#176);
#178=ORIENTED_EDGE('',*,*,#137,.F.);
#179=EDGE_LOOP('',(#178));
#180=FACE_OUTER_BOUND('',#179,.T.);
#181=ADVANCED_FACE('',(#180),#177,.F.);
#182=CARTESIAN_POINT('',(28.669872981077802,-31.749999999999989,-2.500000000000004));
#183=DIRECTION('',(-0.500000000000001,0.0,-0.866025403784438));
#184=DIRECTION('',(-0.866025403784438,0.0,0.500000000000000));
#185=AXIS2_PLACEMENT_3D('',#182,#183,#184);
#186=PLANE('',#185);
#187=CARTESIAN_POINT('',(28.669872981077802,-27.749999999999989,-2.500000000000004));
#188=VERTEX_POINT('',#187);
#189=CARTESIAN_POINT('',(32.999999999999986,-27.749999999999989,-5.000000000000004));
#190=VERTEX_POINT('',#189);
#191=CARTESIAN_POINT('',(28.669872981077802,-27.749999999999989,-2.500000000000004));
#192=DIRECTION('',(0.866025403784438,0.0,-0.500000000000001));
#193=VECTOR('',#192,4.999999999999992);
#194=LINE('',#191,#193);
#195=EDGE_CURVE('',#188,#190,#194,.T.);
#196=ORIENTED_EDGE('',*,*,#195,.T.);
#197=CARTESIAN_POINT('',(32.999999999999986,-31.749999999999989,-5.000000000000004));
#198=VERTEX_POINT('',#197);
#199=CARTESIAN_POINT('',(32.999999999999986,-31.749999999999989,-5.000000000000004));
#200=DIRECTION('',(0.0,1.0,0.0));
#201=VECTOR('',#200,4.0);
#202=LINE('',#199,#201);
#203=EDGE_CURVE('',#198,#190,#202,.T.);
#204=ORIENTED_EDGE('',*,*,#203,.F.);
#205=CARTESIAN_POINT('',(28.669872981077802,-31.749999999999989,-2.500000000000004));
#206=VERTEX_POINT('',#205);
#207=CARTESIAN_POINT('',(28.669872981077802,-31.749999999999989,-2.500000000000004));
#208=DIRECTION('',(0.866025403784438,0.0,-0.500000000000001));
#209=VECTOR('',#208,4.999999999999992);
#210=LINE('',#207,#209);
#211=EDGE_CURVE('',#206,#198,#210,.T.);
#212=ORIENTED_EDGE('',*,*,#211,.F.);
#213=CARTESIAN_POINT('',(28.669872981077802,-31.749999999999989,-2.500000000000004));
#214=DIRECTION('',(0.0,1.0,0.0));
#215=VECTOR('',#214,4.0);
#216=LINE('',#213,#215);
#217=EDGE_CURVE('',#206,#188,#216,.T.);
#218=ORIENTED_EDGE('',*,*,#217,.T.);
#219=EDGE_LOOP('',(#196,#204,#212,#218));
#220=FACE_OUTER_BOUND('',#219,.T.);
#221=ADVANCED_FACE('',(#220),#186,.T.);
#222=CARTESIAN_POINT('',(32.999999999999986,-31.749999999999989,-5.000000000000004));
#223=DIRECTION('',(0.500000000000000,0.0,-0.866025403784439));
#224=DIRECTION('',(-0.866025403784439,0.0,-0.500000000000000));
#225=AXIS2_PLACEMENT_3D('',#222,#223,#224);
#226=PLANE('',#225);
#227=CARTESIAN_POINT('',(37.330127018922184,-27.749999999999989,-2.500000000000001));
#228=VERTEX_POINT('',#227);
#229=CARTESIAN_POINT('',(32.999999999999986,-27.749999999999989,-5.000000000000004));
#230=DIRECTION('',(0.866025403784439,0.0,0.500000000000000));
#231=VECTOR('',#230,5.000000000000005);
#232=LINE('',#229,#231);
#233=EDGE_CURVE('',#190,#228,#232,.T.);
#234=ORIENTED_EDGE('',*,*,#233,.T.);
#235=CARTESIAN_POINT('',(37.330127018922184,-31.749999999999989,-2.500000000000001));
#236=VERTEX_POINT('',#235);
#237=CARTESIAN_POINT('',(37.330127018922184,-31.749999999999989,-2.500000000000001));
#238=DIRECTION('',(0.0,1.0,0.0));
#239=VECTOR('',#238,4.0);
#240=LINE('',#237,#239);
#241=EDGE_CURVE('',#236,#228,#240,.T.);
#242=ORIENTED_EDGE('',*,*,#241,.F.);
#243=CARTESIAN_POINT('',(32.999999999999986,-31.749999999999989,-5.000000000000004));
#244=DIRECTION('',(0.866025403784439,0.0,0.500000000000000));
#245=VECTOR('',#244,5.000000000000005);
#246=LINE('',#243,#245);
#247=EDGE_CURVE('',#198,#236,#246,.T.);
#248=ORIENTED_EDGE('',*,*,#247,.F.);
#249=ORIENTED_EDGE('',*,*,#203,.T.);
#250=EDGE_LOOP('',(#234,#242,#248,#249));
#251=FACE_OUTER_BOUND('',#250,.T.);
#252=ADVANCED_FACE('',(#251),#226,.T.);
#253=CARTESIAN_POINT('',(37.330127018922184,-31.749999999999989,-2.500000000000001));
#254=DIRECTION('',(1.0,0.0,0.0));
#255=DIRECTION('',(0.0,0.0,-1.0));
#256=AXIS2_PLACEMENT_3D('',#253,#254,#255);
#257=PLANE('',#256);
#258=CARTESIAN_POINT('',(37.330127018922184,-27.749999999999989,2.499999999999998));
#259=VERTEX_POINT('',#258);
#260=CARTESIAN_POINT('',(37.330127018922184,-27.749999999999989,-2.500000000000001));
#261=DIRECTION('',(0.0,0.0,1.0));
#262=VECTOR('',#261,4.999999999999998);
#263=LINE('',#260,#262);
#264=EDGE_CURVE('',#228,#259,#263,.T.);
#265=ORIENTED_EDGE('',*,*,#264,.T.);
#266=CARTESIAN_POINT('',(37.330127018922184,-31.749999999999989,2.499999999999998));
#267=VERTEX_POINT('',#266);
#268=CARTESIAN_POINT('',(37.330127018922184,-31.749999999999989,2.499999999999998));
#269=DIRECTION('',(0.0,1.0,0.0));
#270=VECTOR('',#269,4.0);
#271=LINE('',#268,#270);
#272=EDGE_CURVE('',#267,#259,#271,.T.);
#273=ORIENTED_EDGE('',*,*,#272,.F.);
#274=CARTESIAN_POINT('',(37.330127018922184,-31.749999999999989,-2.500000000000001));
#275=DIRECTION('',(0.0,0.0,1.0));
#276=VECTOR('',#275,4.999999999999998);
#277=LINE('',#274,#276);
#278=EDGE_CURVE('',#236,#267,#277,.T.);
#279=ORIENTED_EDGE('',*,*,#278,.F.);
#280=ORIENTED_EDGE('',*,*,#241,.T.);
#281=EDGE_LOOP('',(#265,#273,#279,#280));
#282=FACE_OUTER_BOUND('',#281,.T.);
#283=ADVANCED_FACE('',(#282),#257,.T.);
#284=CARTESIAN_POINT('',(37.330127018922184,-31.749999999999989,2.499999999999998));
#285=DIRECTION('',(0.499999999999999,0.0,0.866025403784439));
#286=DIRECTION('',(0.866025403784439,0.0,-0.499999999999999));
#287=AXIS2_PLACEMENT_3D('',#284,#285,#286);
#288=PLANE('',#287);
#289=CARTESIAN_POINT('',(32.999999999999986,-27.749999999999989,4.999999999999995));
#290=VERTEX_POINT('',#289);
#291=CARTESIAN_POINT('',(37.330127018922184,-27.749999999999989,2.499999999999998));
#292=DIRECTION('',(-0.866025403784439,0.0,0.499999999999999));
#293=VECTOR('',#292,5.000000000000003);
#294=LINE('',#291,#293);
#295=EDGE_CURVE('',#259,#290,#294,.T.);
#296=ORIENTED_EDGE('',*,*,#295,.T.);
#297=CARTESIAN_POINT('',(32.999999999999986,-31.749999999999989,4.999999999999995));
#298=VERTEX_POINT('',#297);
#299=CARTESIAN_POINT('',(32.999999999999986,-31.749999999999989,4.999999999999995));
#300=DIRECTION('',(0.0,1.0,0.0));
#301=VECTOR('',#300,4.0);
#302=LINE('',#299,#301);
#303=EDGE_CURVE('',#298,#290,#302,.T.);
#304=ORIENTED_EDGE('',*,*,#303,.F.);
#305=CARTESIAN_POINT('',(37.330127018922184,-31.749999999999989,2.499999999999998));
#306=DIRECTION('',(-0.866025403784439,0.0,0.499999999999999));
#307=VECTOR('',#306,5.000000000000003);
#308=LINE('',#305,#307);
#309=EDGE_CURVE('',#267,#298,#308,.T.);
#310=ORIENTED_EDGE('',*,*,#309,.F.);
#311=ORIENTED_EDGE('',*,*,#272,.T.);
#312=EDGE_LOOP('',(#296,#304,#310,#311));
#313=FACE_OUTER_BOUND('',#312,.T.);
#314=ADVANCED_FACE('',(#313),#288,.T.);
#315=CARTESIAN_POINT('',(32.999999999999986,-31.749999999999989,4.999999999999995));
#316=DIRECTION('',(-0.500000000000000,0.0,0.866025403784439));
#317=DIRECTION('',(0.866025403784439,0.0,0.500000000000000));
#318=AXIS2_PLACEMENT_3D('',#315,#316,#317);
#319=PLANE('',#318);
#320=CARTESIAN_POINT('',(28.669872981077795,-27.749999999999989,2.499999999999995));
#321=VERTEX_POINT('',#320);
#322=CARTESIAN_POINT('',(32.999999999999986,-27.749999999999989,4.999999999999995));
#323=DIRECTION('',(-0.866025403784438,0.0,-0.500000000000000));
#324=VECTOR('',#323,4.999999999999998);
#325=LINE('',#322,#324);
#326=EDGE_CURVE('',#290,#321,#325,.T.);
#327=ORIENTED_EDGE('',*,*,#326,.T.);
#328=CARTESIAN_POINT('',(28.669872981077795,-31.749999999999989,2.499999999999995));
#329=VERTEX_POINT('',#328);
#330=CARTESIAN_POINT('',(28.669872981077795,-31.749999999999989,2.499999999999995));
#331=DIRECTION('',(0.0,1.0,0.0));
#332=VECTOR('',#331,4.0);
#333=LINE('',#330,#332);
#334=EDGE_CURVE('',#329,#321,#333,.T.);
#335=ORIENTED_EDGE('',*,*,#334,.F.);
#336=CARTESIAN_POINT('',(32.999999999999986,-31.749999999999989,4.999999999999995));
#337=DIRECTION('',(-0.866025403784438,0.0,-0.500000000000000));
#338=VECTOR('',#337,4.999999999999998);
#339=LINE('',#336,#338);
#340=EDGE_CURVE('',#298,#329,#339,.T.);
#341=ORIENTED_EDGE('',*,*,#340,.F.);
#342=ORIENTED_EDGE('',*,*,#303,.T.);
#343=EDGE_LOOP('',(#327,#335,#341,#342));
#344=FACE_OUTER_BOUND('',#343,.T.);
#345=ADVANCED_FACE('',(#344),#319,.T.);
#346=CARTESIAN_POINT('',(28.669872981077795,-31.749999999999989,2.499999999999995));
#347=DIRECTION('',(-1.0,0.0,0.0));
#348=DIRECTION('',(0.0,0.0,1.0));
#349=AXIS2_PLACEMENT_3D('',#346,#347,#348);
#350=PLANE('',#349);
#351=CARTESIAN_POINT('',(28.669872981077795,-27.749999999999989,2.499999999999995));
#352=DIRECTION('',(0.0,0.0,-1.0));
#353=VECTOR('',#352,4.999999999999998);
#354=LINE('',#351,#353);
#355=EDGE_CURVE('',#321,#188,#354,.T.);
#356=ORIENTED_EDGE('',*,*,#355,.T.);
#357=ORIENTED_EDGE('',*,*,#217,.F.);
#358=CARTESIAN_POINT('',(28.669872981077795,-31.749999999999989,2.499999999999995));
#359=DIRECTION('',(0.0,0.0,-1.0));
#360=VECTOR('',#359,4.999999999999998);
#361=LINE('',#358,#360);
#362=EDGE_CURVE('',#329,#206,#361,.T.);
#363=ORIENTED_EDGE('',*,*,#362,.F.);
#364=ORIENTED_EDGE('',*,*,#334,.T.);
#365=EDGE_LOOP('',(#356,#357,#363,#364));
#366=FACE_OUTER_BOUND('',#365,.T.);
#367=ADVANCED_FACE('',(#366),#350,.T.);
#368=CARTESIAN_POINT('',(33.0,-27.749999999999989,-2.914335E-015));
#369=DIRECTION('',(0.0,1.0,0.0));
#370=DIRECTION('',(0.0,0.0,1.0));
#371=AXIS2_PLACEMENT_3D('',#368,#369,#370);
#372=PLANE('',#371);
#373=ORIENTED_EDGE('',*,*,#195,.F.);
#374=ORIENTED_EDGE('',*,*,#355,.F.);
#375=ORIENTED_EDGE('',*,*,#326,.F.);
#376=ORIENTED_EDGE('',*,*,#295,.F.);
#377=ORIENTED_EDGE('',*,*,#264,.F.);
#378=ORIENTED_EDGE('',*,*,#233,.F.);
#379=EDGE_LOOP('',(#373,#374,#375,#376,#377,#378));
#380=FACE_OUTER_BOUND('',#379,.T.);
#381=ADVANCED_FACE('',(#380),#372,.T.);
#382=CARTESIAN_POINT('',(-33.000000000000014,-31.749999999999989,-5.000000000000004));
#383=DIRECTION('',(0.500000000000000,0.0,-0.866025403784439));
#384=DIRECTION('',(-0.866025403784438,0.0,-0.500000000000000));
#385=AXIS2_PLACEMENT_3D('',#382,#383,#384);
#386=PLANE('',#385);
#387=CARTESIAN_POINT('',(-33.000000000000014,-27.749999999999986,-5.000000000000004));
#388=VERTEX_POINT('',#387);
#389=CARTESIAN_POINT('',(-28.669872981077820,-27.749999999999986,-2.500000000000004));
#390=VERTEX_POINT('',#389);
#391=CARTESIAN_POINT('',(-33.000000000000014,-27.749999999999986,-5.000000000000004));
#392=DIRECTION('',(0.866025403784439,0.0,0.500000000000000));
#393=VECTOR('',#392,5.000000000000001);
#394=LINE('',#391,#393);
#395=EDGE_CURVE('',#388,#390,#394,.T.);
#396=ORIENTED_EDGE('',*,*,#395,.T.);
#397=CARTESIAN_POINT('',(-28.669872981077820,-31.749999999999989,-2.500000000000004));
#398=VERTEX_POINT('',#397);
#399=CARTESIAN_POINT('',(-28.669872981077820,-31.749999999999989,-2.500000000000004));
#400=DIRECTION('',(0.0,1.0,0.0));
#401=VECTOR('',#400,4.000000000000004);
#402=LINE('',#399,#401);
#403=EDGE_CURVE('',#398,#390,#402,.T.);
#404=ORIENTED_EDGE('',*,*,#403,.F.);
#405=CARTESIAN_POINT('',(-33.000000000000014,-31.749999999999989,-5.000000000000004));
#406=VERTEX_POINT('',#405);
#407=CARTESIAN_POINT('',(-33.000000000000014,-31.749999999999989,-5.000000000000004));
#408=DIRECTION('',(0.866025403784439,0.0,0.500000000000000));
#409=VECTOR('',#408,5.000000000000001);
#410=LINE('',#407,#409);
#411=EDGE_CURVE('',#406,#398,#410,.T.);
#412=ORIENTED_EDGE('',*,*,#411,.F.);
#413=CARTESIAN_POINT('',(-33.000000000000014,-31.749999999999989,-5.000000000000004));
#414=DIRECTION('',(0.0,1.0,0.0));
#415=VECTOR('',#414,4.000000000000004);
#416=LINE('',#413,#415);
#417=EDGE_CURVE('',#406,#388,#416,.T.);
#418=ORIENTED_EDGE('',*,*,#417,.T.);
#419=EDGE_LOOP('',(#396,#404,#412,#418));
#420=FACE_OUTER_BOUND('',#419,.T.);
#421=ADVANCED_FACE('',(#420),#386,.T.);
#422=CARTESIAN_POINT('',(-28.669872981077820,-31.749999999999989,-2.500000000000004));
#423=DIRECTION('',(1.0,0.0,0.0));
#424=DIRECTION('',(0.0,0.0,-1.0));
#425=AXIS2_PLACEMENT_3D('',#422,#423,#424);
#426=PLANE('',#425);
#427=CARTESIAN_POINT('',(-28.669872981077816,-27.749999999999986,2.499999999999995));
#428=VERTEX_POINT('',#427);
#429=CARTESIAN_POINT('',(-28.669872981077820,-27.749999999999986,-2.500000000000004));
#430=DIRECTION('',(0.0,0.0,1.0));
#431=VECTOR('',#430,4.999999999999998);
#432=LINE('',#429,#431);
#433=EDGE_CURVE('',#390,#428,#432,.T.);
#434=ORIENTED_EDGE('',*,*,#433,.T.);
#435=CARTESIAN_POINT('',(-28.669872981077816,-31.749999999999989,2.499999999999995));
#436=VERTEX_POINT('',#435);
#437=CARTESIAN_POINT('',(-28.669872981077816,-31.749999999999989,2.499999999999995));
#438=DIRECTION('',(0.0,1.0,0.0));
#439=VECTOR('',#438,4.000000000000004);
#440=LINE('',#437,#439);
#441=EDGE_CURVE('',#436,#428,#440,.T.);
#442=ORIENTED_EDGE('',*,*,#441,.F.);
#443=CARTESIAN_POINT('',(-28.669872981077820,-31.749999999999989,-2.500000000000004));
#444=DIRECTION('',(0.0,0.0,1.0));
#445=VECTOR('',#444,4.999999999999998);
#446=LINE('',#443,#445);
#447=EDGE_CURVE('',#398,#436,#446,.T.);
#448=ORIENTED_EDGE('',*,*,#447,.F.);
#449=ORIENTED_EDGE('',*,*,#403,.T.);
#450=EDGE_LOOP('',(#434,#442,#448,#449));
#451=FACE_OUTER_BOUND('',#450,.T.);
#452=ADVANCED_FACE('',(#451),#426,.T.);
#453=CARTESIAN_POINT('',(-28.669872981077816,-31.749999999999989,2.499999999999995));
#454=DIRECTION('',(0.500000000000000,0.0,0.866025403784438));
#455=DIRECTION('',(0.866025403784438,0.0,-0.500000000000000));
#456=AXIS2_PLACEMENT_3D('',#453,#454,#455);
#457=PLANE('',#456);
#458=CARTESIAN_POINT('',(-33.000000000000007,-27.749999999999986,4.999999999999995));
#459=VERTEX_POINT('',#458);
#460=CARTESIAN_POINT('',(-28.669872981077816,-27.749999999999986,2.499999999999995));
#461=DIRECTION('',(-0.866025403784438,0.0,0.500000000000000));
#462=VECTOR('',#461,4.999999999999998);
#463=LINE('',#460,#462);
#464=EDGE_CURVE('',#428,#459,#463,.T.);
#465=ORIENTED_EDGE('',*,*,#464,.T.);
#466=CARTESIAN_POINT('',(-33.000000000000007,-31.749999999999989,4.999999999999995));
#467=VERTEX_POINT('',#466);
#468=CARTESIAN_POINT('',(-33.000000000000007,-31.749999999999989,4.999999999999995));
#469=DIRECTION('',(0.0,1.0,0.0));
#470=VECTOR('',#469,4.000000000000004);
#471=LINE('',#468,#470);
#472=EDGE_CURVE('',#467,#459,#471,.T.);
#473=ORIENTED_EDGE('',*,*,#472,.F.);
#474=CARTESIAN_POINT('',(-28.669872981077816,-31.749999999999989,2.499999999999995));
#475=DIRECTION('',(-0.866025403784438,0.0,0.500000000000000));
#476=VECTOR('',#475,4.999999999999998);
#477=LINE('',#474,#476);
#478=EDGE_CURVE('',#436,#467,#477,.T.);
#479=ORIENTED_EDGE('',*,*,#478,.F.);
#480=ORIENTED_EDGE('',*,*,#441,.T.);
#481=EDGE_LOOP('',(#465,#473,#479,#480));
#482=FACE_OUTER_BOUND('',#481,.T.);
#483=ADVANCED_FACE('',(#482),#457,.T.);
#484=CARTESIAN_POINT('',(-33.000000000000007,-31.749999999999989,4.999999999999995));
#485=DIRECTION('',(-0.500000000000000,0.0,0.866025403784439));
#486=DIRECTION('',(0.866025403784439,0.0,0.500000000000000));
#487=AXIS2_PLACEMENT_3D('',#484,#485,#486);
#488=PLANE('',#487);
#489=CARTESIAN_POINT('',(-37.330127018922198,-27.749999999999986,2.499999999999998));
#490=VERTEX_POINT('',#489);
#491=CARTESIAN_POINT('',(-33.000000000000007,-27.749999999999986,4.999999999999995));
#492=DIRECTION('',(-0.866025403784439,0.0,-0.500000000000000));
#493=VECTOR('',#492,4.999999999999996);
#494=LINE('',#491,#493);
#495=EDGE_CURVE('',#459,#490,#494,.T.);
#496=ORIENTED_EDGE('',*,*,#495,.T.);
#497=CARTESIAN_POINT('',(-37.330127018922198,-31.749999999999989,2.499999999999998));
#498=VERTEX_POINT('',#497);
#499=CARTESIAN_POINT('',(-37.330127018922198,-31.749999999999989,2.499999999999998));
#500=DIRECTION('',(0.0,1.0,0.0));
#501=VECTOR('',#500,4.000000000000004);
#502=LINE('',#499,#501);
#503=EDGE_CURVE('',#498,#490,#502,.T.);
#504=ORIENTED_EDGE('',*,*,#503,.F.);
#505=CARTESIAN_POINT('',(-33.000000000000007,-31.749999999999989,4.999999999999995));
#506=DIRECTION('',(-0.866025403784439,0.0,-0.500000000000000));
#507=VECTOR('',#506,4.999999999999996);
#508=LINE('',#505,#507);
#509=EDGE_CURVE('',#467,#498,#508,.T.);
#510=ORIENTED_EDGE('',*,*,#509,.F.);
#511=ORIENTED_EDGE('',*,*,#472,.T.);
#512=EDGE_LOOP('',(#496,#504,#510,#511));
#513=FACE_OUTER_BOUND('',#512,.T.);
#514=ADVANCED_FACE('',(#513),#488,.T.);
#515=CARTESIAN_POINT('',(-37.330127018922198,-31.749999999999989,2.499999999999998));
#516=DIRECTION('',(-1.0,0.0,0.0));
#517=DIRECTION('',(0.0,0.0,1.0));
#518=AXIS2_PLACEMENT_3D('',#515,#516,#517);
#519=PLANE('',#518);
#520=CARTESIAN_POINT('',(-37.330127018922205,-27.749999999999986,-2.500000000000001));
#521=VERTEX_POINT('',#520);
#522=CARTESIAN_POINT('',(-37.330127018922198,-27.749999999999986,2.499999999999998));
#523=DIRECTION('',(0.0,0.0,-1.0));
#524=VECTOR('',#523,4.999999999999998);
#525=LINE('',#522,#524);
#526=EDGE_CURVE('',#490,#521,#525,.T.);
#527=ORIENTED_EDGE('',*,*,#526,.T.);
#528=CARTESIAN_POINT('',(-37.330127018922205,-31.749999999999989,-2.500000000000001));
#529=VERTEX_POINT('',#528);
#530=CARTESIAN_POINT('',(-37.330127018922205,-31.749999999999989,-2.500000000000001));
#531=DIRECTION('',(0.0,1.0,0.0));
#532=VECTOR('',#531,4.000000000000004);
#533=LINE('',#530,#532);
#534=EDGE_CURVE('',#529,#521,#533,.T.);
#535=ORIENTED_EDGE('',*,*,#534,.F.);
#536=CARTESIAN_POINT('',(-37.330127018922198,-31.749999999999989,2.499999999999998));
#537=DIRECTION('',(0.0,0.0,-1.0));
#538=VECTOR('',#537,4.999999999999998);
#539=LINE('',#536,#538);
#540=EDGE_CURVE('',#498,#529,#539,.T.);
#541=ORIENTED_EDGE('',*,*,#540,.F.);
#542=ORIENTED_EDGE('',*,*,#503,.T.);
#543=EDGE_LOOP('',(#527,#535,#541,#542));
#544=FACE_OUTER_BOUND('',#543,.T.);
#545=ADVANCED_FACE('',(#544),#519,.T.);
#546=CARTESIAN_POINT('',(-37.330127018922205,-31.749999999999989,-2.500000000000001));
#547=DIRECTION('',(-0.500000000000000,0.0,-0.866025403784438));
#548=DIRECTION('',(-0.866025403784438,0.0,0.500000000000000));
#549=AXIS2_PLACEMENT_3D('',#546,#547,#548);
#550=PLANE('',#549);
#551=CARTESIAN_POINT('',(-37.330127018922205,-27.749999999999986,-2.500000000000001));
#552=DIRECTION('',(0.866025403784438,0.0,-0.500000000000001));
#553=VECTOR('',#552,5.0);
#554=LINE('',#551,#553);
#555=EDGE_CURVE('',#521,#388,#554,.T.);
#556=ORIENTED_EDGE('',*,*,#555,.T.);
#557=ORIENTED_EDGE('',*,*,#417,.F.);
#558=CARTESIAN_POINT('',(-37.330127018922205,-31.749999999999989,-2.500000000000001));
#559=DIRECTION('',(0.866025403784438,0.0,-0.500000000000001));
#560=VECTOR('',#559,5.0);
#561=LINE('',#558,#560);
#562=EDGE_CURVE('',#529,#406,#561,.T.);
#563=ORIENTED_EDGE('',*,*,#562,.F.);
#564=ORIENTED_EDGE('',*,*,#534,.T.);
#565=EDGE_LOOP('',(#556,#557,#563,#564));
#566=FACE_OUTER_BOUND('',#565,.T.);
#567=ADVANCED_FACE('',(#566),#550,.T.);
#568=CARTESIAN_POINT('',(-33.000000000000007,-27.749999999999986,-3.330669E-015));
#569=DIRECTION('',(0.0,1.0,0.0));
#570=DIRECTION('',(0.0,0.0,1.0));
#571=AXIS2_PLACEMENT_3D('',#568,#569,#570);
#572=PLANE('',#571);
#573=ORIENTED_EDGE('',*,*,#395,.F.);
#574=ORIENTED_EDGE('',*,*,#555,.F.);
#575=ORIENTED_EDGE('',*,*,#526,.F.);
#576=ORIENTED_EDGE('',*,*,#495,.F.);
#577=ORIENTED_EDGE('',*,*,#464,.F.);
#578=ORIENTED_EDGE('',*,*,#433,.F.);
#579=EDGE_LOOP('',(#573,#574,#575,#576,#577,#578));
#580=FACE_OUTER_BOUND('',#579,.T.);
#581=ADVANCED_FACE('',(#580),#572,.T.);
#582=CARTESIAN_POINT('',(0.0,0.0,0.0));
#583=DIRECTION('',(0.0,0.0,1.0));
#584=DIRECTION('',(-1.0,0.0,0.0));
#585=AXIS2_PLACEMENT_3D('',#582,#583,#584);
#586=CYLINDRICAL_SURFACE('',#585,7.000000000000001);
#587=CARTESIAN_POINT('',(7.000000000000001,8.572528E-016,-9.0));
#588=VERTEX_POINT('',#587);
#589=CARTESIAN_POINT('',(0.0,0.0,-9.0));
#590=DIRECTION('',(0.0,0.0,1.0));
#591=DIRECTION('',(-1.0,0.0,0.0));
#592=AXIS2_PLACEMENT_3D('',#589,#590,#591);
#593=CIRCLE('',#592,7.000000000000001);
#594=EDGE_CURVE('',#588,#588,#593,.T.);
#595=ORIENTED_EDGE('',*,*,#594,.F.);
#596=EDGE_LOOP('',(#595));
#597=FACE_OUTER_BOUND('',#596,.T.);
#598=CARTESIAN_POINT('',(7.000000000000001,8.572528E-016,9.0));
#599=VERTEX_POINT('',#598);
#600=CARTESIAN_POINT('',(0.0,0.0,9.0));
#601=DIRECTION('',(0.0,0.0,-1.0));
#602=DIRECTION('',(-1.0,0.0,0.0));
#603=AXIS2_PLACEMENT_3D('',#600,#601,#602);
#604=CIRCLE('',#603,7.000000000000001);
#605=EDGE_CURVE('',#599,#599,#604,.T.);
#606=ORIENTED_EDGE('',*,*,#605,.F.);
#607=EDGE_LOOP('',(#606));
#608=FACE_BOUND('',#607,.T.);
#609=ADVANCED_FACE('',(#597,#608),#586,.F.);
#610=CARTESIAN_POINT('',(2.775558E-016,-23.308253952923366,-9.0));
#611=DIRECTION('',(0.0,0.0,1.0));
#612=DIRECTION('',(1.0,0.0,0.0));
#613=AXIS2_PLACEMENT_3D('',#610,#611,#612);
#614=PLANE('',#613);
#615=CARTESIAN_POINT('',(40.000000000000007,-41.749999999999986,-9.0));
#616=VERTEX_POINT('',#615);
#617=CARTESIAN_POINT('',(40.000000000000007,-31.749999999999979,-9.0));
#618=VERTEX_POINT('',#617);
#619=CARTESIAN_POINT('',(40.000000000000007,-41.749999999999986,-9.0));
#620=DIRECTION('',(0.0,1.0,0.0));
#621=VECTOR('',#620,10.000000000000007);
#622=LINE('',#619,#621);
#623=EDGE_CURVE('',#616,#618,#622,.T.);
#624=ORIENTED_EDGE('',*,*,#623,.F.);
#625=CARTESIAN_POINT('',(-40.000000000000007,-41.750000000000000,-9.0));
#626=VERTEX_POINT('',#625);
#627=CARTESIAN_POINT('',(-40.000000000000007,-41.750000000000000,-9.0));
#628=DIRECTION('',(1.0,0.0,0.0));
#629=VECTOR('',#628,80.000000000000014);
#630=LINE('',#627,#629);
#631=EDGE_CURVE('',#626,#616,#630,.T.);
#632=ORIENTED_EDGE('',*,*,#631,.F.);
#633=CARTESIAN_POINT('',(-40.000000000000007,-31.749999999999989,-9.0));
#634=VERTEX_POINT('',#633);
#635=CARTESIAN_POINT('',(-40.000000000000007,-31.749999999999989,-9.0));
#636=DIRECTION('',(0.0,-1.0,0.0));
#637=VECTOR('',#636,10.000000000000011);
#638=LINE('',#635,#637);
#639=EDGE_CURVE('',#634,#626,#638,.T.);
#640=ORIENTED_EDGE('',*,*,#639,.F.);
#641=CARTESIAN_POINT('',(-24.036529565839402,-31.749999999999989,-9.0));
#642=VERTEX_POINT('',#641);
#643=CARTESIAN_POINT('',(-24.036529565839402,-31.749999999999989,-9.0));
#644=DIRECTION('',(-1.0,0.0,0.0));
#645=VECTOR('',#644,15.963470434160605);
#646=LINE('',#643,#645);
#647=EDGE_CURVE('',#642,#634,#646,.T.);
#648=ORIENTED_EDGE('',*,*,#647,.F.);
#649=CARTESIAN_POINT('',(-14.488887394336023,3.882285676537816,-9.0));
#650=VERTEX_POINT('',#649);
#651=CARTESIAN_POINT('',(-14.488887394336023,3.882285676537816,-9.0));
#652=DIRECTION('',(-0.258819045102521,-0.965925826289068,0.0));
#653=VECTOR('',#652,36.889256614486975);
#654=LINE('',#651,#653);
#655=EDGE_CURVE('',#650,#642,#654,.T.);
#656=ORIENTED_EDGE('',*,*,#655,.F.);
#657=CARTESIAN_POINT('',(14.488887394336018,3.882285676537833,-9.0));
#658=VERTEX_POINT('',#657);
#659=CARTESIAN_POINT('',(0.0,0.0,-9.0));
#660=DIRECTION('',(0.0,0.0,1.000000000000000));
#661=DIRECTION('',(0.965925826289068,0.258819045102522,0.0));
#662=AXIS2_PLACEMENT_3D('',#659,#660,#661);
#663=CIRCLE('',#662,14.999999999999998);
#664=EDGE_CURVE('',#658,#650,#663,.T.);
#665=ORIENTED_EDGE('',*,*,#664,.F.);
#666=CARTESIAN_POINT('',(24.036529565839402,-31.749999999999986,-9.0));
#667=VERTEX_POINT('',#666);
#668=CARTESIAN_POINT('',(24.036529565839402,-31.749999999999986,-9.0));
#669=DIRECTION('',(-0.258819045102521,0.965925826289068,0.0));
#670=VECTOR('',#669,36.889256614486989);
#671=LINE('',#668,#670);
#672=EDGE_CURVE('',#667,#658,#671,.T.);
#673=ORIENTED_EDGE('',*,*,#672,.F.);
#674=CARTESIAN_POINT('',(40.000000000000007,-31.749999999999979,-9.0));
#675=DIRECTION('',(-1.0,0.0,0.0));
#676=VECTOR('',#675,15.963470434160605);
#677=LINE('',#674,#676);
#678=EDGE_CURVE('',#618,#667,#677,.T.);
#679=ORIENTED_EDGE('',*,*,#678,.F.);
#680=EDGE_LOOP('',(#624,#632,#640,#648,#656,#665,#673,#679));
#681=FACE_OUTER_BOUND('',#680,.T.);
#682=ORIENTED_EDGE('',*,*,#594,.T.);
#683=EDGE_LOOP('',(#682));
#684=FACE_BOUND('',#683,.T.);
#685=ADVANCED_FACE('',(#681,#684),#614,.F.);
#686=CARTESIAN_POINT('',(6.661338E-015,-41.749999999999986,0.0));
#687=DIRECTION('',(0.0,-1.0,0.0));
#688=DIRECTION('',(0.0,0.0,-1.0));
#689=AXIS2_PLACEMENT_3D('',#686,#687,#688);
#690=PLANE('',#689);
#691=CARTESIAN_POINT('',(40.000000000000007,-41.749999999999986,9.0));
#692=VERTEX_POINT('',#691);
#693=CARTESIAN_POINT('',(-40.000000000000007,-41.750000000000000,9.0));
#694=VERTEX_POINT('',#693);
#695=CARTESIAN_POINT('',(40.000000000000007,-41.749999999999986,9.0));
#696=DIRECTION('',(-1.0,0.0,0.0));
#697=VECTOR('',#696,80.000000000000014);
#698=LINE('',#695,#697);
#699=EDGE_CURVE('',#692,#694,#698,.T.);
#700=ORIENTED_EDGE('',*,*,#699,.T.);
#701=CARTESIAN_POINT('',(-40.000000000000007,-41.750000000000000,-9.0));
#702=DIRECTION('',(0.0,0.0,1.0));
#703=VECTOR('',#702,18.0);
#704=LINE('',#701,#703);
#705=EDGE_CURVE('',#626,#694,#704,.T.);
#706=ORIENTED_EDGE('',*,*,#705,.F.);
#707=ORIENTED_EDGE('',*,*,#631,.T.);
#708=CARTESIAN_POINT('',(40.000000000000007,-41.749999999999986,-9.0));
#709=DIRECTION('',(0.0,0.0,1.0));
#710=VECTOR('',#709,18.0);
#711=LINE('',#708,#710);
#712=EDGE_CURVE('',#616,#692,#711,.T.);
#713=ORIENTED_EDGE('',*,*,#712,.T.);
#714=EDGE_LOOP('',(#700,#706,#707,#713));
#715=FACE_OUTER_BOUND('',#714,.T.);
#716=ORIENTED_EDGE('',*,*,#108,.T.);
#717=EDGE_LOOP('',(#716));
#718=FACE_BOUND('',#717,.T.);
#719=ORIENTED_EDGE('',*,*,#165,.T.);
#720=EDGE_LOOP('',(#719));
#721=FACE_BOUND('',#720,.T.);
#722=ADVANCED_FACE('',(#715,#718,#721),#690,.T.);
#723=CARTESIAN_POINT('',(-40.000000000000007,-41.750000000000000,0.0));
#724=DIRECTION('',(-1.0,0.0,0.0));
#725=DIRECTION('',(0.0,0.0,1.0));
#726=AXIS2_PLACEMENT_3D('',#723,#724,#725);
#727=PLANE('',#726);
#728=CARTESIAN_POINT('',(-40.000000000000007,-31.749999999999989,9.0));
#729=VERTEX_POINT('',#728);
#730=CARTESIAN_POINT('',(-40.000000000000007,-41.750000000000000,9.0));
#731=DIRECTION('',(0.0,1.0,0.0));
#732=VECTOR('',#731,10.000000000000011);
#733=LINE('',#730,#732);
#734=EDGE_CURVE('',#694,#729,#733,.T.);
#735=ORIENTED_EDGE('',*,*,#734,.T.);
#736=CARTESIAN_POINT('',(-40.000000000000007,-31.749999999999989,-9.0));
#737=DIRECTION('',(0.0,0.0,1.0));
#738=VECTOR('',#737,18.0);
#739=LINE('',#736,#738);
#740=EDGE_CURVE('',#634,#729,#739,.T.);
#741=ORIENTED_EDGE('',*,*,#740,.F.);
#742=ORIENTED_EDGE('',*,*,#639,.T.);
#743=ORIENTED_EDGE('',*,*,#705,.T.);
#744=EDGE_LOOP('',(#735,#741,#742,#743));
#745=FACE_OUTER_BOUND('',#744,.T.);
#746=ADVANCED_FACE('',(#745),#727,.T.);
#747=CARTESIAN_POINT('',(-40.000000000000007,-31.749999999999989,0.0));
#748=DIRECTION('',(0.0,1.0,0.0));
#749=DIRECTION('',(0.0,0.0,1.0));
#750=AXIS2_PLACEMENT_3D('',#747,#748,#749);
#751=PLANE('',#750);
#752=CARTESIAN_POINT('',(-24.036529565839402,-31.749999999999989,9.0));
#753=VERTEX_POINT('',#752);
#754=CARTESIAN_POINT('',(-40.000000000000007,-31.749999999999989,9.0));
#755=DIRECTION('',(1.0,0.0,0.0));
#756=VECTOR('',#755,15.963470434160605);
#757=LINE('',#754,#756);
#758=EDGE_CURVE('',#729,#753,#757,.T.);
#759=ORIENTED_EDGE('',*,*,#758,.T.);
#760=CARTESIAN_POINT('',(-24.036529565839402,-31.749999999999989,-9.0));
#761=DIRECTION('',(0.0,0.0,1.0));
#762=VECTOR('',#761,18.0);
#763=LINE('',#760,#762);
#764=EDGE_CURVE('',#642,#753,#763,.T.);
#765=ORIENTED_EDGE('',*,*,#764,.F.);
#766=ORIENTED_EDGE('',*,*,#647,.T.);
#767=ORIENTED_EDGE('',*,*,#740,.T.);
#768=EDGE_LOOP('',(#759,#765,#766,#767));
#769=FACE_OUTER_BOUND('',#768,.T.);
#770=ORIENTED_EDGE('',*,*,#411,.T.);
#771=ORIENTED_EDGE('',*,*,#447,.T.);
#772=ORIENTED_EDGE('',*,*,#478,.T.);
#773=ORIENTED_EDGE('',*,*,#509,.T.);
#774=ORIENTED_EDGE('',*,*,#540,.T.);
#775=ORIENTED_EDGE('',*,*,#562,.T.);
#776=EDGE_LOOP('',(#770,#771,#772,#773,#774,#775));
#777=FACE_BOUND('',#776,.T.);
#778=ADVANCED_FACE('',(#769,#777),#751,.T.);
#779=CARTESIAN_POINT('',(-24.036529565839402,-31.749999999999989,0.0));
#780=DIRECTION('',(-0.965925826289068,0.258819045102521,0.0));
#781=DIRECTION('',(0.0,0.0,1.0));
#782=AXIS2_PLACEMENT_3D('',#779,#780,#781);
#783=PLANE('',#782);
#784=CARTESIAN_POINT('',(-14.488887394336023,3.882285676537816,9.0));
#785=VERTEX_POINT('',#784);
#786=CARTESIAN_POINT('',(-24.036529565839402,-31.749999999999989,9.0));
#787=DIRECTION('',(0.258819045102521,0.965925826289068,0.0));
#788=VECTOR('',#787,36.889256614486975);
#789=LINE('',#786,#788);
#790=EDGE_CURVE('',#753,#785,#789,.T.);
#791=ORIENTED_EDGE('',*,*,#790,.T.);
#792=CARTESIAN_POINT('',(-14.488887394336023,3.882285676537816,-9.0));
#793=DIRECTION('',(0.0,0.0,1.0));
#794=VECTOR('',#793,18.0);
#795=LINE('',#792,#794);
#796=EDGE_CURVE('',#650,#785,#795,.T.);
#797=ORIENTED_EDGE('',*,*,#796,.F.);
#798=ORIENTED_EDGE('',*,*,#655,.T.);
#799=ORIENTED_EDGE('',*,*,#764,.T.);
#800=EDGE_LOOP('',(#791,#797,#798,#799));
#801=FACE_OUTER_BOUND('',#800,.T.);
#802=ADVANCED_FACE('',(#801),#783,.T.);
#803=CARTESIAN_POINT('',(0.0,0.0,0.0));
#804=DIRECTION('',(0.0,0.0,1.0));
#805=DIRECTION('',(0.965925826289068,0.258819045102522,0.0));
#806=AXIS2_PLACEMENT_3D('',#803,#804,#805);
#807=CYLINDRICAL_SURFACE('',#806,15.0);
#808=CARTESIAN_POINT('',(14.488887394336018,3.882285676537833,9.0));
#809=VERTEX_POINT('',#808);
#810=CARTESIAN_POINT('',(0.0,0.0,9.0));
#811=DIRECTION('',(0.0,0.0,-1.000000000000000));
#812=DIRECTION('',(0.965925826289068,0.258819045102522,0.0));
#813=AXIS2_PLACEMENT_3D('',#810,#811,#812);
#814=CIRCLE('',#813,14.999999999999998);
#815=EDGE_CURVE('',#785,#809,#814,.T.);
#816=ORIENTED_EDGE('',*,*,#815,.T.);
#817=CARTESIAN_POINT('',(14.488887394336018,3.882285676537833,-9.0));
#818=DIRECTION('',(0.0,0.0,1.0));
#819=VECTOR('',#818,18.0);
#820=LINE('',#817,#819);
#821=EDGE_CURVE('',#658,#809,#820,.T.);
#822=ORIENTED_EDGE('',*,*,#821,.F.);
#823=ORIENTED_EDGE('',*,*,#664,.T.);
#824=ORIENTED_EDGE('',*,*,#796,.T.);
#825=EDGE_LOOP('',(#816,#822,#823,#824));
#826=FACE_OUTER_BOUND('',#825,.T.);
#827=ADVANCED_FACE('',(#826),#807,.T.);
#828=CARTESIAN_POINT('',(14.488887394336018,3.882285676537833,0.0));
#829=DIRECTION('',(0.965925826289068,0.258819045102521,0.0));
#830=DIRECTION('',(0.0,0.0,-1.0));
#831=AXIS2_PLACEMENT_3D('',#828,#829,#830);
#832=PLANE('',#831);
#833=CARTESIAN_POINT('',(24.036529565839402,-31.749999999999986,9.0));
#834=VERTEX_POINT('',#833);
#835=CARTESIAN_POINT('',(14.488887394336018,3.882285676537833,9.0));
#836=DIRECTION('',(0.258819045102521,-0.965925826289068,0.0));
#837=VECTOR('',#836,36.889256614486989);
#838=LINE('',#835,#837);
#839=EDGE_CURVE('',#809,#834,#838,.T.);
#840=ORIENTED_EDGE('',*,*,#839,.T.);
#841=CARTESIAN_POINT('',(24.036529565839402,-31.749999999999986,-9.0));
#842=DIRECTION('',(0.0,0.0,1.0));
#843=VECTOR('',#842,18.0);
#844=LINE('',#841,#843);
#845=EDGE_CURVE('',#667,#834,#844,.T.);
#846=ORIENTED_EDGE('',*,*,#845,.F.);
#847=ORIENTED_EDGE('',*,*,#672,.T.);
#848=ORIENTED_EDGE('',*,*,#821,.T.);
#849=EDGE_LOOP('',(#840,#846,#847,#848));
#850=FACE_OUTER_BOUND('',#849,.T.);
#851=ADVANCED_FACE('',(#850),#832,.T.);
#852=CARTESIAN_POINT('',(24.036529565839402,-31.749999999999986,0.0));
#853=DIRECTION('',(0.0,1.0,0.0));
#854=DIRECTION('',(0.0,0.0,1.0));
#855=AXIS2_PLACEMENT_3D('',#852,#853,#854);
#856=PLANE('',#855);
#857=CARTESIAN_POINT('',(40.000000000000007,-31.749999999999979,9.0));
#858=VERTEX_POINT('',#857);
#859=CARTESIAN_POINT('',(24.036529565839402,-31.749999999999986,9.0));
#860=DIRECTION('',(1.0,0.0,0.0));
#861=VECTOR('',#860,15.963470434160605);
#862=LINE('',#859,#861);
#863=EDGE_CURVE('',#834,#858,#862,.T.);
#864=ORIENTED_EDGE('',*,*,#863,.T.);
#865=CARTESIAN_POINT('',(40.000000000000007,-31.749999999999979,-9.0));
#866=DIRECTION('',(0.0,0.0,1.0));
#867=VECTOR('',#866,18.0);
#868=LINE('',#865,#867);
#869=EDGE_CURVE('',#618,#858,#868,.T.);
#870=ORIENTED_EDGE('',*,*,#869,.F.);
#871=ORIENTED_EDGE('',*,*,#678,.T.);
#872=ORIENTED_EDGE('',*,*,#845,.T.);
#873=EDGE_LOOP('',(#864,#870,#871,#872));
#874=FACE_OUTER_BOUND('',#873,.T.);
#875=ORIENTED_EDGE('',*,*,#211,.T.);
#876=ORIENTED_EDGE('',*,*,#247,.T.);
#877=ORIENTED_EDGE('',*,*,#278,.T.);
#878=ORIENTED_EDGE('',*,*,#309,.T.);
#879=ORIENTED_EDGE('',*,*,#340,.T.);
#880=ORIENTED_EDGE('',*,*,#362,.T.);
#881=EDGE_LOOP('',(#875,#876,#877,#878,#879,#880));
#882=FACE_BOUND('',#881,.T.);
#883=ADVANCED_FACE('',(#874,#882),#856,.T.);
#884=CARTESIAN_POINT('',(40.000000000000007,-31.749999999999979,0.0));
#885=DIRECTION('',(1.0,0.0,0.0));
#886=DIRECTION('',(0.0,0.0,-1.0));
#887=AXIS2_PLACEMENT_3D('',#884,#885,#886);
#888=PLANE('',#887);
#889=CARTESIAN_POINT('',(40.000000000000007,-31.749999999999979,9.0));
#890=DIRECTION('',(0.0,-1.0,0.0));
#891=VECTOR('',#890,10.000000000000007);
#892=LINE('',#889,#891);
#893=EDGE_CURVE('',#858,#692,#892,.T.);
#894=ORIENTED_EDGE('',*,*,#893,.T.);
#895=ORIENTED_EDGE('',*,*,#712,.F.);
#896=ORIENTED_EDGE('',*,*,#623,.T.);
#897=ORIENTED_EDGE('',*,*,#869,.T.);
#898=EDGE_LOOP('',(#894,#895,#896,#897));
#899=FACE_OUTER_BOUND('',#898,.T.);
#900=ADVANCED_FACE('',(#899),#888,.T.);
#901=CARTESIAN_POINT('',(5.551115E-016,-23.308253952923366,9.0));
#902=DIRECTION('',(0.0,0.0,1.0));
#903=DIRECTION('',(1.0,0.0,0.0));
#904=AXIS2_PLACEMENT_3D('',#901,#902,#903);
#905=PLANE('',#904);
#906=ORIENTED_EDGE('',*,*,#699,.F.);
#907=ORIENTED_EDGE('',*,*,#893,.F.);
#908=ORIENTED_EDGE('',*,*,#863,.F.);
#909=ORIENTED_EDGE('',*,*,#839,.F.);
#910=ORIENTED_EDGE('',*,*,#815,.F.);
#911=ORIENTED_EDGE('',*,*,#790,.F.);
#912=ORIENTED_EDGE('',*,*,#758,.F.);
#913=ORIENTED_EDGE('',*,*,#734,.F.);
#914=EDGE_LOOP('',(#906,#907,#908,#909,#910,#911,#912,#913));
#915=FACE_OUTER_BOUND('',#914,.T.);
#916=ORIENTED_EDGE('',*,*,#605,.T.);
#917=EDGE_LOOP('',(#916));
#918=FACE_BOUND('',#917,.T.);
#919=ADVANCED_FACE('',(#915,#918),#905,.T.);
#920=CLOSED_SHELL('',(#95,#115,#124,#152,#172,#181,#221,#252,#283,#314,#345,#367,#381,#421,#452,#483,#514,#545,#567,#581,#609,#685,#722,#746,#778,#802,#827,#851,#883,#900,#919));
#921=MANIFOLD_SOLID_BREP('',#920);
#922=DRAUGHTING_PRE_DEFINED_COLOUR('white');
#923=FILL_AREA_STYLE_COLOUR('White',#922);
#924=FILL_AREA_STYLE('White',(#923));
#925=SURFACE_STYLE_FILL_AREA(#924);
#926=SURFACE_SIDE_STYLE('White',(#925));
#927=SURFACE_STYLE_USAGE(.BOTH.,#926);
#928=PRESENTATION_STYLE_ASSIGNMENT((#927));
#929=STYLED_ITEM('',(#928),#921);
#930=MECHANICAL_DESIGN_GEOMETRIC_PRESENTATION_REPRESENTATION('',(#929),#36);
#931=ADVANCED_BREP_SHAPE_REPRESENTATION('ABSR',(#921),#36);
#932=SHAPE_REPRESENTATION_RELATIONSHIP('SRR','None',#931,#41);
ENDSEC;
END-ISO-10303-21;
