ISO-10303-21;
HEADER;
/****************************************************************
 * Generated by software with PDE/Lib inside                    *
 * PDElib Version v51a, created Thu 12/14/2006                  *
 * International Technegroup Inc. (www.iti-oh.com)              *
 ****************************************************************/
FILE_DESCRIPTION((''),'2;1');
FILE_NAME('D:\\THANG\\2018\\YouTube\\2F\\10FlushSlideDoor\\FixedPanel.stp','2018-03-07T21:08:13',('Administrator'),(''),'Autodesk Inventor 2008','Autodesk Inventor 2008','');
FILE_SCHEMA(('AUTOMOTIVE_DESIGN { 1 0 10303 214 1 1 1 1 }'));
ENDSEC;
DATA;
#5=APPLICATION_CONTEXT('automotive design');
#6=APPLICATION_PROTOCOL_DEFINITION('International Standard','automotive_design',2001,#5);
#7=PRODUCT_CONTEXT('',#5,'mechanical');
#8=PRODUCT('FixedPanel','FixedPanel',$,(#7));
#9=PRODUCT_RELATED_PRODUCT_CATEGORY('part',$,(#8));
#10=PRODUCT_DEFINITION_FORMATION('',$,#8);
#11=PRODUCT_DEFINITION_CONTEXT('part definition',#5,'design');
#12=PRODUCT_DEFINITION('',$,#10,#11);
#18=(NAMED_UNIT(*)PLANE_ANGLE_UNIT()SI_UNIT($,.RADIAN.));
#19=DIMENSIONAL_EXPONENTS(0.0,0.0,0.0,0.0,0.0,0.0,0.0);
#20=PLANE_ANGLE_MEASURE_WITH_UNIT(PLANE_ANGLE_MEASURE(0.017453292500000),#18);
#24=(CONVERSION_BASED_UNIT('DEGREE',#20)NAMED_UNIT(#19)PLANE_ANGLE_UNIT());
#28=(NAMED_UNIT(*)SI_UNIT($,.STERADIAN.)SOLID_ANGLE_UNIT());
#32=(LENGTH_UNIT()NAMED_UNIT(*)SI_UNIT(.MILLI.,.METRE.));
#34=UNCERTAINTY_MEASURE_WITH_UNIT(LENGTH_MEASURE(0.010000000000000),#32,'DISTANCE_ACCURACY_VALUE','');
#36=(GEOMETRIC_REPRESENTATION_CONTEXT(3)GLOBAL_UNCERTAINTY_ASSIGNED_CONTEXT((#34))GLOBAL_UNIT_ASSIGNED_CONTEXT((#24,#28,#32))REPRESENTATION_CONTEXT('None','None'));
#37=AXIS2_PLACEMENT_3D('',#38,#39,#40);
#38=CARTESIAN_POINT('',(0.0,0.0,0.0));
#39=DIRECTION('',(0.0,0.0,1.0));
#40=DIRECTION('',(1.0,0.0,0.0));
#41=SHAPE_REPRESENTATION('',(#37),#36);
#42=PRODUCT_DEFINITION_SHAPE('','',#12);
#43=SHAPE_DEFINITION_REPRESENTATION(#42,#41);
#49=(NAMED_UNIT(*)PLANE_ANGLE_UNIT()SI_UNIT($,.RADIAN.));
#50=DIMENSIONAL_EXPONENTS(0.0,0.0,0.0,0.0,0.0,0.0,0.0);
#51=PLANE_ANGLE_MEASURE_WITH_UNIT(PLANE_ANGLE_MEASURE(0.017453292500000),#49);
#55=(CONVERSION_BASED_UNIT('DEGREE',#51)NAMED_UNIT(#50)PLANE_ANGLE_UNIT());
#59=(NAMED_UNIT(*)SI_UNIT($,.STERADIAN.)SOLID_ANGLE_UNIT());
#63=(LENGTH_UNIT()NAMED_UNIT(*)SI_UNIT(.MILLI.,.METRE.));
#65=UNCERTAINTY_MEASURE_WITH_UNIT(LENGTH_MEASURE(0.000001000000000),#63,'DISTANCE_ACCURACY_VALUE','');
#67=(GEOMETRIC_REPRESENTATION_CONTEXT(3)GLOBAL_UNCERTAINTY_ASSIGNED_CONTEXT((#65))GLOBAL_UNIT_ASSIGNED_CONTEXT((#55,#59,#63))REPRESENTATION_CONTEXT('','3D'));
#68=CARTESIAN_POINT('',(-13.204411420930819,0.318212876526996,-428.000000000000110));
#69=DIRECTION('',(0.0,0.0,1.0));
#70=DIRECTION('',(1.0,0.0,0.0));
#71=AXIS2_PLACEMENT_3D('',#68,#69,#70);
#72=PLANE('',#71);
#73=CARTESIAN_POINT('',(150.656854249492370,-4.343145750507627,-428.000000000000110));
#74=VERTEX_POINT('',#73);
#75=CARTESIAN_POINT('',(165.0,10.0,-428.000000000000110));
#76=VERTEX_POINT('',#75);
#77=CARTESIAN_POINT('',(150.656854249492370,-4.343145750507627,-428.000000000000110));
#78=DIRECTION('',(0.707106781186548,0.707106781186547,0.0));
#79=VECTOR('',#78,20.284271247461916);
#80=LINE('',#77,#79);
#81=EDGE_CURVE('',#74,#76,#80,.T.);
#82=ORIENTED_EDGE('',*,*,#81,.F.);
#83=CARTESIAN_POINT('',(136.999999999999940,-10.0,-428.000000000000110));
#84=VERTEX_POINT('',#83);
#85=CARTESIAN_POINT('',(136.999999999999940,-10.0,-428.000000000000110));
#86=DIRECTION('',(0.923879532511287,0.382683432365088,0.0));
#87=VECTOR('',#86,14.782072520180627);
#88=LINE('',#85,#87);
#89=EDGE_CURVE('',#84,#74,#88,.T.);
#90=ORIENTED_EDGE('',*,*,#89,.F.);
#91=CARTESIAN_POINT('',(-185.0,-10.000000000000002,-428.000000000000110));
#92=VERTEX_POINT('',#91);
#93=CARTESIAN_POINT('',(-185.0,-10.000000000000002,-428.000000000000110));
#94=DIRECTION('',(1.0,0.0,0.0));
#95=VECTOR('',#94,321.999999999999940);
#96=LINE('',#93,#95);
#97=EDGE_CURVE('',#92,#84,#96,.T.);
#98=ORIENTED_EDGE('',*,*,#97,.F.);
#99=CARTESIAN_POINT('',(-185.0,9.999999999999993,-428.000000000000110));
#100=VERTEX_POINT('',#99);
#101=CARTESIAN_POINT('',(-185.0,9.999999999999993,-428.000000000000110));
#102=DIRECTION('',(0.0,-1.0,0.0));
#103=VECTOR('',#102,19.999999999999993);
#104=LINE('',#101,#103);
#105=EDGE_CURVE('',#100,#92,#104,.T.);
#106=ORIENTED_EDGE('',*,*,#105,.F.);
#107=CARTESIAN_POINT('',(165.0,10.0,-428.000000000000110));
#108=DIRECTION('',(-1.0,0.0,0.0));
#109=VECTOR('',#108,350.0);
#110=LINE('',#107,#109);
#111=EDGE_CURVE('',#76,#100,#110,.T.);
#112=ORIENTED_EDGE('',*,*,#111,.F.);
#113=EDGE_LOOP('',(#82,#90,#98,#106,#112));
#114=FACE_OUTER_BOUND('',#113,.T.);
#115=ADVANCED_FACE('',(#114),#72,.F.);
#116=CARTESIAN_POINT('',(-185.0,9.999999999999993,0.0));
#117=DIRECTION('',(-1.0,0.0,0.0));
#118=DIRECTION('',(0.0,0.0,1.0));
#119=AXIS2_PLACEMENT_3D('',#116,#117,#118);
#120=PLANE('',#119);
#121=CARTESIAN_POINT('',(-185.0,-10.000000000000002,0.0));
#122=VERTEX_POINT('',#121);
#123=CARTESIAN_POINT('',(-185.0,-10.000000000000002,0.0));
#124=DIRECTION('',(0.0,0.0,-1.0));
#125=VECTOR('',#124,428.000000000000110);
#126=LINE('',#123,#125);
#127=EDGE_CURVE('',#122,#92,#126,.T.);
#128=ORIENTED_EDGE('',*,*,#127,.F.);
#129=CARTESIAN_POINT('',(-185.0,9.999999999999993,0.0));
#130=VERTEX_POINT('',#129);
#131=CARTESIAN_POINT('',(-185.0,9.999999999999993,0.0));
#132=DIRECTION('',(0.0,-1.0,0.0));
#133=VECTOR('',#132,19.999999999999993);
#134=LINE('',#131,#133);
#135=EDGE_CURVE('',#130,#122,#134,.T.);
#136=ORIENTED_EDGE('',*,*,#135,.F.);
#137=CARTESIAN_POINT('',(-185.0,9.999999999999993,0.0));
#138=DIRECTION('',(0.0,0.0,-1.0));
#139=VECTOR('',#138,428.000000000000110);
#140=LINE('',#137,#139);
#141=EDGE_CURVE('',#130,#100,#140,.T.);
#142=ORIENTED_EDGE('',*,*,#141,.T.);
#143=ORIENTED_EDGE('',*,*,#105,.T.);
#144=EDGE_LOOP('',(#128,#136,#142,#143));
#145=FACE_OUTER_BOUND('',#144,.T.);
#146=ADVANCED_FACE('',(#145),#120,.T.);
#147=CARTESIAN_POINT('',(143.828427124746160,-7.171572875253815,0.0));
#148=DIRECTION('',(0.382683432365089,-0.923879532511287,0.0));
#149=DIRECTION('',(0.0,0.0,-1.0));
#150=AXIS2_PLACEMENT_3D('',#147,#148,#149);
#151=PLANE('',#150);
#152=CARTESIAN_POINT('',(150.656854249492370,-4.343145750507627,0.0));
#153=VERTEX_POINT('',#152);
#154=CARTESIAN_POINT('',(150.656854249492370,-4.343145750507627,0.0));
#155=DIRECTION('',(0.0,0.0,-1.0));
#156=VECTOR('',#155,428.000000000000110);
#157=LINE('',#154,#156);
#158=EDGE_CURVE('',#153,#74,#157,.T.);
#159=ORIENTED_EDGE('',*,*,#158,.F.);
#160=CARTESIAN_POINT('',(136.999999999999940,-10.0,0.0));
#161=VERTEX_POINT('',#160);
#162=CARTESIAN_POINT('',(150.656854249492370,-4.343145750507627,0.0));
#163=DIRECTION('',(-0.923879532511287,-0.382683432365088,0.0));
#164=VECTOR('',#163,14.782072520180627);
#165=LINE('',#162,#164);
#166=EDGE_CURVE('',#153,#161,#165,.T.);
#167=ORIENTED_EDGE('',*,*,#166,.T.);
#168=CARTESIAN_POINT('',(136.999999999999940,-10.0,0.0));
#169=DIRECTION('',(0.0,0.0,-1.0));
#170=VECTOR('',#169,428.000000000000110);
#171=LINE('',#168,#170);
#172=EDGE_CURVE('',#161,#84,#171,.T.);
#173=ORIENTED_EDGE('',*,*,#172,.T.);
#174=ORIENTED_EDGE('',*,*,#89,.T.);
#175=EDGE_LOOP('',(#159,#167,#173,#174));
#176=FACE_OUTER_BOUND('',#175,.T.);
#177=ADVANCED_FACE('',(#176),#151,.T.);
#178=CARTESIAN_POINT('',(0.0,-1.730218E-017,0.0));
#179=DIRECTION('',(0.0,0.0,1.0));
#180=DIRECTION('',(1.0,0.0,0.0));
#181=AXIS2_PLACEMENT_3D('',#178,#179,#180);
#182=PLANE('',#181);
#183=ORIENTED_EDGE('',*,*,#166,.F.);
#184=CARTESIAN_POINT('',(165.0,10.0,0.0));
#185=VERTEX_POINT('',#184);
#186=CARTESIAN_POINT('',(165.0,10.0,0.0));
#187=DIRECTION('',(-0.707106781186548,-0.707106781186547,0.0));
#188=VECTOR('',#187,20.284271247461916);
#189=LINE('',#186,#188);
#190=EDGE_CURVE('',#185,#153,#189,.T.);
#191=ORIENTED_EDGE('',*,*,#190,.F.);
#192=CARTESIAN_POINT('',(165.0,10.0,0.0));
#193=DIRECTION('',(-1.0,0.0,0.0));
#194=VECTOR('',#193,350.0);
#195=LINE('',#192,#194);
#196=EDGE_CURVE('',#185,#130,#195,.T.);
#197=ORIENTED_EDGE('',*,*,#196,.T.);
#198=ORIENTED_EDGE('',*,*,#135,.T.);
#199=CARTESIAN_POINT('',(-185.0,-10.000000000000002,0.0));
#200=DIRECTION('',(1.0,0.0,0.0));
#201=VECTOR('',#200,321.999999999999940);
#202=LINE('',#199,#201);
#203=EDGE_CURVE('',#122,#161,#202,.T.);
#204=ORIENTED_EDGE('',*,*,#203,.T.);
#205=EDGE_LOOP('',(#183,#191,#197,#198,#204));
#206=FACE_OUTER_BOUND('',#205,.T.);
#207=ADVANCED_FACE('',(#206),#182,.T.);
#208=CARTESIAN_POINT('',(155.0,0.0,0.0));
#209=DIRECTION('',(0.707106781186548,-0.707106781186548,0.0));
#210=DIRECTION('',(0.0,0.0,-1.0));
#211=AXIS2_PLACEMENT_3D('',#208,#209,#210);
#212=PLANE('',#211);
#213=ORIENTED_EDGE('',*,*,#158,.T.);
#214=ORIENTED_EDGE('',*,*,#81,.T.);
#215=CARTESIAN_POINT('',(165.0,10.0,0.0));
#216=DIRECTION('',(0.0,0.0,-1.0));
#217=VECTOR('',#216,428.000000000000110);
#218=LINE('',#215,#217);
#219=EDGE_CURVE('',#185,#76,#218,.T.);
#220=ORIENTED_EDGE('',*,*,#219,.F.);
#221=ORIENTED_EDGE('',*,*,#190,.T.);
#222=EDGE_LOOP('',(#213,#214,#220,#221));
#223=FACE_OUTER_BOUND('',#222,.T.);
#224=ADVANCED_FACE('',(#223),#212,.T.);
#225=CARTESIAN_POINT('',(-165.0,-10.0,0.0));
#226=DIRECTION('',(0.0,-1.0,0.0));
#227=DIRECTION('',(0.0,0.0,-1.0));
#228=AXIS2_PLACEMENT_3D('',#225,#226,#227);
#229=PLANE('',#228);
#230=ORIENTED_EDGE('',*,*,#172,.F.);
#231=ORIENTED_EDGE('',*,*,#203,.F.);
#232=ORIENTED_EDGE('',*,*,#127,.T.);
#233=ORIENTED_EDGE('',*,*,#97,.T.);
#234=EDGE_LOOP('',(#230,#231,#232,#233));
#235=FACE_OUTER_BOUND('',#234,.T.);
#236=ADVANCED_FACE('',(#235),#229,.T.);
#237=CARTESIAN_POINT('',(165.0,10.0,0.0));
#238=DIRECTION('',(0.0,1.0,0.0));
#239=DIRECTION('',(0.0,0.0,1.0));
#240=AXIS2_PLACEMENT_3D('',#237,#238,#239);
#241=PLANE('',#240);
#242=ORIENTED_EDGE('',*,*,#141,.F.);
#243=ORIENTED_EDGE('',*,*,#196,.F.);
#244=ORIENTED_EDGE('',*,*,#219,.T.);
#245=ORIENTED_EDGE('',*,*,#111,.T.);
#246=EDGE_LOOP('',(#242,#243,#244,#245));
#247=FACE_OUTER_BOUND('',#246,.T.);
#248=ADVANCED_FACE('',(#247),#241,.T.);
#249=CLOSED_SHELL('',(#115,#146,#177,#207,#224,#236,#248));
#250=MANIFOLD_SOLID_BREP('',#249);
#251=DRAUGHTING_PRE_DEFINED_COLOUR('white');
#252=FILL_AREA_STYLE_COLOUR('White',#251);
#253=FILL_AREA_STYLE('White',(#252));
#254=SURFACE_STYLE_FILL_AREA(#253);
#255=SURFACE_SIDE_STYLE('White',(#254));
#256=SURFACE_STYLE_USAGE(.BOTH.,#255);
#257=PRESENTATION_STYLE_ASSIGNMENT((#256));
#258=STYLED_ITEM('',(#257),#250);
#259=MECHANICAL_DESIGN_GEOMETRIC_PRESENTATION_REPRESENTATION('',(#258),#36);
#260=ADVANCED_BREP_SHAPE_REPRESENTATION('ABSR',(#250),#36);
#261=SHAPE_REPRESENTATION_RELATIONSHIP('SRR','None',#260,#41);
ENDSEC;
END-ISO-10303-21;
