ISO-10303-21;
HEADER;
/****************************************************************
 * Generated by software with PDE/Lib inside                    *
 * PDElib Version v51a, created Thu 12/14/2006                  *
 * International Technegroup Inc. (www.iti-oh.com)              *
 ****************************************************************/
FILE_DESCRIPTION((''),'2;1');
FILE_NAME('D:\\THANG\\2018\\YouTube\\2F\\10FlushSlideDoor\\MovingPanel.stp','2018-03-07T21:08:07',('Administrator'),(''),'Autodesk Inventor 2008','Autodesk Inventor 2008','');
FILE_SCHEMA(('AUTOMOTIVE_DESIGN { 1 0 10303 214 1 1 1 1 }'));
ENDSEC;
DATA;
#5=APPLICATION_CONTEXT('automotive design');
#6=APPLICATION_PROTOCOL_DEFINITION('International Standard','automotive_design',2001,#5);
#7=PRODUCT_CONTEXT('',#5,'mechanical');
#8=PRODUCT('MovingPanel','MovingPanel',$,(#7));
#9=PRODUCT_RELATED_PRODUCT_CATEGORY('part',$,(#8));
#10=PRODUCT_DEFINITION_FORMATION('',$,#8);
#11=PRODUCT_DEFINITION_CONTEXT('part definition',#5,'design');
#12=PRODUCT_DEFINITION('',$,#10,#11);
#18=(NAMED_UNIT(*)PLANE_ANGLE_UNIT()SI_UNIT($,.RADIAN.));
#19=DIMENSIONAL_EXPONENTS(0.0,0.0,0.0,0.0,0.0,0.0,0.0);
#20=PLANE_ANGLE_MEASURE_WITH_UNIT(PLANE_ANGLE_MEASURE(0.017453292500000),#18);
#24=(CONVERSION_BASED_UNIT('DEGREE',#20)NAMED_UNIT(#19)PLANE_ANGLE_UNIT());
#28=(NAMED_UNIT(*)SI_UNIT($,.STERADIAN.)SOLID_ANGLE_UNIT());
#32=(LENGTH_UNIT()NAMED_UNIT(*)SI_UNIT(.MILLI.,.METRE.));
#34=UNCERTAINTY_MEASURE_WITH_UNIT(LENGTH_MEASURE(0.010000000000000),#32,'DISTANCE_ACCURACY_VALUE','');
#36=(GEOMETRIC_REPRESENTATION_CONTEXT(3)GLOBAL_UNCERTAINTY_ASSIGNED_CONTEXT((#34))GLOBAL_UNIT_ASSIGNED_CONTEXT((#24,#28,#32))REPRESENTATION_CONTEXT('None','None'));
#37=AXIS2_PLACEMENT_3D('',#38,#39,#40);
#38=CARTESIAN_POINT('',(0.0,0.0,0.0));
#39=DIRECTION('',(0.0,0.0,1.0));
#40=DIRECTION('',(1.0,0.0,0.0));
#41=SHAPE_REPRESENTATION('',(#37),#36);
#42=PRODUCT_DEFINITION_SHAPE('','',#12);
#43=SHAPE_DEFINITION_REPRESENTATION(#42,#41);
#49=(NAMED_UNIT(*)PLANE_ANGLE_UNIT()SI_UNIT($,.RADIAN.));
#50=DIMENSIONAL_EXPONENTS(0.0,0.0,0.0,0.0,0.0,0.0,0.0);
#51=PLANE_ANGLE_MEASURE_WITH_UNIT(PLANE_ANGLE_MEASURE(0.017453292500000),#49);
#55=(CONVERSION_BASED_UNIT('DEGREE',#51)NAMED_UNIT(#50)PLANE_ANGLE_UNIT());
#59=(NAMED_UNIT(*)SI_UNIT($,.STERADIAN.)SOLID_ANGLE_UNIT());
#63=(LENGTH_UNIT()NAMED_UNIT(*)SI_UNIT(.MILLI.,.METRE.));
#65=UNCERTAINTY_MEASURE_WITH_UNIT(LENGTH_MEASURE(0.000001000000000),#63,'DISTANCE_ACCURACY_VALUE','');
#67=(GEOMETRIC_REPRESENTATION_CONTEXT(3)GLOBAL_UNCERTAINTY_ASSIGNED_CONTEXT((#65))GLOBAL_UNIT_ASSIGNED_CONTEXT((#55,#59,#63))REPRESENTATION_CONTEXT('','3D'));
#68=CARTESIAN_POINT('',(-1.071067811865482,-0.273117978704221,-426.000000000000110));
#69=DIRECTION('',(0.0,0.0,1.0));
#70=DIRECTION('',(1.0,0.0,0.0));
#71=AXIS2_PLACEMENT_3D('',#68,#69,#70);
#72=PLANE('',#71);
#73=CARTESIAN_POINT('',(172.0,-10.0,-426.000000000000110));
#74=VERTEX_POINT('',#73);
#75=CARTESIAN_POINT('',(172.0,10.0,-426.000000000000110));
#76=VERTEX_POINT('',#75);
#77=CARTESIAN_POINT('',(172.0,-10.0,-426.000000000000110));
#78=DIRECTION('',(0.0,1.0,0.0));
#79=VECTOR('',#78,20.0);
#80=LINE('',#77,#79);
#81=EDGE_CURVE('',#74,#76,#80,.T.);
#82=ORIENTED_EDGE('',*,*,#81,.F.);
#83=CARTESIAN_POINT('',(-180.0,-10.0,-426.000000000000110));
#84=VERTEX_POINT('',#83);
#85=CARTESIAN_POINT('',(-180.0,-10.0,-426.000000000000110));
#86=DIRECTION('',(1.0,0.0,0.0));
#87=VECTOR('',#86,352.0);
#88=LINE('',#85,#87);
#89=EDGE_CURVE('',#84,#74,#88,.T.);
#90=ORIENTED_EDGE('',*,*,#89,.F.);
#91=CARTESIAN_POINT('',(-160.0,10.0,-426.000000000000110));
#92=VERTEX_POINT('',#91);
#93=CARTESIAN_POINT('',(-160.0,10.0,-426.000000000000110));
#94=DIRECTION('',(-0.707106781186547,-0.707106781186547,0.0));
#95=VECTOR('',#94,28.284271247461902);
#96=LINE('',#93,#95);
#97=EDGE_CURVE('',#92,#84,#96,.T.);
#98=ORIENTED_EDGE('',*,*,#97,.F.);
#99=CARTESIAN_POINT('',(172.0,10.0,-426.000000000000110));
#100=DIRECTION('',(-1.0,0.0,0.0));
#101=VECTOR('',#100,332.0);
#102=LINE('',#99,#101);
#103=EDGE_CURVE('',#76,#92,#102,.T.);
#104=ORIENTED_EDGE('',*,*,#103,.F.);
#105=EDGE_LOOP('',(#82,#90,#98,#104));
#106=FACE_OUTER_BOUND('',#105,.T.);
#107=ADVANCED_FACE('',(#106),#72,.F.);
#108=CARTESIAN_POINT('',(172.0,0.0,-100.0));
#109=DIRECTION('',(1.0,0.0,0.0));
#110=DIRECTION('',(0.0,0.0,-1.0));
#111=AXIS2_PLACEMENT_3D('',#108,#109,#110);
#112=PLANE('',#111);
#113=CARTESIAN_POINT('',(172.0,-10.0,0.0));
#114=VERTEX_POINT('',#113);
#115=CARTESIAN_POINT('',(172.0,-10.0,-426.000000000000110));
#116=DIRECTION('',(0.0,0.0,1.0));
#117=VECTOR('',#116,426.000000000000110);
#118=LINE('',#115,#117);
#119=EDGE_CURVE('',#74,#114,#118,.T.);
#120=ORIENTED_EDGE('',*,*,#119,.F.);
#121=ORIENTED_EDGE('',*,*,#81,.T.);
#122=CARTESIAN_POINT('',(172.0,10.0,0.0));
#123=VERTEX_POINT('',#122);
#124=CARTESIAN_POINT('',(172.0,10.0,0.0));
#125=DIRECTION('',(0.0,0.0,-1.0));
#126=VECTOR('',#125,426.000000000000110);
#127=LINE('',#124,#126);
#128=EDGE_CURVE('',#123,#76,#127,.T.);
#129=ORIENTED_EDGE('',*,*,#128,.F.);
#130=CARTESIAN_POINT('',(172.0,-10.0,0.0));
#131=DIRECTION('',(0.0,1.0,0.0));
#132=VECTOR('',#131,20.0);
#133=LINE('',#130,#132);
#134=EDGE_CURVE('',#114,#123,#133,.T.);
#135=ORIENTED_EDGE('',*,*,#134,.F.);
#136=EDGE_LOOP('',(#120,#121,#129,#135));
#137=FACE_OUTER_BOUND('',#136,.T.);
#138=ADVANCED_FACE('',(#137),#112,.T.);
#139=CARTESIAN_POINT('',(135.0,25.0,-180.0));
#140=DIRECTION('',(-1.0,0.0,0.0));
#141=DIRECTION('',(0.0,0.0,1.0));
#142=AXIS2_PLACEMENT_3D('',#139,#140,#141);
#143=PLANE('',#142);
#144=CARTESIAN_POINT('',(135.0,10.0,-166.771243444677030));
#145=VERTEX_POINT('',#144);
#146=CARTESIAN_POINT('',(135.0,10.0,-193.228756555322970));
#147=VERTEX_POINT('',#146);
#148=CARTESIAN_POINT('',(135.0,10.0,-166.771243444677030));
#149=DIRECTION('',(0.0,0.0,-1.0));
#150=VECTOR('',#149,26.457513110645948);
#151=LINE('',#148,#150);
#152=EDGE_CURVE('',#145,#147,#151,.T.);
#153=ORIENTED_EDGE('',*,*,#152,.F.);
#154=CARTESIAN_POINT('',(135.0,25.0,-180.0));
#155=DIRECTION('',(1.0,0.0,0.0));
#156=DIRECTION('',(0.0,0.0,1.0));
#157=AXIS2_PLACEMENT_3D('',#154,#155,#156);
#158=CIRCLE('',#157,20.0);
#159=EDGE_CURVE('',#145,#147,#158,.T.);
#160=ORIENTED_EDGE('',*,*,#159,.T.);
#161=EDGE_LOOP('',(#153,#160));
#162=FACE_OUTER_BOUND('',#161,.T.);
#163=ADVANCED_FACE('',(#162),#143,.F.);
#164=CARTESIAN_POINT('',(145.0,25.0,-180.0));
#165=DIRECTION('',(-1.0,0.0,0.0));
#166=DIRECTION('',(0.0,0.0,1.0));
#167=AXIS2_PLACEMENT_3D('',#164,#165,#166);
#168=PLANE('',#167);
#169=CARTESIAN_POINT('',(145.0,10.0,-193.228756555322970));
#170=VERTEX_POINT('',#169);
#171=CARTESIAN_POINT('',(145.0,10.0,-166.771243444677030));
#172=VERTEX_POINT('',#171);
#173=CARTESIAN_POINT('',(145.0,10.0,-193.228756555322970));
#174=DIRECTION('',(0.0,0.0,1.0));
#175=VECTOR('',#174,26.457513110645948);
#176=LINE('',#173,#175);
#177=EDGE_CURVE('',#170,#172,#176,.T.);
#178=ORIENTED_EDGE('',*,*,#177,.F.);
#179=CARTESIAN_POINT('',(145.0,25.0,-180.0));
#180=DIRECTION('',(-1.0,0.0,0.0));
#181=DIRECTION('',(0.0,0.0,1.0));
#182=AXIS2_PLACEMENT_3D('',#179,#180,#181);
#183=CIRCLE('',#182,20.0);
#184=EDGE_CURVE('',#170,#172,#183,.T.);
#185=ORIENTED_EDGE('',*,*,#184,.T.);
#186=EDGE_LOOP('',(#178,#185));
#187=FACE_OUTER_BOUND('',#186,.T.);
#188=ADVANCED_FACE('',(#187),#168,.T.);
#189=CARTESIAN_POINT('',(140.0,25.0,-180.0));
#190=DIRECTION('',(-1.0,0.0,0.0));
#191=DIRECTION('',(0.0,0.0,1.0));
#192=AXIS2_PLACEMENT_3D('',#189,#190,#191);
#193=CYLINDRICAL_SURFACE('',#192,20.0);
#194=CARTESIAN_POINT('',(145.0,10.0,-166.771243444677030));
#195=DIRECTION('',(-1.0,0.0,0.0));
#196=VECTOR('',#195,10.0);
#197=LINE('',#194,#196);
#198=EDGE_CURVE('',#172,#145,#197,.T.);
#199=ORIENTED_EDGE('',*,*,#198,.F.);
#200=ORIENTED_EDGE('',*,*,#184,.F.);
#201=CARTESIAN_POINT('',(135.0,10.0,-193.228756555322970));
#202=DIRECTION('',(1.0,0.0,0.0));
#203=VECTOR('',#202,10.0);
#204=LINE('',#201,#203);
#205=EDGE_CURVE('',#147,#170,#204,.T.);
#206=ORIENTED_EDGE('',*,*,#205,.F.);
#207=ORIENTED_EDGE('',*,*,#159,.F.);
#208=EDGE_LOOP('',(#199,#200,#206,#207));
#209=FACE_OUTER_BOUND('',#208,.T.);
#210=ADVANCED_FACE('',(#209),#193,.F.);
#211=CARTESIAN_POINT('',(-160.0,10.0,0.0));
#212=DIRECTION('',(-0.707106781186548,0.707106781186548,0.0));
#213=DIRECTION('',(0.0,0.0,1.0));
#214=AXIS2_PLACEMENT_3D('',#211,#212,#213);
#215=PLANE('',#214);
#216=CARTESIAN_POINT('',(-180.0,-10.0,0.0));
#217=VERTEX_POINT('',#216);
#218=CARTESIAN_POINT('',(-180.0,-10.0,0.0));
#219=DIRECTION('',(0.0,0.0,-1.0));
#220=VECTOR('',#219,426.000000000000110);
#221=LINE('',#218,#220);
#222=EDGE_CURVE('',#217,#84,#221,.T.);
#223=ORIENTED_EDGE('',*,*,#222,.F.);
#224=CARTESIAN_POINT('',(-160.0,10.0,0.0));
#225=VERTEX_POINT('',#224);
#226=CARTESIAN_POINT('',(-160.0,10.0,0.0));
#227=DIRECTION('',(-0.707106781186547,-0.707106781186547,0.0));
#228=VECTOR('',#227,28.284271247461902);
#229=LINE('',#226,#228);
#230=EDGE_CURVE('',#225,#217,#229,.T.);
#231=ORIENTED_EDGE('',*,*,#230,.F.);
#232=CARTESIAN_POINT('',(-160.0,10.0,0.0));
#233=DIRECTION('',(0.0,0.0,-1.0));
#234=VECTOR('',#233,426.000000000000110);
#235=LINE('',#232,#234);
#236=EDGE_CURVE('',#225,#92,#235,.T.);
#237=ORIENTED_EDGE('',*,*,#236,.T.);
#238=ORIENTED_EDGE('',*,*,#97,.T.);
#239=EDGE_LOOP('',(#223,#231,#237,#238));
#240=FACE_OUTER_BOUND('',#239,.T.);
#241=ADVANCED_FACE('',(#240),#215,.T.);
#242=CARTESIAN_POINT('',(160.0,10.0,0.0));
#243=DIRECTION('',(0.0,1.0,0.0));
#244=DIRECTION('',(0.0,0.0,1.0));
#245=AXIS2_PLACEMENT_3D('',#242,#243,#244);
#246=PLANE('',#245);
#247=ORIENTED_EDGE('',*,*,#236,.F.);
#248=CARTESIAN_POINT('',(172.0,10.0,0.0));
#249=DIRECTION('',(-1.0,0.0,0.0));
#250=VECTOR('',#249,332.0);
#251=LINE('',#248,#250);
#252=EDGE_CURVE('',#123,#225,#251,.T.);
#253=ORIENTED_EDGE('',*,*,#252,.F.);
#254=ORIENTED_EDGE('',*,*,#128,.T.);
#255=ORIENTED_EDGE('',*,*,#103,.T.);
#256=EDGE_LOOP('',(#247,#253,#254,#255));
#257=FACE_OUTER_BOUND('',#256,.T.);
#258=ORIENTED_EDGE('',*,*,#177,.T.);
#259=ORIENTED_EDGE('',*,*,#198,.T.);
#260=ORIENTED_EDGE('',*,*,#152,.T.);
#261=ORIENTED_EDGE('',*,*,#205,.T.);
#262=EDGE_LOOP('',(#258,#259,#260,#261));
#263=FACE_BOUND('',#262,.T.);
#264=ADVANCED_FACE('',(#257,#263),#246,.T.);
#265=CARTESIAN_POINT('',(-160.0,-10.0,0.0));
#266=DIRECTION('',(0.0,-1.0,0.0));
#267=DIRECTION('',(0.0,0.0,-1.0));
#268=AXIS2_PLACEMENT_3D('',#265,#266,#267);
#269=PLANE('',#268);
#270=ORIENTED_EDGE('',*,*,#119,.T.);
#271=CARTESIAN_POINT('',(-180.0,-10.0,0.0));
#272=DIRECTION('',(1.0,0.0,0.0));
#273=VECTOR('',#272,352.0);
#274=LINE('',#271,#273);
#275=EDGE_CURVE('',#217,#114,#274,.T.);
#276=ORIENTED_EDGE('',*,*,#275,.F.);
#277=ORIENTED_EDGE('',*,*,#222,.T.);
#278=ORIENTED_EDGE('',*,*,#89,.T.);
#279=EDGE_LOOP('',(#270,#276,#277,#278));
#280=FACE_OUTER_BOUND('',#279,.T.);
#281=ADVANCED_FACE('',(#280),#269,.T.);
#282=CARTESIAN_POINT('',(0.0,-1.781106E-017,0.0));
#283=DIRECTION('',(0.0,0.0,1.0));
#284=DIRECTION('',(1.0,0.0,0.0));
#285=AXIS2_PLACEMENT_3D('',#282,#283,#284);
#286=PLANE('',#285);
#287=ORIENTED_EDGE('',*,*,#275,.T.);
#288=ORIENTED_EDGE('',*,*,#134,.T.);
#289=ORIENTED_EDGE('',*,*,#252,.T.);
#290=ORIENTED_EDGE('',*,*,#230,.T.);
#291=EDGE_LOOP('',(#287,#288,#289,#290));
#292=FACE_OUTER_BOUND('',#291,.T.);
#293=ADVANCED_FACE('',(#292),#286,.T.);
#294=CLOSED_SHELL('',(#107,#138,#163,#188,#210,#241,#264,#281,#293));
#295=MANIFOLD_SOLID_BREP('',#294);
#296=COLOUR_RGB('Blue Pastel',0.682353019714355,0.807843029499054,0.749019980430603);
#297=FILL_AREA_STYLE_COLOUR('Blue Pastel',#296);
#298=FILL_AREA_STYLE('Blue Pastel',(#297));
#299=SURFACE_STYLE_FILL_AREA(#298);
#300=SURFACE_SIDE_STYLE('Blue Pastel',(#299));
#301=SURFACE_STYLE_USAGE(.BOTH.,#300);
#302=PRESENTATION_STYLE_ASSIGNMENT((#301));
#303=STYLED_ITEM('',(#302),#295);
#304=MECHANICAL_DESIGN_GEOMETRIC_PRESENTATION_REPRESENTATION('',(#303),#36);
#305=ADVANCED_BREP_SHAPE_REPRESENTATION('ABSR',(#295),#36);
#306=SHAPE_REPRESENTATION_RELATIONSHIP('SRR','None',#305,#41);
ENDSEC;
END-ISO-10303-21;
