ISO-10303-21;
HEADER;
/****************************************************************
 * Generated by software with PDE/Lib inside                    *
 * PDElib Version v51a, created Thu 12/14/2006                  *
 * International Technegroup Inc. (www.iti-oh.com)              *
 ****************************************************************/
FILE_DESCRIPTION((''),'2;1');
FILE_NAME('D:\\THANG\\2018\\YouTube\\2F\\10FlushSlideDoor\\RollerH.stp','2018-03-07T21:07:37',('Administrator'),(''),'Autodesk Inventor 2008','Autodesk Inventor 2008','');
FILE_SCHEMA(('AUTOMOTIVE_DESIGN { 1 0 10303 214 1 1 1 1 }'));
ENDSEC;
DATA;
#5=APPLICATION_CONTEXT('automotive design');
#6=APPLICATION_PROTOCOL_DEFINITION('International Standard','automotive_design',2001,#5);
#7=PRODUCT_CONTEXT('',#5,'mechanical');
#8=PRODUCT('RollerH','RollerH',$,(#7));
#9=PRODUCT_RELATED_PRODUCT_CATEGORY('part',$,(#8));
#10=PRODUCT_DEFINITION_FORMATION('',$,#8);
#11=PRODUCT_DEFINITION_CONTEXT('part definition',#5,'design');
#12=PRODUCT_DEFINITION('',$,#10,#11);
#18=(NAMED_UNIT(*)PLANE_ANGLE_UNIT()SI_UNIT($,.RADIAN.));
#19=DIMENSIONAL_EXPONENTS(0.0,0.0,0.0,0.0,0.0,0.0,0.0);
#20=PLANE_ANGLE_MEASURE_WITH_UNIT(PLANE_ANGLE_MEASURE(0.017453292500000),#18);
#24=(CONVERSION_BASED_UNIT('DEGREE',#20)NAMED_UNIT(#19)PLANE_ANGLE_UNIT());
#28=(NAMED_UNIT(*)SI_UNIT($,.STERADIAN.)SOLID_ANGLE_UNIT());
#32=(LENGTH_UNIT()NAMED_UNIT(*)SI_UNIT(.MILLI.,.METRE.));
#34=UNCERTAINTY_MEASURE_WITH_UNIT(LENGTH_MEASURE(0.010000000000000),#32,'DISTANCE_ACCURACY_VALUE','');
#36=(GEOMETRIC_REPRESENTATION_CONTEXT(3)GLOBAL_UNCERTAINTY_ASSIGNED_CONTEXT((#34))GLOBAL_UNIT_ASSIGNED_CONTEXT((#24,#28,#32))REPRESENTATION_CONTEXT('None','None'));
#37=AXIS2_PLACEMENT_3D('',#38,#39,#40);
#38=CARTESIAN_POINT('',(0.0,0.0,0.0));
#39=DIRECTION('',(0.0,0.0,1.0));
#40=DIRECTION('',(1.0,0.0,0.0));
#41=SHAPE_REPRESENTATION('',(#37),#36);
#42=PRODUCT_DEFINITION_SHAPE('','',#12);
#43=SHAPE_DEFINITION_REPRESENTATION(#42,#41);
#49=(NAMED_UNIT(*)PLANE_ANGLE_UNIT()SI_UNIT($,.RADIAN.));
#50=DIMENSIONAL_EXPONENTS(0.0,0.0,0.0,0.0,0.0,0.0,0.0);
#51=PLANE_ANGLE_MEASURE_WITH_UNIT(PLANE_ANGLE_MEASURE(0.017453292500000),#49);
#55=(CONVERSION_BASED_UNIT('DEGREE',#51)NAMED_UNIT(#50)PLANE_ANGLE_UNIT());
#59=(NAMED_UNIT(*)SI_UNIT($,.STERADIAN.)SOLID_ANGLE_UNIT());
#63=(LENGTH_UNIT()NAMED_UNIT(*)SI_UNIT(.MILLI.,.METRE.));
#65=UNCERTAINTY_MEASURE_WITH_UNIT(LENGTH_MEASURE(0.000001000000000),#63,'DISTANCE_ACCURACY_VALUE','');
#67=(GEOMETRIC_REPRESENTATION_CONTEXT(3)GLOBAL_UNCERTAINTY_ASSIGNED_CONTEXT((#65))GLOBAL_UNIT_ASSIGNED_CONTEXT((#55,#59,#63))REPRESENTATION_CONTEXT('','3D'));
#68=CARTESIAN_POINT('',(-1.799999999999999,-3.306546E-016,0.0));
#69=DIRECTION('',(1.0,1.836970E-016,0.0));
#70=DIRECTION('',(0.0,0.0,-1.0));
#71=AXIS2_PLACEMENT_3D('',#68,#69,#70);
#72=TOROIDAL_SURFACE('',#71,7.800000000000001,0.200000000000000);
#73=CARTESIAN_POINT('',(-2.000000000000000,7.800000000000001,0.0));
#74=VERTEX_POINT('',#73);
#75=CARTESIAN_POINT('',(-1.999999999999999,-3.673940E-016,0.0));
#76=DIRECTION('',(1.0,0.0,0.0));
#77=DIRECTION('',(0.0,-1.0,0.0));
#78=AXIS2_PLACEMENT_3D('',#75,#76,#77);
#79=CIRCLE('',#78,7.800000000000001);
#80=EDGE_CURVE('',#74,#74,#79,.T.);
#81=ORIENTED_EDGE('',*,*,#80,.T.);
#82=EDGE_LOOP('',(#81));
#83=FACE_OUTER_BOUND('',#82,.T.);
#84=CARTESIAN_POINT('',(-1.800000000000001,8.0,-1.959370E-015));
#85=VERTEX_POINT('',#84);
#86=CARTESIAN_POINT('',(-1.799999999999999,-3.306546E-016,0.0));
#87=DIRECTION('',(-1.0,0.0,0.0));
#88=DIRECTION('',(0.0,-1.0,0.0));
#89=AXIS2_PLACEMENT_3D('',#86,#87,#88);
#90=CIRCLE('',#89,8.0);
#91=EDGE_CURVE('',#85,#85,#90,.T.);
#92=ORIENTED_EDGE('',*,*,#91,.T.);
#93=EDGE_LOOP('',(#92));
#94=FACE_BOUND('',#93,.T.);
#95=ADVANCED_FACE('',(#83,#94),#72,.T.);
#96=CARTESIAN_POINT('',(1.000000000000002,1.836970E-016,0.0));
#97=DIRECTION('',(1.0,1.836970E-016,0.0));
#98=DIRECTION('',(0.0,1.0,0.0));
#99=AXIS2_PLACEMENT_3D('',#96,#97,#98);
#100=CYLINDRICAL_SURFACE('',#99,8.0);
#101=CARTESIAN_POINT('',(1.800000000000000,8.0,0.0));
#102=VERTEX_POINT('',#101);
#103=CARTESIAN_POINT('',(1.800000000000001,3.306546E-016,0.0));
#104=DIRECTION('',(1.0,0.0,0.0));
#105=DIRECTION('',(0.0,-1.0,0.0));
#106=AXIS2_PLACEMENT_3D('',#103,#104,#105);
#107=CIRCLE('',#106,8.0);
#108=EDGE_CURVE('',#102,#102,#107,.T.);
#109=ORIENTED_EDGE('',*,*,#108,.F.);
#110=EDGE_LOOP('',(#109));
#111=FACE_OUTER_BOUND('',#110,.T.);
#112=ORIENTED_EDGE('',*,*,#91,.F.);
#113=EDGE_LOOP('',(#112));
#114=FACE_BOUND('',#113,.T.);
#115=ADVANCED_FACE('',(#111,#114),#100,.T.);
#116=CARTESIAN_POINT('',(-2.000000000000000,7.828427124746192,0.0));
#117=DIRECTION('',(-1.0,0.0,0.0));
#118=DIRECTION('',(0.0,0.0,1.0));
#119=AXIS2_PLACEMENT_3D('',#116,#117,#118);
#120=PLANE('',#119);
#121=ORIENTED_EDGE('',*,*,#80,.F.);
#122=EDGE_LOOP('',(#121));
#123=FACE_OUTER_BOUND('',#122,.T.);
#124=CARTESIAN_POINT('',(-2.000000000000001,1.999999999999998,0.0));
#125=VERTEX_POINT('',#124);
#126=CARTESIAN_POINT('',(-2.000000000000001,-3.673940E-016,0.0));
#127=DIRECTION('',(1.0,0.0,0.0));
#128=DIRECTION('',(0.0,1.0,0.0));
#129=AXIS2_PLACEMENT_3D('',#126,#127,#128);
#130=CIRCLE('',#129,1.999999999999999);
#131=EDGE_CURVE('',#125,#125,#130,.T.);
#132=ORIENTED_EDGE('',*,*,#131,.T.);
#133=EDGE_LOOP('',(#132));
#134=FACE_BOUND('',#133,.T.);
#135=ADVANCED_FACE('',(#123,#134),#120,.T.);
#136=CARTESIAN_POINT('',(1.800000000000001,3.306546E-016,0.0));
#137=DIRECTION('',(1.0,1.836970E-016,0.0));
#138=DIRECTION('',(0.0,0.0,-1.0));
#139=AXIS2_PLACEMENT_3D('',#136,#137,#138);
#140=TOROIDAL_SURFACE('',#139,7.800000000000001,0.200000000000000);
#141=ORIENTED_EDGE('',*,*,#108,.T.);
#142=EDGE_LOOP('',(#141));
#143=FACE_OUTER_BOUND('',#142,.T.);
#144=CARTESIAN_POINT('',(2.0,7.800000000000001,-1.910386E-015));
#145=VERTEX_POINT('',#144);
#146=CARTESIAN_POINT('',(2.000000000000001,3.673940E-016,0.0));
#147=DIRECTION('',(-1.0,0.0,0.0));
#148=DIRECTION('',(0.0,-1.0,0.0));
#149=AXIS2_PLACEMENT_3D('',#146,#147,#148);
#150=CIRCLE('',#149,7.800000000000001);
#151=EDGE_CURVE('',#145,#145,#150,.T.);
#152=ORIENTED_EDGE('',*,*,#151,.T.);
#153=EDGE_LOOP('',(#152));
#154=FACE_BOUND('',#153,.T.);
#155=ADVANCED_FACE('',(#143,#154),#140,.T.);
#156=CARTESIAN_POINT('',(2.000000000000001,4.828427124746190,0.0));
#157=DIRECTION('',(1.0,0.0,0.0));
#158=DIRECTION('',(0.0,0.0,-1.0));
#159=AXIS2_PLACEMENT_3D('',#156,#157,#158);
#160=PLANE('',#159);
#161=ORIENTED_EDGE('',*,*,#151,.F.);
#162=EDGE_LOOP('',(#161));
#163=FACE_OUTER_BOUND('',#162,.T.);
#164=CARTESIAN_POINT('',(2.000000000000001,1.999999999999998,0.0));
#165=VERTEX_POINT('',#164);
#166=CARTESIAN_POINT('',(2.000000000000001,3.673940E-016,0.0));
#167=DIRECTION('',(1.0,0.0,0.0));
#168=DIRECTION('',(0.0,1.0,0.0));
#169=AXIS2_PLACEMENT_3D('',#166,#167,#168);
#170=CIRCLE('',#169,1.999999999999998);
#171=EDGE_CURVE('',#165,#165,#170,.T.);
#172=ORIENTED_EDGE('',*,*,#171,.F.);
#173=EDGE_LOOP('',(#172));
#174=FACE_BOUND('',#173,.T.);
#175=ADVANCED_FACE('',(#163,#174),#160,.T.);
#176=CARTESIAN_POINT('',(-1.000000000000000,-1.836970E-016,0.0));
#177=DIRECTION('',(1.0,1.836970E-016,0.0));
#178=DIRECTION('',(0.0,1.0,0.0));
#179=AXIS2_PLACEMENT_3D('',#176,#177,#178);
#180=CYLINDRICAL_SURFACE('',#179,1.999999999999999);
#181=ORIENTED_EDGE('',*,*,#171,.T.);
#182=EDGE_LOOP('',(#181));
#183=FACE_OUTER_BOUND('',#182,.T.);
#184=ORIENTED_EDGE('',*,*,#131,.F.);
#185=EDGE_LOOP('',(#184));
#186=FACE_BOUND('',#185,.T.);
#187=ADVANCED_FACE('',(#183,#186),#180,.F.);
#188=CLOSED_SHELL('',(#95,#115,#135,#155,#175,#187));
#189=MANIFOLD_SOLID_BREP('',#188);
#190=DRAUGHTING_PRE_DEFINED_COLOUR('green');
#191=FILL_AREA_STYLE_COLOUR('Green',#190);
#192=FILL_AREA_STYLE('Green',(#191));
#193=SURFACE_STYLE_FILL_AREA(#192);
#194=SURFACE_SIDE_STYLE('Green',(#193));
#195=SURFACE_STYLE_USAGE(.BOTH.,#194);
#196=PRESENTATION_STYLE_ASSIGNMENT((#195));
#197=STYLED_ITEM('',(#196),#189);
#198=MECHANICAL_DESIGN_GEOMETRIC_PRESENTATION_REPRESENTATION('',(#197),#36);
#199=ADVANCED_BREP_SHAPE_REPRESENTATION('ABSR',(#189),#36);
#200=SHAPE_REPRESENTATION_RELATIONSHIP('SRR','None',#199,#41);
ENDSEC;
END-ISO-10303-21;
