ISO-10303-21;
HEADER;
/****************************************************************
 * Generated by software with PDE/Lib inside                    *
 * PDElib Version v51a, created Thu 12/14/2006                  *
 * International Technegroup Inc. (www.iti-oh.com)              *
 ****************************************************************/
FILE_DESCRIPTION((''),'2;1');
FILE_NAME('D:\\THANG\\2018\\YouTube\\2F\\10FlushSlideDoor\\RollerBody.stp','2018-03-07T21:07:43',('Administrator'),(''),'Autodesk Inventor 2008','Autodesk Inventor 2008','');
FILE_SCHEMA(('AUTOMOTIVE_DESIGN { 1 0 10303 214 1 1 1 1 }'));
ENDSEC;
DATA;
#5=APPLICATION_CONTEXT('automotive design');
#6=APPLICATION_PROTOCOL_DEFINITION('International Standard','automotive_design',2001,#5);
#7=PRODUCT_CONTEXT('',#5,'mechanical');
#8=PRODUCT('RollerBody','RollerBody',$,(#7));
#9=PRODUCT_RELATED_PRODUCT_CATEGORY('part',$,(#8));
#10=PRODUCT_DEFINITION_FORMATION('',$,#8);
#11=PRODUCT_DEFINITION_CONTEXT('part definition',#5,'design');
#12=PRODUCT_DEFINITION('',$,#10,#11);
#18=(NAMED_UNIT(*)PLANE_ANGLE_UNIT()SI_UNIT($,.RADIAN.));
#19=DIMENSIONAL_EXPONENTS(0.0,0.0,0.0,0.0,0.0,0.0,0.0);
#20=PLANE_ANGLE_MEASURE_WITH_UNIT(PLANE_ANGLE_MEASURE(0.017453292500000),#18);
#24=(CONVERSION_BASED_UNIT('DEGREE',#20)NAMED_UNIT(#19)PLANE_ANGLE_UNIT());
#28=(NAMED_UNIT(*)SI_UNIT($,.STERADIAN.)SOLID_ANGLE_UNIT());
#32=(LENGTH_UNIT()NAMED_UNIT(*)SI_UNIT(.MILLI.,.METRE.));
#34=UNCERTAINTY_MEASURE_WITH_UNIT(LENGTH_MEASURE(0.010000000000000),#32,'DISTANCE_ACCURACY_VALUE','');
#36=(GEOMETRIC_REPRESENTATION_CONTEXT(3)GLOBAL_UNCERTAINTY_ASSIGNED_CONTEXT((#34))GLOBAL_UNIT_ASSIGNED_CONTEXT((#24,#28,#32))REPRESENTATION_CONTEXT('None','None'));
#37=AXIS2_PLACEMENT_3D('',#38,#39,#40);
#38=CARTESIAN_POINT('',(0.0,0.0,0.0));
#39=DIRECTION('',(0.0,0.0,1.0));
#40=DIRECTION('',(1.0,0.0,0.0));
#41=SHAPE_REPRESENTATION('',(#37),#36);
#42=PRODUCT_DEFINITION_SHAPE('','',#12);
#43=SHAPE_DEFINITION_REPRESENTATION(#42,#41);
#49=(NAMED_UNIT(*)PLANE_ANGLE_UNIT()SI_UNIT($,.RADIAN.));
#50=DIMENSIONAL_EXPONENTS(0.0,0.0,0.0,0.0,0.0,0.0,0.0);
#51=PLANE_ANGLE_MEASURE_WITH_UNIT(PLANE_ANGLE_MEASURE(0.017453292500000),#49);
#55=(CONVERSION_BASED_UNIT('DEGREE',#51)NAMED_UNIT(#50)PLANE_ANGLE_UNIT());
#59=(NAMED_UNIT(*)SI_UNIT($,.STERADIAN.)SOLID_ANGLE_UNIT());
#63=(LENGTH_UNIT()NAMED_UNIT(*)SI_UNIT(.MILLI.,.METRE.));
#65=UNCERTAINTY_MEASURE_WITH_UNIT(LENGTH_MEASURE(0.000001000000000),#63,'DISTANCE_ACCURACY_VALUE','');
#67=(GEOMETRIC_REPRESENTATION_CONTEXT(3)GLOBAL_UNCERTAINTY_ASSIGNED_CONTEXT((#65))GLOBAL_UNIT_ASSIGNED_CONTEXT((#55,#59,#63))REPRESENTATION_CONTEXT('','3D'));
#68=CARTESIAN_POINT('',(0.0,7.000000000000001,0.0));
#69=DIRECTION('',(0.0,1.0,0.0));
#70=DIRECTION('',(-1.0,0.0,0.0));
#71=AXIS2_PLACEMENT_3D('',#68,#69,#70);
#72=CYLINDRICAL_SURFACE('',#71,4.0);
#73=CARTESIAN_POINT('',(4.0,22.0,-4.898587E-016));
#74=VERTEX_POINT('',#73);
#75=CARTESIAN_POINT('',(0.0,22.0,0.0));
#76=DIRECTION('',(0.0,-1.0,0.0));
#77=DIRECTION('',(-1.0,0.0,0.0));
#78=AXIS2_PLACEMENT_3D('',#75,#76,#77);
#79=CIRCLE('',#78,4.0);
#80=EDGE_CURVE('',#74,#74,#79,.T.);
#81=ORIENTED_EDGE('',*,*,#80,.T.);
#82=EDGE_LOOP('',(#81));
#83=FACE_OUTER_BOUND('',#82,.T.);
#84=CARTESIAN_POINT('',(4.0,7.000000000000001,-4.898587E-016));
#85=VERTEX_POINT('',#84);
#86=CARTESIAN_POINT('',(0.0,7.000000000000001,0.0));
#87=DIRECTION('',(0.0,-1.0,0.0));
#88=DIRECTION('',(-1.0,0.0,0.0));
#89=AXIS2_PLACEMENT_3D('',#86,#87,#88);
#90=CIRCLE('',#89,4.0);
#91=EDGE_CURVE('',#85,#85,#90,.T.);
#92=ORIENTED_EDGE('',*,*,#91,.F.);
#93=EDGE_LOOP('',(#92));
#94=FACE_BOUND('',#93,.T.);
#95=ADVANCED_FACE('',(#83,#94),#72,.T.);
#96=CARTESIAN_POINT('',(0.0,22.0,0.0));
#97=DIRECTION('',(0.0,-1.0,0.0));
#98=DIRECTION('',(0.0,0.0,-1.0));
#99=AXIS2_PLACEMENT_3D('',#96,#97,#98);
#100=PLANE('',#99);
#101=ORIENTED_EDGE('',*,*,#80,.F.);
#102=EDGE_LOOP('',(#101));
#103=FACE_OUTER_BOUND('',#102,.T.);
#104=ADVANCED_FACE('',(#103),#100,.F.);
#105=CARTESIAN_POINT('',(-14.999999999999998,-4.000000000000002,9.0));
#106=DIRECTION('',(0.0,-1.0,0.0));
#107=DIRECTION('',(0.0,0.0,-1.0));
#108=AXIS2_PLACEMENT_3D('',#105,#106,#107);
#109=PLANE('',#108);
#110=CARTESIAN_POINT('',(-14.999999999999998,-4.000000000000002,-9.0));
#111=VERTEX_POINT('',#110);
#112=CARTESIAN_POINT('',(-5.0,-4.000000000000000,-9.0));
#113=VERTEX_POINT('',#112);
#114=CARTESIAN_POINT('',(-14.999999999999998,-4.000000000000002,-9.0));
#115=DIRECTION('',(1.0,0.0,0.0));
#116=VECTOR('',#115,9.999999999999998);
#117=LINE('',#114,#116);
#118=EDGE_CURVE('',#111,#113,#117,.T.);
#119=ORIENTED_EDGE('',*,*,#118,.F.);
#120=CARTESIAN_POINT('',(-14.999999999999998,-4.000000000000002,9.0));
#121=VERTEX_POINT('',#120);
#122=CARTESIAN_POINT('',(-14.999999999999998,-4.000000000000002,9.0));
#123=DIRECTION('',(0.0,0.0,-1.0));
#124=VECTOR('',#123,18.0);
#125=LINE('',#122,#124);
#126=EDGE_CURVE('',#121,#111,#125,.T.);
#127=ORIENTED_EDGE('',*,*,#126,.F.);
#128=CARTESIAN_POINT('',(-5.0,-4.000000000000000,9.0));
#129=VERTEX_POINT('',#128);
#130=CARTESIAN_POINT('',(-5.0,-4.000000000000000,9.0));
#131=DIRECTION('',(-1.0,0.0,0.0));
#132=VECTOR('',#131,9.999999999999998);
#133=LINE('',#130,#132);
#134=EDGE_CURVE('',#129,#121,#133,.T.);
#135=ORIENTED_EDGE('',*,*,#134,.F.);
#136=CARTESIAN_POINT('',(-5.0,-4.000000000000000,9.0));
#137=DIRECTION('',(0.0,0.0,-1.0));
#138=VECTOR('',#137,18.0);
#139=LINE('',#136,#138);
#140=EDGE_CURVE('',#129,#113,#139,.T.);
#141=ORIENTED_EDGE('',*,*,#140,.T.);
#142=EDGE_LOOP('',(#119,#127,#135,#141));
#143=FACE_OUTER_BOUND('',#142,.T.);
#144=ADVANCED_FACE('',(#143),#109,.F.);
#145=CARTESIAN_POINT('',(-5.0,-4.000000000000000,9.0));
#146=DIRECTION('',(1.0,0.0,0.0));
#147=DIRECTION('',(0.0,0.0,-1.0));
#148=AXIS2_PLACEMENT_3D('',#145,#146,#147);
#149=PLANE('',#148);
#150=CARTESIAN_POINT('',(-5.0,7.000000000000001,-9.0));
#151=VERTEX_POINT('',#150);
#152=CARTESIAN_POINT('',(-5.0,-4.000000000000000,-9.0));
#153=DIRECTION('',(0.0,1.0,0.0));
#154=VECTOR('',#153,11.0);
#155=LINE('',#152,#154);
#156=EDGE_CURVE('',#113,#151,#155,.T.);
#157=ORIENTED_EDGE('',*,*,#156,.F.);
#158=ORIENTED_EDGE('',*,*,#140,.F.);
#159=CARTESIAN_POINT('',(-5.0,7.000000000000001,9.0));
#160=VERTEX_POINT('',#159);
#161=CARTESIAN_POINT('',(-5.0,7.000000000000001,9.0));
#162=DIRECTION('',(0.0,-1.0,0.0));
#163=VECTOR('',#162,11.0);
#164=LINE('',#161,#163);
#165=EDGE_CURVE('',#160,#129,#164,.T.);
#166=ORIENTED_EDGE('',*,*,#165,.F.);
#167=CARTESIAN_POINT('',(-5.0,7.000000000000001,-9.0));
#168=DIRECTION('',(0.0,0.0,1.0));
#169=VECTOR('',#168,18.0);
#170=LINE('',#167,#169);
#171=EDGE_CURVE('',#151,#160,#170,.T.);
#172=ORIENTED_EDGE('',*,*,#171,.F.);
#173=EDGE_LOOP('',(#157,#158,#166,#172));
#174=FACE_OUTER_BOUND('',#173,.T.);
#175=ADVANCED_FACE('',(#174),#149,.F.);
#176=CARTESIAN_POINT('',(5.0,7.0,9.0));
#177=DIRECTION('',(-1.0,0.0,0.0));
#178=DIRECTION('',(0.0,0.0,1.0));
#179=AXIS2_PLACEMENT_3D('',#176,#177,#178);
#180=PLANE('',#179);
#181=CARTESIAN_POINT('',(5.0,7.0,-9.0));
#182=VERTEX_POINT('',#181);
#183=CARTESIAN_POINT('',(5.0,-4.0,-9.0));
#184=VERTEX_POINT('',#183);
#185=CARTESIAN_POINT('',(5.0,7.0,-9.0));
#186=DIRECTION('',(0.0,-1.0,0.0));
#187=VECTOR('',#186,11.0);
#188=LINE('',#185,#187);
#189=EDGE_CURVE('',#182,#184,#188,.T.);
#190=ORIENTED_EDGE('',*,*,#189,.F.);
#191=CARTESIAN_POINT('',(5.0,7.0,9.0));
#192=VERTEX_POINT('',#191);
#193=CARTESIAN_POINT('',(5.0,7.0,9.0));
#194=DIRECTION('',(0.0,0.0,-1.0));
#195=VECTOR('',#194,18.0);
#196=LINE('',#193,#195);
#197=EDGE_CURVE('',#192,#182,#196,.T.);
#198=ORIENTED_EDGE('',*,*,#197,.F.);
#199=CARTESIAN_POINT('',(5.0,-4.0,9.0));
#200=VERTEX_POINT('',#199);
#201=CARTESIAN_POINT('',(5.0,-4.0,9.0));
#202=DIRECTION('',(0.0,1.0,0.0));
#203=VECTOR('',#202,11.0);
#204=LINE('',#201,#203);
#205=EDGE_CURVE('',#200,#192,#204,.T.);
#206=ORIENTED_EDGE('',*,*,#205,.F.);
#207=CARTESIAN_POINT('',(5.0,-4.0,9.0));
#208=DIRECTION('',(0.0,0.0,-1.0));
#209=VECTOR('',#208,18.0);
#210=LINE('',#207,#209);
#211=EDGE_CURVE('',#200,#184,#210,.T.);
#212=ORIENTED_EDGE('',*,*,#211,.T.);
#213=EDGE_LOOP('',(#190,#198,#206,#212));
#214=FACE_OUTER_BOUND('',#213,.T.);
#215=ADVANCED_FACE('',(#214),#180,.F.);
#216=CARTESIAN_POINT('',(5.0,-4.0,9.0));
#217=DIRECTION('',(0.0,-1.0,0.0));
#218=DIRECTION('',(0.0,0.0,-1.0));
#219=AXIS2_PLACEMENT_3D('',#216,#217,#218);
#220=PLANE('',#219);
#221=CARTESIAN_POINT('',(15.000000000000004,-3.999999999999997,-9.0));
#222=VERTEX_POINT('',#221);
#223=CARTESIAN_POINT('',(5.0,-4.0,-9.0));
#224=DIRECTION('',(1.0,0.0,0.0));
#225=VECTOR('',#224,10.000000000000004);
#226=LINE('',#223,#225);
#227=EDGE_CURVE('',#184,#222,#226,.T.);
#228=ORIENTED_EDGE('',*,*,#227,.F.);
#229=ORIENTED_EDGE('',*,*,#211,.F.);
#230=CARTESIAN_POINT('',(15.000000000000004,-3.999999999999997,9.0));
#231=VERTEX_POINT('',#230);
#232=CARTESIAN_POINT('',(15.000000000000004,-3.999999999999997,9.0));
#233=DIRECTION('',(-1.0,0.0,0.0));
#234=VECTOR('',#233,10.000000000000004);
#235=LINE('',#232,#234);
#236=EDGE_CURVE('',#231,#200,#235,.T.);
#237=ORIENTED_EDGE('',*,*,#236,.F.);
#238=CARTESIAN_POINT('',(15.000000000000004,-3.999999999999997,-9.0));
#239=DIRECTION('',(0.0,0.0,1.0));
#240=VECTOR('',#239,18.0);
#241=LINE('',#238,#240);
#242=EDGE_CURVE('',#222,#231,#241,.T.);
#243=ORIENTED_EDGE('',*,*,#242,.F.);
#244=EDGE_LOOP('',(#228,#229,#237,#243));
#245=FACE_OUTER_BOUND('',#244,.T.);
#246=ADVANCED_FACE('',(#245),#220,.F.);
#247=CARTESIAN_POINT('',(-15.0,-7.000000000000001,0.0));
#248=DIRECTION('',(-1.0,0.0,0.0));
#249=DIRECTION('',(0.0,0.0,1.0));
#250=AXIS2_PLACEMENT_3D('',#247,#248,#249);
#251=PLANE('',#250);
#252=ORIENTED_EDGE('',*,*,#126,.T.);
#253=CARTESIAN_POINT('',(-15.0,-7.000000000000001,-9.0));
#254=VERTEX_POINT('',#253);
#255=CARTESIAN_POINT('',(-14.999999999999998,-4.000000000000002,-9.0));
#256=DIRECTION('',(0.0,-1.0,0.0));
#257=VECTOR('',#256,2.999999999999999);
#258=LINE('',#255,#257);
#259=EDGE_CURVE('',#111,#254,#258,.T.);
#260=ORIENTED_EDGE('',*,*,#259,.T.);
#261=CARTESIAN_POINT('',(-15.0,-7.000000000000001,9.0));
#262=VERTEX_POINT('',#261);
#263=CARTESIAN_POINT('',(-15.0,-7.000000000000001,9.0));
#264=DIRECTION('',(0.0,0.0,-1.0));
#265=VECTOR('',#264,18.0);
#266=LINE('',#263,#265);
#267=EDGE_CURVE('',#262,#254,#266,.T.);
#268=ORIENTED_EDGE('',*,*,#267,.F.);
#269=CARTESIAN_POINT('',(-15.0,-7.000000000000001,9.0));
#270=DIRECTION('',(0.0,1.0,0.0));
#271=VECTOR('',#270,2.999999999999999);
#272=LINE('',#269,#271);
#273=EDGE_CURVE('',#262,#121,#272,.T.);
#274=ORIENTED_EDGE('',*,*,#273,.T.);
#275=EDGE_LOOP('',(#252,#260,#268,#274));
#276=FACE_OUTER_BOUND('',#275,.T.);
#277=ADVANCED_FACE('',(#276),#251,.T.);
#278=CARTESIAN_POINT('',(0.0,0.0,9.0));
#279=DIRECTION('',(0.0,0.0,1.0));
#280=DIRECTION('',(1.0,0.0,0.0));
#281=AXIS2_PLACEMENT_3D('',#278,#279,#280);
#282=PLANE('',#281);
#283=ORIENTED_EDGE('',*,*,#165,.T.);
#284=ORIENTED_EDGE('',*,*,#134,.T.);
#285=ORIENTED_EDGE('',*,*,#273,.F.);
#286=CARTESIAN_POINT('',(15.0,-7.000000000000001,9.0));
#287=VERTEX_POINT('',#286);
#288=CARTESIAN_POINT('',(15.0,-7.000000000000001,9.0));
#289=DIRECTION('',(-1.0,0.0,0.0));
#290=VECTOR('',#289,30.0);
#291=LINE('',#288,#290);
#292=EDGE_CURVE('',#287,#262,#291,.T.);
#293=ORIENTED_EDGE('',*,*,#292,.F.);
#294=CARTESIAN_POINT('',(15.000000000000004,-3.999999999999997,9.0));
#295=DIRECTION('',(0.0,-1.0,0.0));
#296=VECTOR('',#295,3.000000000000004);
#297=LINE('',#294,#296);
#298=EDGE_CURVE('',#231,#287,#297,.T.);
#299=ORIENTED_EDGE('',*,*,#298,.F.);
#300=ORIENTED_EDGE('',*,*,#236,.T.);
#301=ORIENTED_EDGE('',*,*,#205,.T.);
#302=CARTESIAN_POINT('',(-5.0,7.000000000000001,9.0));
#303=DIRECTION('',(1.0,0.0,0.0));
#304=VECTOR('',#303,10.0);
#305=LINE('',#302,#304);
#306=EDGE_CURVE('',#160,#192,#305,.T.);
#307=ORIENTED_EDGE('',*,*,#306,.F.);
#308=EDGE_LOOP('',(#283,#284,#285,#293,#299,#300,#301,#307));
#309=FACE_OUTER_BOUND('',#308,.T.);
#310=CARTESIAN_POINT('',(0.0,-1.999999999999998,9.0));
#311=VERTEX_POINT('',#310);
#312=CARTESIAN_POINT('',(0.0,2.000000000000001,9.0));
#313=DIRECTION('',(0.0,0.0,-1.0));
#314=DIRECTION('',(0.0,-1.0,0.0));
#315=AXIS2_PLACEMENT_3D('',#312,#313,#314);
#316=CIRCLE('',#315,3.999999999999999);
#317=EDGE_CURVE('',#311,#311,#316,.T.);
#318=ORIENTED_EDGE('',*,*,#317,.T.);
#319=EDGE_LOOP('',(#318));
#320=FACE_BOUND('',#319,.T.);
#321=ADVANCED_FACE('',(#309,#320),#282,.T.);
#322=CARTESIAN_POINT('',(0.0,-7.000000000000001,0.0));
#323=DIRECTION('',(0.0,-1.0,0.0));
#324=DIRECTION('',(-1.0,0.0,0.0));
#325=AXIS2_PLACEMENT_3D('',#322,#323,#324);
#326=CYLINDRICAL_SURFACE('',#325,2.0);
#327=CARTESIAN_POINT('',(2.0,-15.0,2.449294E-016));
#328=VERTEX_POINT('',#327);
#329=CARTESIAN_POINT('',(0.0,-15.0,0.0));
#330=DIRECTION('',(0.0,1.0,0.0));
#331=DIRECTION('',(-1.0,0.0,0.0));
#332=AXIS2_PLACEMENT_3D('',#329,#330,#331);
#333=CIRCLE('',#332,2.0);
#334=EDGE_CURVE('',#328,#328,#333,.T.);
#335=ORIENTED_EDGE('',*,*,#334,.T.);
#336=EDGE_LOOP('',(#335));
#337=FACE_OUTER_BOUND('',#336,.T.);
#338=CARTESIAN_POINT('',(2.0,-7.000000000000001,2.449294E-016));
#339=VERTEX_POINT('',#338);
#340=CARTESIAN_POINT('',(0.0,-7.000000000000001,0.0));
#341=DIRECTION('',(0.0,1.0,0.0));
#342=DIRECTION('',(-1.0,0.0,0.0));
#343=AXIS2_PLACEMENT_3D('',#340,#341,#342);
#344=CIRCLE('',#343,2.0);
#345=EDGE_CURVE('',#339,#339,#344,.T.);
#346=ORIENTED_EDGE('',*,*,#345,.F.);
#347=EDGE_LOOP('',(#346));
#348=FACE_BOUND('',#347,.T.);
#349=ADVANCED_FACE('',(#337,#348),#326,.T.);
#350=CARTESIAN_POINT('',(0.0,-15.0,0.0));
#351=DIRECTION('',(0.0,1.0,0.0));
#352=DIRECTION('',(0.0,0.0,1.0));
#353=AXIS2_PLACEMENT_3D('',#350,#351,#352);
#354=PLANE('',#353);
#355=ORIENTED_EDGE('',*,*,#334,.F.);
#356=EDGE_LOOP('',(#355));
#357=FACE_OUTER_BOUND('',#356,.T.);
#358=ADVANCED_FACE('',(#357),#354,.F.);
#359=CARTESIAN_POINT('',(-4.898425E-016,6.0,-9.0));
#360=CARTESIAN_POINT('',(-4.898425E-016,6.0,-9.999999999999998));
#361=CARTESIAN_POINT('',(-3.999999999999999,5.999999999999998,-9.0));
#362=CARTESIAN_POINT('',(-3.999999999999999,5.999999999999998,-9.999999999999998));
#363=CARTESIAN_POINT('',(-3.999999999999999,2.000000000000000,-9.0));
#364=CARTESIAN_POINT('',(-3.999999999999999,2.000000000000000,-9.999999999999998));
#365=CARTESIAN_POINT('',(-3.999999999999997,-1.999999999999998,-9.0));
#366=CARTESIAN_POINT('',(-3.999999999999997,-1.999999999999998,-9.999999999999998));
#367=CARTESIAN_POINT('',(4.898425E-016,-1.999999999999998,-9.0));
#368=CARTESIAN_POINT('',(4.898425E-016,-1.999999999999998,-9.999999999999998));
#369=CARTESIAN_POINT('',(3.999999999999999,-1.999999999999997,-9.0));
#370=CARTESIAN_POINT('',(3.999999999999999,-1.999999999999997,-9.999999999999998));
#371=CARTESIAN_POINT('',(3.999999999999999,2.000000000000001,-9.0));
#372=CARTESIAN_POINT('',(3.999999999999999,2.000000000000001,-9.999999999999998));
#373=CARTESIAN_POINT('',(3.999999999999997,6.0,-9.0));
#374=CARTESIAN_POINT('',(3.999999999999997,6.0,-9.999999999999998));
#375=CARTESIAN_POINT('',(-4.898425E-016,6.0,-9.0));
#376=CARTESIAN_POINT('',(-4.898425E-016,6.0,-9.999999999999998));
#384=(BOUNDED_SURFACE()B_SPLINE_SURFACE(1,2,((#359,#361,#363,#365,#367,#369,#371,#373,#375),(#360,#362,#364,#366,#368,#370,#372,#374,#376)),.UNSPECIFIED.,.F.,.T.,.U.)B_SPLINE_SURFACE_WITH_KNOTS((2,2),(3,2,2,2,3),(-0.125000000000000,0.125000000000000),(0.0,6.283185307179585,12.566370614359169,18.849555921538755,25.132741228718338),.UNSPECIFIED.)GEOMETRIC_REPRESENTATION_ITEM()RATIONAL_B_SPLINE_SURFACE(((1.0,0.707106781186548,1.0,0.707106781186548,1.0,0.707106781186548,1.0,0.707106781186548,1.0),(1.0,0.707106781186548,1.0,0.707106781186548,1.0,0.707106781186548,1.0,0.707106781186548,1.0)))REPRESENTATION_ITEM('')SURFACE());
#385=CARTESIAN_POINT('',(0.0,-1.999999999999999,-9.999999999999998));
#386=VERTEX_POINT('',#385);
#387=CARTESIAN_POINT('',(0.0,2.000000000000001,-9.999999999999998));
#388=DIRECTION('',(0.0,0.0,1.0));
#389=DIRECTION('',(0.0,-1.0,0.0));
#390=AXIS2_PLACEMENT_3D('',#387,#388,#389);
#391=CIRCLE('',#390,4.000000000000000);
#392=EDGE_CURVE('',#386,#386,#391,.T.);
#393=ORIENTED_EDGE('',*,*,#392,.T.);
#394=EDGE_LOOP('',(#393));
#395=FACE_OUTER_BOUND('',#394,.T.);
#396=CARTESIAN_POINT('',(0.0,-1.999999999999998,-9.0));
#397=VERTEX_POINT('',#396);
#398=CARTESIAN_POINT('',(0.0,2.000000000000001,-9.0));
#399=DIRECTION('',(0.0,0.0,1.0));
#400=DIRECTION('',(0.0,-1.0,0.0));
#401=AXIS2_PLACEMENT_3D('',#398,#399,#400);
#402=CIRCLE('',#401,3.999999999999999);
#403=EDGE_CURVE('',#397,#397,#402,.T.);
#404=ORIENTED_EDGE('',*,*,#403,.F.);
#405=EDGE_LOOP('',(#404));
#406=FACE_BOUND('',#405,.T.);
#407=ADVANCED_FACE('',(#395,#406),#384,.T.);
#408=CARTESIAN_POINT('',(-4.000000000000000,5.999999999999999,-10.0));
#409=CARTESIAN_POINT('',(4.000000000000000,5.999999999999999,-10.0));
#410=CARTESIAN_POINT('',(-4.000000000000000,-1.999999999999999,-9.999999999999998));
#411=CARTESIAN_POINT('',(4.000000000000000,-1.999999999999999,-10.0));
#412=B_SPLINE_SURFACE_WITH_KNOTS('',1,1,((#408,#410),(#409,#411)),.UNSPECIFIED.,.F.,.F.,.U.,(2,2),(2,2),(0.0,7.999999999999999),(0.0,7.999999999999998),.UNSPECIFIED.);
#413=ORIENTED_EDGE('',*,*,#392,.F.);
#414=EDGE_LOOP('',(#413));
#415=FACE_OUTER_BOUND('',#414,.T.);
#416=CARTESIAN_POINT('',(0.0,-0.999999999999999,-9.999999999999998));
#417=VERTEX_POINT('',#416);
#418=CARTESIAN_POINT('',(0.0,2.000000000000001,-9.999999999999998));
#419=DIRECTION('',(0.0,0.0,1.0));
#420=DIRECTION('',(0.0,-1.0,0.0));
#421=AXIS2_PLACEMENT_3D('',#418,#419,#420);
#422=CIRCLE('',#421,2.999999999999999);
#423=EDGE_CURVE('',#417,#417,#422,.T.);
#424=ORIENTED_EDGE('',*,*,#423,.T.);
#425=EDGE_LOOP('',(#424));
#426=FACE_BOUND('',#425,.T.);
#427=ADVANCED_FACE('',(#415,#426),#412,.T.);
#428=CARTESIAN_POINT('',(-3.673819E-016,5.0,-9.999999999999998));
#429=CARTESIAN_POINT('',(-3.673819E-016,5.0,-15.999999999999998));
#430=CARTESIAN_POINT('',(-3.000000000000000,4.999999999999999,-9.999999999999998));
#431=CARTESIAN_POINT('',(-3.0,4.999999999999998,-15.999999999999998));
#432=CARTESIAN_POINT('',(-3.000000000000000,2.0,-9.999999999999998));
#433=CARTESIAN_POINT('',(-3.000000000000000,1.999999999999999,-15.999999999999998));
#434=CARTESIAN_POINT('',(-2.999999999999999,-0.999999999999999,-9.999999999999998));
#435=CARTESIAN_POINT('',(-2.999999999999999,-1.000000000000000,-15.999999999999998));
#436=CARTESIAN_POINT('',(3.673819E-016,-0.999999999999999,-9.999999999999998));
#437=CARTESIAN_POINT('',(3.673819E-016,-1.000000000000001,-15.999999999999998));
#438=CARTESIAN_POINT('',(3.000000000000000,-0.999999999999998,-9.999999999999998));
#439=CARTESIAN_POINT('',(3.0,-1.000000000000000,-15.999999999999998));
#440=CARTESIAN_POINT('',(3.000000000000000,2.000000000000001,-9.999999999999998));
#441=CARTESIAN_POINT('',(3.000000000000000,2.0,-15.999999999999998));
#442=CARTESIAN_POINT('',(2.999999999999999,5.0,-9.999999999999998));
#443=CARTESIAN_POINT('',(2.999999999999999,5.0,-15.999999999999998));
#444=CARTESIAN_POINT('',(-3.673819E-016,5.0,-9.999999999999998));
#445=CARTESIAN_POINT('',(-3.673819E-016,5.0,-15.999999999999998));
#453=(BOUNDED_SURFACE()B_SPLINE_SURFACE(1,2,((#428,#430,#432,#434,#436,#438,#440,#442,#444),(#429,#431,#433,#435,#437,#439,#441,#443,#445)),.UNSPECIFIED.,.F.,.T.,.U.)B_SPLINE_SURFACE_WITH_KNOTS((2,2),(3,2,2,2,3),(-1.0,1.0),(0.0,4.712388980384690,9.424777960769379,14.137166941154069,18.849555921538759),.UNSPECIFIED.)GEOMETRIC_REPRESENTATION_ITEM()RATIONAL_B_SPLINE_SURFACE(((1.0,0.707106781186548,1.0,0.707106781186548,1.0,0.707106781186548,1.0,0.707106781186548,1.0),(1.0,0.707106781186548,1.0,0.707106781186548,1.0,0.707106781186548,1.0,0.707106781186548,1.0)))REPRESENTATION_ITEM('')SURFACE());
#454=CARTESIAN_POINT('',(0.0,-1.000000000000001,-15.999999999999998));
#455=VERTEX_POINT('',#454);
#456=CARTESIAN_POINT('',(0.0,2.000000000000000,-15.999999999999998));
#457=DIRECTION('',(0.0,0.0,1.0));
#458=DIRECTION('',(0.0,-1.0,0.0));
#459=AXIS2_PLACEMENT_3D('',#456,#457,#458);
#460=CIRCLE('',#459,3.000000000000000);
#461=EDGE_CURVE('',#455,#455,#460,.T.);
#462=ORIENTED_EDGE('',*,*,#461,.T.);
#463=EDGE_LOOP('',(#462));
#464=FACE_OUTER_BOUND('',#463,.T.);
#465=ORIENTED_EDGE('',*,*,#423,.F.);
#466=EDGE_LOOP('',(#465));
#467=FACE_BOUND('',#466,.T.);
#468=ADVANCED_FACE('',(#464,#467),#453,.T.);
#469=CARTESIAN_POINT('',(-3.000000000000000,5.0,-16.0));
#470=CARTESIAN_POINT('',(3.000000000000000,5.0,-16.0));
#471=CARTESIAN_POINT('',(-3.000000000000000,-1.0,-16.0));
#472=CARTESIAN_POINT('',(3.000000000000000,-1.0,-16.0));
#473=B_SPLINE_SURFACE_WITH_KNOTS('',1,1,((#469,#471),(#470,#472)),.UNSPECIFIED.,.F.,.F.,.U.,(2,2),(2,2),(0.0,6.000000000000001),(0.0,6.0),.UNSPECIFIED.);
#474=ORIENTED_EDGE('',*,*,#461,.F.);
#475=EDGE_LOOP('',(#474));
#476=FACE_OUTER_BOUND('',#475,.T.);
#477=ADVANCED_FACE('',(#476),#473,.T.);
#478=CARTESIAN_POINT('',(-12.0,-8.0,3.575590E-015));
#479=CARTESIAN_POINT('',(-12.0,-12.000000000000002,3.575590E-015));
#480=CARTESIAN_POINT('',(-12.0,-8.0,2.000000000000003));
#481=CARTESIAN_POINT('',(-12.0,-12.0,2.000000000000003));
#482=CARTESIAN_POINT('',(-10.0,-8.0,2.000000000000004));
#483=CARTESIAN_POINT('',(-10.0,-12.000000000000002,2.000000000000004));
#484=CARTESIAN_POINT('',(-8.0,-8.0,2.000000000000002));
#485=CARTESIAN_POINT('',(-8.0,-12.0,2.000000000000002));
#486=CARTESIAN_POINT('',(-8.0,-8.0,3.085748E-015));
#487=CARTESIAN_POINT('',(-8.0,-12.000000000000002,3.085748E-015));
#488=CARTESIAN_POINT('',(-8.0,-8.0,-1.999999999999996));
#489=CARTESIAN_POINT('',(-8.0,-12.0,-1.999999999999996));
#490=CARTESIAN_POINT('',(-10.0,-8.0,-1.999999999999997));
#491=CARTESIAN_POINT('',(-10.0,-12.000000000000002,-1.999999999999997));
#492=CARTESIAN_POINT('',(-12.0,-8.0,-1.999999999999996));
#493=CARTESIAN_POINT('',(-12.0,-12.0,-1.999999999999996));
#494=CARTESIAN_POINT('',(-12.0,-8.0,3.575590E-015));
#495=CARTESIAN_POINT('',(-12.0,-12.000000000000002,3.575590E-015));
#503=(BOUNDED_SURFACE()B_SPLINE_SURFACE(1,2,((#478,#480,#482,#484,#486,#488,#490,#492,#494),(#479,#481,#483,#485,#487,#489,#491,#493,#495)),.UNSPECIFIED.,.F.,.T.,.U.)B_SPLINE_SURFACE_WITH_KNOTS((2,2),(3,2,2,2,3),(0.0,2.000000000000001),(0.0,3.141592653589793,6.283185307179586,9.424777960769379,12.566370614359172),.UNSPECIFIED.)GEOMETRIC_REPRESENTATION_ITEM()RATIONAL_B_SPLINE_SURFACE(((1.0,0.707106781186548,1.0,0.707106781186548,1.0,0.707106781186548,1.0,0.707106781186548,1.0),(1.0,0.707106781186548,1.0,0.707106781186548,1.0,0.707106781186548,1.0,0.707106781186548,1.0)))REPRESENTATION_ITEM('')SURFACE());
#504=CARTESIAN_POINT('',(-12.0,-12.000000000000002,3.575598E-015));
#505=VERTEX_POINT('',#504);
#506=CARTESIAN_POINT('',(-10.0,-12.000000000000002,3.330669E-015));
#507=DIRECTION('',(0.0,-1.0,0.0));
#508=DIRECTION('',(1.0,0.0,0.0));
#509=AXIS2_PLACEMENT_3D('',#506,#507,#508);
#510=CIRCLE('',#509,2.0);
#511=EDGE_CURVE('',#505,#505,#510,.T.);
#512=ORIENTED_EDGE('',*,*,#511,.F.);
#513=EDGE_LOOP('',(#512));
#514=FACE_OUTER_BOUND('',#513,.T.);
#515=CARTESIAN_POINT('',(-12.0,-8.0,3.575598E-015));
#516=VERTEX_POINT('',#515);
#517=CARTESIAN_POINT('',(-10.0,-8.0,3.330669E-015));
#518=DIRECTION('',(0.0,-1.0,0.0));
#519=DIRECTION('',(1.0,0.0,0.0));
#520=AXIS2_PLACEMENT_3D('',#517,#518,#519);
#521=CIRCLE('',#520,2.0);
#522=EDGE_CURVE('',#516,#516,#521,.T.);
#523=ORIENTED_EDGE('',*,*,#522,.T.);
#524=EDGE_LOOP('',(#523));
#525=FACE_BOUND('',#524,.T.);
#526=ADVANCED_FACE('',(#514,#525),#503,.T.);
#527=CARTESIAN_POINT('',(-12.0,-12.000000000000002,-1.999999999999997));
#528=CARTESIAN_POINT('',(-12.0,-12.000000000000002,2.000000000000004));
#529=CARTESIAN_POINT('',(-8.0,-12.000000000000002,-1.999999999999997));
#530=CARTESIAN_POINT('',(-8.0,-12.000000000000002,2.000000000000004));
#531=B_SPLINE_SURFACE_WITH_KNOTS('',1,1,((#527,#529),(#528,#530)),.UNSPECIFIED.,.F.,.F.,.U.,(2,2),(2,2),(0.0,4.0),(0.0,4.0),.UNSPECIFIED.);
#532=ORIENTED_EDGE('',*,*,#511,.T.);
#533=EDGE_LOOP('',(#532));
#534=FACE_OUTER_BOUND('',#533,.T.);
#535=ADVANCED_FACE('',(#534),#531,.F.);
#536=CARTESIAN_POINT('',(-13.0,-7.000000000000001,3.698051E-015));
#537=CARTESIAN_POINT('',(-13.0,-8.0,3.698051E-015));
#538=CARTESIAN_POINT('',(-13.000000000000002,-7.000000000000001,3.000000000000003));
#539=CARTESIAN_POINT('',(-13.000000000000002,-8.0,3.000000000000003));
#540=CARTESIAN_POINT('',(-10.0,-7.000000000000001,3.000000000000004));
#541=CARTESIAN_POINT('',(-10.0,-8.0,3.000000000000004));
#542=CARTESIAN_POINT('',(-7.000000000000001,-7.000000000000001,3.000000000000002));
#543=CARTESIAN_POINT('',(-7.000000000000001,-8.0,3.000000000000002));
#544=CARTESIAN_POINT('',(-7.0,-7.000000000000001,2.963287E-015));
#545=CARTESIAN_POINT('',(-7.0,-8.0,2.963287E-015));
#546=CARTESIAN_POINT('',(-7.000000000000001,-7.000000000000001,-2.999999999999996));
#547=CARTESIAN_POINT('',(-7.000000000000001,-8.0,-2.999999999999996));
#548=CARTESIAN_POINT('',(-10.0,-7.000000000000001,-2.999999999999996));
#549=CARTESIAN_POINT('',(-10.0,-8.0,-2.999999999999996));
#550=CARTESIAN_POINT('',(-13.000000000000002,-7.000000000000001,-2.999999999999995));
#551=CARTESIAN_POINT('',(-13.000000000000002,-8.0,-2.999999999999995));
#552=CARTESIAN_POINT('',(-13.0,-7.000000000000001,3.698051E-015));
#553=CARTESIAN_POINT('',(-13.0,-8.0,3.698051E-015));
#561=(BOUNDED_SURFACE()B_SPLINE_SURFACE(1,2,((#536,#538,#540,#542,#544,#546,#548,#550,#552),(#537,#539,#541,#543,#545,#547,#549,#551,#553)),.UNSPECIFIED.,.F.,.T.,.U.)B_SPLINE_SURFACE_WITH_KNOTS((2,2),(3,2,2,2,3),(0.0,0.333333333333333),(0.0,4.712388980384691,9.424777960769381,14.137166941154071,18.849555921538762),.UNSPECIFIED.)GEOMETRIC_REPRESENTATION_ITEM()RATIONAL_B_SPLINE_SURFACE(((1.0,0.707106781186548,1.0,0.707106781186548,1.0,0.707106781186548,1.0,0.707106781186548,1.0),(1.0,0.707106781186548,1.0,0.707106781186548,1.0,0.707106781186548,1.0,0.707106781186548,1.0)))REPRESENTATION_ITEM('')SURFACE());
#562=CARTESIAN_POINT('',(-13.0,-8.0,3.698063E-015));
#563=VERTEX_POINT('',#562);
#564=CARTESIAN_POINT('',(-10.0,-8.0,3.330669E-015));
#565=DIRECTION('',(0.0,-1.0,0.0));
#566=DIRECTION('',(1.0,0.0,0.0));
#567=AXIS2_PLACEMENT_3D('',#564,#565,#566);
#568=CIRCLE('',#567,3.000000000000000);
#569=EDGE_CURVE('',#563,#563,#568,.T.);
#570=ORIENTED_EDGE('',*,*,#569,.F.);
#571=EDGE_LOOP('',(#570));
#572=FACE_OUTER_BOUND('',#571,.T.);
#573=CARTESIAN_POINT('',(-13.0,-7.000000000000001,3.698063E-015));
#574=VERTEX_POINT('',#573);
#575=CARTESIAN_POINT('',(-10.0,-7.000000000000001,3.330669E-015));
#576=DIRECTION('',(0.0,1.0,0.0));
#577=DIRECTION('',(1.0,0.0,0.0));
#578=AXIS2_PLACEMENT_3D('',#575,#576,#577);
#579=CIRCLE('',#578,3.000000000000000);
#580=EDGE_CURVE('',#574,#574,#579,.T.);
#581=ORIENTED_EDGE('',*,*,#580,.F.);
#582=EDGE_LOOP('',(#581));
#583=FACE_BOUND('',#582,.T.);
#584=ADVANCED_FACE('',(#572,#583),#561,.T.);
#585=CARTESIAN_POINT('',(-13.0,-8.0,-2.999999999999997));
#586=CARTESIAN_POINT('',(-13.0,-8.0,3.000000000000004));
#587=CARTESIAN_POINT('',(-7.0,-8.0,-2.999999999999997));
#588=CARTESIAN_POINT('',(-7.0,-8.0,3.000000000000004));
#589=B_SPLINE_SURFACE_WITH_KNOTS('',1,1,((#585,#587),(#586,#588)),.UNSPECIFIED.,.F.,.F.,.U.,(2,2),(2,2),(0.0,6.000000000000001),(0.0,6.0),.UNSPECIFIED.);
#590=ORIENTED_EDGE('',*,*,#569,.T.);
#591=EDGE_LOOP('',(#590));
#592=FACE_OUTER_BOUND('',#591,.T.);
#593=ORIENTED_EDGE('',*,*,#522,.F.);
#594=EDGE_LOOP('',(#593));
#595=FACE_BOUND('',#594,.T.);
#596=ADVANCED_FACE('',(#592,#595),#589,.F.);
#597=CARTESIAN_POINT('',(10.0,-8.0,3.330669E-015));
#598=DIRECTION('',(0.0,-1.0,0.0));
#599=DIRECTION('',(-1.0,0.0,0.0));
#600=AXIS2_PLACEMENT_3D('',#597,#598,#599);
#601=CYLINDRICAL_SURFACE('',#600,2.0);
#602=CARTESIAN_POINT('',(12.0,-12.000000000000002,3.575598E-015));
#603=VERTEX_POINT('',#602);
#604=CARTESIAN_POINT('',(10.0,-12.000000000000002,3.330669E-015));
#605=DIRECTION('',(0.0,1.0,0.0));
#606=DIRECTION('',(-1.0,0.0,0.0));
#607=AXIS2_PLACEMENT_3D('',#604,#605,#606);
#608=CIRCLE('',#607,2.0);
#609=EDGE_CURVE('',#603,#603,#608,.T.);
#610=ORIENTED_EDGE('',*,*,#609,.T.);
#611=EDGE_LOOP('',(#610));
#612=FACE_OUTER_BOUND('',#611,.T.);
#613=CARTESIAN_POINT('',(12.0,-8.0,3.575598E-015));
#614=VERTEX_POINT('',#613);
#615=CARTESIAN_POINT('',(10.0,-8.0,3.330669E-015));
#616=DIRECTION('',(0.0,1.0,0.0));
#617=DIRECTION('',(-1.0,0.0,0.0));
#618=AXIS2_PLACEMENT_3D('',#615,#616,#617);
#619=CIRCLE('',#618,2.0);
#620=EDGE_CURVE('',#614,#614,#619,.T.);
#621=ORIENTED_EDGE('',*,*,#620,.F.);
#622=EDGE_LOOP('',(#621));
#623=FACE_BOUND('',#622,.T.);
#624=ADVANCED_FACE('',(#612,#623),#601,.T.);
#625=CARTESIAN_POINT('',(10.0,-12.000000000000002,3.330669E-015));
#626=DIRECTION('',(0.0,1.0,0.0));
#627=DIRECTION('',(0.0,0.0,1.0));
#628=AXIS2_PLACEMENT_3D('',#625,#626,#627);
#629=PLANE('',#628);
#630=ORIENTED_EDGE('',*,*,#609,.F.);
#631=EDGE_LOOP('',(#630));
#632=FACE_OUTER_BOUND('',#631,.T.);
#633=ADVANCED_FACE('',(#632),#629,.F.);
#634=CARTESIAN_POINT('',(10.0,-7.000000000000001,3.330669E-015));
#635=DIRECTION('',(0.0,-1.0,0.0));
#636=DIRECTION('',(-1.0,0.0,0.0));
#637=AXIS2_PLACEMENT_3D('',#634,#635,#636);
#638=CYLINDRICAL_SURFACE('',#637,3.000000000000000);
#639=CARTESIAN_POINT('',(13.0,-8.0,3.698063E-015));
#640=VERTEX_POINT('',#639);
#641=CARTESIAN_POINT('',(10.0,-8.0,3.330669E-015));
#642=DIRECTION('',(0.0,1.0,0.0));
#643=DIRECTION('',(-1.0,0.0,0.0));
#644=AXIS2_PLACEMENT_3D('',#641,#642,#643);
#645=CIRCLE('',#644,3.000000000000000);
#646=EDGE_CURVE('',#640,#640,#645,.T.);
#647=ORIENTED_EDGE('',*,*,#646,.T.);
#648=EDGE_LOOP('',(#647));
#649=FACE_OUTER_BOUND('',#648,.T.);
#650=CARTESIAN_POINT('',(13.0,-7.000000000000001,3.698063E-015));
#651=VERTEX_POINT('',#650);
#652=CARTESIAN_POINT('',(10.0,-7.000000000000001,3.330669E-015));
#653=DIRECTION('',(0.0,1.0,0.0));
#654=DIRECTION('',(-1.0,0.0,0.0));
#655=AXIS2_PLACEMENT_3D('',#652,#653,#654);
#656=CIRCLE('',#655,3.000000000000000);
#657=EDGE_CURVE('',#651,#651,#656,.T.);
#658=ORIENTED_EDGE('',*,*,#657,.F.);
#659=EDGE_LOOP('',(#658));
#660=FACE_BOUND('',#659,.T.);
#661=ADVANCED_FACE('',(#649,#660),#638,.T.);
#662=CARTESIAN_POINT('',(10.0,-8.0,3.330669E-015));
#663=DIRECTION('',(0.0,1.0,0.0));
#664=DIRECTION('',(0.0,0.0,1.0));
#665=AXIS2_PLACEMENT_3D('',#662,#663,#664);
#666=PLANE('',#665);
#667=ORIENTED_EDGE('',*,*,#646,.F.);
#668=EDGE_LOOP('',(#667));
#669=FACE_OUTER_BOUND('',#668,.T.);
#670=ORIENTED_EDGE('',*,*,#620,.T.);
#671=EDGE_LOOP('',(#670));
#672=FACE_BOUND('',#671,.T.);
#673=ADVANCED_FACE('',(#669,#672),#666,.F.);
#674=CARTESIAN_POINT('',(0.0,2.000000000000001,9.499999999999998));
#675=DIRECTION('',(0.0,-1.189525E-016,1.0));
#676=DIRECTION('',(0.0,-1.0,0.0));
#677=AXIS2_PLACEMENT_3D('',#674,#675,#676);
#678=CYLINDRICAL_SURFACE('',#677,3.999999999999999);
#679=CARTESIAN_POINT('',(0.0,-1.999999999999999,9.999999999999998));
#680=VERTEX_POINT('',#679);
#681=CARTESIAN_POINT('',(0.0,2.000000000000001,9.999999999999998));
#682=DIRECTION('',(0.0,0.0,1.0));
#683=DIRECTION('',(0.0,-1.0,0.0));
#684=AXIS2_PLACEMENT_3D('',#681,#682,#683);
#685=CIRCLE('',#684,4.000000000000000);
#686=EDGE_CURVE('',#680,#680,#685,.T.);
#687=ORIENTED_EDGE('',*,*,#686,.F.);
#688=EDGE_LOOP('',(#687));
#689=FACE_OUTER_BOUND('',#688,.T.);
#690=ORIENTED_EDGE('',*,*,#317,.F.);
#691=EDGE_LOOP('',(#690));
#692=FACE_BOUND('',#691,.T.);
#693=ADVANCED_FACE('',(#689,#692),#678,.T.);
#694=CARTESIAN_POINT('',(0.0,-1.499999999999999,9.999999999999998));
#695=DIRECTION('',(0.0,0.0,1.0));
#696=DIRECTION('',(1.0,0.0,0.0));
#697=AXIS2_PLACEMENT_3D('',#694,#695,#696);
#698=PLANE('',#697);
#699=ORIENTED_EDGE('',*,*,#686,.T.);
#700=EDGE_LOOP('',(#699));
#701=FACE_OUTER_BOUND('',#700,.T.);
#702=CARTESIAN_POINT('',(0.0,-0.999999999999999,9.999999999999998));
#703=VERTEX_POINT('',#702);
#704=CARTESIAN_POINT('',(0.0,2.000000000000001,9.999999999999998));
#705=DIRECTION('',(0.0,0.0,1.0));
#706=DIRECTION('',(0.0,-1.0,0.0));
#707=AXIS2_PLACEMENT_3D('',#704,#705,#706);
#708=CIRCLE('',#707,2.999999999999999);
#709=EDGE_CURVE('',#703,#703,#708,.T.);
#710=ORIENTED_EDGE('',*,*,#709,.F.);
#711=EDGE_LOOP('',(#710));
#712=FACE_BOUND('',#711,.T.);
#713=ADVANCED_FACE('',(#701,#712),#698,.T.);
#714=CARTESIAN_POINT('',(0.0,2.0,12.999999999999998));
#715=DIRECTION('',(0.0,-1.189525E-016,1.0));
#716=DIRECTION('',(0.0,-1.0,0.0));
#717=AXIS2_PLACEMENT_3D('',#714,#715,#716);
#718=CYLINDRICAL_SURFACE('',#717,3.0);
#719=CARTESIAN_POINT('',(0.0,-1.000000000000001,15.999999999999998));
#720=VERTEX_POINT('',#719);
#721=CARTESIAN_POINT('',(0.0,2.000000000000000,15.999999999999998));
#722=DIRECTION('',(0.0,0.0,1.0));
#723=DIRECTION('',(0.0,-1.0,0.0));
#724=AXIS2_PLACEMENT_3D('',#721,#722,#723);
#725=CIRCLE('',#724,3.000000000000000);
#726=EDGE_CURVE('',#720,#720,#725,.T.);
#727=ORIENTED_EDGE('',*,*,#726,.F.);
#728=EDGE_LOOP('',(#727));
#729=FACE_OUTER_BOUND('',#728,.T.);
#730=ORIENTED_EDGE('',*,*,#709,.T.);
#731=EDGE_LOOP('',(#730));
#732=FACE_BOUND('',#731,.T.);
#733=ADVANCED_FACE('',(#729,#732),#718,.T.);
#734=CARTESIAN_POINT('',(0.0,0.500000000000000,16.0));
#735=DIRECTION('',(0.0,0.0,1.0));
#736=DIRECTION('',(1.0,0.0,0.0));
#737=AXIS2_PLACEMENT_3D('',#734,#735,#736);
#738=PLANE('',#737);
#739=ORIENTED_EDGE('',*,*,#726,.T.);
#740=EDGE_LOOP('',(#739));
#741=FACE_OUTER_BOUND('',#740,.T.);
#742=ADVANCED_FACE('',(#741),#738,.T.);
#743=CARTESIAN_POINT('',(-2.775558E-016,-1.387779E-016,-9.0));
#744=DIRECTION('',(0.0,0.0,1.0));
#745=DIRECTION('',(1.0,0.0,0.0));
#746=AXIS2_PLACEMENT_3D('',#743,#744,#745);
#747=PLANE('',#746);
#748=ORIENTED_EDGE('',*,*,#156,.T.);
#749=CARTESIAN_POINT('',(5.0,7.0,-9.0));
#750=DIRECTION('',(-1.0,0.0,0.0));
#751=VECTOR('',#750,10.0);
#752=LINE('',#749,#751);
#753=EDGE_CURVE('',#182,#151,#752,.T.);
#754=ORIENTED_EDGE('',*,*,#753,.F.);
#755=ORIENTED_EDGE('',*,*,#189,.T.);
#756=ORIENTED_EDGE('',*,*,#227,.T.);
#757=CARTESIAN_POINT('',(15.0,-7.000000000000001,-9.0));
#758=VERTEX_POINT('',#757);
#759=CARTESIAN_POINT('',(15.0,-7.000000000000001,-9.0));
#760=DIRECTION('',(0.0,1.0,0.0));
#761=VECTOR('',#760,3.000000000000004);
#762=LINE('',#759,#761);
#763=EDGE_CURVE('',#758,#222,#762,.T.);
#764=ORIENTED_EDGE('',*,*,#763,.F.);
#765=CARTESIAN_POINT('',(-15.0,-7.000000000000001,-9.0));
#766=DIRECTION('',(1.0,0.0,0.0));
#767=VECTOR('',#766,30.0);
#768=LINE('',#765,#767);
#769=EDGE_CURVE('',#254,#758,#768,.T.);
#770=ORIENTED_EDGE('',*,*,#769,.F.);
#771=ORIENTED_EDGE('',*,*,#259,.F.);
#772=ORIENTED_EDGE('',*,*,#118,.T.);
#773=EDGE_LOOP('',(#748,#754,#755,#756,#764,#770,#771,#772));
#774=FACE_OUTER_BOUND('',#773,.T.);
#775=ORIENTED_EDGE('',*,*,#403,.T.);
#776=EDGE_LOOP('',(#775));
#777=FACE_BOUND('',#776,.T.);
#778=ADVANCED_FACE('',(#774,#777),#747,.F.);
#779=CARTESIAN_POINT('',(15.0,0.0,0.0));
#780=DIRECTION('',(1.0,0.0,0.0));
#781=DIRECTION('',(0.0,0.0,-1.0));
#782=AXIS2_PLACEMENT_3D('',#779,#780,#781);
#783=PLANE('',#782);
#784=ORIENTED_EDGE('',*,*,#242,.T.);
#785=ORIENTED_EDGE('',*,*,#298,.T.);
#786=CARTESIAN_POINT('',(15.0,-7.000000000000001,9.0));
#787=DIRECTION('',(0.0,0.0,-1.0));
#788=VECTOR('',#787,18.0);
#789=LINE('',#786,#788);
#790=EDGE_CURVE('',#287,#758,#789,.T.);
#791=ORIENTED_EDGE('',*,*,#790,.T.);
#792=ORIENTED_EDGE('',*,*,#763,.T.);
#793=EDGE_LOOP('',(#784,#785,#791,#792));
#794=FACE_OUTER_BOUND('',#793,.T.);
#795=ADVANCED_FACE('',(#794),#783,.T.);
#796=CARTESIAN_POINT('',(15.0,-7.000000000000001,0.0));
#797=DIRECTION('',(0.0,-1.0,0.0));
#798=DIRECTION('',(0.0,0.0,-1.0));
#799=AXIS2_PLACEMENT_3D('',#796,#797,#798);
#800=PLANE('',#799);
#801=ORIENTED_EDGE('',*,*,#292,.T.);
#802=ORIENTED_EDGE('',*,*,#267,.T.);
#803=ORIENTED_EDGE('',*,*,#769,.T.);
#804=ORIENTED_EDGE('',*,*,#790,.F.);
#805=EDGE_LOOP('',(#801,#802,#803,#804));
#806=FACE_OUTER_BOUND('',#805,.T.);
#807=ORIENTED_EDGE('',*,*,#345,.T.);
#808=EDGE_LOOP('',(#807));
#809=FACE_BOUND('',#808,.T.);
#810=ORIENTED_EDGE('',*,*,#580,.T.);
#811=EDGE_LOOP('',(#810));
#812=FACE_BOUND('',#811,.T.);
#813=ORIENTED_EDGE('',*,*,#657,.T.);
#814=EDGE_LOOP('',(#813));
#815=FACE_BOUND('',#814,.T.);
#816=ADVANCED_FACE('',(#806,#809,#812,#815),#800,.T.);
#817=CARTESIAN_POINT('',(0.0,7.000000000000001,0.0));
#818=DIRECTION('',(0.0,1.0,0.0));
#819=DIRECTION('',(0.0,0.0,1.0));
#820=AXIS2_PLACEMENT_3D('',#817,#818,#819);
#821=PLANE('',#820);
#822=ORIENTED_EDGE('',*,*,#171,.T.);
#823=ORIENTED_EDGE('',*,*,#306,.T.);
#824=ORIENTED_EDGE('',*,*,#197,.T.);
#825=ORIENTED_EDGE('',*,*,#753,.T.);
#826=EDGE_LOOP('',(#822,#823,#824,#825));
#827=FACE_OUTER_BOUND('',#826,.T.);
#828=ORIENTED_EDGE('',*,*,#91,.T.);
#829=EDGE_LOOP('',(#828));
#830=FACE_BOUND('',#829,.T.);
#831=ADVANCED_FACE('',(#827,#830),#821,.T.);
#832=CLOSED_SHELL('',(#95,#104,#144,#175,#215,#246,#277,#321,#349,#358,#407,#427,#468,#477,#526,#535,#584,#596,#624,#633,#661,#673,#693,#713,#733,#742,#778,#795,#816,#831));
#833=MANIFOLD_SOLID_BREP('',#832);
#834=COLOUR_RGB('Blue Sea',0.007843139581382,0.513725996017456,0.815685987472534);
#835=FILL_AREA_STYLE_COLOUR('Blue Sea',#834);
#836=FILL_AREA_STYLE('Blue Sea',(#835));
#837=SURFACE_STYLE_FILL_AREA(#836);
#838=SURFACE_SIDE_STYLE('Blue Sea',(#837));
#839=SURFACE_STYLE_USAGE(.BOTH.,#838);
#840=PRESENTATION_STYLE_ASSIGNMENT((#839));
#841=STYLED_ITEM('',(#840),#833);
#842=MECHANICAL_DESIGN_GEOMETRIC_PRESENTATION_REPRESENTATION('',(#841),#36);
#843=ADVANCED_BREP_SHAPE_REPRESENTATION('ABSR',(#833),#36);
#844=SHAPE_REPRESENTATION_RELATIONSHIP('SRR','None',#843,#41);
ENDSEC;
END-ISO-10303-21;
