ISO-10303-21;
HEADER;
/****************************************************************
 * Generated by software with PDE/Lib inside                    *
 * PDElib Version v51a, created Thu 12/14/2006                  *
 * International Technegroup Inc. (www.iti-oh.com)              *
 ****************************************************************/
FILE_DESCRIPTION((''),'2;1');
FILE_NAME('D:\\THANG\\2018\\YouTube\\2F\\10FlushSlideDoor\\TopPanelL.stp','2018-03-07T21:07:25',('Administrator'),(''),'Autodesk Inventor 2008','Autodesk Inventor 2008','');
FILE_SCHEMA(('AUTOMOTIVE_DESIGN { 1 0 10303 214 1 1 1 1 }'));
ENDSEC;
DATA;
#5=APPLICATION_CONTEXT('automotive design');
#6=APPLICATION_PROTOCOL_DEFINITION('International Standard','automotive_design',2001,#5);
#7=PRODUCT_CONTEXT('',#5,'mechanical');
#8=PRODUCT('TopPanelL','TopPanelL',$,(#7));
#9=PRODUCT_RELATED_PRODUCT_CATEGORY('part',$,(#8));
#10=PRODUCT_DEFINITION_FORMATION('',$,#8);
#11=PRODUCT_DEFINITION_CONTEXT('part definition',#5,'design');
#12=PRODUCT_DEFINITION('',$,#10,#11);
#18=(NAMED_UNIT(*)PLANE_ANGLE_UNIT()SI_UNIT($,.RADIAN.));
#19=DIMENSIONAL_EXPONENTS(0.0,0.0,0.0,0.0,0.0,0.0,0.0);
#20=PLANE_ANGLE_MEASURE_WITH_UNIT(PLANE_ANGLE_MEASURE(0.017453292500000),#18);
#24=(CONVERSION_BASED_UNIT('DEGREE',#20)NAMED_UNIT(#19)PLANE_ANGLE_UNIT());
#28=(NAMED_UNIT(*)SI_UNIT($,.STERADIAN.)SOLID_ANGLE_UNIT());
#32=(LENGTH_UNIT()NAMED_UNIT(*)SI_UNIT(.MILLI.,.METRE.));
#34=UNCERTAINTY_MEASURE_WITH_UNIT(LENGTH_MEASURE(0.010000000000000),#32,'DISTANCE_ACCURACY_VALUE','');
#36=(GEOMETRIC_REPRESENTATION_CONTEXT(3)GLOBAL_UNCERTAINTY_ASSIGNED_CONTEXT((#34))GLOBAL_UNIT_ASSIGNED_CONTEXT((#24,#28,#32))REPRESENTATION_CONTEXT('None','None'));
#37=AXIS2_PLACEMENT_3D('',#38,#39,#40);
#38=CARTESIAN_POINT('',(0.0,0.0,0.0));
#39=DIRECTION('',(0.0,0.0,1.0));
#40=DIRECTION('',(1.0,0.0,0.0));
#41=SHAPE_REPRESENTATION('',(#37),#36);
#42=PRODUCT_DEFINITION_SHAPE('','',#12);
#43=SHAPE_DEFINITION_REPRESENTATION(#42,#41);
#49=(NAMED_UNIT(*)PLANE_ANGLE_UNIT()SI_UNIT($,.RADIAN.));
#50=DIMENSIONAL_EXPONENTS(0.0,0.0,0.0,0.0,0.0,0.0,0.0);
#51=PLANE_ANGLE_MEASURE_WITH_UNIT(PLANE_ANGLE_MEASURE(0.017453292500000),#49);
#55=(CONVERSION_BASED_UNIT('DEGREE',#51)NAMED_UNIT(#50)PLANE_ANGLE_UNIT());
#59=(NAMED_UNIT(*)SI_UNIT($,.STERADIAN.)SOLID_ANGLE_UNIT());
#63=(LENGTH_UNIT()NAMED_UNIT(*)SI_UNIT(.MILLI.,.METRE.));
#65=UNCERTAINTY_MEASURE_WITH_UNIT(LENGTH_MEASURE(0.000001000000000),#63,'DISTANCE_ACCURACY_VALUE','');
#67=(GEOMETRIC_REPRESENTATION_CONTEXT(3)GLOBAL_UNCERTAINTY_ASSIGNED_CONTEXT((#65))GLOBAL_UNIT_ASSIGNED_CONTEXT((#55,#59,#63))REPRESENTATION_CONTEXT('','3D'));
#68=CARTESIAN_POINT('',(-48.618795026617988,10.0,-364.162950903901730));
#69=DIRECTION('',(-0.707106781186547,0.0,0.707106781186548));
#70=DIRECTION('',(0.707106781186548,0.0,0.707106781186547));
#71=AXIS2_PLACEMENT_3D('',#68,#69,#70);
#72=PLANE('',#71);
#73=CARTESIAN_POINT('',(-48.618795026617988,-10.0,-364.162950903901730));
#74=VERTEX_POINT('',#73);
#75=CARTESIAN_POINT('',(-15.585786437626865,-10.0,-331.129942314910640));
#76=VERTEX_POINT('',#75);
#77=CARTESIAN_POINT('',(-48.618795026617988,-10.0,-364.162950903901730));
#78=DIRECTION('',(0.707106781186548,0.0,0.707106781186547));
#79=VECTOR('',#78,46.715728752538162);
#80=LINE('',#77,#79);
#81=EDGE_CURVE('',#74,#76,#80,.T.);
#82=ORIENTED_EDGE('',*,*,#81,.F.);
#83=CARTESIAN_POINT('',(-48.618795026617988,10.0,-364.162950903901730));
#84=VERTEX_POINT('',#83);
#85=CARTESIAN_POINT('',(-48.618795026617988,10.0,-364.162950903901730));
#86=DIRECTION('',(0.0,-1.0,0.0));
#87=VECTOR('',#86,20.0);
#88=LINE('',#85,#87);
#89=EDGE_CURVE('',#84,#74,#88,.T.);
#90=ORIENTED_EDGE('',*,*,#89,.F.);
#91=CARTESIAN_POINT('',(-15.585786437626865,10.0,-331.129942314910640));
#92=VERTEX_POINT('',#91);
#93=CARTESIAN_POINT('',(-15.585786437626865,10.0,-331.129942314910640));
#94=DIRECTION('',(-0.707106781186548,0.0,-0.707106781186547));
#95=VECTOR('',#94,46.715728752538162);
#96=LINE('',#93,#95);
#97=EDGE_CURVE('',#92,#84,#96,.T.);
#98=ORIENTED_EDGE('',*,*,#97,.F.);
#99=CARTESIAN_POINT('',(-15.585786437626865,10.0,-331.129942314910640));
#100=DIRECTION('',(0.0,-1.0,0.0));
#101=VECTOR('',#100,20.0);
#102=LINE('',#99,#101);
#103=EDGE_CURVE('',#92,#76,#102,.T.);
#104=ORIENTED_EDGE('',*,*,#103,.T.);
#105=EDGE_LOOP('',(#82,#90,#98,#104));
#106=FACE_OUTER_BOUND('',#105,.T.);
#107=ADVANCED_FACE('',(#106),#72,.F.);
#108=CARTESIAN_POINT('',(-16.999999999999957,10.0,-329.715728752537530));
#109=DIRECTION('',(0.0,-1.0,0.0));
#110=DIRECTION('',(1.0,0.0,0.0));
#111=AXIS2_PLACEMENT_3D('',#108,#109,#110);
#112=CYLINDRICAL_SURFACE('',#111,1.999999999999996);
#113=CARTESIAN_POINT('',(-14.999999999999964,-10.0,-329.715728752537530));
#114=VERTEX_POINT('',#113);
#115=CARTESIAN_POINT('',(-16.999999999999957,-10.0,-329.715728752537530));
#116=DIRECTION('',(0.0,-1.0,0.0));
#117=DIRECTION('',(1.0,0.0,0.0));
#118=AXIS2_PLACEMENT_3D('',#115,#116,#117);
#119=CIRCLE('',#118,1.999999999999996);
#120=EDGE_CURVE('',#76,#114,#119,.T.);
#121=ORIENTED_EDGE('',*,*,#120,.F.);
#122=ORIENTED_EDGE('',*,*,#103,.F.);
#123=CARTESIAN_POINT('',(-14.999999999999964,10.0,-329.715728752537530));
#124=VERTEX_POINT('',#123);
#125=CARTESIAN_POINT('',(-16.999999999999957,10.0,-329.715728752537530));
#126=DIRECTION('',(0.0,1.0,0.0));
#127=DIRECTION('',(1.0,0.0,0.0));
#128=AXIS2_PLACEMENT_3D('',#125,#126,#127);
#129=CIRCLE('',#128,1.999999999999996);
#130=EDGE_CURVE('',#124,#92,#129,.T.);
#131=ORIENTED_EDGE('',*,*,#130,.F.);
#132=CARTESIAN_POINT('',(-14.999999999999964,10.0,-329.715728752537530));
#133=DIRECTION('',(0.0,-1.0,0.0));
#134=VECTOR('',#133,20.0);
#135=LINE('',#132,#134);
#136=EDGE_CURVE('',#124,#114,#135,.T.);
#137=ORIENTED_EDGE('',*,*,#136,.T.);
#138=EDGE_LOOP('',(#121,#122,#131,#137));
#139=FACE_OUTER_BOUND('',#138,.T.);
#140=ADVANCED_FACE('',(#139),#112,.T.);
#141=CARTESIAN_POINT('',(-14.999999999999964,10.0,-329.715728752537530));
#142=DIRECTION('',(-1.0,0.0,0.0));
#143=DIRECTION('',(0.0,0.0,1.0));
#144=AXIS2_PLACEMENT_3D('',#141,#142,#143);
#145=PLANE('',#144);
#146=CARTESIAN_POINT('',(-14.999999999999964,-10.0,-17.999999999999936));
#147=VERTEX_POINT('',#146);
#148=CARTESIAN_POINT('',(-14.999999999999964,-10.0,-329.715728752537530));
#149=DIRECTION('',(0.0,0.0,1.0));
#150=VECTOR('',#149,311.715728752537590);
#151=LINE('',#148,#150);
#152=EDGE_CURVE('',#114,#147,#151,.T.);
#153=ORIENTED_EDGE('',*,*,#152,.F.);
#154=ORIENTED_EDGE('',*,*,#136,.F.);
#155=CARTESIAN_POINT('',(-14.999999999999964,10.0,-17.999999999999936));
#156=VERTEX_POINT('',#155);
#157=CARTESIAN_POINT('',(-14.999999999999964,10.0,-17.999999999999936));
#158=DIRECTION('',(0.0,0.0,-1.0));
#159=VECTOR('',#158,311.715728752537590);
#160=LINE('',#157,#159);
#161=EDGE_CURVE('',#156,#124,#160,.T.);
#162=ORIENTED_EDGE('',*,*,#161,.F.);
#163=CARTESIAN_POINT('',(-14.999999999999964,10.0,-17.999999999999936));
#164=DIRECTION('',(0.0,-1.0,0.0));
#165=VECTOR('',#164,20.0);
#166=LINE('',#163,#165);
#167=EDGE_CURVE('',#156,#147,#166,.T.);
#168=ORIENTED_EDGE('',*,*,#167,.T.);
#169=EDGE_LOOP('',(#153,#154,#162,#168));
#170=FACE_OUTER_BOUND('',#169,.T.);
#171=ADVANCED_FACE('',(#170),#145,.F.);
#172=CARTESIAN_POINT('',(-14.999999999999964,10.0,-17.999999999999936));
#173=DIRECTION('',(0.0,0.0,1.0));
#174=DIRECTION('',(1.0,0.0,0.0));
#175=AXIS2_PLACEMENT_3D('',#172,#173,#174);
#176=PLANE('',#175);
#177=CARTESIAN_POINT('',(21.000000000000068,-10.0,-17.999999999999936));
#178=VERTEX_POINT('',#177);
#179=CARTESIAN_POINT('',(-14.999999999999964,-10.0,-17.999999999999936));
#180=DIRECTION('',(1.0,0.0,0.0));
#181=VECTOR('',#180,36.000000000000028);
#182=LINE('',#179,#181);
#183=EDGE_CURVE('',#147,#178,#182,.T.);
#184=ORIENTED_EDGE('',*,*,#183,.F.);
#185=ORIENTED_EDGE('',*,*,#167,.F.);
#186=CARTESIAN_POINT('',(21.000000000000068,10.0,-17.999999999999936));
#187=VERTEX_POINT('',#186);
#188=CARTESIAN_POINT('',(21.000000000000068,10.0,-17.999999999999936));
#189=DIRECTION('',(-1.0,0.0,0.0));
#190=VECTOR('',#189,36.000000000000028);
#191=LINE('',#188,#190);
#192=EDGE_CURVE('',#187,#156,#191,.T.);
#193=ORIENTED_EDGE('',*,*,#192,.F.);
#194=CARTESIAN_POINT('',(21.000000000000068,10.0,-17.999999999999936));
#195=DIRECTION('',(0.0,-1.0,0.0));
#196=VECTOR('',#195,20.0);
#197=LINE('',#194,#196);
#198=EDGE_CURVE('',#187,#178,#197,.T.);
#199=ORIENTED_EDGE('',*,*,#198,.T.);
#200=EDGE_LOOP('',(#184,#185,#193,#199));
#201=FACE_OUTER_BOUND('',#200,.T.);
#202=ADVANCED_FACE('',(#201),#176,.F.);
#203=CARTESIAN_POINT('',(21.000000000000068,10.0,-17.999999999999936));
#204=DIRECTION('',(1.0,0.0,0.0));
#205=DIRECTION('',(0.0,0.0,-1.0));
#206=AXIS2_PLACEMENT_3D('',#203,#204,#205);
#207=PLANE('',#206);
#208=CARTESIAN_POINT('',(21.000000000000085,-10.0,-317.999999999999320));
#209=VERTEX_POINT('',#208);
#210=CARTESIAN_POINT('',(21.000000000000068,-10.0,-17.999999999999936));
#211=DIRECTION('',(0.0,0.0,-1.0));
#212=VECTOR('',#211,299.999999999999370);
#213=LINE('',#210,#212);
#214=EDGE_CURVE('',#178,#209,#213,.T.);
#215=ORIENTED_EDGE('',*,*,#214,.F.);
#216=ORIENTED_EDGE('',*,*,#198,.F.);
#217=CARTESIAN_POINT('',(21.000000000000085,10.0,-317.999999999999320));
#218=VERTEX_POINT('',#217);
#219=CARTESIAN_POINT('',(21.000000000000085,10.0,-317.999999999999320));
#220=DIRECTION('',(0.0,0.0,1.0));
#221=VECTOR('',#220,299.999999999999370);
#222=LINE('',#219,#221);
#223=EDGE_CURVE('',#218,#187,#222,.T.);
#224=ORIENTED_EDGE('',*,*,#223,.F.);
#225=CARTESIAN_POINT('',(21.000000000000085,10.0,-317.999999999999320));
#226=DIRECTION('',(0.0,-1.0,0.0));
#227=VECTOR('',#226,20.0);
#228=LINE('',#225,#227);
#229=EDGE_CURVE('',#218,#209,#228,.T.);
#230=ORIENTED_EDGE('',*,*,#229,.T.);
#231=EDGE_LOOP('',(#215,#216,#224,#230));
#232=FACE_OUTER_BOUND('',#231,.T.);
#233=ADVANCED_FACE('',(#232),#207,.F.);
#234=CARTESIAN_POINT('',(21.000000000000085,10.0,-317.999999999999320));
#235=DIRECTION('',(0.0,0.0,1.0));
#236=DIRECTION('',(1.0,0.0,0.0));
#237=AXIS2_PLACEMENT_3D('',#234,#235,#236);
#238=PLANE('',#237);
#239=CARTESIAN_POINT('',(57.000000000000135,-10.0,-317.999999999999320));
#240=VERTEX_POINT('',#239);
#241=CARTESIAN_POINT('',(21.000000000000085,-10.0,-317.999999999999320));
#242=DIRECTION('',(1.0,0.0,0.0));
#243=VECTOR('',#242,36.000000000000050);
#244=LINE('',#241,#243);
#245=EDGE_CURVE('',#209,#240,#244,.T.);
#246=ORIENTED_EDGE('',*,*,#245,.F.);
#247=ORIENTED_EDGE('',*,*,#229,.F.);
#248=CARTESIAN_POINT('',(57.000000000000135,10.0,-317.999999999999320));
#249=VERTEX_POINT('',#248);
#250=CARTESIAN_POINT('',(57.000000000000135,10.0,-317.999999999999320));
#251=DIRECTION('',(-1.0,0.0,0.0));
#252=VECTOR('',#251,36.000000000000050);
#253=LINE('',#250,#252);
#254=EDGE_CURVE('',#249,#218,#253,.T.);
#255=ORIENTED_EDGE('',*,*,#254,.F.);
#256=CARTESIAN_POINT('',(57.000000000000135,10.0,-317.999999999999320));
#257=DIRECTION('',(0.0,-1.0,0.0));
#258=VECTOR('',#257,20.0);
#259=LINE('',#256,#258);
#260=EDGE_CURVE('',#249,#240,#259,.T.);
#261=ORIENTED_EDGE('',*,*,#260,.T.);
#262=EDGE_LOOP('',(#246,#247,#255,#261));
#263=FACE_OUTER_BOUND('',#262,.T.);
#264=ADVANCED_FACE('',(#263),#238,.F.);
#265=CARTESIAN_POINT('',(57.000000000000135,10.0,-317.999999999999320));
#266=DIRECTION('',(1.0,0.0,0.0));
#267=DIRECTION('',(0.0,0.0,-1.0));
#268=AXIS2_PLACEMENT_3D('',#265,#266,#267);
#269=PLANE('',#268);
#270=CARTESIAN_POINT('',(57.000000000000135,-10.0,-629.715728752537300));
#271=VERTEX_POINT('',#270);
#272=CARTESIAN_POINT('',(57.000000000000135,-10.0,-317.999999999999320));
#273=DIRECTION('',(0.0,0.0,-1.0));
#274=VECTOR('',#273,311.715728752537980);
#275=LINE('',#272,#274);
#276=EDGE_CURVE('',#240,#271,#275,.T.);
#277=ORIENTED_EDGE('',*,*,#276,.F.);
#278=ORIENTED_EDGE('',*,*,#260,.F.);
#279=CARTESIAN_POINT('',(57.000000000000135,10.0,-629.715728752537300));
#280=VERTEX_POINT('',#279);
#281=CARTESIAN_POINT('',(57.000000000000135,10.0,-629.715728752537300));
#282=DIRECTION('',(0.0,0.0,1.0));
#283=VECTOR('',#282,311.715728752537980);
#284=LINE('',#281,#283);
#285=EDGE_CURVE('',#280,#249,#284,.T.);
#286=ORIENTED_EDGE('',*,*,#285,.F.);
#287=CARTESIAN_POINT('',(57.000000000000135,10.0,-629.715728752537300));
#288=DIRECTION('',(0.0,-1.0,0.0));
#289=VECTOR('',#288,20.0);
#290=LINE('',#287,#289);
#291=EDGE_CURVE('',#280,#271,#290,.T.);
#292=ORIENTED_EDGE('',*,*,#291,.T.);
#293=EDGE_LOOP('',(#277,#278,#286,#292));
#294=FACE_OUTER_BOUND('',#293,.T.);
#295=ADVANCED_FACE('',(#294),#269,.F.);
#296=CARTESIAN_POINT('',(19.000000000000092,10.0,-629.715728752537300));
#297=DIRECTION('',(0.0,-1.0,0.0));
#298=DIRECTION('',(-1.0,0.0,0.0));
#299=AXIS2_PLACEMENT_3D('',#296,#297,#298);
#300=CYLINDRICAL_SURFACE('',#299,37.999999999999986);
#301=CARTESIAN_POINT('',(45.870057685088916,-10.0,-656.585786437626100));
#302=VERTEX_POINT('',#301);
#303=CARTESIAN_POINT('',(19.000000000000092,-10.0,-629.715728752537300));
#304=DIRECTION('',(0.0,1.0,0.0));
#305=DIRECTION('',(-1.0,0.0,0.0));
#306=AXIS2_PLACEMENT_3D('',#303,#304,#305);
#307=CIRCLE('',#306,37.999999999999986);
#308=EDGE_CURVE('',#271,#302,#307,.T.);
#309=ORIENTED_EDGE('',*,*,#308,.F.);
#310=ORIENTED_EDGE('',*,*,#291,.F.);
#311=CARTESIAN_POINT('',(45.870057685088916,10.0,-656.585786437626100));
#312=VERTEX_POINT('',#311);
#313=CARTESIAN_POINT('',(19.000000000000092,10.0,-629.715728752537300));
#314=DIRECTION('',(0.0,-1.0,0.0));
#315=DIRECTION('',(-1.0,0.0,0.0));
#316=AXIS2_PLACEMENT_3D('',#313,#314,#315);
#317=CIRCLE('',#316,37.999999999999986);
#318=EDGE_CURVE('',#312,#280,#317,.T.);
#319=ORIENTED_EDGE('',*,*,#318,.F.);
#320=CARTESIAN_POINT('',(45.870057685088916,10.0,-656.585786437626100));
#321=DIRECTION('',(0.0,-1.0,0.0));
#322=VECTOR('',#321,20.0);
#323=LINE('',#320,#322);
#324=EDGE_CURVE('',#312,#302,#323,.T.);
#325=ORIENTED_EDGE('',*,*,#324,.T.);
#326=EDGE_LOOP('',(#309,#310,#319,#325));
#327=FACE_OUTER_BOUND('',#326,.T.);
#328=ADVANCED_FACE('',(#327),#300,.F.);
#329=CARTESIAN_POINT('',(45.870057685088916,10.0,-656.585786437626100));
#330=DIRECTION('',(0.707106781186548,0.0,-0.707106781186547));
#331=DIRECTION('',(-0.707106781186547,0.0,-0.707106781186548));
#332=AXIS2_PLACEMENT_3D('',#329,#330,#331);
#333=PLANE('',#332);
#334=CARTESIAN_POINT('',(12.837049096097779,-10.0,-689.618795026617360));
#335=VERTEX_POINT('',#334);
#336=CARTESIAN_POINT('',(45.870057685088916,-10.0,-656.585786437626100));
#337=DIRECTION('',(-0.707106781186546,0.0,-0.707106781186549));
#338=VECTOR('',#337,46.715728752538297);
#339=LINE('',#336,#338);
#340=EDGE_CURVE('',#302,#335,#339,.T.);
#341=ORIENTED_EDGE('',*,*,#340,.F.);
#342=ORIENTED_EDGE('',*,*,#324,.F.);
#343=CARTESIAN_POINT('',(12.837049096097779,10.0,-689.618795026617360));
#344=VERTEX_POINT('',#343);
#345=CARTESIAN_POINT('',(12.837049096097779,10.0,-689.618795026617360));
#346=DIRECTION('',(0.707106781186546,0.0,0.707106781186549));
#347=VECTOR('',#346,46.715728752538297);
#348=LINE('',#345,#347);
#349=EDGE_CURVE('',#344,#312,#348,.T.);
#350=ORIENTED_EDGE('',*,*,#349,.F.);
#351=CARTESIAN_POINT('',(12.837049096097779,10.0,-689.618795026617360));
#352=DIRECTION('',(0.0,-1.0,0.0));
#353=VECTOR('',#352,20.0);
#354=LINE('',#351,#353);
#355=EDGE_CURVE('',#344,#335,#354,.T.);
#356=ORIENTED_EDGE('',*,*,#355,.T.);
#357=EDGE_LOOP('',(#341,#342,#350,#356));
#358=FACE_OUTER_BOUND('',#357,.T.);
#359=ADVANCED_FACE('',(#358),#333,.F.);
#360=CARTESIAN_POINT('',(12.837049096097779,10.0,-689.618795026617360));
#361=DIRECTION('',(-0.707106781186549,0.0,-0.707106781186547));
#362=DIRECTION('',(-0.707106781186547,0.0,0.707106781186549));
#363=AXIS2_PLACEMENT_3D('',#360,#361,#362);
#364=PLANE('',#363);
#365=CARTESIAN_POINT('',(-12.618795026617953,-10.0,-664.162950903901450));
#366=VERTEX_POINT('',#365);
#367=CARTESIAN_POINT('',(12.837049096097779,-10.0,-689.618795026617360));
#368=DIRECTION('',(-0.707106781186545,0.0,0.707106781186550));
#369=VECTOR('',#368,36.000000000000156);
#370=LINE('',#367,#369);
#371=EDGE_CURVE('',#335,#366,#370,.T.);
#372=ORIENTED_EDGE('',*,*,#371,.F.);
#373=ORIENTED_EDGE('',*,*,#355,.F.);
#374=CARTESIAN_POINT('',(-12.618795026617953,10.0,-664.162950903901450));
#375=VERTEX_POINT('',#374);
#376=CARTESIAN_POINT('',(-12.618795026617953,10.0,-664.162950903901450));
#377=DIRECTION('',(0.707106781186545,0.0,-0.707106781186550));
#378=VECTOR('',#377,36.000000000000156);
#379=LINE('',#376,#378);
#380=EDGE_CURVE('',#375,#344,#379,.T.);
#381=ORIENTED_EDGE('',*,*,#380,.F.);
#382=CARTESIAN_POINT('',(-12.618795026617953,10.0,-664.162950903901450));
#383=DIRECTION('',(0.0,-1.0,0.0));
#384=VECTOR('',#383,20.0);
#385=LINE('',#382,#384);
#386=EDGE_CURVE('',#375,#366,#385,.T.);
#387=ORIENTED_EDGE('',*,*,#386,.T.);
#388=EDGE_LOOP('',(#372,#373,#381,#387));
#389=FACE_OUTER_BOUND('',#388,.T.);
#390=ADVANCED_FACE('',(#389),#364,.F.);
#391=CARTESIAN_POINT('',(-12.618795026617953,10.0,-664.162950903901450));
#392=DIRECTION('',(-0.707106781186548,0.0,0.707106781186548));
#393=DIRECTION('',(0.707106781186548,0.0,0.707106781186548));
#394=AXIS2_PLACEMENT_3D('',#391,#392,#393);
#395=PLANE('',#394);
#396=CARTESIAN_POINT('',(20.414213562373185,-10.0,-631.129942314910410));
#397=VERTEX_POINT('',#396);
#398=CARTESIAN_POINT('',(-12.618795026617953,-10.0,-664.162950903901450));
#399=DIRECTION('',(0.707106781186549,0.0,0.707106781186546));
#400=VECTOR('',#399,46.715728752538134);
#401=LINE('',#398,#400);
#402=EDGE_CURVE('',#366,#397,#401,.T.);
#403=ORIENTED_EDGE('',*,*,#402,.F.);
#404=ORIENTED_EDGE('',*,*,#386,.F.);
#405=CARTESIAN_POINT('',(20.414213562373185,10.0,-631.129942314910410));
#406=VERTEX_POINT('',#405);
#407=CARTESIAN_POINT('',(20.414213562373185,10.0,-631.129942314910410));
#408=DIRECTION('',(-0.707106781186549,0.0,-0.707106781186546));
#409=VECTOR('',#408,46.715728752538134);
#410=LINE('',#407,#409);
#411=EDGE_CURVE('',#406,#375,#410,.T.);
#412=ORIENTED_EDGE('',*,*,#411,.F.);
#413=CARTESIAN_POINT('',(20.414213562373185,10.0,-631.129942314910410));
#414=DIRECTION('',(0.0,-1.0,0.0));
#415=VECTOR('',#414,20.0);
#416=LINE('',#413,#415);
#417=EDGE_CURVE('',#406,#397,#416,.T.);
#418=ORIENTED_EDGE('',*,*,#417,.T.);
#419=EDGE_LOOP('',(#403,#404,#412,#418));
#420=FACE_OUTER_BOUND('',#419,.T.);
#421=ADVANCED_FACE('',(#420),#395,.F.);
#422=CARTESIAN_POINT('',(19.000000000000092,10.0,-629.715728752537300));
#423=DIRECTION('',(0.0,-1.0,0.0));
#424=DIRECTION('',(1.0,0.0,0.0));
#425=AXIS2_PLACEMENT_3D('',#422,#423,#424);
#426=CYLINDRICAL_SURFACE('',#425,1.999999999999992);
#427=CARTESIAN_POINT('',(21.000000000000085,-10.0,-629.715728752537300));
#428=VERTEX_POINT('',#427);
#429=CARTESIAN_POINT('',(19.000000000000092,-10.0,-629.715728752537300));
#430=DIRECTION('',(0.0,-1.0,0.0));
#431=DIRECTION('',(1.0,0.0,0.0));
#432=AXIS2_PLACEMENT_3D('',#429,#430,#431);
#433=CIRCLE('',#432,1.999999999999992);
#434=EDGE_CURVE('',#397,#428,#433,.T.);
#435=ORIENTED_EDGE('',*,*,#434,.F.);
#436=ORIENTED_EDGE('',*,*,#417,.F.);
#437=CARTESIAN_POINT('',(21.000000000000085,10.0,-629.715728752537300));
#438=VERTEX_POINT('',#437);
#439=CARTESIAN_POINT('',(19.000000000000092,10.0,-629.715728752537300));
#440=DIRECTION('',(0.0,1.0,0.0));
#441=DIRECTION('',(1.0,0.0,0.0));
#442=AXIS2_PLACEMENT_3D('',#439,#440,#441);
#443=CIRCLE('',#442,1.999999999999992);
#444=EDGE_CURVE('',#438,#406,#443,.T.);
#445=ORIENTED_EDGE('',*,*,#444,.F.);
#446=CARTESIAN_POINT('',(21.000000000000085,10.0,-629.715728752537300));
#447=DIRECTION('',(0.0,-1.0,0.0));
#448=VECTOR('',#447,20.0);
#449=LINE('',#446,#448);
#450=EDGE_CURVE('',#438,#428,#449,.T.);
#451=ORIENTED_EDGE('',*,*,#450,.T.);
#452=EDGE_LOOP('',(#435,#436,#445,#451));
#453=FACE_OUTER_BOUND('',#452,.T.);
#454=ADVANCED_FACE('',(#453),#426,.T.);
#455=CARTESIAN_POINT('',(21.000000000000085,10.0,-629.715728752537300));
#456=DIRECTION('',(-1.0,0.0,0.0));
#457=DIRECTION('',(0.0,0.0,1.0));
#458=AXIS2_PLACEMENT_3D('',#455,#456,#457);
#459=PLANE('',#458);
#460=CARTESIAN_POINT('',(21.000000000000085,-10.0,-345.455844122714780));
#461=VERTEX_POINT('',#460);
#462=CARTESIAN_POINT('',(21.000000000000085,-10.0,-629.715728752537300));
#463=DIRECTION('',(0.0,0.0,1.0));
#464=VECTOR('',#463,284.259884629822520);
#465=LINE('',#462,#464);
#466=EDGE_CURVE('',#428,#461,#465,.T.);
#467=ORIENTED_EDGE('',*,*,#466,.F.);
#468=ORIENTED_EDGE('',*,*,#450,.F.);
#469=CARTESIAN_POINT('',(21.000000000000085,10.0,-345.455844122714780));
#470=VERTEX_POINT('',#469);
#471=CARTESIAN_POINT('',(21.000000000000085,10.0,-345.455844122714780));
#472=DIRECTION('',(0.0,0.0,-1.0));
#473=VECTOR('',#472,284.259884629822520);
#474=LINE('',#471,#473);
#475=EDGE_CURVE('',#470,#438,#474,.T.);
#476=ORIENTED_EDGE('',*,*,#475,.F.);
#477=CARTESIAN_POINT('',(21.000000000000085,10.0,-345.455844122714780));
#478=DIRECTION('',(0.0,-1.0,0.0));
#479=VECTOR('',#478,20.0);
#480=LINE('',#477,#479);
#481=EDGE_CURVE('',#470,#461,#480,.T.);
#482=ORIENTED_EDGE('',*,*,#481,.T.);
#483=EDGE_LOOP('',(#467,#468,#476,#482));
#484=FACE_OUTER_BOUND('',#483,.T.);
#485=ADVANCED_FACE('',(#484),#459,.F.);
#486=CARTESIAN_POINT('',(21.000000000000085,10.0,-345.455844122714780));
#487=DIRECTION('',(0.707106781186549,0.0,-0.707106781186546));
#488=DIRECTION('',(-0.707106781186546,0.0,-0.707106781186549));
#489=AXIS2_PLACEMENT_3D('',#486,#487,#488);
#490=PLANE('',#489);
#491=CARTESIAN_POINT('',(-23.162950903902253,-10.0,-389.618795026617360));
#492=VERTEX_POINT('',#491);
#493=CARTESIAN_POINT('',(21.000000000000085,-10.0,-345.455844122714780));
#494=DIRECTION('',(-0.707106781186546,0.0,-0.707106781186549));
#495=VECTOR('',#494,62.455844122716002);
#496=LINE('',#493,#495);
#497=EDGE_CURVE('',#461,#492,#496,.T.);
#498=ORIENTED_EDGE('',*,*,#497,.F.);
#499=ORIENTED_EDGE('',*,*,#481,.F.);
#500=CARTESIAN_POINT('',(-23.162950903902253,10.0,-389.618795026617360));
#501=VERTEX_POINT('',#500);
#502=CARTESIAN_POINT('',(-23.162950903902253,10.0,-389.618795026617360));
#503=DIRECTION('',(0.707106781186546,0.0,0.707106781186549));
#504=VECTOR('',#503,62.455844122716002);
#505=LINE('',#502,#504);
#506=EDGE_CURVE('',#501,#470,#505,.T.);
#507=ORIENTED_EDGE('',*,*,#506,.F.);
#508=CARTESIAN_POINT('',(-23.162950903902253,10.0,-389.618795026617360));
#509=DIRECTION('',(0.0,-1.0,0.0));
#510=VECTOR('',#509,20.0);
#511=LINE('',#508,#510);
#512=EDGE_CURVE('',#501,#492,#511,.T.);
#513=ORIENTED_EDGE('',*,*,#512,.T.);
#514=EDGE_LOOP('',(#498,#499,#507,#513));
#515=FACE_OUTER_BOUND('',#514,.T.);
#516=ADVANCED_FACE('',(#515),#490,.F.);
#517=CARTESIAN_POINT('',(-23.162950903902253,10.0,-389.618795026617360));
#518=DIRECTION('',(-0.707106781186547,0.0,-0.707106781186549));
#519=DIRECTION('',(-0.707106781186549,0.0,0.707106781186547));
#520=AXIS2_PLACEMENT_3D('',#517,#518,#519);
#521=PLANE('',#520);
#522=CARTESIAN_POINT('',(-23.162950903902253,-10.0,-389.618795026617360));
#523=DIRECTION('',(-0.707106781186549,0.0,0.707106781186546));
#524=VECTOR('',#523,35.999999999999964);
#525=LINE('',#522,#524);
#526=EDGE_CURVE('',#492,#74,#525,.T.);
#527=ORIENTED_EDGE('',*,*,#526,.F.);
#528=ORIENTED_EDGE('',*,*,#512,.F.);
#529=CARTESIAN_POINT('',(-48.618795026617988,10.0,-364.162950903901730));
#530=DIRECTION('',(0.707106781186549,0.0,-0.707106781186546));
#531=VECTOR('',#530,35.999999999999964);
#532=LINE('',#529,#531);
#533=EDGE_CURVE('',#84,#501,#532,.T.);
#534=ORIENTED_EDGE('',*,*,#533,.F.);
#535=ORIENTED_EDGE('',*,*,#89,.T.);
#536=EDGE_LOOP('',(#527,#528,#534,#535));
#537=FACE_OUTER_BOUND('',#536,.T.);
#538=ADVANCED_FACE('',(#537),#521,.F.);
#539=CARTESIAN_POINT('',(100.0,-10.0,0.0));
#540=DIRECTION('',(1.0,0.0,0.0));
#541=DIRECTION('',(0.0,0.0,-1.0));
#542=AXIS2_PLACEMENT_3D('',#539,#540,#541);
#543=PLANE('',#542);
#544=CARTESIAN_POINT('',(100.0,-10.0,-713.0));
#545=VERTEX_POINT('',#544);
#546=CARTESIAN_POINT('',(100.0,10.0,-713.0));
#547=VERTEX_POINT('',#546);
#548=CARTESIAN_POINT('',(100.0,-10.0,-713.0));
#549=DIRECTION('',(0.0,1.0,0.0));
#550=VECTOR('',#549,20.0);
#551=LINE('',#548,#550);
#552=EDGE_CURVE('',#545,#547,#551,.T.);
#553=ORIENTED_EDGE('',*,*,#552,.T.);
#554=CARTESIAN_POINT('',(100.0,10.0,0.0));
#555=VERTEX_POINT('',#554);
#556=CARTESIAN_POINT('',(100.0,10.0,0.0));
#557=DIRECTION('',(0.0,0.0,-1.0));
#558=VECTOR('',#557,713.0);
#559=LINE('',#556,#558);
#560=EDGE_CURVE('',#555,#547,#559,.T.);
#561=ORIENTED_EDGE('',*,*,#560,.F.);
#562=CARTESIAN_POINT('',(100.0,-10.0,0.0));
#563=VERTEX_POINT('',#562);
#564=CARTESIAN_POINT('',(100.0,-10.0,0.0));
#565=DIRECTION('',(0.0,1.0,0.0));
#566=VECTOR('',#565,20.0);
#567=LINE('',#564,#566);
#568=EDGE_CURVE('',#563,#555,#567,.T.);
#569=ORIENTED_EDGE('',*,*,#568,.F.);
#570=CARTESIAN_POINT('',(100.0,-10.0,0.0));
#571=DIRECTION('',(0.0,0.0,-1.0));
#572=VECTOR('',#571,713.0);
#573=LINE('',#570,#572);
#574=EDGE_CURVE('',#563,#545,#573,.T.);
#575=ORIENTED_EDGE('',*,*,#574,.T.);
#576=EDGE_LOOP('',(#553,#561,#569,#575));
#577=FACE_OUTER_BOUND('',#576,.T.);
#578=ADVANCED_FACE('',(#577),#543,.T.);
#579=CARTESIAN_POINT('',(100.0,10.0,0.0));
#580=DIRECTION('',(0.0,1.0,0.0));
#581=DIRECTION('',(0.0,0.0,1.0));
#582=AXIS2_PLACEMENT_3D('',#579,#580,#581);
#583=PLANE('',#582);
#584=CARTESIAN_POINT('',(-100.0,10.0,-713.0));
#585=VERTEX_POINT('',#584);
#586=CARTESIAN_POINT('',(100.0,10.0,-713.0));
#587=DIRECTION('',(-1.0,0.0,0.0));
#588=VECTOR('',#587,200.0);
#589=LINE('',#586,#588);
#590=EDGE_CURVE('',#547,#585,#589,.T.);
#591=ORIENTED_EDGE('',*,*,#590,.T.);
#592=CARTESIAN_POINT('',(-100.0,10.0,0.0));
#593=VERTEX_POINT('',#592);
#594=CARTESIAN_POINT('',(-100.0,10.0,0.0));
#595=DIRECTION('',(0.0,0.0,-1.0));
#596=VECTOR('',#595,713.0);
#597=LINE('',#594,#596);
#598=EDGE_CURVE('',#593,#585,#597,.T.);
#599=ORIENTED_EDGE('',*,*,#598,.F.);
#600=CARTESIAN_POINT('',(100.0,10.0,0.0));
#601=DIRECTION('',(-1.0,0.0,0.0));
#602=VECTOR('',#601,200.0);
#603=LINE('',#600,#602);
#604=EDGE_CURVE('',#555,#593,#603,.T.);
#605=ORIENTED_EDGE('',*,*,#604,.F.);
#606=ORIENTED_EDGE('',*,*,#560,.T.);
#607=EDGE_LOOP('',(#591,#599,#605,#606));
#608=FACE_OUTER_BOUND('',#607,.T.);
#609=ORIENTED_EDGE('',*,*,#318,.T.);
#610=ORIENTED_EDGE('',*,*,#285,.T.);
#611=ORIENTED_EDGE('',*,*,#254,.T.);
#612=ORIENTED_EDGE('',*,*,#223,.T.);
#613=ORIENTED_EDGE('',*,*,#192,.T.);
#614=ORIENTED_EDGE('',*,*,#161,.T.);
#615=ORIENTED_EDGE('',*,*,#130,.T.);
#616=ORIENTED_EDGE('',*,*,#97,.T.);
#617=ORIENTED_EDGE('',*,*,#533,.T.);
#618=ORIENTED_EDGE('',*,*,#506,.T.);
#619=ORIENTED_EDGE('',*,*,#475,.T.);
#620=ORIENTED_EDGE('',*,*,#444,.T.);
#621=ORIENTED_EDGE('',*,*,#411,.T.);
#622=ORIENTED_EDGE('',*,*,#380,.T.);
#623=ORIENTED_EDGE('',*,*,#349,.T.);
#624=EDGE_LOOP('',(#609,#610,#611,#612,#613,#614,#615,#616,#617,#618,#619,#620,#621,#622,#623));
#625=FACE_BOUND('',#624,.T.);
#626=ADVANCED_FACE('',(#608,#625),#583,.T.);
#627=CARTESIAN_POINT('',(-100.0,10.0,0.0));
#628=DIRECTION('',(-1.0,0.0,0.0));
#629=DIRECTION('',(0.0,0.0,1.0));
#630=AXIS2_PLACEMENT_3D('',#627,#628,#629);
#631=PLANE('',#630);
#632=CARTESIAN_POINT('',(-100.0,-10.0,-713.0));
#633=VERTEX_POINT('',#632);
#634=CARTESIAN_POINT('',(-100.0,10.0,-713.0));
#635=DIRECTION('',(0.0,-1.0,0.0));
#636=VECTOR('',#635,20.0);
#637=LINE('',#634,#636);
#638=EDGE_CURVE('',#585,#633,#637,.T.);
#639=ORIENTED_EDGE('',*,*,#638,.T.);
#640=CARTESIAN_POINT('',(-100.0,-10.0,0.0));
#641=VERTEX_POINT('',#640);
#642=CARTESIAN_POINT('',(-100.0,-10.0,0.0));
#643=DIRECTION('',(0.0,0.0,-1.0));
#644=VECTOR('',#643,713.0);
#645=LINE('',#642,#644);
#646=EDGE_CURVE('',#641,#633,#645,.T.);
#647=ORIENTED_EDGE('',*,*,#646,.F.);
#648=CARTESIAN_POINT('',(-100.0,10.0,0.0));
#649=DIRECTION('',(0.0,-1.0,0.0));
#650=VECTOR('',#649,20.0);
#651=LINE('',#648,#650);
#652=EDGE_CURVE('',#593,#641,#651,.T.);
#653=ORIENTED_EDGE('',*,*,#652,.F.);
#654=ORIENTED_EDGE('',*,*,#598,.T.);
#655=EDGE_LOOP('',(#639,#647,#653,#654));
#656=FACE_OUTER_BOUND('',#655,.T.);
#657=ADVANCED_FACE('',(#656),#631,.T.);
#658=CARTESIAN_POINT('',(-100.0,-10.0,0.0));
#659=DIRECTION('',(0.0,-1.0,0.0));
#660=DIRECTION('',(0.0,0.0,-1.0));
#661=AXIS2_PLACEMENT_3D('',#658,#659,#660);
#662=PLANE('',#661);
#663=CARTESIAN_POINT('',(-100.0,-10.0,-713.0));
#664=DIRECTION('',(1.0,0.0,0.0));
#665=VECTOR('',#664,200.0);
#666=LINE('',#663,#665);
#667=EDGE_CURVE('',#633,#545,#666,.T.);
#668=ORIENTED_EDGE('',*,*,#667,.T.);
#669=ORIENTED_EDGE('',*,*,#574,.F.);
#670=CARTESIAN_POINT('',(-100.0,-10.0,0.0));
#671=DIRECTION('',(1.0,0.0,0.0));
#672=VECTOR('',#671,200.0);
#673=LINE('',#670,#672);
#674=EDGE_CURVE('',#641,#563,#673,.T.);
#675=ORIENTED_EDGE('',*,*,#674,.F.);
#676=ORIENTED_EDGE('',*,*,#646,.T.);
#677=EDGE_LOOP('',(#668,#669,#675,#676));
#678=FACE_OUTER_BOUND('',#677,.T.);
#679=ORIENTED_EDGE('',*,*,#308,.T.);
#680=ORIENTED_EDGE('',*,*,#340,.T.);
#681=ORIENTED_EDGE('',*,*,#371,.T.);
#682=ORIENTED_EDGE('',*,*,#402,.T.);
#683=ORIENTED_EDGE('',*,*,#434,.T.);
#684=ORIENTED_EDGE('',*,*,#466,.T.);
#685=ORIENTED_EDGE('',*,*,#497,.T.);
#686=ORIENTED_EDGE('',*,*,#526,.T.);
#687=ORIENTED_EDGE('',*,*,#81,.T.);
#688=ORIENTED_EDGE('',*,*,#120,.T.);
#689=ORIENTED_EDGE('',*,*,#152,.T.);
#690=ORIENTED_EDGE('',*,*,#183,.T.);
#691=ORIENTED_EDGE('',*,*,#214,.T.);
#692=ORIENTED_EDGE('',*,*,#245,.T.);
#693=ORIENTED_EDGE('',*,*,#276,.T.);
#694=EDGE_LOOP('',(#679,#680,#681,#682,#683,#684,#685,#686,#687,#688,#689,#690,#691,#692,#693));
#695=FACE_BOUND('',#694,.T.);
#696=ADVANCED_FACE('',(#678,#695),#662,.T.);
#697=CARTESIAN_POINT('',(0.0,2.752619E-017,-713.0));
#698=DIRECTION('',(0.0,0.0,1.0));
#699=DIRECTION('',(1.0,0.0,0.0));
#700=AXIS2_PLACEMENT_3D('',#697,#698,#699);
#701=PLANE('',#700);
#702=ORIENTED_EDGE('',*,*,#552,.F.);
#703=ORIENTED_EDGE('',*,*,#667,.F.);
#704=ORIENTED_EDGE('',*,*,#638,.F.);
#705=ORIENTED_EDGE('',*,*,#590,.F.);
#706=EDGE_LOOP('',(#702,#703,#704,#705));
#707=FACE_OUTER_BOUND('',#706,.T.);
#708=ADVANCED_FACE('',(#707),#701,.F.);
#709=CARTESIAN_POINT('',(0.0,-2.752619E-017,0.0));
#710=DIRECTION('',(0.0,0.0,1.0));
#711=DIRECTION('',(1.0,0.0,0.0));
#712=AXIS2_PLACEMENT_3D('',#709,#710,#711);
#713=PLANE('',#712);
#714=ORIENTED_EDGE('',*,*,#674,.T.);
#715=ORIENTED_EDGE('',*,*,#568,.T.);
#716=ORIENTED_EDGE('',*,*,#604,.T.);
#717=ORIENTED_EDGE('',*,*,#652,.T.);
#718=EDGE_LOOP('',(#714,#715,#716,#717));
#719=FACE_OUTER_BOUND('',#718,.T.);
#720=ADVANCED_FACE('',(#719),#713,.T.);
#721=CLOSED_SHELL('',(#107,#140,#171,#202,#233,#264,#295,#328,#359,#390,#421,#454,#485,#516,#538,#578,#626,#657,#696,#708,#720));
#722=MANIFOLD_SOLID_BREP('',#721);
#723=DRAUGHTING_PRE_DEFINED_COLOUR('white');
#724=FILL_AREA_STYLE_COLOUR('White',#723);
#725=FILL_AREA_STYLE('White',(#724));
#726=SURFACE_STYLE_FILL_AREA(#725);
#727=SURFACE_SIDE_STYLE('White',(#726));
#728=SURFACE_STYLE_USAGE(.BOTH.,#727);
#729=PRESENTATION_STYLE_ASSIGNMENT((#728));
#730=STYLED_ITEM('',(#729),#722);
#731=MECHANICAL_DESIGN_GEOMETRIC_PRESENTATION_REPRESENTATION('',(#730),#36);
#732=ADVANCED_BREP_SHAPE_REPRESENTATION('ABSR',(#722),#36);
#733=SHAPE_REPRESENTATION_RELATIONSHIP('SRR','None',#732,#41);
ENDSEC;
END-ISO-10303-21;
