ISO-10303-21;
HEADER;
/* Generated by software containing ST-Developer
 * from STEP Tools, Inc. (www.steptools.com) 
 */

FILE_DESCRIPTION(
/* description */ (''),
/* implementation_level */ '2;1');

FILE_NAME(
/* name */ 'Mazetie.step',
/* time_stamp */ '2025-10-28T17:54:29+05:30',
/* author */ (''),
/* organization */ (''),
/* preprocessor_version */ 'ST-DEVELOPER v20.1',
/* originating_system */ 'Autodesk Translation Framework v14.17.0.0',
/* authorisation */ '');

FILE_SCHEMA (('AUTOMOTIVE_DESIGN { 1 0 10303 214 3 1 1 }'));
ENDSEC;

DATA;
#10=MECHANICAL_DESIGN_GEOMETRIC_PRESENTATION_REPRESENTATION('',(#13),#459);
#11=SHAPE_REPRESENTATION_RELATIONSHIP('SRR','None',#466,#12);
#12=ADVANCED_BREP_SHAPE_REPRESENTATION('',(#14),#458);
#13=STYLED_ITEM('',(#475),#14);
#14=MANIFOLD_SOLID_BREP('Body1',#263);
#15=PLANE('',#280);
#16=PLANE('',#281);
#17=PLANE('',#289);
#18=PLANE('',#292);
#19=PLANE('',#295);
#20=PLANE('',#298);
#21=PLANE('',#299);
#22=PLANE('',#302);
#23=FACE_OUTER_BOUND('',#37,.T.);
#24=FACE_OUTER_BOUND('',#38,.T.);
#25=FACE_OUTER_BOUND('',#39,.T.);
#26=FACE_OUTER_BOUND('',#40,.T.);
#27=FACE_OUTER_BOUND('',#41,.T.);
#28=FACE_OUTER_BOUND('',#42,.T.);
#29=FACE_OUTER_BOUND('',#43,.T.);
#30=FACE_OUTER_BOUND('',#44,.T.);
#31=FACE_OUTER_BOUND('',#45,.T.);
#32=FACE_OUTER_BOUND('',#46,.T.);
#33=FACE_OUTER_BOUND('',#47,.T.);
#34=FACE_OUTER_BOUND('',#48,.T.);
#35=FACE_OUTER_BOUND('',#49,.T.);
#36=FACE_OUTER_BOUND('',#50,.T.);
#37=EDGE_LOOP('',(#171,#172,#173,#174));
#38=EDGE_LOOP('',(#175,#176,#177,#178));
#39=EDGE_LOOP('',(#179,#180,#181,#182,#183,#184,#185,#186,#187,#188,#189,
#190));
#40=EDGE_LOOP('',(#191,#192,#193,#194));
#41=EDGE_LOOP('',(#195,#196,#197,#198));
#42=EDGE_LOOP('',(#199,#200,#201,#202));
#43=EDGE_LOOP('',(#203,#204,#205,#206));
#44=EDGE_LOOP('',(#207,#208,#209,#210));
#45=EDGE_LOOP('',(#211,#212,#213,#214));
#46=EDGE_LOOP('',(#215,#216,#217,#218));
#47=EDGE_LOOP('',(#219,#220,#221,#222));
#48=EDGE_LOOP('',(#223,#224,#225,#226));
#49=EDGE_LOOP('',(#227,#228,#229,#230));
#50=EDGE_LOOP('',(#231,#232,#233,#234,#235,#236,#237,#238,#239,#240,#241,
#242));
#51=LINE('',#387,#75);
#52=LINE('',#390,#76);
#53=LINE('',#393,#77);
#54=LINE('',#395,#78);
#55=LINE('',#396,#79);
#56=LINE('',#399,#80);
#57=LINE('',#403,#81);
#58=LINE('',#407,#82);
#59=LINE('',#411,#83);
#60=LINE('',#415,#84);
#61=LINE('',#421,#85);
#62=LINE('',#422,#86);
#63=LINE('',#425,#87);
#64=LINE('',#426,#88);
#65=LINE('',#431,#89);
#66=LINE('',#432,#90);
#67=LINE('',#434,#91);
#68=LINE('',#438,#92);
#69=LINE('',#441,#93);
#70=LINE('',#442,#94);
#71=LINE('',#446,#95);
#72=LINE('',#448,#96);
#73=LINE('',#451,#97);
#74=LINE('',#452,#98);
#75=VECTOR('',#309,10.);
#76=VECTOR('',#312,10.);
#77=VECTOR('',#315,10.);
#78=VECTOR('',#316,10.);
#79=VECTOR('',#317,10.);
#80=VECTOR('',#320,10.);
#81=VECTOR('',#323,10.);
#82=VECTOR('',#326,10.);
#83=VECTOR('',#329,10.);
#84=VECTOR('',#332,10.);
#85=VECTOR('',#339,10.);
#86=VECTOR('',#340,10.);
#87=VECTOR('',#343,10.);
#88=VECTOR('',#344,10.);
#89=VECTOR('',#349,10.);
#90=VECTOR('',#350,10.);
#91=VECTOR('',#353,10.);
#92=VECTOR('',#358,10.);
#93=VECTOR('',#361,10.);
#94=VECTOR('',#362,10.);
#95=VECTOR('',#367,10.);
#96=VECTOR('',#370,10.);
#97=VECTOR('',#373,10.);
#98=VECTOR('',#374,10.);
#99=CIRCLE('',#278,15.);
#100=CIRCLE('',#279,15.);
#101=CIRCLE('',#282,15.);
#102=CIRCLE('',#283,74.9999999999998);
#103=CIRCLE('',#284,15.);
#104=CIRCLE('',#285,15.);
#105=CIRCLE('',#286,75.);
#106=CIRCLE('',#288,15.);
#107=CIRCLE('',#291,15.);
#108=CIRCLE('',#294,15.);
#109=CIRCLE('',#297,74.9999999999998);
#110=CIRCLE('',#301,75.);
#111=VERTEX_POINT('',#383);
#112=VERTEX_POINT('',#384);
#113=VERTEX_POINT('',#386);
#114=VERTEX_POINT('',#388);
#115=VERTEX_POINT('',#392);
#116=VERTEX_POINT('',#394);
#117=VERTEX_POINT('',#398);
#118=VERTEX_POINT('',#400);
#119=VERTEX_POINT('',#402);
#120=VERTEX_POINT('',#404);
#121=VERTEX_POINT('',#406);
#122=VERTEX_POINT('',#408);
#123=VERTEX_POINT('',#410);
#124=VERTEX_POINT('',#412);
#125=VERTEX_POINT('',#414);
#126=VERTEX_POINT('',#418);
#127=VERTEX_POINT('',#419);
#128=VERTEX_POINT('',#424);
#129=VERTEX_POINT('',#428);
#130=VERTEX_POINT('',#429);
#131=VERTEX_POINT('',#436);
#132=VERTEX_POINT('',#440);
#133=VERTEX_POINT('',#444);
#134=VERTEX_POINT('',#450);
#135=EDGE_CURVE('',#111,#112,#99,.T.);
#136=EDGE_CURVE('',#112,#113,#51,.T.);
#137=EDGE_CURVE('',#113,#114,#100,.T.);
#138=EDGE_CURVE('',#114,#111,#52,.T.);
#139=EDGE_CURVE('',#114,#115,#53,.T.);
#140=EDGE_CURVE('',#115,#116,#54,.T.);
#141=EDGE_CURVE('',#111,#116,#55,.T.);
#142=EDGE_CURVE('',#117,#113,#56,.T.);
#143=EDGE_CURVE('',#118,#117,#101,.T.);
#144=EDGE_CURVE('',#118,#119,#57,.T.);
#145=EDGE_CURVE('',#119,#120,#102,.T.);
#146=EDGE_CURVE('',#120,#121,#58,.T.);
#147=EDGE_CURVE('',#122,#121,#103,.T.);
#148=EDGE_CURVE('',#123,#122,#59,.T.);
#149=EDGE_CURVE('',#124,#123,#104,.T.);
#150=EDGE_CURVE('',#125,#124,#60,.T.);
#151=EDGE_CURVE('',#125,#115,#105,.T.);
#152=EDGE_CURVE('',#126,#127,#106,.T.);
#153=EDGE_CURVE('',#127,#124,#61,.T.);
#154=EDGE_CURVE('',#123,#126,#62,.T.);
#155=EDGE_CURVE('',#128,#122,#63,.T.);
#156=EDGE_CURVE('',#126,#128,#64,.T.);
#157=EDGE_CURVE('',#129,#130,#107,.T.);
#158=EDGE_CURVE('',#130,#118,#65,.T.);
#159=EDGE_CURVE('',#117,#129,#66,.T.);
#160=EDGE_CURVE('',#129,#112,#67,.T.);
#161=EDGE_CURVE('',#131,#128,#108,.T.);
#162=EDGE_CURVE('',#121,#131,#68,.T.);
#163=EDGE_CURVE('',#132,#130,#69,.T.);
#164=EDGE_CURVE('',#119,#132,#70,.T.);
#165=EDGE_CURVE('',#133,#132,#109,.T.);
#166=EDGE_CURVE('',#120,#133,#71,.T.);
#167=EDGE_CURVE('',#131,#133,#72,.T.);
#168=EDGE_CURVE('',#134,#127,#73,.T.);
#169=EDGE_CURVE('',#125,#134,#74,.T.);
#170=EDGE_CURVE('',#116,#134,#110,.T.);
#171=ORIENTED_EDGE('',*,*,#135,.T.);
#172=ORIENTED_EDGE('',*,*,#136,.T.);
#173=ORIENTED_EDGE('',*,*,#137,.T.);
#174=ORIENTED_EDGE('',*,*,#138,.T.);
#175=ORIENTED_EDGE('',*,*,#138,.F.);
#176=ORIENTED_EDGE('',*,*,#139,.T.);
#177=ORIENTED_EDGE('',*,*,#140,.T.);
#178=ORIENTED_EDGE('',*,*,#141,.F.);
#179=ORIENTED_EDGE('',*,*,#137,.F.);
#180=ORIENTED_EDGE('',*,*,#142,.F.);
#181=ORIENTED_EDGE('',*,*,#143,.F.);
#182=ORIENTED_EDGE('',*,*,#144,.T.);
#183=ORIENTED_EDGE('',*,*,#145,.T.);
#184=ORIENTED_EDGE('',*,*,#146,.T.);
#185=ORIENTED_EDGE('',*,*,#147,.F.);
#186=ORIENTED_EDGE('',*,*,#148,.F.);
#187=ORIENTED_EDGE('',*,*,#149,.F.);
#188=ORIENTED_EDGE('',*,*,#150,.F.);
#189=ORIENTED_EDGE('',*,*,#151,.T.);
#190=ORIENTED_EDGE('',*,*,#139,.F.);
#191=ORIENTED_EDGE('',*,*,#152,.T.);
#192=ORIENTED_EDGE('',*,*,#153,.T.);
#193=ORIENTED_EDGE('',*,*,#149,.T.);
#194=ORIENTED_EDGE('',*,*,#154,.T.);
#195=ORIENTED_EDGE('',*,*,#154,.F.);
#196=ORIENTED_EDGE('',*,*,#148,.T.);
#197=ORIENTED_EDGE('',*,*,#155,.F.);
#198=ORIENTED_EDGE('',*,*,#156,.F.);
#199=ORIENTED_EDGE('',*,*,#157,.T.);
#200=ORIENTED_EDGE('',*,*,#158,.T.);
#201=ORIENTED_EDGE('',*,*,#143,.T.);
#202=ORIENTED_EDGE('',*,*,#159,.T.);
#203=ORIENTED_EDGE('',*,*,#136,.F.);
#204=ORIENTED_EDGE('',*,*,#160,.F.);
#205=ORIENTED_EDGE('',*,*,#159,.F.);
#206=ORIENTED_EDGE('',*,*,#142,.T.);
#207=ORIENTED_EDGE('',*,*,#161,.T.);
#208=ORIENTED_EDGE('',*,*,#155,.T.);
#209=ORIENTED_EDGE('',*,*,#147,.T.);
#210=ORIENTED_EDGE('',*,*,#162,.T.);
#211=ORIENTED_EDGE('',*,*,#158,.F.);
#212=ORIENTED_EDGE('',*,*,#163,.F.);
#213=ORIENTED_EDGE('',*,*,#164,.F.);
#214=ORIENTED_EDGE('',*,*,#144,.F.);
#215=ORIENTED_EDGE('',*,*,#145,.F.);
#216=ORIENTED_EDGE('',*,*,#164,.T.);
#217=ORIENTED_EDGE('',*,*,#165,.F.);
#218=ORIENTED_EDGE('',*,*,#166,.F.);
#219=ORIENTED_EDGE('',*,*,#162,.F.);
#220=ORIENTED_EDGE('',*,*,#146,.F.);
#221=ORIENTED_EDGE('',*,*,#166,.T.);
#222=ORIENTED_EDGE('',*,*,#167,.F.);
#223=ORIENTED_EDGE('',*,*,#153,.F.);
#224=ORIENTED_EDGE('',*,*,#168,.F.);
#225=ORIENTED_EDGE('',*,*,#169,.F.);
#226=ORIENTED_EDGE('',*,*,#150,.T.);
#227=ORIENTED_EDGE('',*,*,#151,.F.);
#228=ORIENTED_EDGE('',*,*,#169,.T.);
#229=ORIENTED_EDGE('',*,*,#170,.F.);
#230=ORIENTED_EDGE('',*,*,#140,.F.);
#231=ORIENTED_EDGE('',*,*,#135,.F.);
#232=ORIENTED_EDGE('',*,*,#141,.T.);
#233=ORIENTED_EDGE('',*,*,#170,.T.);
#234=ORIENTED_EDGE('',*,*,#168,.T.);
#235=ORIENTED_EDGE('',*,*,#152,.F.);
#236=ORIENTED_EDGE('',*,*,#156,.T.);
#237=ORIENTED_EDGE('',*,*,#161,.F.);
#238=ORIENTED_EDGE('',*,*,#167,.T.);
#239=ORIENTED_EDGE('',*,*,#165,.T.);
#240=ORIENTED_EDGE('',*,*,#163,.T.);
#241=ORIENTED_EDGE('',*,*,#157,.F.);
#242=ORIENTED_EDGE('',*,*,#160,.T.);
#243=CYLINDRICAL_SURFACE('',#277,15.);
#244=CYLINDRICAL_SURFACE('',#287,15.);
#245=CYLINDRICAL_SURFACE('',#290,15.);
#246=CYLINDRICAL_SURFACE('',#293,15.);
#247=CYLINDRICAL_SURFACE('',#296,74.9999999999998);
#248=CYLINDRICAL_SURFACE('',#300,75.);
#249=ADVANCED_FACE('',(#23),#243,.T.);
#250=ADVANCED_FACE('',(#24),#15,.T.);
#251=ADVANCED_FACE('',(#25),#16,.F.);
#252=ADVANCED_FACE('',(#26),#244,.T.);
#253=ADVANCED_FACE('',(#27),#17,.T.);
#254=ADVANCED_FACE('',(#28),#245,.T.);
#255=ADVANCED_FACE('',(#29),#18,.T.);
#256=ADVANCED_FACE('',(#30),#246,.T.);
#257=ADVANCED_FACE('',(#31),#19,.T.);
#258=ADVANCED_FACE('',(#32),#247,.F.);
#259=ADVANCED_FACE('',(#33),#20,.T.);
#260=ADVANCED_FACE('',(#34),#21,.T.);
#261=ADVANCED_FACE('',(#35),#248,.F.);
#262=ADVANCED_FACE('',(#36),#22,.T.);
#263=CLOSED_SHELL('',(#249,#250,#251,#252,#253,#254,#255,#256,#257,#258,
#259,#260,#261,#262));
#264=DERIVED_UNIT_ELEMENT(#266,1.);
#265=DERIVED_UNIT_ELEMENT(#461,-3.);
#266=(
MASS_UNIT()
NAMED_UNIT(*)
SI_UNIT(.KILO.,.GRAM.)
);
#267=DERIVED_UNIT((#264,#265));
#268=MEASURE_REPRESENTATION_ITEM('density measure',
POSITIVE_RATIO_MEASURE(7850.),#267);
#269=PROPERTY_DEFINITION_REPRESENTATION(#274,#271);
#270=PROPERTY_DEFINITION_REPRESENTATION(#275,#272);
#271=REPRESENTATION('material name',(#273),#458);
#272=REPRESENTATION('density',(#268),#458);
#273=DESCRIPTIVE_REPRESENTATION_ITEM('Steel','Steel');
#274=PROPERTY_DEFINITION('material property','material name',#468);
#275=PROPERTY_DEFINITION('material property','density of part',#468);
#276=AXIS2_PLACEMENT_3D('',#381,#303,#304);
#277=AXIS2_PLACEMENT_3D('',#382,#305,#306);
#278=AXIS2_PLACEMENT_3D('',#385,#307,#308);
#279=AXIS2_PLACEMENT_3D('',#389,#310,#311);
#280=AXIS2_PLACEMENT_3D('',#391,#313,#314);
#281=AXIS2_PLACEMENT_3D('',#397,#318,#319);
#282=AXIS2_PLACEMENT_3D('',#401,#321,#322);
#283=AXIS2_PLACEMENT_3D('',#405,#324,#325);
#284=AXIS2_PLACEMENT_3D('',#409,#327,#328);
#285=AXIS2_PLACEMENT_3D('',#413,#330,#331);
#286=AXIS2_PLACEMENT_3D('',#416,#333,#334);
#287=AXIS2_PLACEMENT_3D('',#417,#335,#336);
#288=AXIS2_PLACEMENT_3D('',#420,#337,#338);
#289=AXIS2_PLACEMENT_3D('',#423,#341,#342);
#290=AXIS2_PLACEMENT_3D('',#427,#345,#346);
#291=AXIS2_PLACEMENT_3D('',#430,#347,#348);
#292=AXIS2_PLACEMENT_3D('',#433,#351,#352);
#293=AXIS2_PLACEMENT_3D('',#435,#354,#355);
#294=AXIS2_PLACEMENT_3D('',#437,#356,#357);
#295=AXIS2_PLACEMENT_3D('',#439,#359,#360);
#296=AXIS2_PLACEMENT_3D('',#443,#363,#364);
#297=AXIS2_PLACEMENT_3D('',#445,#365,#366);
#298=AXIS2_PLACEMENT_3D('',#447,#368,#369);
#299=AXIS2_PLACEMENT_3D('',#449,#371,#372);
#300=AXIS2_PLACEMENT_3D('',#453,#375,#376);
#301=AXIS2_PLACEMENT_3D('',#454,#377,#378);
#302=AXIS2_PLACEMENT_3D('',#455,#379,#380);
#303=DIRECTION('axis',(0.,0.,1.));
#304=DIRECTION('refdir',(1.,0.,0.));
#305=DIRECTION('center_axis',(0.,1.,0.));
#306=DIRECTION('ref_axis',(0.894427190999914,0.,0.447213595499962));
#307=DIRECTION('center_axis',(0.,-1.,0.));
#308=DIRECTION('ref_axis',(0.894427190999914,0.,0.447213595499962));
#309=DIRECTION('',(0.,-1.,0.));
#310=DIRECTION('center_axis',(0.,1.,0.));
#311=DIRECTION('ref_axis',(0.894427190999914,0.,0.447213595499962));
#312=DIRECTION('',(0.,1.,0.));
#313=DIRECTION('center_axis',(0.8,0.,-0.6));
#314=DIRECTION('ref_axis',(-0.6,0.,-0.8));
#315=DIRECTION('',(-0.6,0.,-0.8));
#316=DIRECTION('',(0.,1.,0.));
#317=DIRECTION('',(-0.6,0.,-0.8));
#318=DIRECTION('center_axis',(0.,1.,0.));
#319=DIRECTION('ref_axis',(1.,0.,0.));
#320=DIRECTION('',(1.,0.,0.));
#321=DIRECTION('center_axis',(0.,1.,0.));
#322=DIRECTION('ref_axis',(-0.894427190999923,0.,0.447213595499943));
#323=DIRECTION('',(0.599999999999997,0.,-0.800000000000002));
#324=DIRECTION('center_axis',(0.,1.,0.));
#325=DIRECTION('ref_axis',(0.799999999999998,0.,0.600000000000002));
#326=DIRECTION('',(-0.600000000000001,0.,-0.799999999999999));
#327=DIRECTION('center_axis',(0.,1.,0.));
#328=DIRECTION('ref_axis',(-0.894427190999914,0.,-0.447213595499962));
#329=DIRECTION('',(-1.,0.,0.));
#330=DIRECTION('center_axis',(0.,1.,0.));
#331=DIRECTION('ref_axis',(0.894427190999914,0.,-0.447213595499962));
#332=DIRECTION('',(0.6,0.,-0.8));
#333=DIRECTION('center_axis',(0.,1.,0.));
#334=DIRECTION('ref_axis',(-0.8,0.,-0.6));
#335=DIRECTION('center_axis',(0.,1.,0.));
#336=DIRECTION('ref_axis',(0.894427190999914,0.,-0.447213595499962));
#337=DIRECTION('center_axis',(0.,-1.,0.));
#338=DIRECTION('ref_axis',(0.894427190999914,0.,-0.447213595499962));
#339=DIRECTION('',(0.,-1.,0.));
#340=DIRECTION('',(0.,1.,0.));
#341=DIRECTION('center_axis',(0.,0.,-1.));
#342=DIRECTION('ref_axis',(-1.,0.,0.));
#343=DIRECTION('',(0.,-1.,0.));
#344=DIRECTION('',(-1.,0.,0.));
#345=DIRECTION('center_axis',(0.,1.,0.));
#346=DIRECTION('ref_axis',(-0.894427190999923,0.,0.447213595499943));
#347=DIRECTION('center_axis',(0.,-1.,0.));
#348=DIRECTION('ref_axis',(-0.894427190999923,0.,0.447213595499943));
#349=DIRECTION('',(0.,-1.,0.));
#350=DIRECTION('',(0.,1.,0.));
#351=DIRECTION('center_axis',(0.,0.,1.));
#352=DIRECTION('ref_axis',(1.,0.,0.));
#353=DIRECTION('',(1.,0.,0.));
#354=DIRECTION('center_axis',(0.,1.,0.));
#355=DIRECTION('ref_axis',(-0.894427190999914,0.,-0.447213595499962));
#356=DIRECTION('center_axis',(0.,-1.,0.));
#357=DIRECTION('ref_axis',(-0.894427190999914,0.,-0.447213595499962));
#358=DIRECTION('',(0.,1.,0.));
#359=DIRECTION('center_axis',(-0.800000000000002,0.,-0.599999999999997));
#360=DIRECTION('ref_axis',(-0.599999999999997,0.,0.800000000000002));
#361=DIRECTION('',(-0.599999999999997,0.,0.800000000000002));
#362=DIRECTION('',(0.,1.,0.));
#363=DIRECTION('center_axis',(0.,1.,0.));
#364=DIRECTION('ref_axis',(0.799999999999998,0.,0.600000000000002));
#365=DIRECTION('center_axis',(0.,-1.,0.));
#366=DIRECTION('ref_axis',(0.799999999999998,0.,0.600000000000002));
#367=DIRECTION('',(0.,1.,0.));
#368=DIRECTION('center_axis',(-0.799999999999999,0.,0.600000000000001));
#369=DIRECTION('ref_axis',(0.600000000000001,0.,0.799999999999999));
#370=DIRECTION('',(0.600000000000001,0.,0.799999999999999));
#371=DIRECTION('center_axis',(0.8,0.,0.6));
#372=DIRECTION('ref_axis',(0.6,0.,-0.8));
#373=DIRECTION('',(0.6,0.,-0.8));
#374=DIRECTION('',(0.,1.,0.));
#375=DIRECTION('center_axis',(0.,1.,0.));
#376=DIRECTION('ref_axis',(-0.8,0.,-0.6));
#377=DIRECTION('center_axis',(0.,-1.,0.));
#378=DIRECTION('ref_axis',(-0.8,0.,-0.6));
#379=DIRECTION('center_axis',(0.,1.,0.));
#380=DIRECTION('ref_axis',(1.,0.,0.));
#381=CARTESIAN_POINT('',(0.,0.,0.));
#382=CARTESIAN_POINT('Origin',(-1305.,-125.,-840.));
#383=CARTESIAN_POINT('',(-1293.,-120.,-849.));
#384=CARTESIAN_POINT('',(-1305.,-120.,-825.));
#385=CARTESIAN_POINT('Origin',(-1305.,-120.,-840.));
#386=CARTESIAN_POINT('',(-1305.,-125.,-825.));
#387=CARTESIAN_POINT('',(-1305.,-125.,-825.));
#388=CARTESIAN_POINT('',(-1293.,-125.,-849.));
#389=CARTESIAN_POINT('Origin',(-1305.,-125.,-840.));
#390=CARTESIAN_POINT('',(-1293.,-125.,-849.));
#391=CARTESIAN_POINT('Origin',(-1275.,-125.,-825.));
#392=CARTESIAN_POINT('',(-1316.25,-125.,-880.));
#393=CARTESIAN_POINT('',(-1275.,-125.,-825.));
#394=CARTESIAN_POINT('',(-1316.25,-120.,-880.));
#395=CARTESIAN_POINT('',(-1316.25,-125.,-880.));
#396=CARTESIAN_POINT('',(-1275.,-120.,-825.));
#397=CARTESIAN_POINT('Origin',(-1350.,-125.,-925.));
#398=CARTESIAN_POINT('',(-1395.,-125.,-825.));
#399=CARTESIAN_POINT('',(-1425.,-125.,-825.));
#400=CARTESIAN_POINT('',(-1407.,-125.,-849.));
#401=CARTESIAN_POINT('Origin',(-1395.,-125.,-840.));
#402=CARTESIAN_POINT('',(-1383.75,-125.,-880.));
#403=CARTESIAN_POINT('',(-1425.,-125.,-825.));
#404=CARTESIAN_POINT('',(-1383.75,-125.,-970.));
#405=CARTESIAN_POINT('Origin',(-1443.75,-125.,-925.));
#406=CARTESIAN_POINT('',(-1407.,-125.,-1001.));
#407=CARTESIAN_POINT('',(-1383.75,-125.,-970.));
#408=CARTESIAN_POINT('',(-1395.,-125.,-1025.));
#409=CARTESIAN_POINT('Origin',(-1395.,-125.,-1010.));
#410=CARTESIAN_POINT('',(-1305.,-125.,-1025.));
#411=CARTESIAN_POINT('',(-1275.,-125.,-1025.));
#412=CARTESIAN_POINT('',(-1293.,-125.,-1001.));
#413=CARTESIAN_POINT('Origin',(-1305.,-125.,-1010.));
#414=CARTESIAN_POINT('',(-1316.25,-125.,-970.));
#415=CARTESIAN_POINT('',(-1316.25,-125.,-970.));
#416=CARTESIAN_POINT('Origin',(-1256.25,-125.,-925.));
#417=CARTESIAN_POINT('Origin',(-1305.,-125.,-1010.));
#418=CARTESIAN_POINT('',(-1305.,-120.,-1025.));
#419=CARTESIAN_POINT('',(-1293.,-120.,-1001.));
#420=CARTESIAN_POINT('Origin',(-1305.,-120.,-1010.));
#421=CARTESIAN_POINT('',(-1293.,-125.,-1001.));
#422=CARTESIAN_POINT('',(-1305.,-125.,-1025.));
#423=CARTESIAN_POINT('Origin',(-1275.,-125.,-1025.));
#424=CARTESIAN_POINT('',(-1395.,-120.,-1025.));
#425=CARTESIAN_POINT('',(-1395.,-125.,-1025.));
#426=CARTESIAN_POINT('',(-1275.,-120.,-1025.));
#427=CARTESIAN_POINT('Origin',(-1395.,-125.,-840.));
#428=CARTESIAN_POINT('',(-1395.,-120.,-825.));
#429=CARTESIAN_POINT('',(-1407.,-120.,-849.));
#430=CARTESIAN_POINT('Origin',(-1395.,-120.,-840.));
#431=CARTESIAN_POINT('',(-1407.,-125.,-849.));
#432=CARTESIAN_POINT('',(-1395.,-125.,-825.));
#433=CARTESIAN_POINT('Origin',(-1425.,-125.,-825.));
#434=CARTESIAN_POINT('',(-1425.,-120.,-825.));
#435=CARTESIAN_POINT('Origin',(-1395.,-125.,-1010.));
#436=CARTESIAN_POINT('',(-1407.,-120.,-1001.));
#437=CARTESIAN_POINT('Origin',(-1395.,-120.,-1010.));
#438=CARTESIAN_POINT('',(-1407.,-125.,-1001.));
#439=CARTESIAN_POINT('Origin',(-1383.75,-125.,-880.));
#440=CARTESIAN_POINT('',(-1383.75,-120.,-880.));
#441=CARTESIAN_POINT('',(-1425.,-120.,-825.));
#442=CARTESIAN_POINT('',(-1383.75,-125.,-880.));
#443=CARTESIAN_POINT('Origin',(-1443.75,-125.,-925.));
#444=CARTESIAN_POINT('',(-1383.75,-120.,-970.));
#445=CARTESIAN_POINT('Origin',(-1443.75,-120.,-925.));
#446=CARTESIAN_POINT('',(-1383.75,-125.,-970.));
#447=CARTESIAN_POINT('Origin',(-1425.,-125.,-1025.));
#448=CARTESIAN_POINT('',(-1383.75,-120.,-970.));
#449=CARTESIAN_POINT('Origin',(-1316.25,-125.,-970.));
#450=CARTESIAN_POINT('',(-1316.25,-120.,-970.));
#451=CARTESIAN_POINT('',(-1316.25,-120.,-970.));
#452=CARTESIAN_POINT('',(-1316.25,-125.,-970.));
#453=CARTESIAN_POINT('Origin',(-1256.25,-125.,-925.));
#454=CARTESIAN_POINT('Origin',(-1256.25,-120.,-925.));
#455=CARTESIAN_POINT('Origin',(-1350.,-120.,-925.));
#456=UNCERTAINTY_MEASURE_WITH_UNIT(LENGTH_MEASURE(0.01),#460,
'DISTANCE_ACCURACY_VALUE',
'Maximum model space distance between geometric entities at asserted c
onnectivities');
#457=UNCERTAINTY_MEASURE_WITH_UNIT(LENGTH_MEASURE(0.01),#460,
'DISTANCE_ACCURACY_VALUE',
'Maximum model space distance between geometric entities at asserted c
onnectivities');
#458=(
GEOMETRIC_REPRESENTATION_CONTEXT(3)
GLOBAL_UNCERTAINTY_ASSIGNED_CONTEXT((#456))
GLOBAL_UNIT_ASSIGNED_CONTEXT((#460,#462,#463))
REPRESENTATION_CONTEXT('','3D')
);
#459=(
GEOMETRIC_REPRESENTATION_CONTEXT(3)
GLOBAL_UNCERTAINTY_ASSIGNED_CONTEXT((#457))
GLOBAL_UNIT_ASSIGNED_CONTEXT((#460,#462,#463))
REPRESENTATION_CONTEXT('','3D')
);
#460=(
LENGTH_UNIT()
NAMED_UNIT(*)
SI_UNIT(.MILLI.,.METRE.)
);
#461=(
LENGTH_UNIT()
NAMED_UNIT(*)
SI_UNIT($,.METRE.)
);
#462=(
NAMED_UNIT(*)
PLANE_ANGLE_UNIT()
SI_UNIT($,.RADIAN.)
);
#463=(
NAMED_UNIT(*)
SI_UNIT($,.STERADIAN.)
SOLID_ANGLE_UNIT()
);
#464=SHAPE_DEFINITION_REPRESENTATION(#465,#466);
#465=PRODUCT_DEFINITION_SHAPE('',$,#468);
#466=SHAPE_REPRESENTATION('',(#276),#458);
#467=PRODUCT_DEFINITION_CONTEXT('part definition',#472,'design');
#468=PRODUCT_DEFINITION('FusionComponent','FusionComponent',#469,#467);
#469=PRODUCT_DEFINITION_FORMATION('',$,#474);
#470=PRODUCT_RELATED_PRODUCT_CATEGORY('FusionComponent',
'FusionComponent',(#474));
#471=APPLICATION_PROTOCOL_DEFINITION('international standard',
'automotive_design',2009,#472);
#472=APPLICATION_CONTEXT(
'Core Data for Automotive Mechanical Design Process');
#473=PRODUCT_CONTEXT('part definition',#472,'mechanical');
#474=PRODUCT('FusionComponent','FusionComponent',$,(#473));
#475=PRESENTATION_STYLE_ASSIGNMENT((#476));
#476=SURFACE_STYLE_USAGE(.BOTH.,#477);
#477=SURFACE_SIDE_STYLE('',(#478));
#478=SURFACE_STYLE_FILL_AREA(#479);
#479=FILL_AREA_STYLE('Steel - Satin',(#480));
#480=FILL_AREA_STYLE_COLOUR('Steel - Satin',#481);
#481=COLOUR_RGB('Steel - Satin',0.627450980392157,0.627450980392157,0.627450980392157);
ENDSEC;
END-ISO-10303-21;
