ISO-10303-21;
HEADER;
FILE_DESCRIPTION (( 'STEP AP214' ),
    '1' );
FILE_NAME ('684ZZBearing.STEP',
    '2025-11-14T15:49:08',
    ( '' ),
    ( '' ),
    'SwSTEP 2.0',
    'SolidWorks 2025',
    '' );
FILE_SCHEMA (( 'AUTOMOTIVE_DESIGN' ));
ENDSEC;

DATA;
#1 = FACE_OUTER_BOUND ( 'NONE', #146, .T. ) ;
#2 = FACE_OUTER_BOUND ( 'NONE', #123, .T. ) ;
#3 = DIRECTION ( 'NONE',  ( -0.000000000000000000, -1.000000000000000000, -0.000000000000000000 ) ) ;
#4 = EDGE_CURVE ( 'NONE', #141, #168, #81, .T. ) ;
#5 = AXIS2_PLACEMENT_3D ( 'NONE', #67, #64, #132 ) ;
#6 = AXIS2_PLACEMENT_3D ( 'NONE', #56, #37, #84 ) ;
#7 = DIRECTION ( 'NONE',  ( 0.000000000000000000, 1.000000000000000000, 0.000000000000000000 ) ) ;
#8 = VERTEX_POINT ( 'NONE', #21 ) ;
#9 = LINE ( 'NONE', #112, #41 ) ;
#10 = APPLICATION_PROTOCOL_DEFINITION ( 'draft international standard', 'automotive_design', 1998, #151 ) ;
#11 = CARTESIAN_POINT ( 'NONE',  ( 0.000000000000000000, 4.000000000000000000, -2.000000000000000000 ) ) ;
#12 = ORIENTED_EDGE ( 'NONE', *, *, #159, .T. ) ;
#13 = STYLED_ITEM ( 'NONE', ( #177 ), #51 ) ;
#14 = ORIENTED_EDGE ( 'NONE', *, *, #184, .F. ) ;
#15 = ORIENTED_EDGE ( 'NONE', *, *, #105, .F. ) ;
#16 = CARTESIAN_POINT ( 'NONE',  ( 0.000000000000000000, 0.000000000000000000, 0.000000000000000000 ) ) ;
#17 = CARTESIAN_POINT ( 'NONE',  ( 2.449293598294706414E-16, 0.000000000000000000, 2.000000000000000000 ) ) ;
#18 = PRODUCT ( '684ZZBearing', '684ZZBearing', '', ( #157 ) ) ;
#19 = CARTESIAN_POINT ( 'NONE',  ( 0.000000000000000000, 0.000000000000000000, -2.000000000000000000 ) ) ;
#20 = DIRECTION ( 'NONE',  ( 0.000000000000000000, 0.000000000000000000, 1.000000000000000000 ) ) ;
#21 = CARTESIAN_POINT ( 'NONE',  ( 0.000000000000000000, 4.000000000000000000, -2.000000000000000000 ) ) ;
#22 = AXIS2_PLACEMENT_3D ( 'NONE', #122, #20, #82 ) ;
#23 = DIRECTION ( 'NONE',  ( 0.000000000000000000, 0.000000000000000000, 1.000000000000000000 ) ) ;
#24 = DIRECTION ( 'NONE',  ( 0.000000000000000000, 0.000000000000000000, 1.000000000000000000 ) ) ;
#25 = ORIENTED_EDGE ( 'NONE', *, *, #137, .T. ) ;
#26 = EDGE_LOOP ( 'NONE', ( #165, #88 ) ) ;
#27 = ORIENTED_EDGE ( 'NONE', *, *, #86, .F. ) ;
#28 = CARTESIAN_POINT ( 'NONE',  ( 0.000000000000000000, 0.000000000000000000, 0.000000000000000000 ) ) ;
#29 = CIRCLE ( 'NONE', #59, 4.500000000000000000 ) ;
#30 = ORIENTED_EDGE ( 'NONE', *, *, #58, .F. ) ;
#31 = CARTESIAN_POINT ( 'NONE',  ( 0.000000000000000000, 4.000000000000000000, 0.000000000000000000 ) ) ;
#32 = AXIS2_PLACEMENT_3D ( 'NONE', #134, #125, #109 ) ;
#33 = DIRECTION ( 'NONE',  ( 0.000000000000000000, 0.000000000000000000, 1.000000000000000000 ) ) ;
#34 =( NAMED_UNIT ( * ) PLANE_ANGLE_UNIT ( ) SI_UNIT ( $, .RADIAN. ) );
#35 =( LENGTH_UNIT ( ) NAMED_UNIT ( * ) SI_UNIT ( .MILLI., .METRE. ) );
#36 =( NAMED_UNIT ( * ) PLANE_ANGLE_UNIT ( ) SI_UNIT ( $, .RADIAN. ) );
#37 = DIRECTION ( 'NONE',  ( 0.000000000000000000, 1.000000000000000000, 0.000000000000000000 ) ) ;
#38 = ADVANCED_FACE ( 'NONE', ( #55 ), #111, .T. ) ;
#39 =( GEOMETRIC_REPRESENTATION_CONTEXT ( 3 ) GLOBAL_UNCERTAINTY_ASSIGNED_CONTEXT ( ( #62 ) ) GLOBAL_UNIT_ASSIGNED_CONTEXT ( ( #139, #34, #107 ) ) REPRESENTATION_CONTEXT ( 'NONE', 'WORKASPACE' ) );
#40 = CARTESIAN_POINT ( 'NONE',  ( 0.000000000000000000, 4.000000000000000000, 0.000000000000000000 ) ) ;
#41 = VECTOR ( 'NONE', #72, 1000.000000000000000 ) ;
#42 = EDGE_CURVE ( 'NONE', #194, #130, #181, .T. ) ;
#43 = CLOSED_SHELL ( 'NONE', ( #116, #135, #190, #173, #38, #153 ) ) ;
#44 = PRODUCT_DEFINITION_SHAPE ( 'NONE', 'NONE',  #179 ) ;
#45 = VERTEX_POINT ( 'NONE', #175 ) ;
#46 = EDGE_LOOP ( 'NONE', ( #150, #171, #47, #12 ) ) ;
#47 = ORIENTED_EDGE ( 'NONE', *, *, #71, .T. ) ;
#48 = FACE_OUTER_BOUND ( 'NONE', #26, .T. ) ;
#49 = AXIS2_PLACEMENT_3D ( 'NONE', #180, #70, #198 ) ;
#50 = VERTEX_POINT ( 'NONE', #110 ) ;
#51 = MANIFOLD_SOLID_BREP ( 'Boss-Extrude1', #43 ) ;
#52 = DIRECTION ( 'NONE',  ( 0.000000000000000000, 1.000000000000000000, 0.000000000000000000 ) ) ;
#53 = EDGE_LOOP ( 'NONE', ( #74, #97 ) ) ;
#54 = PRODUCT_DEFINITION_FORMATION_WITH_SPECIFIED_SOURCE ( 'ANY', '', #18, .NOT_KNOWN. ) ;
#55 = FACE_OUTER_BOUND ( 'NONE', #46, .T. ) ;
#56 = CARTESIAN_POINT ( 'NONE',  ( 0.000000000000000000, 4.000000000000000000, 0.000000000000000000 ) ) ;
#57 = LINE ( 'NONE', #197, #191 ) ;
#58 = EDGE_CURVE ( 'NONE', #45, #8, #161, .T. ) ;
#59 = AXIS2_PLACEMENT_3D ( 'NONE', #28, #155, #33 ) ;
#60 = DIRECTION ( 'NONE',  ( -0.000000000000000000, -1.000000000000000000, -0.000000000000000000 ) ) ;
#61 = EDGE_CURVE ( 'NONE', #130, #170, #9, .T. ) ;
#62 = UNCERTAINTY_MEASURE_WITH_UNIT (LENGTH_MEASURE( 1.000000000000000082E-05 ), #139, 'distance_accuracy_value', 'NONE');
#63 = DIRECTION ( 'NONE',  ( 0.000000000000000000, 1.000000000000000000, 0.000000000000000000 ) ) ;
#64 = DIRECTION ( 'NONE',  ( 0.000000000000000000, 1.000000000000000000, 0.000000000000000000 ) ) ;
#65 = CARTESIAN_POINT ( 'NONE',  ( 5.510910596163088569E-16, 4.000000000000000000, 4.500000000000000000 ) ) ;
#66 = FACE_OUTER_BOUND ( 'NONE', #53, .T. ) ;
#67 = CARTESIAN_POINT ( 'NONE',  ( 0.000000000000000000, 0.000000000000000000, 0.000000000000000000 ) ) ;
#68 = DIRECTION ( 'NONE',  ( 0.000000000000000000, 0.000000000000000000, -1.000000000000000000 ) ) ;
#69 = AXIS2_PLACEMENT_3D ( 'NONE', #189, #63, #119 ) ;
#70 = DIRECTION ( 'NONE',  ( 0.000000000000000000, 1.000000000000000000, 0.000000000000000000 ) ) ;
#71 = EDGE_CURVE ( 'NONE', #194, #50, #57, .T. ) ;
#72 = DIRECTION ( 'NONE',  ( -0.000000000000000000, -1.000000000000000000, -0.000000000000000000 ) ) ;
#73 = SURFACE_SIDE_STYLE ('',( #142 ) ) ;
#74 = ORIENTED_EDGE ( 'NONE', *, *, #159, .F. ) ;
#75 = UNCERTAINTY_MEASURE_WITH_UNIT (LENGTH_MEASURE( 1.000000000000000082E-05 ), #35, 'distance_accuracy_value', 'NONE');
#76 = AXIS2_PLACEMENT_3D ( 'NONE', #158, #140, #23 ) ;
#77 = EDGE_LOOP ( 'NONE', ( #90, #152, #148, #186 ) ) ;
#78 = DIRECTION ( 'NONE',  ( 0.000000000000000000, 0.000000000000000000, 1.000000000000000000 ) ) ;
#79 = CARTESIAN_POINT ( 'NONE',  ( 0.000000000000000000, 4.000000000000000000, -4.500000000000000000 ) ) ;
#80 = APPLICATION_PROTOCOL_DEFINITION ( 'draft international standard', 'automotive_design', 1998, #113 ) ;
#81 = CIRCLE ( 'NONE', #121, 2.000000000000000000 ) ;
#82 = DIRECTION ( 'NONE',  ( 1.000000000000000000, 0.000000000000000000, 0.000000000000000000 ) ) ;
#83 = SURFACE_STYLE_USAGE ( .BOTH. , #73 ) ;
#84 = DIRECTION ( 'NONE',  ( 0.000000000000000000, 0.000000000000000000, 1.000000000000000000 ) ) ;
#85 = EDGE_LOOP ( 'NONE', ( #27, #30 ) ) ;
#86 = EDGE_CURVE ( 'NONE', #8, #45, #127, .T. ) ;
#87 = SHAPE_DEFINITION_REPRESENTATION ( #44, #185 ) ;
#88 = ORIENTED_EDGE ( 'NONE', *, *, #89, .T. ) ;
#89 = EDGE_CURVE ( 'NONE', #130, #194, #91, .T. ) ;
#90 = ORIENTED_EDGE ( 'NONE', *, *, #89, .F. ) ;
#91 = CIRCLE ( 'NONE', #196, 4.500000000000000000 ) ;
#92 = CYLINDRICAL_SURFACE ( 'NONE', #117, 4.500000000000000000 ) ;
#93 = EDGE_LOOP ( 'NONE', ( #25, #131 ) ) ;
#94 = ORIENTED_EDGE ( 'NONE', *, *, #105, .T. ) ;
#95 = DIRECTION ( 'NONE',  ( 0.000000000000000000, -0.000000000000000000, 1.000000000000000000 ) ) ;
#96 = PRESENTATION_LAYER_ASSIGNMENT (  '', '', ( #13 ) ) ;
#97 = ORIENTED_EDGE ( 'NONE', *, *, #124, .F. ) ;
#98 = DIRECTION ( 'NONE',  ( -0.000000000000000000, -1.000000000000000000, -0.000000000000000000 ) ) ;
#99 = CARTESIAN_POINT ( 'NONE',  ( 0.000000000000000000, 0.000000000000000000, 0.000000000000000000 ) ) ;
#100 = CARTESIAN_POINT ( 'NONE',  ( 0.000000000000000000, 4.000000000000000000, 0.000000000000000000 ) ) ;
#101 = DIRECTION ( 'NONE',  ( -0.000000000000000000, -1.000000000000000000, -0.000000000000000000 ) ) ;
#102 = MECHANICAL_DESIGN_GEOMETRIC_PRESENTATION_REPRESENTATION (  '', ( #13 ), #118 ) ;
#103 = DIRECTION ( 'NONE',  ( 0.000000000000000000, 1.000000000000000000, 0.000000000000000000 ) ) ;
#104 = CARTESIAN_POINT ( 'NONE',  ( 5.510910596163088569E-16, 0.000000000000000000, 4.500000000000000000 ) ) ;
#105 = EDGE_CURVE ( 'NONE', #8, #168, #163, .T. ) ;
#106 = FACE_BOUND ( 'NONE', #85, .T. ) ;
#107 =( NAMED_UNIT ( * ) SI_UNIT ( $, .STERADIAN. ) SOLID_ANGLE_UNIT ( ) );
#108 = LINE ( 'NONE', #188, #176 ) ;
#109 = DIRECTION ( 'NONE',  ( 0.000000000000000000, 0.000000000000000000, -1.000000000000000000 ) ) ;
#110 = CARTESIAN_POINT ( 'NONE',  ( 0.000000000000000000, 0.000000000000000000, -4.500000000000000000 ) ) ;
#111 = CYLINDRICAL_SURFACE ( 'NONE', #114, 4.500000000000000000 ) ;
#112 = CARTESIAN_POINT ( 'NONE',  ( 5.510910596163088569E-16, 4.000000000000000000, 4.500000000000000000 ) ) ;
#113 = APPLICATION_CONTEXT ( 'automotive_design' ) ;
#114 = AXIS2_PLACEMENT_3D ( 'NONE', #100, #101, #68 ) ;
#115 = DIRECTION ( 'NONE',  ( 0.000000000000000000, 1.000000000000000000, 0.000000000000000000 ) ) ;
#116 = ADVANCED_FACE ( 'NONE', ( #1 ), #149, .F. ) ;
#117 = AXIS2_PLACEMENT_3D ( 'NONE', #154, #3, #147 ) ;
#118 =( GEOMETRIC_REPRESENTATION_CONTEXT ( 3 ) GLOBAL_UNCERTAINTY_ASSIGNED_CONTEXT ( ( #75 ) ) GLOBAL_UNIT_ASSIGNED_CONTEXT ( ( #35, #36, #128 ) ) REPRESENTATION_CONTEXT ( 'NONE', 'WORKASPACE' ) );
#119 = DIRECTION ( 'NONE',  ( 0.000000000000000000, -0.000000000000000000, 1.000000000000000000 ) ) ;
#120 = FACE_BOUND ( 'NONE', #93, .T. ) ;
#121 = AXIS2_PLACEMENT_3D ( 'NONE', #99, #115, #156 ) ;
#122 = CARTESIAN_POINT ( 'NONE',  ( 0.000000000000000000, 0.000000000000000000, 0.000000000000000000 ) ) ;
#123 = EDGE_LOOP ( 'NONE', ( #14, #166, #94, #187 ) ) ;
#124 = EDGE_CURVE ( 'NONE', #170, #50, #29, .T. ) ;
#125 = DIRECTION ( 'NONE',  ( -0.000000000000000000, -1.000000000000000000, -0.000000000000000000 ) ) ;
#126 = FILL_AREA_STYLE_COLOUR ( '', #182 ) ;
#127 = CIRCLE ( 'NONE', #6, 2.000000000000000000 ) ;
#128 =( NAMED_UNIT ( * ) SI_UNIT ( $, .STERADIAN. ) SOLID_ANGLE_UNIT ( ) );
#129 = AXIS2_PLACEMENT_3D ( 'NONE', #16, #7, #78 ) ;
#130 = VERTEX_POINT ( 'NONE', #65 ) ;
#131 = ORIENTED_EDGE ( 'NONE', *, *, #4, .T. ) ;
#132 = DIRECTION ( 'NONE',  ( 0.000000000000000000, 0.000000000000000000, 1.000000000000000000 ) ) ;
#133 = AXIS2_PLACEMENT_3D ( 'NONE', #31, #52, #95 ) ;
#134 = CARTESIAN_POINT ( 'NONE',  ( 0.000000000000000000, 4.000000000000000000, 0.000000000000000000 ) ) ;
#135 = ADVANCED_FACE ( 'NONE', ( #195 ), #92, .T. ) ;
#136 = AXIS2_PLACEMENT_3D ( 'NONE', #138, #193, #172 ) ;
#137 = EDGE_CURVE ( 'NONE', #168, #141, #164, .T. ) ;
#138 = CARTESIAN_POINT ( 'NONE',  ( 0.000000000000000000, 4.000000000000000000, 0.000000000000000000 ) ) ;
#139 =( LENGTH_UNIT ( ) NAMED_UNIT ( * ) SI_UNIT ( .MILLI., .METRE. ) );
#140 = DIRECTION ( 'NONE',  ( 0.000000000000000000, 1.000000000000000000, 0.000000000000000000 ) ) ;
#141 = VERTEX_POINT ( 'NONE', #17 ) ;
#142 = SURFACE_STYLE_FILL_AREA ( #178 ) ;
#143 = ORIENTED_EDGE ( 'NONE', *, *, #86, .T. ) ;
#144 = ORIENTED_EDGE ( 'NONE', *, *, #184, .T. ) ;
#145 = VECTOR ( 'NONE', #60, 1000.000000000000000 ) ;
#146 = EDGE_LOOP ( 'NONE', ( #143, #144, #192, #15 ) ) ;
#147 = DIRECTION ( 'NONE',  ( 0.000000000000000000, 0.000000000000000000, -1.000000000000000000 ) ) ;
#148 = ORIENTED_EDGE ( 'NONE', *, *, #124, .T. ) ;
#149 = CYLINDRICAL_SURFACE ( 'NONE', #136, 2.000000000000000000 ) ;
#150 = ORIENTED_EDGE ( 'NONE', *, *, #61, .F. ) ;
#151 = APPLICATION_CONTEXT ( 'automotive_design' ) ;
#152 = ORIENTED_EDGE ( 'NONE', *, *, #61, .T. ) ;
#153 = ADVANCED_FACE ( 'NONE', ( #2 ), #174, .F. ) ;
#154 = CARTESIAN_POINT ( 'NONE',  ( 0.000000000000000000, 4.000000000000000000, 0.000000000000000000 ) ) ;
#155 = DIRECTION ( 'NONE',  ( 0.000000000000000000, 1.000000000000000000, 0.000000000000000000 ) ) ;
#156 = DIRECTION ( 'NONE',  ( 0.000000000000000000, 0.000000000000000000, 1.000000000000000000 ) ) ;
#157 = PRODUCT_CONTEXT ( 'NONE', #113, 'mechanical' ) ;
#158 = CARTESIAN_POINT ( 'NONE',  ( 0.000000000000000000, 4.000000000000000000, 0.000000000000000000 ) ) ;
#159 = EDGE_CURVE ( 'NONE', #50, #170, #160, .T. ) ;
#160 = CIRCLE ( 'NONE', #5, 4.500000000000000000 ) ;
#161 = CIRCLE ( 'NONE', #76, 2.000000000000000000 ) ;
#162 = PRODUCT_RELATED_PRODUCT_CATEGORY ( 'part', '', ( #18 ) ) ;
#163 = LINE ( 'NONE', #11, #145 ) ;
#164 = CIRCLE ( 'NONE', #129, 2.000000000000000000 ) ;
#165 = ORIENTED_EDGE ( 'NONE', *, *, #42, .T. ) ;
#166 = ORIENTED_EDGE ( 'NONE', *, *, #58, .T. ) ;
#167 = PLANE ( 'NONE',  #69 ) ;
#168 = VERTEX_POINT ( 'NONE', #19 ) ;
#169 = PLANE ( 'NONE',  #133 ) ;
#170 = VERTEX_POINT ( 'NONE', #104 ) ;
#171 = ORIENTED_EDGE ( 'NONE', *, *, #42, .F. ) ;
#172 = DIRECTION ( 'NONE',  ( 0.000000000000000000, 0.000000000000000000, -1.000000000000000000 ) ) ;
#173 = ADVANCED_FACE ( 'NONE', ( #66, #120 ), #167, .F. ) ;
#174 = CYLINDRICAL_SURFACE ( 'NONE', #32, 2.000000000000000000 ) ;
#175 = CARTESIAN_POINT ( 'NONE',  ( 2.449293598294706414E-16, 4.000000000000000000, 2.000000000000000000 ) ) ;
#176 = VECTOR ( 'NONE', #98, 1000.000000000000000 ) ;
#177 = PRESENTATION_STYLE_ASSIGNMENT (( #83 ) ) ;
#178 = FILL_AREA_STYLE ('',( #126 ) ) ;
#179 = PRODUCT_DEFINITION ( 'UNKNOWN', '', #54, #183 ) ;
#180 = CARTESIAN_POINT ( 'NONE',  ( 0.000000000000000000, 4.000000000000000000, 0.000000000000000000 ) ) ;
#181 = CIRCLE ( 'NONE', #49, 4.500000000000000000 ) ;
#182 = COLOUR_RGB ( '',0.7921568627450980005, 0.8196078431372548767, 0.9333333333333333481 ) ;
#183 = PRODUCT_DEFINITION_CONTEXT ( 'detailed design', #151, 'design' ) ;
#184 = EDGE_CURVE ( 'NONE', #45, #141, #108, .T. ) ;
#185 = ADVANCED_BREP_SHAPE_REPRESENTATION ( '684ZZBearing', ( #51, #22 ), #39 ) ;
#186 = ORIENTED_EDGE ( 'NONE', *, *, #71, .F. ) ;
#187 = ORIENTED_EDGE ( 'NONE', *, *, #4, .F. ) ;
#188 = CARTESIAN_POINT ( 'NONE',  ( 2.449293598294706414E-16, 4.000000000000000000, 2.000000000000000000 ) ) ;
#189 = CARTESIAN_POINT ( 'NONE',  ( 0.000000000000000000, 0.000000000000000000, 0.000000000000000000 ) ) ;
#190 = ADVANCED_FACE ( 'NONE', ( #48, #106 ), #169, .T. ) ;
#191 = VECTOR ( 'NONE', #199, 1000.000000000000000 ) ;
#192 = ORIENTED_EDGE ( 'NONE', *, *, #137, .F. ) ;
#193 = DIRECTION ( 'NONE',  ( -0.000000000000000000, -1.000000000000000000, -0.000000000000000000 ) ) ;
#194 = VERTEX_POINT ( 'NONE', #79 ) ;
#195 = FACE_OUTER_BOUND ( 'NONE', #77, .T. ) ;
#196 = AXIS2_PLACEMENT_3D ( 'NONE', #40, #103, #24 ) ;
#197 = CARTESIAN_POINT ( 'NONE',  ( 0.000000000000000000, 4.000000000000000000, -4.500000000000000000 ) ) ;
#198 = DIRECTION ( 'NONE',  ( 0.000000000000000000, 0.000000000000000000, 1.000000000000000000 ) ) ;
#199 = DIRECTION ( 'NONE',  ( -0.000000000000000000, -1.000000000000000000, -0.000000000000000000 ) ) ;
ENDSEC;
END-ISO-10303-21;
